<svg width="32" height="33" viewBox="0 0 32 33" fill="none" xmlns="http://www.w3.org/2000/svg">
<path fill-rule="evenodd" clip-rule="evenodd" d="M2.96875 13.2359C2.96875 12.7389 3.37169 12.3359 3.86875 12.3359H8.39675C8.89381 12.3359 9.29675 12.7389 9.29675 13.2359C9.29675 13.733 8.89381 14.1359 8.39675 14.1359H4.76875V26.8879H27.2328V14.1359H23.9248C23.4277 14.1359 23.0248 13.733 23.0248 13.2359C23.0248 12.7389 23.4277 12.3359 23.9248 12.3359H28.1328C28.6298 12.3359 29.0328 12.7389 29.0328 13.2359V27.7879C29.0328 28.285 28.6298 28.6879 28.1328 28.6879H3.86875C3.37169 28.6879 2.96875 28.285 2.96875 27.7879V13.2359Z" fill="#303336"/>
<path fill-rule="evenodd" clip-rule="evenodd" d="M2.96875 13.2359C2.96875 12.7389 3.37169 12.3359 3.86875 12.3359H8.39675C8.89381 12.3359 9.29675 12.7389 9.29675 13.2359C9.29675 13.733 8.89381 14.1359 8.39675 14.1359H4.76875V26.8879H27.2328V14.1359H23.9248C23.4277 14.1359 23.0248 13.733 23.0248 13.2359C23.0248 12.7389 23.4277 12.3359 23.9248 12.3359H28.1328C28.6298 12.3359 29.0328 12.7389 29.0328 13.2359V27.7879C29.0328 28.285 28.6298 28.6879 28.1328 28.6879H3.86875C3.37169 28.6879 2.96875 28.285 2.96875 27.7879V13.2359Z" fill="#303336"/>
<path fill-rule="evenodd" clip-rule="evenodd" d="M7.99219 5.21055C7.99219 4.71349 8.39513 4.31055 8.89219 4.31055H23.1082C23.6052 4.31055 24.0082 4.71349 24.0082 5.21055V27.7865C24.0082 28.2836 23.6052 28.6865 23.1082 28.6865H8.89219C8.39513 28.6865 7.99219 28.2836 7.99219 27.7865V5.21055ZM9.79219 6.11055V26.8865H22.2082V6.11055H9.79219Z" fill="#303336"/>
<path fill-rule="evenodd" clip-rule="evenodd" d="M7.99219 5.21055C7.99219 4.71349 8.39513 4.31055 8.89219 4.31055H23.1082C23.6052 4.31055 24.0082 4.71349 24.0082 5.21055V27.7865C24.0082 28.2836 23.6052 28.6865 23.1082 28.6865H8.89219C8.39513 28.6865 7.99219 28.2836 7.99219 27.7865V5.21055ZM9.79219 6.11055V26.8865H22.2082V6.11055H9.79219Z" fill="#303336"/>
<path fill-rule="evenodd" clip-rule="evenodd" d="M13.0078 23.0758C13.0078 22.5787 13.4108 22.1758 13.9078 22.1758H18.0998C18.5969 22.1758 18.9998 22.5787 18.9998 23.0758V27.7878C18.9998 28.2848 18.5969 28.6878 18.0998 28.6878H13.9078C13.4108 28.6878 13.0078 28.2848 13.0078 27.7878V23.0758ZM14.8078 23.9758V26.8878H17.1998V23.9758H14.8078Z" fill="#303336"/>
<path fill-rule="evenodd" clip-rule="evenodd" d="M13.0078 23.0758C13.0078 22.5787 13.4108 22.1758 13.9078 22.1758H18.0998C18.5969 22.1758 18.9998 22.5787 18.9998 23.0758V27.7878C18.9998 28.2848 18.5969 28.6878 18.0998 28.6878H13.9078C13.4108 28.6878 13.0078 28.2848 13.0078 27.7878V23.0758ZM14.8078 23.9758V26.8878H17.1998V23.9758H14.8078Z" fill="#303336"/>
<path fill-rule="evenodd" clip-rule="evenodd" d="M11.3047 8.69883C11.3047 8.20177 11.7076 7.79883 12.2047 7.79883H12.7407C13.2377 7.79883 13.6407 8.20177 13.6407 8.69883C13.6407 9.19588 13.2377 9.59883 12.7407 9.59883H12.2047C11.7076 9.59883 11.3047 9.19588 11.3047 8.69883Z" fill="#303336"/>
<path fill-rule="evenodd" clip-rule="evenodd" d="M11.3047 8.69883C11.3047 8.20177 11.7076 7.79883 12.2047 7.79883H12.7407C13.2377 7.79883 13.6407 8.20177 13.6407 8.69883C13.6407 9.19588 13.2377 9.59883 12.7407 9.59883H12.2047C11.7076 9.59883 11.3047 9.19588 11.3047 8.69883Z" fill="#303336"/>
<path fill-rule="evenodd" clip-rule="evenodd" d="M14.832 8.69883C14.832 8.20177 15.235 7.79883 15.732 7.79883H16.268C16.7651 7.79883 17.168 8.20177 17.168 8.69883C17.168 9.19588 16.7651 9.59883 16.268 9.59883H15.732C15.235 9.59883 14.832 9.19588 14.832 8.69883Z" fill="#303336"/>
<path fill-rule="evenodd" clip-rule="evenodd" d="M14.832 8.69883C14.832 8.20177 15.235 7.79883 15.732 7.79883H16.268C16.7651 7.79883 17.168 8.20177 17.168 8.69883C17.168 9.19588 16.7651 9.59883 16.268 9.59883H15.732C15.235 9.59883 14.832 9.19588 14.832 8.69883Z" fill="#303336"/>
<path fill-rule="evenodd" clip-rule="evenodd" d="M18.3672 8.69883C18.3672 8.20177 18.7701 7.79883 19.2672 7.79883H19.7952C20.2922 7.79883 20.6952 8.20177 20.6952 8.69883C20.6952 9.19588 20.2922 9.59883 19.7952 9.59883H19.2672C18.7701 9.59883 18.3672 9.19588 18.3672 8.69883Z" fill="#303336"/>
<path fill-rule="evenodd" clip-rule="evenodd" d="M18.3672 8.69883C18.3672 8.20177 18.7701 7.79883 19.2672 7.79883H19.7952C20.2922 7.79883 20.6952 8.20177 20.6952 8.69883C20.6952 9.19588 20.2922 9.59883 19.7952 9.59883H19.2672C18.7701 9.59883 18.3672 9.19588 18.3672 8.69883Z" fill="#303336"/>
<path fill-rule="evenodd" clip-rule="evenodd" d="M11.3047 11.9C11.3047 11.4029 11.7076 11 12.2047 11H12.7407C13.2377 11 13.6407 11.4029 13.6407 11.9C13.6407 12.3971 13.2377 12.8 12.7407 12.8H12.2047C11.7076 12.8 11.3047 12.3971 11.3047 11.9Z" fill="#303336"/>
<path fill-rule="evenodd" clip-rule="evenodd" d="M11.3047 11.9C11.3047 11.4029 11.7076 11 12.2047 11H12.7407C13.2377 11 13.6407 11.4029 13.6407 11.9C13.6407 12.3971 13.2377 12.8 12.7407 12.8H12.2047C11.7076 12.8 11.3047 12.3971 11.3047 11.9Z" fill="#303336"/>
<path fill-rule="evenodd" clip-rule="evenodd" d="M14.832 11.9C14.832 11.4029 15.235 11 15.732 11H16.268C16.7651 11 17.168 11.4029 17.168 11.9C17.168 12.3971 16.7651 12.8 16.268 12.8H15.732C15.235 12.8 14.832 12.3971 14.832 11.9Z" fill="#303336"/>
<path fill-rule="evenodd" clip-rule="evenodd" d="M14.832 11.9C14.832 11.4029 15.235 11 15.732 11H16.268C16.7651 11 17.168 11.4029 17.168 11.9C17.168 12.3971 16.7651 12.8 16.268 12.8H15.732C15.235 12.8 14.832 12.3971 14.832 11.9Z" fill="#303336"/>
<path fill-rule="evenodd" clip-rule="evenodd" d="M18.3672 11.9C18.3672 11.4029 18.7701 11 19.2672 11H19.7952C20.2922 11 20.6952 11.4029 20.6952 11.9C20.6952 12.3971 20.2922 12.8 19.7952 12.8H19.2672C18.7701 12.8 18.3672 12.3971 18.3672 11.9Z" fill="#303336"/>
<path fill-rule="evenodd" clip-rule="evenodd" d="M18.3672 11.9C18.3672 11.4029 18.7701 11 19.2672 11H19.7952C20.2922 11 20.6952 11.4029 20.6952 11.9C20.6952 12.3971 20.2922 12.8 19.7952 12.8H19.2672C18.7701 12.8 18.3672 12.3971 18.3672 11.9Z" fill="#303336"/>
<path fill-rule="evenodd" clip-rule="evenodd" d="M11.3047 15.0992C11.3047 14.6022 11.7076 14.1992 12.2047 14.1992H12.7407C13.2377 14.1992 13.6407 14.6022 13.6407 15.0992C13.6407 15.5963 13.2377 15.9992 12.7407 15.9992H12.2047C11.7076 15.9992 11.3047 15.5963 11.3047 15.0992Z" fill="#303336"/>
<path fill-rule="evenodd" clip-rule="evenodd" d="M11.3047 15.0992C11.3047 14.6022 11.7076 14.1992 12.2047 14.1992H12.7407C13.2377 14.1992 13.6407 14.6022 13.6407 15.0992C13.6407 15.5963 13.2377 15.9992 12.7407 15.9992H12.2047C11.7076 15.9992 11.3047 15.5963 11.3047 15.0992Z" fill="#303336"/>
<path fill-rule="evenodd" clip-rule="evenodd" d="M14.832 15.0992C14.832 14.6022 15.235 14.1992 15.732 14.1992H16.268C16.7651 14.1992 17.168 14.6022 17.168 15.0992C17.168 15.5963 16.7651 15.9992 16.268 15.9992H15.732C15.235 15.9992 14.832 15.5963 14.832 15.0992Z" fill="#303336"/>
<path fill-rule="evenodd" clip-rule="evenodd" d="M14.832 15.0992C14.832 14.6022 15.235 14.1992 15.732 14.1992H16.268C16.7651 14.1992 17.168 14.6022 17.168 15.0992C17.168 15.5963 16.7651 15.9992 16.268 15.9992H15.732C15.235 15.9992 14.832 15.5963 14.832 15.0992Z" fill="#303336"/>
<path fill-rule="evenodd" clip-rule="evenodd" d="M18.3672 15.0992C18.3672 14.6022 18.7701 14.1992 19.2672 14.1992H19.7952C20.2922 14.1992 20.6952 14.6022 20.6952 15.0992C20.6952 15.5963 20.2922 15.9992 19.7952 15.9992H19.2672C18.7701 15.9992 18.3672 15.5963 18.3672 15.0992Z" fill="#303336"/>
<path fill-rule="evenodd" clip-rule="evenodd" d="M18.3672 15.0992C18.3672 14.6022 18.7701 14.1992 19.2672 14.1992H19.7952C20.2922 14.1992 20.6952 14.6022 20.6952 15.0992C20.6952 15.5963 20.2922 15.9992 19.7952 15.9992H19.2672C18.7701 15.9992 18.3672 15.5963 18.3672 15.0992Z" fill="#303336"/>
<path fill-rule="evenodd" clip-rule="evenodd" d="M11.3047 18.3004C11.3047 17.8033 11.7076 17.4004 12.2047 17.4004H12.7407C13.2377 17.4004 13.6407 17.8033 13.6407 18.3004C13.6407 18.7974 13.2377 19.2004 12.7407 19.2004H12.2047C11.7076 19.2004 11.3047 18.7974 11.3047 18.3004Z" fill="#303336"/>
<path fill-rule="evenodd" clip-rule="evenodd" d="M11.3047 18.3004C11.3047 17.8033 11.7076 17.4004 12.2047 17.4004H12.7407C13.2377 17.4004 13.6407 17.8033 13.6407 18.3004C13.6407 18.7974 13.2377 19.2004 12.7407 19.2004H12.2047C11.7076 19.2004 11.3047 18.7974 11.3047 18.3004Z" fill="#303336"/>
<path fill-rule="evenodd" clip-rule="evenodd" d="M14.832 18.3004C14.832 17.8033 15.235 17.4004 15.732 17.4004H16.268C16.7651 17.4004 17.168 17.8033 17.168 18.3004C17.168 18.7974 16.7651 19.2004 16.268 19.2004H15.732C15.235 19.2004 14.832 18.7974 14.832 18.3004Z" fill="#303336"/>
<path fill-rule="evenodd" clip-rule="evenodd" d="M14.832 18.3004C14.832 17.8033 15.235 17.4004 15.732 17.4004H16.268C16.7651 17.4004 17.168 17.8033 17.168 18.3004C17.168 18.7974 16.7651 19.2004 16.268 19.2004H15.732C15.235 19.2004 14.832 18.7974 14.832 18.3004Z" fill="#303336"/>
<path fill-rule="evenodd" clip-rule="evenodd" d="M18.3672 18.3004C18.3672 17.8033 18.7701 17.4004 19.2672 17.4004H19.7952C20.2922 17.4004 20.6952 17.8033 20.6952 18.3004C20.6952 18.7974 20.2922 19.2004 19.7952 19.2004H19.2672C18.7701 19.2004 18.3672 18.7974 18.3672 18.3004Z" fill="#303336"/>
<path fill-rule="evenodd" clip-rule="evenodd" d="M18.3672 18.3004C18.3672 17.8033 18.7701 17.4004 19.2672 17.4004H19.7952C20.2922 17.4004 20.6952 17.8033 20.6952 18.3004C20.6952 18.7974 20.2922 19.2004 19.7952 19.2004H19.2672C18.7701 19.2004 18.3672 18.7974 18.3672 18.3004Z" fill="#303336"/>
</svg>
