<svg width="20" height="21" viewBox="0 0 20 21" fill="none" xmlns="http://www.w3.org/2000/svg">
<g id="icon/popover">
<path id="Vector" fill-rule="evenodd" clip-rule="evenodd" d="M1.66797 10.5013C1.66797 15.1037 5.39893 18.8346 10.0013 18.8346C14.6036 18.8346 18.3346 15.1037 18.3346 10.5013C18.3346 5.89896 14.6036 2.16797 10.0013 2.16797C5.39892 2.16797 1.66797 5.89897 1.66797 10.5013ZM10.0013 17.5013C6.13531 17.5013 3.0013 14.3673 3.0013 10.5013C3.0013 6.63534 6.13531 3.5013 10.0013 3.5013C13.8673 3.5013 17.0013 6.63534 17.0013 10.5013C17.0013 14.3673 13.8673 17.5013 10.0013 17.5013ZM10.9173 7.36882C10.9173 7.9211 10.4696 8.36881 9.91732 8.36881C9.36503 8.36881 8.91732 7.9211 8.91732 7.36882C8.91732 6.81653 9.36503 6.36882 9.91732 6.36882C10.4696 6.36882 10.9173 6.81653 10.9173 7.36882ZM8.50065 9.39393C8.50065 9.28347 8.5902 9.19393 8.70065 9.19393H10.7186C10.8291 9.19393 10.9186 9.28347 10.9186 9.39393V13.4961H11.468C11.5784 13.4961 11.668 13.5856 11.668 13.6961V14.2961C11.668 14.4065 11.5784 14.4961 11.468 14.4961H8.53464C8.42418 14.4961 8.33464 14.4065 8.33464 14.2961V13.6961C8.33464 13.5856 8.42418 13.4961 8.53464 13.4961H9.41862V10.3939C9.41862 10.2835 9.32908 10.1939 9.21862 10.1939H8.70065C8.5902 10.1939 8.50065 10.1044 8.50065 9.99393V9.39393Z" fill="#303336"/>
</g>
</svg>
