<svg width="16" height="16" viewBox="0 0 16 16" fill="none" xmlns="http://www.w3.org/2000/svg">
<g id="icon/calendar">
<path id="Vector" fill-rule="evenodd" clip-rule="evenodd" d="M5.2 1.33594C5.49455 1.33594 5.73333 1.57472 5.73333 1.86927V3.33597L10.2656 3.33602V1.86927C10.2656 1.57472 10.5044 1.33594 10.799 1.33594C11.0935 1.33594 11.3323 1.57472 11.3323 1.86927V3.33603L12.7995 3.33605C13.4622 3.33606 13.9995 3.87332 13.9995 4.53605V12.8027C13.9995 13.4655 13.4622 14.0027 12.7995 14.0027H3.2C2.53726 14.0027 2 13.4655 2 12.8027V4.53594C2 3.87319 2.53727 3.33593 3.20001 3.33594L4.66667 3.33595V1.86927C4.66667 1.57472 4.90545 1.33594 5.2 1.33594ZM3.2 4.4026C3.12636 4.4026 3.06667 4.4623 3.06667 4.53594V6.13542H12.9328V4.53605C12.9328 4.46241 12.8731 4.40272 12.7995 4.40272L3.2 4.4026ZM3.06667 12.8027V7.20208H12.9328V12.8027C12.9328 12.8764 12.8731 12.9361 12.7995 12.9361H3.2C3.12636 12.9361 3.06667 12.8764 3.06667 12.8027ZM5.06771 9.33464C4.69952 9.33464 4.40104 9.63311 4.40104 10.0013C4.40104 10.3695 4.69952 10.668 5.06771 10.668C5.4359 10.668 5.73438 10.3695 5.73438 10.0013C5.73438 9.63311 5.4359 9.33464 5.06771 9.33464ZM8 9.33464C7.63181 9.33464 7.33333 9.63311 7.33333 10.0013C7.33333 10.3695 7.63181 10.668 8 10.668C8.36819 10.668 8.66667 10.3695 8.66667 10.0013C8.66667 9.63311 8.36819 9.33464 8 9.33464ZM10.2682 10.0013C10.2682 9.63311 10.5667 9.33464 10.9349 9.33464C11.3031 9.33464 11.6016 9.63311 11.6016 10.0013C11.6016 10.3695 11.3031 10.668 10.9349 10.668C10.5667 10.668 10.2682 10.3695 10.2682 10.0013Z" fill="#303336"/>
</g>
</svg>
