<svg width="14" height="14" viewBox="0 0 14 14" fill="none" xmlns="http://www.w3.org/2000/svg">
<path id="Vector" fill-rule="evenodd" clip-rule="evenodd" d="M7.39844 1.72353C4.48432 1.72353 2.12197 4.08589 2.12197 7C2.12197 9.91411 4.48432 12.2765 7.39844 12.2765C10.3126 12.2765 12.6749 9.91411 12.6749 7C12.6749 4.08589 10.3126 1.72353 7.39844 1.72353ZM0.898438 7C0.898438 3.41015 3.80859 0.5 7.39844 0.5C10.9883 0.5 13.8984 3.41015 13.8984 7C13.8984 10.5899 10.9883 13.5 7.39844 13.5C3.80859 13.5 0.898438 10.5899 0.898438 7ZM4.49597 6.99922C4.49597 6.66135 4.76987 6.38745 5.10774 6.38745H6.79063V4.70454C6.79063 4.36667 7.06453 4.09277 7.4024 4.09277C7.74026 4.09277 8.01416 4.36667 8.01416 4.70454V6.38745H9.69597C10.0338 6.38745 10.3077 6.66135 10.3077 6.99922C10.3077 7.33708 10.0338 7.61098 9.69597 7.61098H8.01416V9.29277C8.01416 9.63064 7.74026 9.90454 7.4024 9.90454C7.06453 9.90454 6.79063 9.63064 6.79063 9.29277V7.61098H5.10774C4.76987 7.61098 4.49597 7.33708 4.49597 6.99922Z" fill="#303336"/>
</svg>
