<svg width="16" height="16" viewBox="0 0 16 16" fill="none" xmlns="http://www.w3.org/2000/svg">
<g id="icon/visibility">
<path id="Vector" fill-rule="evenodd" clip-rule="evenodd" d="M2.42485 8.05684C2.69138 7.21952 3.39066 6.42176 4.39842 5.82637C5.40075 5.23419 6.66911 4.86745 7.99965 4.86745C10.686 4.86745 12.9189 6.34688 13.5717 8.08127C13.5733 8.08547 13.5736 8.08821 13.5736 8.0892L13.5736 8.08934C13.2115 9.23178 11.6225 11.1341 7.99965 11.1341C4.4194 11.1341 2.8038 9.07017 2.42435 8.05862L2.42485 8.05684ZM7.99965 3.80078C6.47975 3.80078 5.02381 4.21798 3.85585 4.90801C2.69332 5.59483 1.77633 6.57754 1.40843 7.7333C1.33778 7.95524 1.33836 8.19941 1.42372 8.42813C1.9475 9.83155 3.94496 12.2008 7.99965 12.2008C12.0381 12.2008 14.0742 10.0424 14.5908 8.41041C14.6657 8.17396 14.6531 7.92617 14.57 7.70549C13.723 5.45534 11.0126 3.80078 7.99965 3.80078ZM6.53346 8.00078C6.53346 7.19076 7.19011 6.53411 8.00013 6.53411C8.81015 6.53411 9.4668 7.19076 9.4668 8.00078C9.4668 8.8108 8.81015 9.46745 8.00013 9.46745C7.19011 9.46745 6.53346 8.8108 6.53346 8.00078ZM8.00013 5.46745C6.60101 5.46745 5.4668 6.60166 5.4668 8.00078C5.4668 9.3999 6.60101 10.5341 8.00013 10.5341C9.39925 10.5341 10.5335 9.3999 10.5335 8.00078C10.5335 6.60166 9.39925 5.46745 8.00013 5.46745Z" fill="#303336"/>
</g>
</svg>
