<svg width="24" height="25" viewBox="0 0 24 25" fill="none" xmlns="http://www.w3.org/2000/svg">
<g id="Property 1=on">
<path id="Vector" fill-rule="evenodd" clip-rule="evenodd" d="M7.84279 3.50069C7.85776 3.50006 7.87276 3.49987 7.88775 3.50009C8.86548 3.51458 9.82407 3.77465 10.667 4.25671C11.1667 4.54248 11.6159 4.90071 11.9992 5.3177C12.3825 4.90071 12.8318 4.54248 13.3314 4.25671C14.1744 3.77465 15.133 3.51458 16.1107 3.50009C16.1257 3.49987 16.1407 3.50006 16.1557 3.50069C17.7007 3.56467 19.1645 4.20893 20.2243 5.30459C21.2817 6.39773 21.8507 7.85228 21.7956 9.35363C21.7911 10.7745 21.193 12.1906 20.3831 13.4727C19.5637 14.7698 18.481 16.0026 17.4088 17.0675C15.2652 19.1966 13.0814 20.7352 12.8801 20.871L12.4466 21.1634C12.1762 21.3458 11.8222 21.3458 11.5519 21.1634L11.1186 20.8712L11.1165 20.8698C10.9173 20.7345 8.73357 19.1962 6.58963 17.067C5.51751 16.0022 4.43475 14.7695 3.61537 13.4725C2.80545 12.1906 2.2073 10.7745 2.20288 9.35362C2.1478 7.85227 2.71673 6.39773 3.77414 5.30459C4.83397 4.20893 6.29773 3.56467 7.84279 3.50069Z" fill="#EB5D47"/>
</g>
</svg>
