<svg width="21" height="20" viewBox="0 0 21 20" fill="none" xmlns="http://www.w3.org/2000/svg">
<path fill-rule="evenodd" clip-rule="evenodd" d="M11.0241 1.50552C10.8977 1.34423 10.7042 1.25 10.4993 1.25C10.2944 1.25 10.1009 1.34423 9.97452 1.50552C9.03475 2.70506 7.5924 3.48222 5.9573 3.48222C5.29771 3.48222 4.66565 3.34845 4.07929 3.11712C3.87403 3.03614 3.642 3.06198 3.45958 3.18611C3.27715 3.31025 3.16797 3.51662 3.16797 3.73727V9.10014C3.16797 12.8351 4.96817 15.1778 6.75967 16.5657C7.64887 17.2546 8.53503 17.7092 9.19822 17.9919C9.53064 18.1336 9.80941 18.2331 10.0078 18.2979C10.1071 18.3303 10.1865 18.3541 10.2426 18.3703C10.2707 18.3783 10.293 18.3844 10.3091 18.3888L10.3285 18.3939L10.3347 18.3955L10.3368 18.3961L10.3377 18.3963C10.3381 18.3964 10.3384 18.3965 10.5013 17.75L10.3384 18.3965C10.445 18.4233 10.5565 18.4234 10.6631 18.3967L10.5013 17.75C10.6631 18.3967 10.6635 18.3966 10.6638 18.3965L10.6647 18.3963L10.6669 18.3958L10.673 18.3942L10.6925 18.3891C10.7086 18.3848 10.7309 18.3787 10.759 18.3707C10.8152 18.3547 10.8945 18.331 10.9938 18.2987C11.1923 18.2342 11.4711 18.1351 11.8036 17.9939C12.4669 17.7121 13.3533 17.2587 14.2426 16.5704C16.0347 15.1836 17.8346 12.8407 17.8346 9.10014V3.73727C17.8346 3.51674 17.7256 3.31047 17.5433 3.18631C17.3611 3.06214 17.1292 3.03615 16.924 3.11687C16.3348 3.34858 15.7046 3.48222 15.0453 3.48222H15.0413C13.4062 3.48222 11.9639 2.70506 11.0241 1.50552ZM10.5817 17.0307C10.5527 17.0401 10.526 17.0485 10.5018 17.056C10.4776 17.0485 10.4509 17.04 10.4219 17.0305C10.2557 16.9762 10.0136 16.89 9.72105 16.7653C9.13425 16.5152 8.35374 16.1141 7.57627 15.5117C6.03443 14.3172 4.5013 12.335 4.5013 9.10014V4.64417C4.96723 4.75453 5.45438 4.81555 5.9573 4.81555C7.74254 4.81555 9.33985 4.08249 10.4993 2.92079C11.6588 4.08249 13.2561 4.81555 15.0413 4.81555H15.0453C15.5487 4.81555 16.0355 4.75441 16.5013 4.64396V9.10014C16.5013 12.3412 14.9679 14.3232 13.4266 15.5159C12.6493 16.1175 11.869 16.5174 11.2823 16.7666C10.9898 16.8909 10.7478 16.9767 10.5817 17.0307ZM14.2965 8.64743C14.562 8.39235 14.5705 7.97033 14.3154 7.70481C14.0603 7.43929 13.6383 7.43083 13.3728 7.6859L9.52077 11.3864L7.65297 9.40593C7.40036 9.13807 6.97843 9.12571 6.71057 9.37833C6.44271 9.63095 6.43035 10.0529 6.68297 10.3207L9.01241 12.7907C9.13445 12.9201 9.30314 12.9954 9.48097 12.9998C9.65879 13.0042 9.83099 12.9373 9.95927 12.8141L14.2965 8.64743Z" fill="white"/>
</svg>
