<svg width="21" height="20" viewBox="0 0 21 20" fill="none" xmlns="http://www.w3.org/2000/svg">
<g id="icon/close">
<path id="Vector" fill-rule="evenodd" clip-rule="evenodd" d="M16.2285 3.52926C16.4888 3.2689 16.9109 3.26889 17.1713 3.52923C17.4316 3.78957 17.4316 4.21168 17.1713 4.47204L11.6443 9.99938L17.1745 15.53C17.4349 15.7903 17.4349 16.2124 17.1745 16.4728C16.9142 16.7331 16.492 16.7331 16.2317 16.4728L10.7015 10.9422L5.17129 16.4728C4.91095 16.7331 4.48884 16.7331 4.22848 16.4728C3.96812 16.2124 3.96811 15.7903 4.22845 15.53L9.75872 9.99938L4.23171 4.47204C3.97136 4.21168 3.97138 3.78957 4.23173 3.52923C4.49209 3.26889 4.9142 3.2689 5.17454 3.52926L10.7015 9.05654L16.2285 3.52926Z" fill="#303336"/>
</g>
</svg>
