<svg width="20" height="20" viewBox="0 0 20 20" fill="none" xmlns="http://www.w3.org/2000/svg">
<g id="icon/veiw_all">
<path id="Vector" fill-rule="evenodd" clip-rule="evenodd" d="M3.16667 2.5C2.79848 2.5 2.5 2.79848 2.5 3.16667V8.5C2.5 8.86819 2.79848 9.16667 3.16667 9.16667H8.5C8.86819 9.16667 9.16667 8.86819 9.16667 8.5V3.16667C9.16667 2.79848 8.86819 2.5 8.5 2.5H3.16667ZM3.83333 7.83333V3.83333H7.83333V7.83333H3.83333ZM11.5 2.5C11.1318 2.5 10.8333 2.79848 10.8333 3.16667V8.5C10.8333 8.86819 11.1318 9.16667 11.5 9.16667H16.8333C17.2015 9.16667 17.5 8.86819 17.5 8.5V3.16667C17.5 2.79848 17.2015 2.5 16.8333 2.5H11.5ZM12.1667 7.83333V3.83333H16.1667V7.83333H12.1667ZM10.8333 11.5C10.8333 11.1318 11.1318 10.8333 11.5 10.8333H16.8333C17.2015 10.8333 17.5 11.1318 17.5 11.5V16.8333C17.5 17.2015 17.2015 17.5 16.8333 17.5H11.5C11.1318 17.5 10.8333 17.2015 10.8333 16.8333V11.5ZM12.1667 12.1667V16.1667H16.1667V12.1667H12.1667ZM3.16667 10.8333C2.79848 10.8333 2.5 11.1318 2.5 11.5V16.8333C2.5 17.2015 2.79848 17.5 3.16667 17.5H8.5C8.86819 17.5 9.16667 17.2015 9.16667 16.8333V11.5C9.16667 11.1318 8.86819 10.8333 8.5 10.8333H3.16667ZM3.83333 16.1667V12.1667H7.83333V16.1667H3.83333Z" fill="#33363D"/>
</g>
</svg>
