<svg width="32" height="32" viewBox="0 0 32 32" fill="none" xmlns="http://www.w3.org/2000/svg">
<path fill-rule="evenodd" clip-rule="evenodd" d="M23.0215 17.1367C20.2137 17.1367 17.9375 19.4129 17.9375 22.2207C17.9375 25.0285 20.2137 27.3046 23.0215 27.3046C25.8292 27.3046 28.1054 25.0285 28.1054 22.2207C28.1054 19.4129 25.8292 17.1367 23.0215 17.1367ZM15.9375 22.2207C15.9375 18.3083 19.1091 15.1367 23.0215 15.1367C26.9338 15.1367 30.1054 18.3083 30.1054 22.2207C30.1054 26.133 26.9338 29.3046 23.0215 29.3046C19.1091 29.3046 15.9375 26.133 15.9375 22.2207Z" fill="#303336"/>
<path fill-rule="evenodd" clip-rule="evenodd" d="M26.3878 19.6462C26.8016 20.0119 26.8407 20.6438 26.475 21.0577L23.5182 24.4039C23.18 24.7866 22.6077 24.853 22.1909 24.5578L20.0432 23.0368C19.5925 22.7176 19.4859 22.0935 19.8051 21.6428C20.1243 21.192 20.7484 21.0854 21.1991 21.4046L22.614 22.4067L24.9763 19.7334C25.342 19.3195 25.9739 19.2805 26.3878 19.6462Z" fill="#303336"/>
<path fill-rule="evenodd" clip-rule="evenodd" d="M12.9727 4.69531C10.8218 4.69531 9.07812 6.43896 9.07812 8.58985C9.07812 10.7407 10.8218 12.4844 12.9727 12.4844C15.1236 12.4844 16.8672 10.7407 16.8672 8.58985C16.8672 6.43896 15.1236 4.69531 12.9727 4.69531ZM7.07812 8.58985C7.07812 5.33439 9.7172 2.69531 12.9727 2.69531C16.2281 2.69531 18.8672 5.33439 18.8672 8.58985C18.8672 11.8453 16.2281 14.4844 12.9727 14.4844C9.7172 14.4844 7.07812 11.8453 7.07812 8.58985Z" fill="#303336"/>
<path fill-rule="evenodd" clip-rule="evenodd" d="M1.90725 23.8579C2.76242 18.5165 7.39052 14.4346 12.9728 14.4346C15.5258 14.4346 17.8825 15.2865 19.7673 16.7268C20.2061 17.0622 20.29 17.6897 19.9547 18.1286C19.6194 18.5674 18.9918 18.6513 18.5529 18.3159C17.0064 17.1341 15.0739 16.4346 12.9728 16.4346C8.38869 16.4346 4.58443 19.7873 3.8821 24.1741C3.7948 24.7194 3.28193 25.0907 2.73659 25.0034C2.19125 24.9161 1.81995 24.4032 1.90725 23.8579Z" fill="#303336"/>
</svg>
