<svg width="16" height="17" viewBox="0 0 16 17" fill="none" xmlns="http://www.w3.org/2000/svg">
<path fill-rule="evenodd" clip-rule="evenodd" d="M7.9987 2.90016C4.9059 2.90016 2.3987 5.40737 2.3987 8.50016C2.3987 11.593 4.9059 14.1002 7.9987 14.1002C11.0915 14.1002 13.5987 11.593 13.5987 8.50016C13.5987 5.40737 11.0915 2.90016 7.9987 2.90016ZM1.33203 8.50016C1.33203 4.81826 4.3168 1.8335 7.9987 1.8335C11.6806 1.8335 14.6654 4.81826 14.6654 8.50016C14.6654 12.1821 11.6806 15.1668 7.9987 15.1668C4.3168 15.1668 1.33203 12.1821 1.33203 8.50016ZM7.33203 5.66683C7.33203 5.39069 7.55589 5.16683 7.83203 5.16683H8.16536C8.44151 5.16683 8.66536 5.39069 8.66536 5.66683V9.3335C8.66536 9.60964 8.44151 9.8335 8.16536 9.8335H7.83203C7.55589 9.8335 7.33203 9.60964 7.33203 9.3335V5.66683ZM7.83203 10.5002C7.55589 10.5002 7.33203 10.724 7.33203 11.0002V11.3335C7.33203 11.6096 7.55589 11.8335 7.83203 11.8335H8.16536C8.44151 11.8335 8.66536 11.6096 8.66536 11.3335V11.0002C8.66536 10.724 8.44151 10.5002 8.16536 10.5002H7.83203Z" fill="#303336"/>
</svg>
