<svg width="12" height="12" viewBox="0 0 12 12" fill="none" xmlns="http://www.w3.org/2000/svg">
<g id="icon" clip-path="url(#clip0_2224_35839)">
<path id="Vector" d="M0.499583 11.9996C0.37125 11.9996 0.242917 11.9513 0.14625 11.8529C-0.04875 11.6579 -0.04875 11.3412 0.14625 11.1462L3.26958 8.02292L0.224583 4.97958C0.0929167 4.84792 0.0445833 4.65125 0.10125 4.47292C0.157917 4.29458 0.309583 4.16292 0.494583 4.13292L3.24958 3.67458L6.77792 0.14625C6.97292 -0.04875 7.28958 -0.04875 7.48458 0.14625L11.8529 4.51458C11.9462 4.60792 11.9996 4.73625 11.9996 4.86792C11.9996 4.99958 11.9462 5.12792 11.8529 5.22125L8.32625 8.74792L7.86792 11.5029C7.83792 11.6879 7.70625 11.8396 7.52792 11.8962C7.34958 11.9529 7.15458 11.9062 7.02125 11.7729L3.97625 8.72792L0.852917 11.8512C0.754583 11.9496 0.627917 11.9979 0.499583 11.9979V11.9996ZM1.61792 4.95958L7.03958 10.3813L7.36458 8.42792C7.38125 8.32458 7.43125 8.22958 7.50458 8.15625L10.7913 4.86958L7.13125 1.20625L3.84458 4.49292C3.77125 4.56625 3.67625 4.61625 3.57292 4.63292L1.61958 4.95958H1.61792Z" fill="#303336"/>
</g>
<defs>
<clipPath id="clip0_2224_35839">
<rect width="12" height="12" fill="white"/>
</clipPath>
</defs>
</svg>
