<svg width="32" height="32" viewBox="0 0 32 32" fill="none" xmlns="http://www.w3.org/2000/svg">
<path fill-rule="evenodd" clip-rule="evenodd" d="M25.3333 6.13333H6.66667C6.37211 6.13333 6.13333 6.37211 6.13333 6.66667V25.3333C6.13333 25.6279 6.37211 25.8667 6.66667 25.8667H25.3333C25.6279 25.8667 25.8667 25.6279 25.8667 25.3333V6.66667C25.8667 6.37211 25.6279 6.13333 25.3333 6.13333ZM6.66667 4C5.19391 4 4 5.19391 4 6.66667V25.3333C4 26.8061 5.19391 28 6.66667 28H25.3333C26.8061 28 28 26.8061 28 25.3333V6.66667C28 5.19391 26.8061 4 25.3333 4H6.66667ZM15.999 11.0656C15.1153 11.0656 14.399 11.782 14.399 12.6656C14.399 13.5493 15.1153 14.2656 15.999 14.2656C16.8826 14.2656 17.599 13.5493 17.599 12.6656C17.599 11.782 16.8826 11.0656 15.999 11.0656ZM12.2656 12.6656C12.2656 10.6038 13.9371 8.93229 15.999 8.93229C18.0608 8.93229 19.7323 10.6038 19.7323 12.6656C19.7323 14.7275 18.0608 16.399 15.999 16.399C13.9371 16.399 12.2656 14.7275 12.2656 12.6656ZM13.1468 19.8885C13.9303 19.3661 14.938 19.0656 15.9992 19.0656C17.0605 19.0656 18.0681 19.3661 18.8516 19.8885C19.6333 20.4096 20.1203 21.1004 20.2975 21.8122C20.4398 22.3839 21.0186 22.7319 21.5902 22.5896C22.1619 22.4473 22.5099 21.8685 22.3676 21.2968C22.0452 20.0017 21.1972 18.8882 20.035 18.1134C18.8746 17.3398 17.4487 16.9323 15.9992 16.9323C14.5497 16.9323 13.1239 17.3398 11.9634 18.1134C10.8012 18.8882 9.95323 20.0017 9.6308 21.2968C9.48849 21.8685 9.83654 22.4473 10.4082 22.5896C10.9798 22.7319 11.5586 22.3839 11.7009 21.8122C11.8782 21.1004 12.3651 20.4096 13.1468 19.8885Z" fill="#303336"/>
</svg>
