<svg width="16" height="16" viewBox="0 0 16 16" fill="none" xmlns="http://www.w3.org/2000/svg">
<g id="icon/time">
<path id="Vector" fill-rule="evenodd" clip-rule="evenodd" d="M13.6007 7.99967C13.6007 11.0924 11.0934 13.5997 8.00065 13.5997C4.90786 13.5997 2.40065 11.0924 2.40065 7.99967C2.40065 4.90688 4.90785 2.39967 8.00065 2.39967C11.0934 2.39967 13.6007 4.90688 13.6007 7.99967ZM8.00065 14.6663C11.6825 14.6663 14.6673 11.6815 14.6673 7.99967C14.6673 4.31777 11.6825 1.33301 8.00065 1.33301C4.31875 1.33301 1.33398 4.31777 1.33398 7.99967C1.33398 11.6815 4.31875 14.6663 8.00065 14.6663ZM8.53346 4.9998C8.53346 4.70525 8.29468 4.46647 8.00013 4.46647C7.70558 4.46647 7.4668 4.70525 7.4668 4.9998V8C7.4668 8.29455 7.70558 8.53333 8.00013 8.53333H11.0003C11.2949 8.53333 11.5337 8.29455 11.5337 8C11.5337 7.70545 11.2949 7.46667 11.0003 7.46667H8.53346V4.9998Z" fill="#303336"/>
</g>
</svg>
