<svg width="20" height="20" viewBox="0 0 20 20" fill="none" xmlns="http://www.w3.org/2000/svg">
<path fill-rule="evenodd" clip-rule="evenodd" d="M3.33333 9.08333C3.33333 5.9077 5.9077 3.33333 9.08333 3.33333C12.259 3.33333 14.8333 5.9077 14.8333 9.08333C14.8333 10.5943 14.2506 11.9691 13.2975 12.9953C13.2346 13.0266 13.1755 13.0685 13.123 13.121C13.0704 13.1735 13.0285 13.2327 12.9971 13.2958C11.9708 14.2499 10.5952 14.8333 9.08333 14.8333C5.9077 14.8333 3.33333 12.259 3.33333 9.08333ZM13.5996 14.5404C12.3737 15.5561 10.7998 16.1667 9.08333 16.1667C5.17132 16.1667 2 12.9953 2 9.08333C2 5.17132 5.17132 2 9.08333 2C12.9953 2 16.1667 5.17132 16.1667 9.08333C16.1667 10.7988 15.5569 12.3718 14.5422 13.5974L17.3065 16.3617C17.5668 16.622 17.5668 17.0441 17.3065 17.3045C17.0461 17.5648 16.624 17.5648 16.3637 17.3045L13.5996 14.5404Z" fill="#303336"/>
</svg>
