<svg width="16" height="16" viewBox="0 0 16 16" fill="none" xmlns="http://www.w3.org/2000/svg">
<rect x="14.668" y="1.33203" width="13.3333" height="13.3333" rx="6.66667" transform="rotate(90 14.668 1.33203)" fill="#D7D9DB"/>
<path fill-rule="evenodd" clip-rule="evenodd" d="M5.37725 4.62105C5.16897 4.41277 4.83129 4.41277 4.62301 4.62105C4.41473 4.82933 4.41473 5.16702 4.62301 5.3753L7.2464 7.9987L4.62405 10.6211C4.41577 10.8293 4.41577 11.167 4.62405 11.3753C4.83233 11.5836 5.17002 11.5836 5.3783 11.3753L8.00065 8.75295L10.623 11.3753C10.8313 11.5836 11.169 11.5836 11.3773 11.3753C11.5855 11.167 11.5855 10.8293 11.3773 10.6211L8.7549 7.9987L11.3783 5.3753C11.5866 5.16702 11.5866 4.82933 11.3783 4.62105C11.17 4.41277 10.8323 4.41277 10.624 4.62105L8.00065 7.24445L5.37725 4.62105Z" fill="#303336"/>
</svg>
