<svg width="20" height="20" viewBox="0 0 20 20" fill="none" xmlns="http://www.w3.org/2000/svg">
<g id="icon/join">
<path id="Vector" fill-rule="evenodd" clip-rule="evenodd" d="M9.91536 6.25065C9.91536 7.1251 9.20648 7.83398 8.33203 7.83398C7.45758 7.83398 6.7487 7.1251 6.7487 6.25065C6.7487 5.3762 7.45758 4.66732 8.33203 4.66732C9.20648 4.66732 9.91536 5.3762 9.91536 6.25065ZM11.2487 6.25065C11.2487 7.86148 9.94286 9.16732 8.33203 9.16732C6.7212 9.16732 5.41536 7.86148 5.41536 6.25065C5.41536 4.63982 6.7212 3.33398 8.33203 3.33398C9.94286 3.33398 11.2487 4.63982 11.2487 6.25065ZM12.4987 8.16733H14.7487V10.4173H16.082V8.16733H18.332V6.83399H16.082V4.58398H14.7487V6.83399H12.4987V8.16733ZM13.3659 11.8341C10.2772 10.4663 6.76257 10.4252 3.6427 11.7205L3.27067 11.8749C2.39971 12.2366 1.83204 13.0869 1.83204 14.0299V16.5006H14.832V14.002C14.832 13.0788 14.2877 12.2423 13.4435 11.8685L13.3659 11.8341ZM4.15396 12.9519C6.93655 11.7966 10.0712 11.8333 12.826 13.0533L12.9036 13.0876C13.2654 13.2479 13.4987 13.6063 13.4987 14.002V15.1673H3.16537V14.0299C3.16537 13.6258 3.40866 13.2613 3.78193 13.1064L4.15396 12.9519Z" fill="#303336"/>
</g>
</svg>
