<svg width="12" height="12" viewBox="0 0 12 12" fill="none" xmlns="http://www.w3.org/2000/svg">
<path id="Vector" d="M0.499601 12C0.371263 12 0.242925 11.9517 0.146255 11.8533C-0.0487517 11.6583 -0.0487517 11.3416 0.146255 11.1466L3.2697 8.0232L0.224591 4.97976C0.0929199 4.84808 0.0445849 4.65141 0.101254 4.47307C0.157922 4.29473 0.309594 4.16306 0.494601 4.13306L3.2497 3.67471L6.77815 0.146255C6.97316 -0.0487517 7.28984 -0.0487517 7.48484 0.146255L11.8533 4.51474C11.9467 4.60808 12 4.73641 12 4.86809C12 4.99976 11.9467 5.12809 11.8533 5.22143L8.32654 8.74822L7.86819 11.5033C7.83819 11.6883 7.70652 11.84 7.52818 11.8967C7.34984 11.9533 7.15483 11.9067 7.02149 11.7733L3.97639 8.72822L0.852946 11.8517C0.75461 11.95 0.627938 11.9983 0.499601 11.9983V12Z" fill="#303336"/>
</svg>
