<svg width="40" height="40" viewBox="0 0 40 40" fill="none" xmlns="http://www.w3.org/2000/svg">
<path fill-rule="evenodd" clip-rule="evenodd" d="M31.0507 7.05803C31.5713 6.53732 32.4156 6.53729 32.9363 7.05798C33.457 7.57866 33.457 8.42288 32.9363 8.94359L21.8823 19.9983L32.9428 31.0595C33.4635 31.5802 33.4635 32.4244 32.9428 32.9451C32.4221 33.4658 31.5778 33.4657 31.0572 32.945L19.9967 21.8839L8.93633 32.945C8.41564 33.4657 7.57142 33.4658 7.05071 32.9451C6.52999 32.4244 6.52997 31.5802 7.05065 31.0595L18.1112 19.9983L7.05716 8.94359C6.53648 8.42288 6.5365 7.57866 7.05722 7.05798C7.57793 6.53729 8.42215 6.53732 8.94284 7.05803L19.9967 18.1126L31.0507 7.05803Z" fill="#303336"/>
</svg>
