<svg width="32" height="32" viewBox="0 0 32 32" fill="none" xmlns="http://www.w3.org/2000/svg">
<path fill-rule="evenodd" clip-rule="evenodd" d="M5.25052 8.87543C5.25052 10.6109 6.65746 12.0178 8.39306 12.0178C9.75077 12.0178 10.9073 11.1568 11.3466 9.95114H8.91693C8.32782 9.95114 7.85026 9.47358 7.85026 8.88448C7.85026 8.29537 8.32782 7.81781 8.91693 7.81781H11.3532C10.919 6.60257 9.75759 5.73293 8.39306 5.73294C6.65746 5.73296 5.25052 7.13993 5.25052 8.87543ZM8.39306 14.1512C10.9382 14.1511 13.0624 12.349 13.5592 9.95114H18.4335C18.5703 10.6176 18.8329 11.2381 19.1952 11.787L11.8493 19.1327C10.924 18.331 9.71679 17.8459 8.39632 17.8459C5.48256 17.8459 3.12044 20.208 3.12044 23.1217C3.12044 26.0355 5.48256 28.3975 8.39632 28.3974C10.945 28.3974 13.0716 26.5902 13.5645 24.1873H18.4394C18.9316 26.5913 21.0587 28.3996 23.6081 28.3996C26.5219 28.3996 28.8839 26.0375 28.8838 23.1238C28.8838 20.21 26.5216 17.8479 23.6079 17.8479C21.0606 17.8479 18.935 19.6531 18.4407 22.054H13.5641C13.4769 21.6295 13.3386 21.2236 13.1561 20.8429L20.7048 13.2944C21.5362 13.8416 22.5316 14.1599 23.6013 14.1599C26.5151 14.1598 28.8772 11.7977 28.8772 8.88392C28.8772 5.97016 26.5151 3.60814 23.6013 3.60822C21.0529 3.60828 18.9265 5.41524 18.4333 7.81781H13.5629C13.0732 5.41086 10.9446 3.59958 8.39306 3.59961C5.4793 3.59964 3.11719 5.9617 3.11719 8.87546C3.11719 11.7892 5.47931 14.1512 8.39306 14.1512ZM20.6501 24.1873H23.6063C24.1954 24.1873 24.673 23.7098 24.673 23.1207C24.673 22.5316 24.1954 22.054 23.6063 22.054H20.6522C21.0898 20.8451 22.248 19.9813 23.6079 19.9813C25.3435 19.9813 26.7505 21.3882 26.7505 23.1238C26.7505 24.8593 25.3436 26.2662 23.6081 26.2662C22.2458 26.2662 21.086 25.3995 20.6501 24.1873ZM20.4589 8.88413C20.4589 10.6197 21.8658 12.0266 23.6013 12.0266C25.3369 12.0265 26.7438 10.6195 26.7438 8.88397C26.7438 7.14842 25.3369 5.74151 23.6013 5.74155C21.8658 5.7416 20.4589 7.14858 20.4589 8.88413ZM8.39632 26.2641C6.66071 26.2641 5.25378 24.8572 5.25378 23.1217C5.25378 21.3862 6.66072 19.9792 8.39632 19.9792C10.1319 19.9792 11.5389 21.3861 11.5389 23.1216C11.5389 24.8571 10.1319 26.2641 8.39632 26.2641Z" fill="#303336"/>
</svg>
