<svg width="32" height="32" viewBox="0 0 32 32" fill="none" xmlns="http://www.w3.org/2000/svg">
<path d="M12.2886 1.41211C8.27687 1.41211 7.57785 4.1474 7.72981 5.51505L8.18552 8.70623L10.9208 12.3533L15.9355 16.9121L18.6708 19.6474C19.1267 20.4072 20.9502 21.9268 24.5973 21.9268C28.2443 21.9268 28.8522 19.4954 28.7002 18.2798V4.60329C28.7002 2.05034 25.9649 1.41211 24.5973 1.41211H12.2886Z" fill="#B6CEFB"/>
<path d="M3.16797 8.70582V23.2941L5.44738 25.5735L9.09444 26.0294H12.2856L12.7415 29.6764L16.3886 26.0294H21.4033C23.2268 26.0294 24.2905 24.2058 24.5944 23.2941C24.7464 19.647 24.9591 11.7146 24.5944 9.16171C24.2297 6.60877 22.6189 5.66661 21.8591 5.51465H7.72679C4.44444 5.51465 3.31993 7.6421 3.16797 8.70582Z" fill="white"/>
<path d="M12.4448 31.5006C12.3402 31.5006 12.2356 31.4827 12.1371 31.4468C11.7846 31.3184 11.5486 30.9808 11.5486 30.6044V26.7238H6.73888C4.26832 26.7238 2.25781 24.7133 2.25781 22.2427V9.09825C2.25781 6.62769 4.26832 4.61719 6.73888 4.61719H21.0783C23.5488 4.61719 25.5593 6.62769 25.5593 9.09825V22.2427C25.5593 24.7133 23.5488 26.7238 21.0783 26.7238H16.9169L13.1289 31.1839C12.9556 31.3871 12.7047 31.5006 12.4448 31.5006ZM6.73888 6.40961C5.25714 6.40961 4.05024 7.61651 4.05024 9.09825V22.2427C4.05024 23.7244 5.25714 24.9313 6.73888 24.9313H12.4448C12.9407 24.9313 13.341 25.3317 13.341 25.8276V28.1637L15.8175 25.248C15.9878 25.0479 16.2387 24.9313 16.5016 24.9313H21.0783C22.56 24.9313 23.7669 23.7244 23.7669 22.2427V9.09825C23.7669 7.61651 22.56 6.40961 21.0783 6.40961H6.73888Z" fill="#303336"/>
<path d="M12.3568 17.3911H8.63449C8.13859 17.3911 7.73828 16.9907 7.73828 16.4948C7.73828 15.9989 8.13859 15.5986 8.63449 15.5986H12.3568C12.8527 15.5986 13.253 15.9989 13.253 16.4948C13.253 16.9907 12.8527 17.3911 12.3568 17.3911Z" fill="#303336"/>
<path d="M19.2429 13.0561H8.57199C8.07609 13.0561 7.67578 12.6558 7.67578 12.1599C7.67578 11.664 8.07609 11.2637 8.57199 11.2637H19.2429C19.7388 11.2637 20.1391 11.664 20.1391 12.1599C20.1391 12.6558 19.7388 13.0561 19.2429 13.0561Z" fill="#303336"/>
<path d="M25.2619 22.6424C24.766 22.6424 24.3657 22.2421 24.3657 21.7462C24.3657 21.2503 24.766 20.85 25.2619 20.85C26.7436 20.85 27.9505 19.6431 27.9505 18.1614V4.98106C27.9505 3.49933 26.7436 2.29243 25.2619 2.29243H10.9225C9.44073 2.29243 8.23383 3.49933 8.23383 4.98106C8.23383 5.47697 7.83352 5.87728 7.33762 5.87728C6.84171 5.87728 6.44141 5.47697 6.44141 4.98106C6.44141 2.5105 8.45191 0.5 10.9225 0.5H25.2619C27.7324 0.5 29.7429 2.5105 29.7429 4.98106V18.1614C29.7429 20.6319 27.7324 22.6424 25.2619 22.6424Z" fill="#303336"/>
</svg>
