<svg width="19" height="18" viewBox="0 0 19 18" fill="none" xmlns="http://www.w3.org/2000/svg">
<path id="Vector" fill-rule="evenodd" clip-rule="evenodd" d="M0.999219 0C0.557391 0 0.199219 0.358172 0.199219 0.8V7.2C0.199219 7.64183 0.557391 8 0.999219 8H7.39922C7.84105 8 8.19922 7.64183 8.19922 7.2V0.8C8.19922 0.358172 7.84105 0 7.39922 0H0.999219ZM1.79922 6.4V1.6H6.59922V6.4H1.79922ZM10.9992 0C10.5574 0 10.1992 0.358172 10.1992 0.8V7.2C10.1992 7.64183 10.5574 8 10.9992 8H17.3992C17.841 8 18.1992 7.64183 18.1992 7.2V0.8C18.1992 0.358172 17.841 0 17.3992 0H10.9992ZM11.7992 6.4V1.6H16.5992V6.4H11.7992ZM10.1992 10.8C10.1992 10.3582 10.5574 10 10.9992 10H17.3992C17.841 10 18.1992 10.3582 18.1992 10.8V17.2C18.1992 17.6418 17.841 18 17.3992 18H10.9992C10.5574 18 10.1992 17.6418 10.1992 17.2V10.8ZM11.7992 11.6V16.4H16.5992V11.6H11.7992ZM0.999219 10C0.557391 10 0.199219 10.3582 0.199219 10.8V17.2C0.199219 17.6418 0.557391 18 0.999219 18H7.39922C7.84105 18 8.19922 17.6418 8.19922 17.2V10.8C8.19922 10.3582 7.84105 10 7.39922 10H0.999219ZM1.79922 16.4V11.6H6.59922V16.4H1.79922Z" fill="#303336"/>
</svg>
