<svg width="32" height="32" viewBox="0 0 32 32" fill="none" xmlns="http://www.w3.org/2000/svg">
<path fill-rule="evenodd" clip-rule="evenodd" d="M15.9958 2.40039C16.3236 2.40039 16.6333 2.55115 16.8354 2.80923C18.3391 4.72849 20.6468 5.97194 23.263 5.97194H23.2694C24.3242 5.97194 25.3326 5.75812 26.2752 5.38738C26.6036 5.25823 26.9746 5.29982 27.2662 5.49848C27.5578 5.69715 27.7323 6.02717 27.7323 6.38003V14.9606C27.7323 20.9455 24.8524 24.6942 21.9851 26.9131C20.5621 28.0143 19.144 28.7397 18.0827 29.1906C17.5507 29.4165 17.1045 29.5751 16.787 29.6783C16.6281 29.7299 16.5011 29.7678 16.4112 29.7935C16.3663 29.8063 16.3306 29.816 16.3048 29.8229L16.2737 29.8311L16.2638 29.8336L16.2604 29.8345L16.259 29.8349C16.2584 29.835 16.2579 29.8352 15.999 28.8004C15.7383 29.8347 15.7378 29.8346 15.7372 29.8344L15.7358 29.8341L15.7324 29.8332L15.7225 29.8307L15.6914 29.8224C15.6656 29.8155 15.63 29.8057 15.585 29.7928C15.4952 29.767 15.3682 29.7289 15.2094 29.677C14.8919 29.5733 14.4459 29.4141 13.914 29.1874C12.8529 28.7351 11.4351 28.0078 10.0123 26.9056C7.14595 24.6848 4.26562 20.9365 4.26562 14.9606V6.38003C4.26562 6.02697 4.44032 5.6968 4.7322 5.49817C5.02408 5.29955 5.39533 5.25822 5.72374 5.38778C6.66192 5.75791 7.67322 5.97194 8.72855 5.97194C11.3447 5.97194 13.6525 4.72849 15.1561 2.80923C15.3583 2.55115 15.6679 2.40039 15.9958 2.40039ZM15.999 28.8004L15.7383 29.8347C15.9088 29.8777 16.0873 29.8778 16.2579 29.8352L15.999 28.8004ZM15.9998 27.6901C16.0385 27.6781 16.0812 27.6645 16.1276 27.6495C16.3934 27.5631 16.7806 27.4258 17.2486 27.227C18.1873 26.8283 19.4358 26.1883 20.6795 25.2259C23.1455 23.3176 25.599 20.1463 25.599 14.9606V7.83073C24.8536 8.00744 24.0748 8.10528 23.2694 8.10528H23.263C20.4066 8.10528 17.8509 6.93237 15.9958 5.07366C14.1406 6.93237 11.5849 8.10528 8.72855 8.10528C7.92388 8.10528 7.14444 8.00764 6.39896 7.83106V14.9606C6.39896 20.1363 8.85197 23.3079 11.3189 25.2191C12.5629 26.1829 13.8117 26.8247 14.7506 27.2249C15.2187 27.4244 15.606 27.5623 15.8719 27.6492C15.9183 27.6644 15.9611 27.678 15.9998 27.6901Z" fill="#303336"/>
<path fill-rule="evenodd" clip-rule="evenodd" d="M22.1041 12.0621C22.5122 12.4869 22.4987 13.1621 22.0739 13.5703L15.1343 20.2369C14.9291 20.4341 14.6535 20.5411 14.369 20.5341C14.0845 20.527 13.8146 20.4066 13.6193 20.1996L9.89223 16.2476C9.48804 15.819 9.50781 15.1439 9.93639 14.7397C10.365 14.3355 11.0401 14.3553 11.4442 14.7839L14.4327 17.9527L20.5959 12.0318C21.0208 11.6237 21.696 11.6372 22.1041 12.0621Z" fill="#303336"/>
</svg>
