<svg width="20" height="20" viewBox="0 0 20 20" fill="none" xmlns="http://www.w3.org/2000/svg">
<g id="icon/filter">
<path id="Vector" fill-rule="evenodd" clip-rule="evenodd" d="M5.00075 2.6665C5.36894 2.6665 5.66742 2.96498 5.66742 3.33317L5.66742 7.10266C6.55655 7.38504 7.20078 8.21721 7.20078 9.19985C7.20078 10.1825 6.55655 11.0147 5.66742 11.297L5.66742 16.6665C5.66742 17.0347 5.36894 17.3332 5.00075 17.3332C4.63256 17.3332 4.33409 17.0347 4.33409 16.6665L4.33409 11.297C3.44498 11.0146 2.80078 10.1825 2.80078 9.19985C2.80078 8.21723 3.44498 7.38508 4.33409 7.10268L4.33409 3.33317C4.33409 2.96498 4.63256 2.6665 5.00075 2.6665ZM5.66742 9.75369V9.75367C5.50845 9.94481 5.26882 10.0665 5.00078 10.0665C4.73271 10.0665 4.49306 9.94478 4.33409 9.7536V9.75362C4.20921 9.60345 4.13411 9.41042 4.13411 9.19985C4.13411 8.7212 4.52213 8.33318 5.00078 8.33318C5.47943 8.33318 5.86745 8.7212 5.86745 9.19985C5.86745 9.41045 5.79233 9.60351 5.66742 9.75369ZM10.0008 2.6665C10.3689 2.6665 10.6674 2.96498 10.6674 3.33317V10.1026C11.5566 10.385 12.2008 11.2172 12.2008 12.1998C12.2008 13.1825 11.5566 14.0146 10.6674 14.297V16.6665C10.6674 17.0347 10.3689 17.3332 10.0008 17.3332C9.63256 17.3332 9.33409 17.0347 9.33409 16.6665V14.297C8.44498 14.0146 7.80078 13.1824 7.80078 12.1998C7.80078 11.2172 8.44498 10.3851 9.33409 10.1027V3.33317C9.33409 2.96498 9.63256 2.6665 10.0008 2.6665ZM9.33409 11.6461C9.20921 11.7962 9.13411 11.9893 9.13411 12.1998C9.13411 12.6785 9.52213 13.0665 10.0008 13.0665C10.4794 13.0665 10.8674 12.6785 10.8674 12.1998C10.8674 11.9892 10.7923 11.7962 10.6674 11.646V11.646C10.5084 11.4549 10.2688 11.3332 10.0008 11.3332C9.73271 11.3332 9.49306 11.4549 9.33409 11.6461V11.6461ZM15.6674 3.33317C15.6674 2.96498 15.3689 2.6665 15.0008 2.6665C14.6326 2.6665 14.3341 2.96498 14.3341 3.33317V5.10266C13.445 5.38506 12.8008 6.21721 12.8008 7.19983C12.8008 8.18244 13.445 9.0146 14.3341 9.297V16.6665C14.3341 17.0347 14.6326 17.3332 15.0008 17.3332C15.3689 17.3332 15.6674 17.0347 15.6674 16.6665L15.6674 9.29702C16.5566 9.01464 17.2008 8.18246 17.2008 7.19983C17.2008 6.21719 16.5566 5.38502 15.6674 5.10264V3.33317ZM15.6674 7.75365V7.75367C15.7923 7.60349 15.8674 7.41043 15.8674 7.19983C15.8674 6.72118 15.4794 6.33316 15.0008 6.33316C14.5221 6.33316 14.1341 6.72118 14.1341 7.19983C14.1341 7.4104 14.2092 7.60343 14.3341 7.7536V7.75358C14.4931 7.94476 14.7327 8.06647 15.0008 8.06647C15.2688 8.06647 15.5084 7.94479 15.6674 7.75365Z" fill="#303336"/>
</g>
</svg>
