<svg width="20" height="20" viewBox="0 0 20 20" fill="none" xmlns="http://www.w3.org/2000/svg">
<g id="icon/myinfo">
<path id="Vector" fill-rule="evenodd" clip-rule="evenodd" d="M8 5.0013C8 3.89673 8.89543 3.0013 10 3.0013C11.1046 3.0013 12 3.89673 12 5.0013C12 6.10587 11.1046 7.0013 10 7.0013C8.89543 7.0013 8 6.10587 8 5.0013ZM10 1.66797C8.15905 1.66797 6.66667 3.16035 6.66667 5.0013C6.66667 6.84225 8.15905 8.33464 10 8.33464C11.8409 8.33464 13.3333 6.84225 13.3333 5.0013C13.3333 3.16035 11.8409 1.66797 10 1.66797ZM16.8682 11.3286C12.8559 8.53024 7.54522 8.45256 3.45277 11.1324L3.17827 11.3121C2.75503 11.5893 2.5 12.0611 2.5 12.567V16.0012C2.5 16.8296 3.17157 17.5012 4 17.5012H15.9993C16.8278 17.5012 17.4993 16.8296 17.4993 16.0012V12.5382C17.4993 12.0561 17.2637 11.6044 16.8682 11.3286ZM4.18319 12.2478C7.82015 9.86629 12.5398 9.93532 16.1055 12.4222C16.1434 12.4487 16.166 12.492 16.166 12.5382V16.0012C16.166 16.0932 16.0914 16.1679 15.9993 16.1679H4C3.90795 16.1679 3.83333 16.0932 3.83333 16.0012V12.567C3.83333 12.5108 3.86167 12.4584 3.9087 12.4276L4.18319 12.2478Z" fill="#303336"/>
</g>
</svg>
