<svg width="32" height="32" viewBox="0 0 32 32" fill="none" xmlns="http://www.w3.org/2000/svg">
<path d="M2.32528 6.69156V18.1621L2.76626 19.0444L27.9133 18.6032H29.2368C29.678 16.3974 30.3839 11.0151 29.678 7.13274C28.9721 3.25039 27.031 2.86803 26.1486 3.16215H7.61939C2.67822 3.16215 2.03116 5.51509 2.32528 6.69156Z" fill="white"/>
<path d="M23.443 30.1606H8.55686C7.95694 30.1606 7.47266 29.6763 7.47266 29.0764C7.47266 28.4765 7.95694 27.9922 8.55686 27.9922H23.4466C24.0466 27.9922 24.5308 28.4765 24.5308 29.0764C24.5308 29.6763 24.0466 30.1606 23.4466 30.1606H23.443Z" fill="#303336"/>
<path d="M21.0153 30.1612C19.36 30.1612 18.0156 28.8168 18.0156 27.1616V24.115C18.0156 23.515 18.4999 23.0308 19.0998 23.0308C19.6998 23.0308 20.184 23.515 20.184 24.115V27.1616C20.184 27.6206 20.5563 27.9928 21.0153 27.9928C21.6152 27.9928 22.0995 28.4771 22.0995 29.077C22.0995 29.677 21.6152 30.1612 21.0153 30.1612Z" fill="#303336"/>
<path d="M10.9866 30.1612C10.3866 30.1612 9.90234 29.677 9.90234 29.077C9.90234 28.4771 10.3866 27.9928 10.9866 27.9928C11.4455 27.9928 11.8178 27.6206 11.8178 27.1616V24.115C11.8178 23.515 12.3021 23.0308 12.902 23.0308C13.5019 23.0308 13.9862 23.515 13.9862 24.115V27.1616C13.9862 28.8168 12.6418 30.1612 10.9866 30.1612Z" fill="#303336"/>
<path d="M2.08594 19.6595C2.08594 22.0448 4.03751 23.9963 6.42276 23.9963H25.5807C27.966 23.9963 29.9175 22.0448 29.9175 19.6595V18.5464H2.08594V19.6595Z" fill="#B6CEFB"/>
<path d="M25.579 25.0798H6.42103C3.43224 25.0798 1 22.6475 1 19.6588V18.5456C1 17.9457 1.48428 17.4614 2.08421 17.4614H29.9158C30.5157 17.4614 31 17.9457 31 18.5456V19.6588C31 22.6475 28.5678 25.0798 25.579 25.0798ZM3.16841 19.6298V19.6588C3.16841 21.4513 4.62848 22.9114 6.42103 22.9114H25.579C27.3715 22.9114 28.8316 21.4513 28.8316 19.6588V19.6298H3.16841Z" fill="#303336"/>
<path d="M25.579 25.0802H6.42103C3.43224 25.0802 1 22.6479 1 19.6591V7.25941C1 4.27062 3.43224 1.83838 6.42103 1.83838H25.579C28.5678 1.83838 31 4.27062 31 7.25941V19.6591C31 22.6479 28.5678 25.0802 25.579 25.0802ZM6.42103 4.00679C4.62848 4.00679 3.16841 5.46686 3.16841 7.25941V19.6591C3.16841 21.4517 4.62848 22.9117 6.42103 22.9117H25.579C27.3715 22.9117 28.8316 21.4517 28.8316 19.6591V7.25941C28.8316 5.46686 27.3715 4.00679 25.579 4.00679H6.42103Z" fill="#303336"/>
<path d="M17.4509 14.1406H12.1311C11.5312 14.1406 11.0469 13.6563 11.0469 13.0564C11.0469 12.4564 11.5312 11.9722 12.1311 11.9722H17.4509C18.0509 11.9722 18.5351 12.4564 18.5351 13.0564C18.5351 13.6563 18.0509 14.1406 17.4509 14.1406Z" fill="#303336"/>
<path d="M19.9025 10.0566H12.0998C11.4999 10.0566 11.0156 9.57232 11.0156 8.97239C11.0156 8.37246 11.4999 7.88818 12.0998 7.88818H19.9025C20.5024 7.88818 20.9867 8.37246 20.9867 8.97239C20.9867 9.57232 20.5024 10.0566 19.9025 10.0566Z" fill="#303336"/>
</svg>
