<svg width="20" height="20" viewBox="0 0 20 20" fill="none" xmlns="http://www.w3.org/2000/svg">
<path fill-rule="evenodd" clip-rule="evenodd" d="M3.28451 5.54739C3.28451 6.63208 4.16384 7.5114 5.24859 7.51139C6.09716 7.51138 6.82002 6.97327 7.09458 6.21971H5.57398C5.20579 6.21971 4.90731 5.92123 4.90731 5.55304C4.90731 5.18485 5.20579 4.88637 5.57398 4.88637H7.09869C6.82729 4.12685 6.10143 3.58332 5.24859 3.58333C4.16384 3.58335 3.28451 4.4627 3.28451 5.54739ZM5.24859 8.84472C6.83928 8.8447 8.16692 7.71836 8.47741 6.21971H11.5239C11.6093 6.6357 11.7731 7.0231 11.9992 7.36583L7.40682 11.9581C6.82845 11.457 6.07393 11.1537 5.2486 11.1538C3.42749 11.1538 1.95117 12.6301 1.95117 14.4512C1.95117 16.2723 3.4275 17.7485 5.2486 17.7485C6.84146 17.7485 8.17055 16.619 8.47868 15.1173H11.5255C11.8331 16.6198 13.1626 17.75 14.756 17.75C16.5771 17.75 18.0533 16.2737 18.0533 14.4526C18.0532 12.6315 16.5769 11.1552 14.7558 11.1552C13.1638 11.1552 11.8353 12.2834 11.5263 13.784H8.4785C8.42398 13.5186 8.33758 13.2649 8.22349 13.027L12.9423 8.30834C13.4622 8.65077 14.0847 8.85003 14.7538 8.85002C16.5749 8.84997 18.0512 7.37363 18.0512 5.55253C18.0512 3.73144 16.5749 2.25518 14.7538 2.25522C13.1609 2.25526 11.8319 3.38469 11.5237 4.88637H8.47976C8.17366 3.38203 6.84333 2.24998 5.24859 2.25C3.42749 2.25002 1.95117 3.72631 1.95117 5.54741C1.95117 7.36851 3.4275 8.84474 5.24859 8.84472ZM12.9072 15.1173H14.7548C15.123 15.1173 15.4215 14.8188 15.4215 14.4507C15.4215 14.0825 15.123 13.784 14.7548 13.784H12.9086C13.182 13.0284 13.9059 12.4885 14.7558 12.4885C15.8406 12.4885 16.7199 13.3679 16.72 14.4526C16.72 15.5373 15.8407 16.4166 14.7559 16.4166C13.9045 16.4166 13.1797 15.8749 12.9072 15.1173ZM12.7897 5.55267C12.7897 6.63739 13.6691 7.51671 14.7538 7.51668C15.8385 7.51665 16.7178 6.63729 16.7178 5.55257C16.7178 4.46785 15.8385 3.58853 14.7538 3.58855C13.6691 3.58858 12.7897 4.46795 12.7897 5.55267ZM5.2486 16.4151C4.16384 16.4152 3.28451 15.5358 3.28451 14.4511C3.28451 13.3665 4.16385 12.4871 5.2486 12.4871C6.33334 12.4871 7.21268 13.3664 7.21268 14.4511C7.21268 15.5358 6.33335 16.4151 5.2486 16.4151Z" fill="white"/>
</svg>
