<svg width="19" height="16" viewBox="0 0 19 16" fill="none" xmlns="http://www.w3.org/2000/svg">
<g id="Group 1707484011">
<path id="Vector" fill-rule="evenodd" clip-rule="evenodd" d="M3.73242 2.00313C3.73242 1.5613 4.07367 1.20312 4.49461 1.20312H17.8329C18.2539 1.20312 18.5951 1.5613 18.5951 2.00313C18.5951 2.44495 18.2539 2.80313 17.8329 2.80313H4.49461C4.07367 2.80313 3.73242 2.44495 3.73242 2.00313ZM3.73242 8.00313C3.73242 7.5613 4.07367 7.20312 4.49461 7.20312H17.8329C18.2539 7.20312 18.5951 7.5613 18.5951 8.00313C18.5951 8.44495 18.2539 8.80312 17.8329 8.80312H4.49461C4.07367 8.80312 3.73242 8.44495 3.73242 8.00313ZM4.49461 13.2031C4.07367 13.2031 3.73242 13.5613 3.73242 14.0031C3.73242 14.445 4.07367 14.8031 4.49461 14.8031H17.8329C18.2539 14.8031 18.5951 14.445 18.5951 14.0031C18.5951 13.5613 18.2539 13.2031 17.8329 13.2031H4.49461Z" fill="#303336"/>
<ellipse id="Ellipse 2218" cx="1.5837" cy="2.00391" rx="0.989952" ry="1.03906" fill="#303336"/>
<ellipse id="Ellipse 2219" cx="1.5837" cy="8" rx="0.989952" ry="1.03906" fill="#303336"/>
<ellipse id="Ellipse 2220" cx="1.5837" cy="13.9961" rx="0.989952" ry="1.03906" fill="#303336"/>
</g>
</svg>
