<svg width="32" height="32" viewBox="0 0 32 32" fill="none" xmlns="http://www.w3.org/2000/svg">
<path d="M22.1254 29.6662C21.9973 29.6662 21.8653 29.6429 21.7411 29.5886C17.5341 27.8422 13.4746 25.0867 10.005 21.6171C6.70621 18.3182 4.03609 14.4605 2.28577 10.467L2.27024 10.4437C2.07619 10.0595 2.15381 9.5899 2.45653 9.28719C2.47205 9.27166 2.48758 9.25614 2.5031 9.24061C2.5031 9.24061 2.54191 9.20568 2.54579 9.20568C5.12277 6.94307 7.00116 5.27813 7.26895 5.0181C7.43583 4.82794 7.66869 4.70763 7.92484 4.68046C8.29741 4.64165 8.66998 4.82405 8.8718 5.1423L12.5044 10.8939C12.6596 11.1423 12.7023 11.445 12.6169 11.7206C12.5316 12 12.3298 12.229 12.062 12.3454L10.3233 13.1138C11.4255 14.6973 12.6752 16.1915 14.0529 17.5692C15.5704 19.0867 17.2159 20.4411 18.9546 21.6093L19.7696 19.7658C19.886 19.4981 20.115 19.2962 20.3944 19.2109C20.6739 19.1255 20.9766 19.1682 21.2211 19.3234L26.9727 22.956C27.2948 23.1578 27.4733 23.5265 27.4345 23.903C27.4074 24.1591 27.2871 24.3959 27.0969 24.5589C26.7631 24.9004 24.3492 27.6442 22.8705 29.3247C22.6765 29.5459 22.4009 29.6662 22.1176 29.6662H22.1254Z" fill="white"/>
<path d="M22.1245 30.8313C21.8373 30.8313 21.5579 30.7769 21.294 30.6644C16.9473 28.8636 12.7597 26.0188 9.18143 22.4406C5.79333 19.0525 3.04947 15.0939 1.24094 10.9878C1.23705 10.98 1.23317 10.9723 1.22929 10.9645C0.810146 10.1301 0.977029 9.12491 1.6368 8.46126C1.6562 8.44186 1.69501 8.40305 1.73382 8.372L1.75323 8.35648C1.75323 8.35648 1.77263 8.34095 1.78427 8.32931C4.60963 5.84936 6.15814 4.47161 6.44145 4.20383C6.80238 3.81573 7.29139 3.57122 7.8192 3.52077C8.62257 3.43539 9.42981 3.83125 9.86448 4.52207L13.4971 10.2737C13.8347 10.8093 13.9201 11.4613 13.7377 12.0667C13.5553 12.6682 13.1167 13.1611 12.5385 13.4134L12.1232 13.5958C12.9693 14.7019 13.8929 15.7575 14.8826 16.7472C16.0081 17.8726 17.2112 18.9089 18.4725 19.8403L18.7131 19.297C18.9654 18.7187 19.4583 18.284 20.0637 18.0977C20.6653 17.9153 21.3173 18.0007 21.849 18.3384L27.6045 21.9748C28.303 22.4173 28.6872 23.2012 28.6019 24.024C28.5514 24.5518 28.3069 25.0408 27.9149 25.3979C27.5618 25.7704 25.5514 28.0486 23.7545 30.0939C23.3431 30.5635 22.7493 30.8313 22.1245 30.8313ZM3.36771 10.0369C5.05982 13.8869 7.64068 17.6087 10.8308 20.7989C14.1646 24.1327 18.0534 26.7834 22.0818 28.4716C22.5941 27.8856 25.532 24.5402 26.1879 23.8338L20.7623 20.4069L20.0249 22.0796C19.8852 22.394 19.6135 22.6307 19.2836 22.7278C18.9537 22.8248 18.5967 22.7666 18.3095 22.5764C16.5087 21.3694 14.8011 19.9606 13.2332 18.3927C11.8127 16.9723 10.5126 15.4199 9.37159 13.7782C9.17366 13.491 9.11157 13.134 9.20471 12.8002C9.29786 12.4664 9.53848 12.1909 9.85672 12.0512L11.4246 11.3604L7.99773 5.93474C7.44663 6.44703 5.21894 8.41469 3.36771 10.0369Z" fill="#303336"/>
<path d="M29.8352 14.4531C29.1909 14.4531 28.6709 13.933 28.6709 13.2888C28.6709 7.89032 24.2776 3.49705 18.8791 3.49705C18.2349 3.49705 17.7148 2.977 17.7148 2.33275C17.7148 1.68851 18.2349 1.16846 18.8791 1.16846C25.5622 1.16846 30.9994 6.60571 30.9994 13.2888C30.9994 13.933 30.4794 14.4531 29.8352 14.4531Z" fill="#303336"/>
<path d="M25.1586 14.4533C24.5144 14.4533 23.9943 13.9332 23.9943 13.289C23.9943 10.4714 21.7006 8.17771 18.883 8.17771C18.2388 8.17771 17.7188 7.65766 17.7188 7.01342C17.7188 6.36917 18.2388 5.84912 18.883 5.84912C22.9852 5.84912 26.3229 9.18677 26.3229 13.289C26.3229 13.9332 25.8028 14.4533 25.1586 14.4533Z" fill="#303336"/>
</svg>
