<svg width="20" height="20" viewBox="0 0 20 20" fill="none" xmlns="http://www.w3.org/2000/svg">
<g id="icon/login">
<path id="Vector" fill-rule="evenodd" clip-rule="evenodd" d="M16.8327 2.5C17.0095 2.5 17.1791 2.57023 17.3041 2.69526C17.4291 2.82028 17.4993 2.98985 17.4993 3.16667V16.8357C17.4993 17.2039 17.2009 17.5023 16.8327 17.5023H10.6667C10.2985 17.5023 10 17.2039 10 16.8357C10 16.4675 10.2985 16.169 10.6667 16.169H16.166V3.83335L10.6667 3.8335C10.2985 3.83351 10 3.53504 10 3.16685C9.99999 2.79866 10.2985 2.50017 10.6666 2.50016L16.8327 2.5ZM12.9621 10.4807C13.0928 10.355 13.1667 10.1815 13.1667 10.0002C13.1667 9.81882 13.0928 9.6453 12.9621 9.51961L8.62874 5.35294C8.36334 5.09775 7.94131 5.10602 7.68611 5.37142C7.43092 5.63683 7.43919 6.05886 7.70459 6.31405L10.8448 9.3335H2.83463C2.46644 9.3335 2.16797 9.63197 2.16797 10.0002C2.16797 10.3684 2.46644 10.6668 2.83463 10.6668H10.8448L7.70459 13.6863C7.43919 13.9415 7.43092 14.3635 7.68611 14.6289C7.94131 14.8943 8.36334 14.9026 8.62874 14.6474L12.9621 10.4807Z" fill="#303336"/>
</g>
</svg>
