<svg width="16" height="16" viewBox="0 0 16 16" fill="none" xmlns="http://www.w3.org/2000/svg">
<rect x="14.667" y="1.33325" width="13.3333" height="13.3333" rx="6.66667" transform="rotate(90 14.667 1.33325)" fill="#D7D9DB"/>
<path fill-rule="evenodd" clip-rule="evenodd" d="M5.37677 4.62301C5.16849 4.41473 4.8308 4.41473 4.62252 4.62301C4.41424 4.83129 4.41424 5.16897 4.62252 5.37725L7.24592 8.00065L4.62356 10.623C4.41528 10.8313 4.41528 11.169 4.62356 11.3773C4.83184 11.5855 5.16953 11.5855 5.37781 11.3773L8.00016 8.7549L10.6225 11.3773C10.8308 11.5855 11.1685 11.5855 11.3768 11.3773C11.585 11.169 11.585 10.8313 11.3768 10.623L8.75441 8.00065L11.3778 5.37725C11.5861 5.16897 11.5861 4.83129 11.3778 4.62301C11.1695 4.41473 10.8318 4.41473 10.6236 4.62301L8.00016 7.2464L5.37677 4.62301Z" fill="#303336"/>
</svg>
