<svg width="21" height="20" viewBox="0 0 21 20" fill="none" xmlns="http://www.w3.org/2000/svg">
<path fill-rule="evenodd" clip-rule="evenodd" d="M3.9974 10.0003C3.9974 6.41399 6.92204 3.50033 10.5376 3.50033C12.9934 3.50033 15.1324 4.84518 16.2508 6.83374H13.666C13.2978 6.83374 12.9993 7.13222 12.9993 7.50041C12.9993 7.8686 13.2978 8.16707 13.666 8.16707H17.8327C18.2009 8.16707 18.4993 7.8686 18.4993 7.50041V3.33374C18.4993 2.96555 18.2009 2.66707 17.8327 2.66707C17.4645 2.66707 17.166 2.96555 17.166 3.33374V5.77103C15.7656 3.60295 13.3199 2.16699 10.5376 2.16699C6.19271 2.16699 2.66406 5.67058 2.66406 10.0003C2.66406 14.33 6.19271 17.8337 10.5376 17.8337C14.4823 17.8337 17.7526 14.947 18.3232 11.175C18.3783 10.811 18.1278 10.4712 17.7638 10.4162C17.3997 10.3611 17.06 10.6116 17.0049 10.9756C16.5323 14.0999 13.8186 16.5003 10.5376 16.5003C6.92204 16.5003 3.9974 13.5866 3.9974 10.0003Z" fill="#303336"/>
</svg>
