<svg width="24" height="25" viewBox="0 0 24 25" fill="none" xmlns="http://www.w3.org/2000/svg">
<path fill-rule="evenodd" clip-rule="evenodd" d="M22 12.4992C22 12.7168 21.9113 12.9251 21.7545 13.0759L16.5545 18.0759C16.236 18.3821 15.7296 18.3722 15.4233 18.0537C15.1171 17.7352 15.127 17.2288 15.4455 16.9226L19.2138 13.2992L2.80078 13.2992C2.35896 13.2992 2.00078 12.941 2.00078 12.4992C2.00078 12.0574 2.35896 11.6992 2.80078 11.6992L19.2138 11.6992L15.4455 8.07589C15.127 7.76965 15.1171 7.26322 15.4233 6.94473C15.7296 6.62625 16.236 6.61632 16.5545 6.92255L21.7545 11.9226C21.9113 12.0734 22 12.2816 22 12.4992Z" fill="white"/>
</svg>
