<svg width="32" height="33" viewBox="0 0 32 33" fill="none" xmlns="http://www.w3.org/2000/svg">
<path fill-rule="evenodd" clip-rule="evenodd" d="M15.9946 7.74494C13.975 7.74494 12.3582 9.36169 12.3582 11.331C12.3582 13.3004 13.975 14.9171 15.9946 14.9171C18.0141 14.9171 19.6309 13.3004 19.6309 11.331C19.6309 9.36169 18.0141 7.74494 15.9946 7.74494ZM10.1133 11.331C10.1133 8.09943 12.7577 5.5 15.9946 5.5C19.2314 5.5 21.8758 8.09943 21.8758 11.331C21.8758 14.5626 19.2314 17.162 15.9946 17.162C12.7577 17.162 10.1133 14.5626 10.1133 11.331Z" fill="#303336"/>
<path fill-rule="evenodd" clip-rule="evenodd" d="M5.49945 25.1734C6.34728 20.5977 10.8281 17.2949 16.0025 17.2949C21.178 17.2949 25.6506 20.5987 26.4982 25.1734C26.6112 25.7829 26.2086 26.3686 25.599 26.4815C24.9895 26.5945 24.4038 26.1919 24.2908 25.5824C23.6754 22.2607 20.3003 19.5399 16.0025 19.5399C11.7036 19.5399 8.32211 22.2617 7.70682 25.5824C7.59388 26.1919 7.00818 26.5945 6.39864 26.4815C5.78909 26.3686 5.38651 25.7829 5.49945 25.1734Z" fill="#303336"/>
</svg>
