<svg width="40" height="40" viewBox="0 0 40 40" fill="none" xmlns="http://www.w3.org/2000/svg">
<path fill-rule="evenodd" clip-rule="evenodd" d="M6.66423 18.1674C6.66423 11.8161 11.813 6.6674 18.1642 6.6674C24.5155 6.6674 29.6642 11.8161 29.6642 18.1674C29.6642 21.1892 28.4987 23.9388 26.5927 25.9912C26.4667 26.0538 26.3486 26.1377 26.2436 26.2427C26.1384 26.3478 26.0545 26.4662 25.9918 26.5924C23.939 28.5005 21.1879 29.6674 18.1642 29.6674C11.813 29.6674 6.66423 24.5187 6.66423 18.1674ZM27.1968 29.0815C24.7449 31.113 21.5971 32.3341 18.1642 32.3341C10.3402 32.3341 3.99756 25.9914 3.99756 18.1674C3.99756 10.3434 10.3402 4.00073 18.1642 4.00073C25.9883 4.00073 32.3309 10.3434 32.3309 18.1674C32.3309 21.5982 31.1113 24.7442 29.082 27.1955L34.6105 32.724C35.1312 33.2447 35.1312 34.0889 34.6105 34.6096C34.0898 35.1303 33.2456 35.1303 32.7249 34.6096L27.1968 29.0815Z" fill="#303336"/>
</svg>
