<svg width="32" height="32" viewBox="0 0 32 32" fill="none" xmlns="http://www.w3.org/2000/svg">
<path fill-rule="evenodd" clip-rule="evenodd" d="M14.4007 13.0669C11.6007 13.0669 9.33398 10.8003 9.33398 8.00026C9.33398 5.20026 11.6007 2.93359 14.4007 2.93359C17.2007 2.93359 19.4673 5.20026 19.4673 8.00026C19.4673 10.8003 17.2007 13.0669 14.4007 13.0669ZM14.4007 5.06693C12.8007 5.06693 11.4673 6.40026 11.4673 8.00026C11.4673 9.60026 12.8007 10.9336 14.4007 10.9336C16.0007 10.9336 17.334 9.60026 17.334 8.00026C17.334 6.40026 16.0007 5.06693 14.4007 5.06693ZM14.5323 26.4003H5.33229C4.79896 26.4003 4.26562 25.8669 4.26562 25.3336V24.2669C4.26562 22.6669 4.79896 21.0669 5.59896 19.6003C6.39896 18.2669 7.73229 17.0669 9.19896 16.2669C10.6656 15.4669 12.399 14.9336 13.999 14.9336H14.9323C16.6656 14.9336 18.2656 15.4669 19.7323 16.2669C20.5323 16.8003 21.3323 17.3336 21.999 18.0003C22.399 18.4003 22.399 19.0669 21.999 19.4669C21.599 19.8669 20.9323 19.8669 20.5323 19.4669C19.999 18.9336 19.4656 18.5336 18.799 18.1336C17.599 17.4669 16.2656 17.0669 14.9323 17.0669H14.1323C12.799 17.0669 11.4656 17.4669 10.2656 18.1336C9.06563 18.8003 8.13229 19.7336 7.46562 20.8003C6.79896 21.8669 6.39896 23.0669 6.39896 24.2669H14.5323C15.0656 24.2669 15.599 24.8003 15.599 25.3336C15.599 25.8669 15.0656 26.4003 14.5323 26.4003ZM21.2 27.6002C21.3334 27.7335 21.4667 27.7335 21.7334 27.7335L21.6 27.8669C21.8667 27.8669 22.1334 27.7335 22.4 27.4669L28 20.8002C28.5334 20.4002 28.4 19.7335 28 19.3335C27.6 18.8002 26.9334 18.9335 26.5334 19.3335L21.6 25.3335L18.6667 23.3335C18.1334 22.9335 17.4667 23.0669 17.2 23.6002C16.8 24.1335 16.9334 24.8002 17.4667 25.0669L21.2 27.6002Z" fill="#303336"/>
</svg>
