<svg width="71" height="70" viewBox="0 0 71 70" fill="none" xmlns="http://www.w3.org/2000/svg">
<g id="icon/exclamation">
<path id="Vector" fill-rule="evenodd" clip-rule="evenodd" d="M35.3009 10.5002C21.77 10.5002 10.8009 21.4692 10.8009 35.0002C10.8009 48.5311 21.77 59.5002 35.3009 59.5002C48.8319 59.5002 59.8009 48.5311 59.8009 35.0002C59.8009 21.4692 48.8319 10.5002 35.3009 10.5002ZM6.13428 35.0002C6.13428 18.8919 19.1926 5.8335 35.3009 5.8335C51.4092 5.8335 64.4676 18.8919 64.4676 35.0002C64.4676 51.1085 51.4092 64.1668 35.3009 64.1668C19.1926 64.1668 6.13428 51.1085 6.13428 35.0002ZM32.3843 20.9168C32.3843 20.6407 32.6081 20.4168 32.8843 20.4168H37.7176C37.9938 20.4168 38.2176 20.6407 38.2176 20.9168V40.3335C38.2176 40.6096 37.9938 40.8335 37.7176 40.8335H32.8843C32.6081 40.8335 32.3843 40.6096 32.3843 40.3335V20.9168ZM32.8843 43.7502C32.6081 43.7502 32.3843 43.974 32.3843 44.2502V49.0835C32.3843 49.3596 32.6081 49.5835 32.8843 49.5835H37.7176C37.9938 49.5835 38.2176 49.3596 38.2176 49.0835V44.2502C38.2176 43.974 37.9938 43.7502 37.7176 43.7502H32.8843Z" fill="#EAEBEC"/>
</g>
</svg>
