<svg width="24" height="16" viewBox="0 0 24 16" fill="none" xmlns="http://www.w3.org/2000/svg">
<g id="value" clip-path="url(#clip0_1339_89143)">
<path id="Vector" d="M0 0H24V16H0V0Z" fill="white"/>
<g id="Group">
<path id="Vector_2" d="M8.67188 5.78125C9.26035 4.89857 10.1754 4.28581 11.2156 4.07777C12.2559 3.86973 13.3362 4.08345 14.2189 4.67192C15.1016 5.26039 15.7144 6.1754 15.9224 7.21566C16.1304 8.25592 15.9167 9.33622 15.3282 10.2189L8.67188 5.78125Z" fill="#D0303C"/>
<path id="Vector_3" d="M8.67197 5.78122C8.08349 6.6639 7.86977 7.7442 8.07781 8.78446C8.28585 9.82472 8.89861 10.7397 9.7813 11.3282C10.664 11.9167 11.7443 12.1304 12.7846 11.9224C13.8248 11.7143 14.7398 11.1016 15.3283 10.2189C15.6225 9.77754 15.7294 9.23739 15.6254 8.71726C15.5214 8.19713 15.215 7.73962 14.7736 7.44539C14.3323 7.15115 13.7921 7.04429 13.272 7.14831C12.7519 7.25233 12.2944 7.55871 12.0001 8.00005L8.67197 5.78122Z" fill="#134A9D"/>
<path id="Vector_4" d="M12.0001 8.00007C12.6128 7.08102 12.3645 5.83928 11.4454 5.22657C10.5264 4.61385 9.28463 4.86218 8.67192 5.78123C8.0592 6.70028 8.30753 7.94202 9.22658 8.55473C10.1456 9.16745 11.3874 8.91912 12.0001 8.00007Z" fill="#D0303C"/>
</g>
<g id="Vector_5">
<path d="M3.67977 4.8575L5.89858 1.5293L6.45328 1.8991L4.23447 5.2273L3.67977 4.8575ZM4.51182 5.4122L6.73063 2.084L7.28533 2.4538L5.06652 5.782L4.51182 5.4122ZM5.34387 5.9669L7.56268 2.6387L8.11738 3.0085L5.89858 6.3367L5.34387 5.9669Z" fill="black"/>
<path d="M19.3038 12.6694L20.3207 11.1441L19.766 10.7743L18.7491 12.2996L19.3038 12.6694Z" fill="black"/>
<path d="M18.4718 12.1147L19.4887 10.5894L18.934 10.2196L17.9171 11.7449L18.4718 12.1147Z" fill="black"/>
<path d="M17.7322 12.0223L18.2869 12.3921L17.2699 13.9176L16.7152 13.5478L17.7322 12.0223Z" fill="black"/>
<path d="M17.6397 11.56L18.6566 10.0347L18.1019 9.66491L17.085 11.1902L17.6397 11.56Z" fill="black"/>
<path d="M16.9001 11.4676L17.4548 11.8374L16.4378 13.3629L15.8831 12.9931L16.9001 11.4676Z" fill="black"/>
<path d="M18.5642 12.577L19.1189 12.9468L18.1019 14.4723L17.5472 14.1025L18.5642 12.577Z" fill="black"/>
<path d="M17.4547 4.16435L16.4377 2.63886L15.883 3.00866L16.9 4.53415L17.4547 4.16435Z" fill="black"/>
<path d="M17.0849 4.8115L18.1018 6.33686L18.6565 5.96706L17.6396 4.4417L17.0849 4.8115Z" fill="black"/>
<path d="M18.9339 5.78216L16.7151 2.45396L17.2698 2.08416L19.4886 5.41236L18.9339 5.78216Z" fill="black"/>
<path d="M19.7659 5.22746L18.749 3.70207L19.3037 3.33227L20.3206 4.85766L19.7659 5.22746Z" fill="black"/>
<path d="M19.1188 3.05492L18.5641 3.42472L17.5471 1.89926L18.1018 1.52946L19.1188 3.05492Z" fill="black"/>
<path d="M3.67969 11.1443L5.89849 14.4725L6.45319 14.1027L4.23439 10.7745L3.67969 11.1443Z" fill="black"/>
<path d="M5.7136 12.3924L6.73054 13.9178L7.28524 13.548L6.2683 12.0226L5.7136 12.3924Z" fill="black"/>
<path d="M5.5287 12.115L6.0834 11.7452L5.06644 10.2198L4.51174 10.5896L5.5287 12.115Z" fill="black"/>
<path d="M5.34379 10.0349L7.56259 13.3631L8.11729 12.9933L5.89849 9.66506L5.34379 10.0349Z" fill="black"/>
</g>
</g>
<defs>
<clipPath id="clip0_1339_89143">
<rect width="24" height="16" fill="white"/>
</clipPath>
</defs>
</svg>
