<svg width="80" height="80" viewBox="0 0 80 80" fill="none" xmlns="http://www.w3.org/2000/svg">
<path d="M5 40C5 59.33 20.67 75 40 75C59.33 75 75 59.33 75 40C75 20.67 59.33 5 40 5C20.67 5 5 20.67 5 40Z" fill="#FAEBEC"/>
<path fill-rule="evenodd" clip-rule="evenodd" d="M37.5 24C37.2239 24 37 24.2239 37 24.5V45.5C37 45.7761 37.2239 46 37.5 46H42.5C42.7761 46 43 45.7761 43 45.5V24.5C43 24.2239 42.7761 24 42.5 24H37.5ZM37.5 50C37.2239 50 37 50.2239 37 50.5V55.5C37 55.7761 37.2239 56 37.5 56H42.5C42.7761 56 43 55.7761 43 55.5V50.5C43 50.2239 42.7761 50 42.5 50H37.5Z" fill="#DC3318"/>
</svg>
