<svg width="75" height="75" viewBox="0 0 75 75" fill="none" xmlns="http://www.w3.org/2000/svg">
<path d="M2.79492 37.625C2.79492 56.955 18.465 72.625 37.7949 72.625C57.1249 72.625 72.7949 56.955 72.7949 37.625C72.7949 18.295 57.1249 2.625 37.7949 2.625C18.465 2.625 2.79492 18.295 2.79492 37.625Z" fill="#EEF2F7"/>
<path fill-rule="evenodd" clip-rule="evenodd" d="M35.2129 22.209C34.9367 22.209 34.7129 22.4328 34.7129 22.709V43.2923C34.7129 43.5685 34.9367 43.7923 35.2129 43.7923H40.3796C40.6557 43.7923 40.8796 43.5685 40.8796 43.2923V22.709C40.8796 22.4328 40.6557 22.209 40.3796 22.209H35.2129ZM35.2129 46.8757C34.9367 46.8757 34.7129 47.0995 34.7129 47.3757V52.5423C34.7129 52.8185 34.9367 53.0423 35.2129 53.0423H40.3796C40.6557 53.0423 40.8796 52.8185 40.8796 52.5423V47.3757C40.8796 47.0995 40.6557 46.8757 40.3796 46.8757H35.2129Z" fill="#063A74"/>
</svg>
