<svg width="75" height="74" viewBox="0 0 75 74" fill="none" xmlns="http://www.w3.org/2000/svg">
<path d="M2.5 37C2.5 56.33 18.17 72 37.5 72C56.83 72 72.5 56.33 72.5 37C72.5 17.67 56.83 2 37.5 2C18.17 2 2.5 17.67 2.5 37Z" fill="#F0F5FE"/>
<path fill-rule="evenodd" clip-rule="evenodd" d="M49.0725 25.7116C50.1973 26.4802 50.486 28.015 49.7174 29.1398L37.0758 47.6398C36.6617 48.2458 35.9993 48.6359 35.2686 48.7041C34.5378 48.7724 33.8147 48.5117 33.2955 47.9929L25.5824 40.2846C24.6188 39.3216 24.6183 37.7598 25.5813 36.7962C26.5443 35.8326 28.1061 35.8321 29.0697 36.7951L34.6799 42.4018L45.6443 26.3565C46.4129 25.2317 47.9478 24.943 49.0725 25.7116Z" fill="#0B50D0"/>
</svg>
