<svg width="32" height="33" viewBox="0 0 32 33" fill="none" xmlns="http://www.w3.org/2000/svg">
<path d="M3 16.5C3 23.6797 8.8203 29.5 16 29.5C23.1797 29.5 29 23.6797 29 16.5C29 9.3203 23.1797 3.5 16 3.5C8.8203 3.5 3 9.3203 3 16.5Z" fill="#256EF4"/>
<path fill-rule="evenodd" clip-rule="evenodd" d="M20.8807 11.7415C21.3549 12.0655 21.4766 12.7127 21.1526 13.1869L15.8226 20.9869C15.648 21.2424 15.3687 21.4069 15.0606 21.4357C14.7525 21.4644 14.4476 21.3545 14.2287 21.1358L10.9767 17.8858C10.5704 17.4798 10.5702 16.8213 10.9763 16.415C11.3823 16.0087 12.0408 16.0085 12.447 16.4145L14.8124 18.7785L19.4352 12.0134C19.7593 11.5392 20.4064 11.4174 20.8807 11.7415Z" fill="white"/>
</svg>
