<svg width="32" height="32" viewBox="0 0 32 32" fill="none" xmlns="http://www.w3.org/2000/svg">
<path d="M3.5 16C3.5 22.9036 9.09644 28.5 16 28.5C22.9036 28.5 28.5 22.9036 28.5 16C28.5 9.09644 22.9036 3.5 16 3.5C9.09644 3.5 3.5 9.09644 3.5 16Z" fill="white" stroke="#D7D9DB"/>
<path fill-rule="evenodd" clip-rule="evenodd" d="M20.8792 11.2415C21.3534 11.5655 21.4752 12.2127 21.1511 12.6869L15.8211 20.4869C15.6465 20.7424 15.3673 20.9069 15.0592 20.9357C14.7511 20.9644 14.4462 20.8545 14.2273 20.6358L10.9752 17.3858C10.569 16.9798 10.5688 16.3213 10.9748 15.915C11.3808 15.5087 12.0393 15.5085 12.4456 15.9145L14.811 18.2785L19.4338 11.5134C19.7578 11.0392 20.405 10.9174 20.8792 11.2415Z" fill="#D7D9DB"/>
</svg>
