<svg width="24" height="12" viewBox="0 0 24 12" fill="none" xmlns="http://www.w3.org/2000/svg">
<g id="arrow">
<g id="Vector">
<mask id="path-1-inside-1_1433_50416" fill="white">
<path d="M23.2539 12L12.2539 -9.61651e-07L1.25391 12L23.2539 12Z"/>
</mask>
<path d="M23.2539 12L12.2539 -9.61651e-07L1.25391 12L23.2539 12Z" fill="white"/>
<path d="M12.2539 -9.61651e-07L13.7282 -1.35145C13.3494 -1.76471 12.8145 -2 12.2539 -2C11.6933 -2 11.1584 -1.76471 10.7796 -1.35145L12.2539 -9.61651e-07ZM23.2539 12L23.2539 14L27.8004 14L24.7282 10.6485L23.2539 12ZM1.25391 12L-0.220402 10.6485L-3.29256 14L1.25391 14L1.25391 12ZM10.7796 1.35145L21.7796 13.3514L24.7282 10.6485L13.7282 -1.35145L10.7796 1.35145ZM2.72821 13.3514L13.7282 1.35145L10.7796 -1.35145L-0.220402 10.6485L2.72821 13.3514ZM23.2539 10L1.25391 10L1.25391 14L23.2539 14L23.2539 10Z" fill="#256EF4" mask="url(#path-1-inside-1_1433_50416)"/>
</g>
<path id="white" d="M22.7539 12L0.753906 12L0.753906 10L22.7539 10L22.7539 12Z" fill="white"/>
<path id="gray" d="M23.7031 12L20.4531 12L18.7031 10L23.7031 10L23.7031 12Z" fill="#256EF4"/>
<path id="gray_2" d="M0.703125 12L4.00312 12L5.75313 10L0.703125 10L0.703125 12Z" fill="#256EF4"/>
</g>
</svg>
