<svg width="74" height="75" viewBox="0 0 74 75" fill="none" xmlns="http://www.w3.org/2000/svg">
<path d="M1.99805 37.5C1.99805 56.83 17.6681 72.5 36.998 72.5C56.328 72.5 71.998 56.83 71.998 37.5C71.998 18.17 56.328 2.5 36.998 2.5C17.6681 2.5 1.99805 18.17 1.99805 37.5Z" fill="#EEF2F7"/>
<path fill-rule="evenodd" clip-rule="evenodd" d="M34.416 22.084C34.1399 22.084 33.916 22.3078 33.916 22.584V43.1673C33.916 43.4435 34.1399 43.6673 34.416 43.6673H39.5827C39.8588 43.6673 40.0827 43.4435 40.0827 43.1673V22.584C40.0827 22.3078 39.8588 22.084 39.5827 22.084H34.416ZM34.416 46.7507C34.1399 46.7507 33.916 46.9745 33.916 47.2507V52.4173C33.916 52.6935 34.1399 52.9173 34.416 52.9173H39.5827C39.8588 52.9173 40.0827 52.6935 40.0827 52.4173V47.2507C40.0827 46.9745 39.8588 46.7507 39.5827 46.7507H34.416Z" fill="#063A74"/>
</svg>
