<svg width="40" height="41" viewBox="0 0 40 41" fill="none" xmlns="http://www.w3.org/2000/svg">
<path d="M19.9685 20.9742C18.2012 20.9742 16.5598 20.1113 15.3467 18.5445C14.2152 17.0837 13.5664 15.1286 13.5664 13.1804C13.5664 9.24704 16.199 6.5 19.9685 6.5C23.7379 6.5 26.3705 9.24704 26.3705 13.1804C26.3705 15.1286 25.7217 17.0837 24.5902 18.5445C23.3771 20.1113 21.7357 20.9742 19.9685 20.9742Z" fill="url(#paint0_linear_2940_82997)"/>
<path d="M19.9691 34.4993C12.0272 34.4993 8 33.4708 8 31.442C8 25.9553 12.3626 22.8086 19.9691 22.8086C27.5756 22.8086 31.9381 25.9553 31.9381 31.442C31.9381 33.4708 27.9109 34.4993 19.9691 34.4993Z" fill="url(#paint1_linear_2940_82997)"/>
<g filter="url(#filter0_b_2940_82997)">
<path d="M19.9685 20.9742C18.2012 20.9742 16.5598 20.1113 15.3467 18.5445C14.2152 17.0837 13.5664 15.1286 13.5664 13.1804C13.5664 9.24704 16.199 6.5 19.9685 6.5C23.7379 6.5 26.3705 9.24704 26.3705 13.1804C26.3705 15.1286 25.7217 17.0837 24.5902 18.5445C23.3771 20.1113 21.7357 20.9742 19.9685 20.9742Z" fill="white" fill-opacity="0.1"/>
<path d="M15.7421 18.2384L15.742 18.2383C14.6823 16.8702 14.0664 15.0242 14.0664 13.1804C14.0664 11.3268 14.6851 9.78567 15.7149 8.71115C16.7432 7.63818 18.21 7 19.9685 7C21.727 7 23.1938 7.63818 24.222 8.71115C25.2518 9.78567 25.8705 11.3268 25.8705 13.1804C25.8705 15.0242 25.2547 16.8702 24.1949 18.2383L24.1948 18.2384C23.0634 19.6999 21.5608 20.4742 19.9685 20.4742C18.3761 20.4742 16.8735 19.6999 15.7421 18.2384Z" stroke="black" stroke-opacity="0.05"/>
<path d="M19.9691 34.4993C12.0272 34.4993 8 33.4708 8 31.442C8 25.9553 12.3626 22.8086 19.9691 22.8086C27.5756 22.8086 31.9381 25.9553 31.9381 31.442C31.9381 33.4708 27.9109 34.4993 19.9691 34.4993Z" fill="white" fill-opacity="0.1"/>
<path d="M19.9691 33.9993C16.0092 33.9993 13.0675 33.7419 11.1301 33.247C10.1589 32.999 9.48114 32.7011 9.05612 32.3777C8.64488 32.0648 8.5 31.7549 8.5 31.442C8.5 28.8491 9.52148 26.846 11.4246 25.4733C13.3498 24.0847 16.2246 23.3086 19.9691 23.3086C23.7136 23.3086 26.5883 24.0847 28.5135 25.4733C30.4167 26.846 31.4381 28.8491 31.4381 31.442C31.4381 31.7549 31.2933 32.0648 30.882 32.3777C30.457 32.7011 29.7792 32.999 28.8081 33.247C26.8706 33.7419 23.929 33.9993 19.9691 33.9993Z" stroke="black" stroke-opacity="0.05"/>
</g>
<defs>
<filter id="filter0_b_2940_82997" x="6" y="4.5" width="27.9375" height="32" filterUnits="userSpaceOnUse" color-interpolation-filters="sRGB">
<feFlood flood-opacity="0" result="BackgroundImageFix"/>
<feGaussianBlur in="BackgroundImageFix" stdDeviation="1"/>
<feComposite in2="SourceAlpha" operator="in" result="effect1_backgroundBlur_2940_82997"/>
<feBlend mode="normal" in="SourceGraphic" in2="effect1_backgroundBlur_2940_82997" result="shape"/>
</filter>
<linearGradient id="paint0_linear_2940_82997" x1="15.5226" y1="10.2219" x2="25.513" y2="15.5779" gradientUnits="userSpaceOnUse">
<stop stop-color="#796BF8"/>
<stop offset="1" stop-color="#9D92FD"/>
</linearGradient>
<linearGradient id="paint1_linear_2940_82997" x1="11.6572" y1="25.8148" x2="21.1244" y2="37.5629" gradientUnits="userSpaceOnUse">
<stop stop-color="#796BF8"/>
<stop offset="1" stop-color="#9D92FD"/>
</linearGradient>
</defs>
</svg>
