<svg width="48" height="48" viewBox="0 0 48 48" fill="none" xmlns="http://www.w3.org/2000/svg">
<path d="M14.5679 11.7448C20.0809 12.7344 23.3666 15.5568 24.5 16.7452L34.4 12.9478C36.05 11.7448 38.6214 10.9928 39.8107 11.9536C41 12.9143 41 14.4745 41 17.5947V28.8085C41 31.6616 41 33.0881 40.2367 33.9787C39.4734 34.8693 37.793 35.171 34.4321 35.7743L34.4321 35.7743C31.4361 36.3121 29.0978 37.1689 27.4054 38.03C25.7402 38.8772 24.9075 39.3008 24.5 39.3008C24.0925 39.3008 23.2598 38.8772 21.5946 38.03C19.9022 37.1689 17.5639 36.3121 14.5679 35.7743C11.207 35.171 9.52657 34.8693 8.76329 33.9787C8 33.0881 8 31.6616 8 28.8085V17.5947C8 14.4745 8 12.9143 9.18929 11.9536C10.3786 10.9928 11.775 11.2435 14.5679 11.7448Z" fill="url(#paint0_linear_2854_112731)"/>
<g filter="url(#filter0_b_2854_112731)">
<path d="M14.5679 11.7448C20.0809 12.7344 23.3666 15.5568 24.5 16.7452L34.4 12.9478C36.05 11.7448 38.6214 10.9928 39.8107 11.9536C41 12.9143 41 14.4745 41 17.5947V28.8085C41 31.6616 41 33.0881 40.2367 33.9787C39.4734 34.8693 37.793 35.171 34.4321 35.7743L34.4321 35.7743C31.4361 36.3121 29.0978 37.1689 27.4054 38.03C25.7402 38.8772 24.9075 39.3008 24.5 39.3008C24.0925 39.3008 23.2598 38.8772 21.5946 38.03C19.9022 37.1689 17.5639 36.3121 14.5679 35.7743C11.207 35.171 9.52657 34.8693 8.76329 33.9787C8 33.0881 8 31.6616 8 28.8085V17.5947C8 14.4745 8 12.9143 9.18929 11.9536C10.3786 10.9928 11.775 11.2435 14.5679 11.7448Z" fill="white" fill-opacity="0.1"/>
<path d="M24.1382 17.0903L24.3681 17.3314L24.6791 17.2121L34.5791 13.4147L34.641 13.3909L34.6946 13.3519C35.4668 12.7888 36.4588 12.3303 37.385 12.1277C38.3381 11.9192 39.083 12.0085 39.4965 12.3425C39.9658 12.7216 40.222 13.2223 40.358 14.0458C40.4984 14.8959 40.5 16.0173 40.5 17.5947V28.8085C40.5 30.2472 40.4992 31.2829 40.4079 32.072C40.3175 32.8534 40.1451 33.3173 39.8571 33.6533C39.5755 33.9818 39.0862 34.2471 38.1736 34.5028C37.2666 34.7569 36.0345 34.9786 34.3438 35.2821L34.3437 35.2821L34.3082 35.2885L34.3081 35.2886C31.2831 35.835 28.9098 36.7036 27.1786 37.5844C26.3414 38.0103 25.7291 38.3217 25.2746 38.5277C25.048 38.6304 24.8724 38.7015 24.7359 38.7463C24.594 38.7928 24.5242 38.8008 24.5 38.8008C24.4758 38.8008 24.406 38.7928 24.2641 38.7463C24.1276 38.7015 23.952 38.6304 23.7254 38.5277C23.2709 38.3217 22.6586 38.0103 21.8214 37.5844C20.0834 36.7001 17.6983 35.8282 14.6563 35.2821C12.9655 34.9787 11.7334 34.7569 10.8264 34.5028C9.91378 34.2471 9.42446 33.9818 9.14294 33.6533C8.85491 33.3173 8.6825 32.8534 8.5921 32.072C8.50079 31.2829 8.5 30.2472 8.5 28.8085V17.5947C8.5 16.0173 8.50159 14.8959 8.64198 14.0458C8.77799 13.2223 9.03422 12.7216 9.5035 12.3425C9.98665 11.9522 10.5113 11.7962 11.2742 11.8009C12.068 11.8058 13.0659 11.9832 14.4796 12.2369C19.8615 13.203 23.0569 15.9566 24.1382 17.0903Z" stroke="black" stroke-opacity="0.05"/>
</g>
<path d="M34.3984 28.8947C28.6234 30.5789 25.4151 37.3158 24.4984 39V16.2632C25.4151 14.5789 28.6234 8.68421 34.3984 7V28.8947Z" fill="url(#paint1_linear_2854_112731)"/>
<g filter="url(#filter1_b_2854_112731)">
<path d="M34.3984 28.8947C28.6234 30.5789 25.4151 37.3158 24.4984 39V16.2632C25.4151 14.5789 28.6234 8.68421 34.3984 7V28.8947Z" fill="white" fill-opacity="0.1"/>
</g>
<defs>
<filter id="filter0_b_2854_112731" x="6" y="9.30078" width="37" height="32" filterUnits="userSpaceOnUse" color-interpolation-filters="sRGB">
<feFlood flood-opacity="0" result="BackgroundImageFix"/>
<feGaussianBlur in="BackgroundImageFix" stdDeviation="1"/>
<feComposite in2="SourceAlpha" operator="in" result="effect1_backgroundBlur_2854_112731"/>
<feBlend mode="normal" in="SourceGraphic" in2="effect1_backgroundBlur_2854_112731" result="shape"/>
</filter>
<filter id="filter1_b_2854_112731" x="22.5" y="5" width="13.8984" height="36" filterUnits="userSpaceOnUse" color-interpolation-filters="sRGB">
<feFlood flood-opacity="0" result="BackgroundImageFix"/>
<feGaussianBlur in="BackgroundImageFix" stdDeviation="1"/>
<feComposite in2="SourceAlpha" operator="in" result="effect1_backgroundBlur_2854_112731"/>
<feBlend mode="normal" in="SourceGraphic" in2="effect1_backgroundBlur_2854_112731" result="shape"/>
</filter>
<linearGradient id="paint0_linear_2854_112731" x1="13.0417" y1="18.5008" x2="34.9919" y2="34.1789" gradientUnits="userSpaceOnUse">
<stop stop-color="#FFBD67"/>
<stop offset="1" stop-color="#FFA16E"/>
</linearGradient>
<linearGradient id="paint1_linear_2854_112731" x1="32.8859" y1="15.2286" x2="23.2791" y2="17.0298" gradientUnits="userSpaceOnUse">
<stop stop-color="#FFDDBB"/>
<stop offset="1" stop-color="#FFCEB0"/>
</linearGradient>
</defs>
</svg>
