<svg width="48" height="48" viewBox="0 0 48 48" fill="none" xmlns="http://www.w3.org/2000/svg">
<path d="M38.8949 12.7639C38.4324 12.5386 37.9152 12.4125 37.3726 12.4125H27.6922C26.6142 12.4125 25.5944 11.9082 24.9061 11.041C24.4654 10.4832 24.0247 9.92545 23.5804 9.3715C22.8921 8.50428 21.8687 8 20.7943 8H11.6274C10.6259 8 9.71902 8.42406 9.06346 9.11554C8.4079 9.80702 8 10.7545 8 11.805V36.8779C8 38.0163 8.44068 39.044 9.15087 39.7928C9.86105 40.5377 10.8444 41 11.9297 41H37.0703C38.1556 41 39.1353 40.5377 39.8491 39.7928C40.5593 39.0478 41 38.0163 41 36.8779V16.2175C41 16.2175 41 16.2061 41 16.1984C40.9927 14.6779 40.1332 13.3637 38.8949 12.7639Z" fill="url(#paint0_linear_2854_112603)"/>
<g filter="url(#filter0_b_2854_112603)">
<path d="M38.8949 12.7639C38.4324 12.5386 37.9152 12.4125 37.3726 12.4125H27.6922C26.6142 12.4125 25.5944 11.9082 24.9061 11.041C24.4654 10.4832 24.0247 9.92545 23.5804 9.3715C22.8921 8.50428 21.8687 8 20.7943 8H11.6274C10.6259 8 9.71902 8.42406 9.06346 9.11554C8.4079 9.80702 8 10.7545 8 11.805V36.8779C8 38.0163 8.44068 39.044 9.15087 39.7928C9.86105 40.5377 10.8444 41 11.9297 41H37.0703C38.1556 41 39.1353 40.5377 39.8491 39.7928C40.5593 39.0478 41 38.0163 41 36.8779V16.2175C41 16.2175 41 16.2061 41 16.1984C40.9927 14.6779 40.1332 13.3637 38.8949 12.7639Z" fill="white" fill-opacity="0.1"/>
<path d="M38.6759 13.2134L38.677 13.2139C39.7402 13.7289 40.493 14.867 40.5 16.1993V16.1993V16.1994V16.1994V16.1995V16.1995V16.1996V16.1996V16.1997V16.1997V16.1998V16.1998V16.1999V16.1999V16.1999V16.2V16.2V16.2001V16.2001V16.2002V16.2002V16.2003V16.2003V16.2004V16.2004V16.2005V16.2005V16.2006V16.2006V16.2007V16.2007V16.2008V16.2008V16.2009V16.2009V16.201V16.201V16.201V16.2011V16.2011V16.2012V16.2012V16.2013V16.2013V16.2014V16.2014V16.2015V16.2015V16.2016V16.2016V16.2017V16.2017V16.2018V16.2018V16.2019V16.2019V16.202V16.202V16.2021V16.2021V16.2022V16.2022V16.2023V16.2023V16.2024V16.2024V16.2025V16.2025V16.2026V16.2026V16.2027V16.2027V16.2028V16.2028V16.2029V16.2029V16.203V16.203V16.2031V16.2031V16.2032V16.2032V16.2033V16.2033V16.2034V16.2034V16.2035V16.2035V16.2036V16.2036V16.2037V16.2037V16.2038V16.2038V16.2039V16.2039V16.204V16.204V16.2041V16.2041V16.2042V16.2042V16.2043V16.2043V16.2044V16.2044V16.2045V16.2045V16.2046V16.2046V16.2047V16.2047V16.2048V16.2048V16.2049V16.2049V16.205V16.205V16.2051V16.2051V16.2052V16.2052V16.2053V16.2053V16.2054V16.2054V16.2055V16.2055V16.2056V16.2056V16.2057V16.2057V16.2058V16.2058V16.2059V16.2059V16.206V16.206V16.2061V16.2061V16.2062V16.2062V16.2063V16.2063V16.2064V16.2064V16.2065V16.2065V16.2066V16.2066V16.2067V16.2067V16.2068V16.2068V16.2069V16.2069V16.207V16.207V16.2071V16.2071V16.2072V16.2072V16.2073V16.2073V16.2074V16.2074V16.2075V16.2075V16.2076V16.2076V16.2077V16.2077V16.2078V16.2078V16.2079V16.2079V16.208V16.208V16.2081V16.2081V16.2082V16.2082V16.2083V16.2083V16.2084V16.2084V16.2085V16.2085V16.2086V16.2086V16.2087V16.2087V16.2087V16.2088V16.2088V16.2089V16.2089V16.209V16.209V16.2091V16.2091V16.2092V16.2092V16.2093V16.2093V16.2094V16.2094V16.2095V16.2095V16.2096V16.2096V16.2097V16.2097V16.2097V16.2098V16.2098V16.2099V16.2099V16.21V16.21V16.2101V16.2101V16.2102V16.2102V16.2103V16.2103V16.2103V16.2104V16.2104V16.2105V16.2105V16.2106V16.2106V16.2107V16.2107V16.2108V16.2108V16.2108V16.2109V16.2109V16.211V16.211V16.2111V16.2111V16.2112V16.2112V16.2112V16.2113V16.2113V16.2114V16.2114V16.2115V16.2115V16.2115V16.2116V16.2116V16.2117V16.2117V16.2118V16.2118V16.2118V16.2119V16.2119V16.212V16.212V16.2121V16.2121V16.2121V16.2122V16.2122V16.2123V16.2123V16.2123V16.2124V16.2124V16.2125V16.2125V16.2126V16.2126V16.2126V16.2127V16.2127V16.2128V16.2128V16.2128V16.2129V16.2129V16.213V16.213V16.213V16.2131V16.2131V16.2132V16.2132V16.2132V16.2133V16.2133V16.2133V16.2134V16.2134V16.2135V16.2135V16.2135V16.2136V16.2136V16.2136V16.2137V16.2137V16.2138V16.2138V16.2138V16.2139V16.2139V16.2139V16.214V16.214V16.214V16.2141V16.2141V16.2142V16.2142V16.2142V16.2143V16.2143V16.2143V16.2144V16.2144V16.2144V16.2145V16.2145V16.2145V16.2146V16.2146V16.2146V16.2147V16.2147V16.2147V16.2148V16.2148V16.2148V16.2149V16.2149V16.2149V16.215V16.215V16.215V16.2151V16.2151V16.2151V16.2151V16.2152V16.2152V16.2152V16.2153V16.2153V16.2153V16.2154V16.2154V16.2154V16.2154V16.2155V16.2155V16.2155V16.2156V16.2156V16.2156V16.2157V16.2158V16.2158V16.2159V16.2159V16.216V16.216V16.2161V16.2161V16.2162V16.2162V16.2163V16.2163V16.2164V16.2164V16.2164V16.2165V16.2165V16.2166V16.2166V16.2166V16.2167V16.2167V16.2168V16.2168V16.2168V16.2169V16.2169V16.2169V16.217V16.217V16.217V16.2171V16.2171V16.2171V16.2172V16.2172V16.2172V16.2173V16.2173V16.2173V16.2174V16.2174V16.2174V16.2175V16.2175V36.8779C40.5 37.8858 40.1102 38.7941 39.4875 39.4474C38.8606 40.1014 38.0086 40.5 37.0703 40.5H11.9297C10.9907 40.5 10.1356 40.1009 9.51321 39.4482C8.8893 38.7902 8.5 37.8851 8.5 36.8779V11.805C8.5 10.8861 8.8563 10.0608 9.42631 9.45954C9.99326 8.86153 10.7713 8.5 11.6274 8.5H20.7943C21.7105 8.5 22.5918 8.93019 23.1888 9.68235L23.1904 9.68435C23.6333 10.2366 24.0729 10.7929 24.5138 11.351L24.5145 11.3518C25.2939 12.3339 26.4557 12.9125 27.6922 12.9125H37.3726C37.8371 12.9125 38.2796 13.0203 38.6759 13.2134Z" stroke="black" stroke-opacity="0.04"/>
</g>
<path d="M12.8547 39.2103C13.3867 39.6998 14.1173 40 14.9259 40H34.0705C34.8791 40 35.6133 39.6998 36.1417 39.2103C36.6702 38.7208 37 38.0486 37 37.3045V17.6955C37 16.9514 36.6737 16.2759 36.1417 15.7897C35.6097 15.3035 34.8791 15 34.0705 15H14.9295C14.1209 15 13.3867 15.3002 12.8583 15.7897C12.3263 16.2792 12 16.9514 12 17.6955V37.3013C12 38.0453 12.3263 38.7208 12.8583 39.207L12.8547 39.2103Z" fill="url(#paint1_linear_2854_112603)"/>
<path d="M14.9259 39.75C14.2428 39.75 13.6234 39.5179 13.151 39.1359L13.0269 39.0225C12.5426 38.5799 12.25 37.9697 12.25 37.3013V17.6955C12.25 17.0275 12.5423 16.4202 13.0276 15.9737L13.0276 15.9737L13.0282 15.9731C13.5096 15.5272 14.1828 15.25 14.9295 15.25H34.0705C34.8161 15.25 35.4867 15.5297 35.9731 15.9742C36.4574 16.4169 36.75 17.027 36.75 17.6955V37.3045C36.75 37.9718 36.4547 38.5796 35.9718 39.0269C35.4904 39.4728 34.8172 39.75 34.0705 39.75H14.9259Z" stroke="black" stroke-opacity="0.05" stroke-width="0.5"/>
<path opacity="0.6" d="M8.37523 39.3211C8.48726 39.4763 8.61423 39.621 8.75987 39.7551C9.48806 40.4431 10.4963 40.8701 11.6092 40.8701C11.8034 40.8701 11.9975 40.8701 12.188 40.8701C20.0226 40.8665 26.3112 40.8736 34.1944 40.8701H37.3873C38.5001 40.8701 39.5047 40.4431 40.2366 39.7551C40.3748 39.6245 40.4943 39.4834 40.6026 39.3352C41.0619 38.6965 41.2598 38.2907 41.4166 37.4509C41.4689 37.1686 41.5623 36.5088 41.678 35.602C42.1262 32.0699 42.9141 24.4412 43 21.3855C43 21.2691 43 21.1526 42.9925 21.0362C42.8469 19.2613 41.215 17.8711 39.2843 17.8711C37.5479 17.8711 35.9309 17.8711 34.3102 17.8711C32.8202 17.8711 31.3265 17.8711 29.7394 17.8711C28.634 17.8711 27.5884 18.3369 26.8826 19.1378C26.4307 19.653 25.9789 20.1682 25.5233 20.6798C24.8175 21.4808 23.7682 21.9466 22.6665 21.9466C20.0264 21.9466 15.5526 21.9466 12.1432 21.9466C11.2432 21.9466 10.4179 21.9466 9.71959 21.9466C9.16318 21.9466 8.6329 22.063 8.15864 22.2712C6.84415 22.8463 5.98525 24.1237 6.00019 25.4892C6.01513 26.8512 6.96738 33.5378 7.37069 36.1948C7.44538 36.6923 7.5014 37.0522 7.52007 37.218C7.62836 38.0578 7.91591 38.6894 8.37896 39.3211H8.37523Z" fill="url(#paint2_linear_2854_112603)"/>
<g filter="url(#filter1_b_2854_112603)">
<path d="M8.37523 39.3211C8.48726 39.4763 8.61423 39.621 8.75987 39.7551C9.48806 40.4431 10.4963 40.8701 11.6092 40.8701C11.8034 40.8701 11.9975 40.8701 12.188 40.8701C20.0226 40.8665 26.3112 40.8736 34.1944 40.8701H37.3873C38.5001 40.8701 39.5047 40.4431 40.2366 39.7551C40.3748 39.6245 40.4943 39.4834 40.6026 39.3352C41.0619 38.6965 41.2598 38.2907 41.4166 37.4509C41.4689 37.1686 41.5623 36.5088 41.678 35.602C42.1262 32.0699 42.9141 24.4412 43 21.3855C43 21.2691 43 21.1526 42.9925 21.0362C42.8469 19.2613 41.215 17.8711 39.2843 17.8711C37.5479 17.8711 35.9309 17.8711 34.3102 17.8711C32.8202 17.8711 31.3265 17.8711 29.7394 17.8711C28.634 17.8711 27.5884 18.3369 26.8826 19.1378C26.4307 19.653 25.9789 20.1682 25.5233 20.6798C24.8175 21.4808 23.7682 21.9466 22.6665 21.9466C20.0264 21.9466 15.5526 21.9466 12.1432 21.9466C11.2432 21.9466 10.4179 21.9466 9.71959 21.9466C9.16318 21.9466 8.6329 22.063 8.15864 22.2712C6.84415 22.8463 5.98525 24.1237 6.00019 25.4892C6.01513 26.8512 6.96738 33.5378 7.37069 36.1948C7.44538 36.6923 7.5014 37.0522 7.52007 37.218C7.62836 38.0578 7.91591 38.6894 8.37896 39.3211H8.37523Z" fill="white" fill-opacity="0.1"/>
<path d="M12.1632 22.4466H12.1432H12.1632ZM12.1632 22.4466H12.1832M12.1632 22.4466H12.1832M12.1832 22.4466H12.2032M12.1832 22.4466H12.2032M12.2032 22.4466H12.2233M12.2032 22.4466H12.2233M12.2233 22.4466H12.2434M12.2233 22.4466H12.2434M12.2434 22.4466H12.2635M12.2434 22.4466H12.2635M12.2635 22.4466H12.2836M12.2635 22.4466H12.2836M12.2836 22.4466H12.3038M12.2836 22.4466H12.3038M12.3038 22.4466H12.3239M12.3038 22.4466H12.3239M12.3239 22.4466H12.3441M12.3239 22.4466H12.3441M12.3441 22.4466H12.3644M12.3441 22.4466H12.3644M12.3644 22.4466H12.3846M12.3644 22.4466H12.3846M12.3846 22.4466H12.4049M12.3846 22.4466H12.4049M12.4049 22.4466H12.4252M12.4049 22.4466H12.4252M12.4252 22.4466H12.4455M12.4252 22.4466H12.4455M12.4455 22.4466H12.4658M12.4455 22.4466H12.4658M12.4658 22.4466H12.4862M12.4658 22.4466H12.4862M12.4862 22.4466H12.5066M12.4862 22.4466H12.5066M12.5066 22.4466H12.527M12.5066 22.4466H12.527M12.527 22.4466H12.5474M12.527 22.4466H12.5474M12.5474 22.4466H12.5679M12.5474 22.4466H12.5679M12.5679 22.4466H12.5883M12.5679 22.4466H12.5883M12.5883 22.4466H12.6088M12.5883 22.4466H12.6088M12.6088 22.4466H12.6293M12.6088 22.4466H12.6293M12.6293 22.4466H12.6499M12.6293 22.4466H12.6499M12.6499 22.4466H12.6704M12.6499 22.4466H12.6704M12.6704 22.4466H12.691M12.6704 22.4466H12.691M12.691 22.4466H12.7116M12.691 22.4466H12.7116M12.7116 22.4466H12.7322M12.7116 22.4466H12.7322M12.7322 22.4466H12.7529M12.7322 22.4466H12.7529M12.7529 22.4466H12.7735M12.7529 22.4466H12.7735M12.7735 22.4466H12.7942M12.7735 22.4466H12.7942M12.7942 22.4466H12.8149M12.7942 22.4466H12.8149M12.8149 22.4466H12.8356M12.8149 22.4466H12.8356M12.8356 22.4466H12.8564M12.8356 22.4466H12.8564M12.8564 22.4466H12.8771M12.8564 22.4466H12.8771M12.8771 22.4466H12.8979M12.8771 22.4466H12.8979M12.8979 22.4466H12.9187M12.8979 22.4466H12.9187M12.9187 22.4466H12.9395M12.9187 22.4466H12.9395M12.9395 22.4466H12.9604M12.9395 22.4466H12.9604M12.9604 22.4466H12.9812M12.9604 22.4466H12.9812M12.9812 22.4466H13.0021M12.9812 22.4466H13.0021M13.0021 22.4466H13.023M13.0021 22.4466H13.023M13.023 22.4466H13.0439M13.023 22.4466H13.0439M13.0439 22.4466H13.0648M13.0439 22.4466H13.0648M13.0648 22.4466H13.0858M13.0648 22.4466H13.0858M13.0858 22.4466H13.1068M13.0858 22.4466H13.1068M13.1068 22.4466H13.1278M13.1068 22.4466H13.1278M13.1278 22.4466H13.1488M13.1278 22.4466H13.1488M13.1488 22.4466H13.1698M13.1488 22.4466H13.1698M13.1698 22.4466H13.1908M13.1698 22.4466H13.1908M13.1908 22.4466H13.2119M13.1908 22.4466H13.2119M13.2119 22.4466H13.233M13.2119 22.4466H13.233M13.233 22.4466H13.2541M13.233 22.4466H13.2541M13.2541 22.4466H13.2752M13.2541 22.4466H13.2752M13.2752 22.4466H13.2963M13.2752 22.4466H13.2963M13.2963 22.4466H13.3175M13.2963 22.4466H13.3175M13.3175 22.4466H13.3386M13.3175 22.4466H13.3386M13.3386 22.4466H13.3598M13.3386 22.4466H13.3598M13.3598 22.4466H13.381M13.3598 22.4466H13.381M13.381 22.4466H13.4022M13.381 22.4466H13.4022M13.4022 22.4466H13.4234M13.4022 22.4466H13.4234M13.4234 22.4466H13.4447M13.4234 22.4466H13.4447M13.4447 22.4466H13.4659M13.4447 22.4466H13.4659M13.4659 22.4466H13.4872M13.4659 22.4466H13.4872M13.4872 22.4466H13.5085M13.4872 22.4466H13.5085M13.5085 22.4466H13.5298M13.5085 22.4466H13.5298M13.5298 22.4466H13.5512M13.5298 22.4466H13.5512M13.5512 22.4466H13.5725M13.5512 22.4466H13.5725M13.5725 22.4466H13.5939M13.5725 22.4466H13.5939M13.5939 22.4466H13.6152M13.5939 22.4466H13.6152M13.6152 22.4466H13.6366M13.6152 22.4466H13.6366M13.6366 22.4466H13.658M13.6366 22.4466H13.658M13.658 22.4466H13.6794M13.658 22.4466H13.6794M13.6794 22.4466H13.7009M13.6794 22.4466H13.7009M13.7009 22.4466H13.7223M13.7009 22.4466H13.7223M13.7223 22.4466H13.7438M13.7223 22.4466H13.7438M13.7438 22.4466H13.7653M13.7438 22.4466H13.7653M13.7653 22.4466H13.7867M13.7653 22.4466H13.7867M13.7867 22.4466H13.8083M13.7867 22.4466H13.8083M13.8083 22.4466H13.8298M13.8083 22.4466H13.8298M13.8298 22.4466H13.8513M13.8298 22.4466H13.8513M13.8513 22.4466H13.8728M13.8513 22.4466H13.8728M13.8728 22.4466H13.8944M13.8728 22.4466H13.8944M13.8944 22.4466H13.916M13.8944 22.4466H13.916M13.916 22.4466H13.9376M13.916 22.4466H13.9376M13.9376 22.4466H13.9592M13.9376 22.4466H13.9592M13.9592 22.4466H13.9808M13.9592 22.4466H13.9808M13.9808 22.4466H14.0024M13.9808 22.4466H14.0024M14.0024 22.4466H14.024M14.0024 22.4466H14.024M14.024 22.4466H14.0457M14.024 22.4466H14.0457M14.0457 22.4466H14.0674M14.0457 22.4466H14.0674M14.0674 22.4466H14.089M14.0674 22.4466H14.089M14.089 22.4466H14.1107M14.089 22.4466H14.1107M14.1107 22.4466H14.1324M14.1107 22.4466H14.1324M14.1324 22.4466H14.1541M14.1324 22.4466H14.1541M14.1541 22.4466H14.1759M14.1541 22.4466H14.1759M14.1759 22.4466H14.1976M14.1759 22.4466H14.1976M14.1976 22.4466H14.2193M14.1976 22.4466H14.2193M14.2193 22.4466H14.2411M14.2193 22.4466H14.2411M14.2411 22.4466H14.2629M14.2411 22.4466H14.2629M14.2629 22.4466H14.2847M14.2629 22.4466H14.2847M14.2847 22.4466H14.3065M14.2847 22.4466H14.3065M14.3065 22.4466H14.3283M14.3065 22.4466H14.3283M14.3283 22.4466H14.3501M14.3283 22.4466H14.3501M14.3501 22.4466H14.3719M14.3501 22.4466H14.3719M14.3719 22.4466H14.3937M14.3719 22.4466H14.3937M14.3937 22.4466H14.4156M14.3937 22.4466H14.4156M14.4156 22.4466H14.4374M14.4156 22.4466H14.4374M14.4374 22.4466H14.4593M14.4374 22.4466H14.4593M14.4593 22.4466H14.4812M14.4593 22.4466H14.4812M14.4812 22.4466H14.5031M14.4812 22.4466H14.5031M14.5031 22.4466H14.525M14.5031 22.4466H14.525M14.525 22.4466H14.5469M14.525 22.4466H14.5469M14.5469 22.4466H14.5688M14.5469 22.4466H14.5688M14.5688 22.4466H14.5907M14.5688 22.4466H14.5907M14.5907 22.4466H14.6127M14.5907 22.4466H14.6127M14.6127 22.4466H14.6346M14.6127 22.4466H14.6346M14.6346 22.4466H14.6566M14.6346 22.4466H14.6566M14.6566 22.4466H14.6785M14.6566 22.4466H14.6785M14.6785 22.4466H14.7005M14.6785 22.4466H14.7005M14.7005 22.4466H14.7225M14.7005 22.4466H14.7225M14.7225 22.4466H14.7445M14.7225 22.4466H14.7445M14.7445 22.4466H14.7665M14.7445 22.4466H14.7665M14.7665 22.4466H14.7885M14.7665 22.4466H14.7885M14.7885 22.4466H14.8105M14.7885 22.4466H14.8105M14.8105 22.4466H14.8325M14.8105 22.4466H14.8325M14.8325 22.4466H14.8545M14.8325 22.4466H14.8545M14.8545 22.4466H14.8766M14.8545 22.4466H14.8766M14.8766 22.4466H14.8986M14.8766 22.4466H14.8986M14.8986 22.4466H14.9207M14.8986 22.4466H14.9207M14.9207 22.4466H14.9427M14.9207 22.4466H14.9427M14.9427 22.4466H14.9648M14.9427 22.4466H14.9648M14.9648 22.4466H14.9869M14.9648 22.4466H14.9869M14.9869 22.4466H15.009M14.9869 22.4466H15.009M15.009 22.4466H15.031M15.009 22.4466H15.031M15.031 22.4466H15.0531M15.031 22.4466H15.0531M15.0531 22.4466H15.0752M15.0531 22.4466H15.0752M15.0752 22.4466H15.0974M15.0752 22.4466H15.0974M15.0974 22.4466H15.1195M15.0974 22.4466H15.1195M15.1195 22.4466H15.1416M15.1195 22.4466H15.1416M15.1416 22.4466H15.1637M15.1416 22.4466H15.1637M15.1637 22.4466H15.1859M15.1637 22.4466H15.1859M15.1859 22.4466H15.208M15.1859 22.4466H15.208M15.208 22.4466H15.2301M15.208 22.4466H15.2301M15.2301 22.4466H15.2523M15.2301 22.4466H15.2523M15.2523 22.4466H15.2744M15.2523 22.4466H15.2744M15.2744 22.4466H15.2966M15.2744 22.4466H15.2966M15.2966 22.4466H15.3188M15.2966 22.4466H15.3188M15.3188 22.4466H15.3409M15.3188 22.4466H15.3409M15.3409 22.4466H15.3631M15.3409 22.4466H15.3631M15.3631 22.4466H15.3853M15.3631 22.4466H15.3853M15.3853 22.4466H15.4075M15.3853 22.4466H15.4075M15.4075 22.4466H15.4297M15.4075 22.4466H15.4297M15.4297 22.4466H15.4519M15.4297 22.4466H15.4519M15.4519 22.4466H15.4741M15.4519 22.4466H15.4741M15.4741 22.4466H15.4963M15.4741 22.4466H15.4963M15.4963 22.4466H15.5185M15.4963 22.4466H15.5185M15.5185 22.4466H15.5407M15.5185 22.4466H15.5407M15.5407 22.4466H15.5629M15.5407 22.4466H15.5629M15.5629 22.4466H15.5851M15.5629 22.4466H15.5851M15.5851 22.4466H15.6073M15.5851 22.4466H15.6073M15.6073 22.4466H15.6296M15.6073 22.4466H15.6296M15.6296 22.4466H15.6518M15.6296 22.4466H15.6518M15.6518 22.4466H15.674M15.6518 22.4466H15.674M15.674 22.4466H15.6963M15.674 22.4466H15.6963M15.6963 22.4466H15.7185M15.6963 22.4466H15.7185M15.7185 22.4466H15.7407M15.7185 22.4466H15.7407M15.7407 22.4466H15.763M15.7407 22.4466H15.763M15.763 22.4466H15.7852M15.763 22.4466H15.7852M15.7852 22.4466H15.8075M15.7852 22.4466H15.8075M15.8075 22.4466H15.8297M15.8075 22.4466H15.8297M15.8297 22.4466H15.852M15.8297 22.4466H15.852M15.852 22.4466H15.8742M15.852 22.4466H15.8742M15.8742 22.4466H15.8965M15.8742 22.4466H15.8965M15.8965 22.4466H15.9187M15.8965 22.4466H15.9187M15.9187 22.4466H15.941M15.9187 22.4466H15.941M15.941 22.4466H15.9633M15.941 22.4466H15.9633M15.9633 22.4466H15.9855M15.9633 22.4466H15.9855M15.9855 22.4466H16.0078M15.9855 22.4466H16.0078M16.0078 22.4466H16.0301M16.0078 22.4466H16.0301M16.0301 22.4466H16.0523M16.0301 22.4466H16.0523M16.0523 22.4466H16.0746M16.0523 22.4466H16.0746M16.0746 22.4466H16.0968M16.0746 22.4466H16.0968M16.0968 22.4466H16.1191M16.0968 22.4466H16.1191M16.1191 22.4466H16.1414M16.1191 22.4466H16.1414M16.1414 22.4466H16.1636M16.1414 22.4466H16.1636M16.1636 22.4466H16.1859M16.1636 22.4466H16.1859M16.1859 22.4466H16.2082M16.1859 22.4466H16.2082M16.2082 22.4466H16.2305M16.2082 22.4466H16.2305M16.2305 22.4466H16.2527M16.2305 22.4466H16.2527M16.2527 22.4466H16.275M16.2527 22.4466H16.275M16.275 22.4466H16.2973M16.275 22.4466H16.2973M16.2973 22.4466H16.3195M16.2973 22.4466H16.3195M16.3195 22.4466H16.3418M16.3195 22.4466H16.3418M16.3418 22.4466H16.364M16.3418 22.4466H16.364M16.364 22.4466H16.3863M16.364 22.4466H16.3863M16.3863 22.4466H16.4086M16.3863 22.4466H16.4086M16.4086 22.4466H16.4308M16.4086 22.4466H16.4308M16.4308 22.4466H16.4531M16.4308 22.4466H16.4531M16.4531 22.4466H16.4753M16.4531 22.4466H16.4753M16.4753 22.4466H16.4976M16.4753 22.4466H16.4976M16.4976 22.4466H16.5199M16.4976 22.4466H16.5199M16.5199 22.4466H16.5421M16.5199 22.4466H16.5421M16.5421 22.4466H16.5644M16.5421 22.4466H16.5644M16.5644 22.4466H16.5866M16.5644 22.4466H16.5866M16.5866 22.4466H16.6089M16.5866 22.4466H16.6089M16.6089 22.4466H16.6311M16.6089 22.4466H16.6311M16.6311 22.4466H16.6533M16.6311 22.4466H16.6533M16.6533 22.4466H16.6756M16.6533 22.4466H16.6756M16.6756 22.4466H16.6978M16.6756 22.4466H16.6978M16.6978 22.4466H16.72M16.6978 22.4466H16.72M16.72 22.4466H16.7423M16.72 22.4466H16.7423M16.7423 22.4466H16.7645M16.7423 22.4466H16.7645M16.7645 22.4466H16.7867M16.7645 22.4466H16.7867M16.7867 22.4466H16.8089M16.7867 22.4466H16.8089M16.8089 22.4466H16.8312M16.8089 22.4466H16.8312M16.8312 22.4466H16.8534M16.8312 22.4466H16.8534M16.8534 22.4466H16.8756M16.8534 22.4466H16.8756M16.8756 22.4466H16.8978M16.8756 22.4466H16.8978M16.8978 22.4466H16.92M16.8978 22.4466H16.92M16.92 22.4466H16.9422M16.92 22.4466H16.9422M16.9422 22.4466H16.9644M16.9422 22.4466H16.9644M16.9644 22.4466H16.9865M16.9644 22.4466H16.9865M16.9865 22.4466H17.0087M16.9865 22.4466H17.0087M17.0087 22.4466H17.0309M17.0087 22.4466H17.0309M17.0309 22.4466H17.0531M17.0309 22.4466H17.0531M17.0531 22.4466H17.0752M17.0531 22.4466H17.0752M17.0752 22.4466H17.0974M17.0752 22.4466H17.0974M17.0974 22.4466H17.1196M17.0974 22.4466H17.1196M17.1196 22.4466H17.1417M17.1196 22.4466H17.1417M17.1417 22.4466H17.1639M17.1417 22.4466H17.1639M17.1639 22.4466H17.186M17.1639 22.4466H17.186M17.186 22.4466H17.2081M17.186 22.4466H17.2081M17.2081 22.4466H17.2303M17.2081 22.4466H17.2303M17.2303 22.4466H17.2524M17.2303 22.4466H17.2524M17.2524 22.4466H17.2745M17.2524 22.4466H17.2745M17.2745 22.4466H17.2966M17.2745 22.4466H17.2966M17.2966 22.4466H17.3187M17.2966 22.4466H17.3187M17.3187 22.4466H17.3408M17.3187 22.4466H17.3408M17.3408 22.4466H17.3629M17.3408 22.4466H17.3629M17.3629 22.4466H17.385M17.3629 22.4466H17.385M17.385 22.4466H17.407M17.385 22.4466H17.407M17.407 22.4466H17.4291M17.407 22.4466H17.4291M17.4291 22.4466H17.4512M17.4291 22.4466H17.4512M17.4512 22.4466H17.4732M17.4512 22.4466H17.4732M17.4732 22.4466H17.4953M17.4732 22.4466H17.4953M17.4953 22.4466H17.5173M17.4953 22.4466H17.5173M17.5173 22.4466H17.5393M17.5173 22.4466H17.5393M17.5393 22.4466H17.5614M17.5393 22.4466H17.5614M17.5614 22.4466H17.5834M17.5614 22.4466H17.5834M17.5834 22.4466H17.6054M17.5834 22.4466H17.6054M17.6054 22.4466H17.6274M17.6054 22.4466H17.6274M17.6274 22.4466H17.6494M17.6274 22.4466H17.6494M17.6494 22.4466H17.6714M17.6494 22.4466H17.6714M17.6714 22.4466H17.6933M17.6714 22.4466H17.6933M17.6933 22.4466H17.7153M17.6933 22.4466H17.7153M17.7153 22.4466H17.7373M17.7153 22.4466H17.7373M17.7373 22.4466H17.7592M17.7373 22.4466H17.7592M17.7592 22.4466H17.7811M17.7592 22.4466H17.7811M17.7811 22.4466H17.8031M17.7811 22.4466H17.8031M17.8031 22.4466H17.825M17.8031 22.4466H17.825M17.825 22.4466H17.8469M17.825 22.4466H17.8469M17.8469 22.4466H17.8688M17.8469 22.4466H17.8688M17.8688 22.4466H17.8907M17.8688 22.4466H17.8907M17.8907 22.4466H17.9126M17.8907 22.4466H17.9126M17.9126 22.4466H17.9344M17.9126 22.4466H17.9344M17.9344 22.4466H17.9563M17.9344 22.4466H17.9563M17.9563 22.4466H17.9781M17.9563 22.4466H17.9781M17.9781 22.4466H18M17.9781 22.4466H18M18 22.4466H18.0218M18 22.4466H18.0218M18.0218 22.4466H18.0436M18.0218 22.4466H18.0436M18.0436 22.4466H18.0654M18.0436 22.4466H18.0654M18.0654 22.4466H18.0872M18.0654 22.4466H18.0872M18.0872 22.4466H18.109M18.0872 22.4466H18.109M18.109 22.4466H18.1308M18.109 22.4466H18.1308M18.1308 22.4466H18.1525M18.1308 22.4466H18.1525M18.1525 22.4466H18.1743M18.1525 22.4466H18.1743M18.1743 22.4466H18.196M18.1743 22.4466H18.196M18.196 22.4466H18.2177M18.196 22.4466H18.2177M18.2177 22.4466H18.2395M18.2177 22.4466H18.2395M18.2395 22.4466H18.2612M18.2395 22.4466H18.2612M18.2612 22.4466H18.2828M18.2612 22.4466H18.2828M18.2828 22.4466H18.3045M18.2828 22.4466H18.3045M18.3045 22.4466H18.3262M18.3045 22.4466H18.3262M18.3262 22.4466H18.3478M18.3262 22.4466H18.3478M18.3478 22.4466H18.3695M18.3478 22.4466H18.3695M18.3695 22.4466H18.3911M18.3695 22.4466H18.3911M18.3911 22.4466H18.4127M18.3911 22.4466H18.4127M18.4127 22.4466H18.4343M18.4127 22.4466H18.4343M18.4343 22.4466H18.4559M18.4343 22.4466H18.4559M18.4559 22.4466H18.4775M18.4559 22.4466H18.4775M18.4775 22.4466H18.499M18.4775 22.4466H18.499M18.499 22.4466H18.5206M18.499 22.4466H18.5206M18.5206 22.4466H18.5421M18.5206 22.4466H18.5421M18.5421 22.4466H18.5636M18.5421 22.4466H18.5636M18.5636 22.4466H18.5852M18.5636 22.4466H18.5852M18.5852 22.4466H18.6066M18.5852 22.4466H18.6066M18.6066 22.4466H18.6281M18.6066 22.4466H18.6281M18.6281 22.4466H18.6496M18.6281 22.4466H18.6496M18.6496 22.4466H18.671M18.6496 22.4466H18.671M18.671 22.4466H18.6925M18.671 22.4466H18.6925M18.6925 22.4466H18.7139M18.6925 22.4466H18.7139M18.7139 22.4466H18.7353M18.7139 22.4466H18.7353M18.7353 22.4466H18.7567M18.7353 22.4466H18.7567M18.7567 22.4466H18.7781M18.7567 22.4466H18.7781M18.7781 22.4466H18.7994M18.7781 22.4466H18.7994M18.7994 22.4466H18.8208M18.7994 22.4466H18.8208M18.8208 22.4466H18.8421M18.8208 22.4466H18.8421M18.8421 22.4466H18.8634M18.8421 22.4466H18.8634M18.8634 22.4466H18.8847M18.8634 22.4466H18.8847M18.8847 22.4466H18.906M18.8847 22.4466H18.906M18.906 22.4466H18.9272M18.906 22.4466H18.9272M18.9272 22.4466H18.9485M18.9272 22.4466H18.9485M18.9485 22.4466H18.9697M18.9485 22.4466H18.9697M18.9697 22.4466H18.9909M18.9697 22.4466H18.9909M18.9909 22.4466H19.0121M18.9909 22.4466H19.0121M19.0121 22.4466H19.0333M19.0121 22.4466H19.0333M19.0333 22.4466H19.0545M19.0333 22.4466H19.0545M19.0545 22.4466H19.0756M19.0545 22.4466H19.0756M19.0756 22.4466H19.0968M19.0756 22.4466H19.0968M19.0968 22.4466H19.1179M19.0968 22.4466H19.1179M19.1179 22.4466H19.139M19.1179 22.4466H19.139M19.139 22.4466H19.16M19.139 22.4466H19.16M19.16 22.4466H19.1811M19.16 22.4466H19.1811M19.1811 22.4466H19.2021M19.1811 22.4466H19.2021M19.2021 22.4466H19.2232M19.2021 22.4466H19.2232M19.2232 22.4466H19.2442M19.2232 22.4466H19.2442M19.2442 22.4466H19.2652M19.2442 22.4466H19.2652M19.2652 22.4466H19.2861M19.2652 22.4466H19.2861M19.2861 22.4466H19.3071M19.2861 22.4466H19.3071M19.3071 22.4466H19.328M19.3071 22.4466H19.328M19.328 22.4466H19.3489M19.328 22.4466H19.3489M19.3489 22.4466H19.3698M19.3489 22.4466H19.3698M19.3698 22.4466H19.3907M19.3698 22.4466H19.3907M19.3907 22.4466H19.4116M19.3907 22.4466H19.4116M19.4116 22.4466H19.4324M19.4116 22.4466H19.4324M19.4324 22.4466H19.4532M19.4324 22.4466H19.4532M19.4532 22.4466H19.474M19.4532 22.4466H19.474M19.474 22.4466H19.4948M19.474 22.4466H19.4948M19.4948 22.4466H19.5156M19.4948 22.4466H19.5156M19.5156 22.4466H19.5363M19.5156 22.4466H19.5363M19.5363 22.4466H19.557M19.5363 22.4466H19.557M19.557 22.4466H19.5778M19.557 22.4466H19.5778M19.5778 22.4466H19.5984M19.5778 22.4466H19.5984M19.5984 22.4466H19.6191M19.5984 22.4466H19.6191M19.6191 22.4466H19.6397M19.6191 22.4466H19.6397M19.6397 22.4466H19.6604M19.6397 22.4466H19.6604M19.6604 22.4466H19.681M19.6604 22.4466H19.681M19.681 22.4466H19.7015M19.681 22.4466H19.7015M19.7015 22.4466H19.7221M19.7015 22.4466H19.7221M19.7221 22.4466H19.7426M19.7221 22.4466H19.7426M19.7426 22.4466H19.7631M19.7426 22.4466H19.7631M19.7631 22.4466H19.7836M19.7631 22.4466H19.7836M19.7836 22.4466H19.8041M19.7836 22.4466H19.8041M19.8041 22.4466H19.8246M19.8041 22.4466H19.8246M19.8246 22.4466H19.845M19.8246 22.4466H19.845M19.845 22.4466H19.8654M19.845 22.4466H19.8654M19.8654 22.4466H19.8858M19.8654 22.4466H19.8858M19.8858 22.4466H19.9062M19.8858 22.4466H19.9062M19.9062 22.4466H19.9265M19.9062 22.4466H19.9265M19.9265 22.4466H19.9468M19.9265 22.4466H19.9468M19.9468 22.4466H19.9671M19.9468 22.4466H19.9671M19.9671 22.4466H19.9874M19.9671 22.4466H19.9874M19.9874 22.4466H20.0076M19.9874 22.4466H20.0076M20.0076 22.4466H20.0279M20.0076 22.4466H20.0279M20.0279 22.4466H20.0481M20.0279 22.4466H20.0481M20.0481 22.4466H20.0682M20.0481 22.4466H20.0682M20.0682 22.4466H20.0884M20.0682 22.4466H20.0884M20.0884 22.4466H20.1085M20.0884 22.4466H20.1085M20.1085 22.4466H20.1286M20.1085 22.4466H20.1286M20.1286 22.4466H20.1487M20.1286 22.4466H20.1487M20.1487 22.4466H20.1688M20.1487 22.4466H20.1688M20.1688 22.4466H20.1888M20.1688 22.4466H20.1888M20.1888 22.4466H20.2089M20.1888 22.4466H20.2089M20.2089 22.4466H20.2288M20.2089 22.4466H20.2288M20.2288 22.4466H20.2488M20.2288 22.4466H20.2488M20.2488 22.4466H20.2688M20.2488 22.4466H20.2688M20.2688 22.4466H20.2887M20.2688 22.4466H20.2887M20.2887 22.4466H20.3086M20.2887 22.4466H20.3086M20.3086 22.4466H20.3284M20.3086 22.4466H20.3284M20.3284 22.4466H20.3483M20.3284 22.4466H20.3483M20.3483 22.4466H20.3681M20.3483 22.4466H20.3681M20.3681 22.4466H20.3879M20.3681 22.4466H20.3879M20.3879 22.4466H20.4077M20.3879 22.4466H20.4077M20.4077 22.4466H20.4274M20.4077 22.4466H20.4274M20.4274 22.4466H20.4471M20.4274 22.4466H20.4471M20.4471 22.4466H20.4668M20.4471 22.4466H20.4668M20.4668 22.4466H20.4865H20.4668Z" stroke="black" stroke-opacity="0.04"/>
</g>
<defs>
<filter id="filter0_b_2854_112603" x="7" y="7" width="35" height="35" filterUnits="userSpaceOnUse" color-interpolation-filters="sRGB">
<feFlood flood-opacity="0" result="BackgroundImageFix"/>
<feGaussianBlur in="BackgroundImageFix" stdDeviation="0.5"/>
<feComposite in2="SourceAlpha" operator="in" result="effect1_backgroundBlur_2854_112603"/>
<feBlend mode="normal" in="SourceGraphic" in2="effect1_backgroundBlur_2854_112603" result="shape"/>
</filter>
<filter id="filter1_b_2854_112603" x="5" y="16.8711" width="39" height="25" filterUnits="userSpaceOnUse" color-interpolation-filters="sRGB">
<feFlood flood-opacity="0" result="BackgroundImageFix"/>
<feGaussianBlur in="BackgroundImageFix" stdDeviation="0.5"/>
<feComposite in2="SourceAlpha" operator="in" result="effect1_backgroundBlur_2854_112603"/>
<feBlend mode="normal" in="SourceGraphic" in2="effect1_backgroundBlur_2854_112603" result="shape"/>
</filter>
<linearGradient id="paint0_linear_2854_112603" x1="13.0417" y1="16.4857" x2="37.2857" y2="31.1785" gradientUnits="userSpaceOnUse">
<stop stop-color="#29E2CF"/>
<stop offset="1" stop-color="#19E4D0"/>
</linearGradient>
<linearGradient id="paint1_linear_2854_112603" x1="15.8194" y1="21.4286" x2="34.1862" y2="32.5595" gradientUnits="userSpaceOnUse">
<stop stop-color="white"/>
<stop offset="1" stop-color="#EFEFEF"/>
</linearGradient>
<linearGradient id="paint2_linear_2854_112603" x1="11.6528" y1="23.7854" x2="30.7077" y2="42.3626" gradientUnits="userSpaceOnUse">
<stop stop-color="#29E2CF"/>
<stop offset="1" stop-color="#19E4D0"/>
</linearGradient>
</defs>
</svg>
