<svg width="24" height="25" viewBox="0 0 24 25" fill="none" xmlns="http://www.w3.org/2000/svg">
<path d="M12 22.3359C11.45 22.3359 10.975 22.1443 10.575 21.7609C10.312 21.4865 10.1392 21.1767 10.0566 20.8316C9.99239 20.563 10.2239 20.3359 10.5 20.3359H13.5C13.7761 20.3359 14.0078 20.5633 13.941 20.8312C13.8549 21.1765 13.6746 21.4864 13.4 21.7609C13.0167 22.1443 12.55 22.3359 12 22.3359Z" fill="#1D1B20"/>
<path d="M12 5.33594C8.96243 5.33594 6.5 7.57451 6.5 10.3359V18.3359H17.5V10.3359C17.5 7.57451 15.0376 5.33594 12 5.33594Z" stroke="black" stroke-width="1.5"/>
<path d="M12 2.33594C11.1716 2.33594 10.5 3.11083 10.5 4.06671V5.33594H13.5V4.06671C13.5 3.11083 12.8284 2.33594 12 2.33594Z" fill="#1D1B20"/>
<path d="M4 18.3359H20" stroke="black" stroke-width="1.5" stroke-linecap="round"/>
</svg>
