<svg width="48" height="48" viewBox="0 0 48 48" fill="none" xmlns="http://www.w3.org/2000/svg">
<path d="M18.4401 39.9658C18.0541 40.1703 17.6642 40.3786 17.2781 40.5831C16.1811 41.1658 15.0038 41.0963 14.0559 40.5947C13.1882 40.1394 12.5154 39.3253 12.267 38.3298C12.1523 37.8745 12.1256 37.3806 12.2135 36.8636C12.3855 35.8565 12.5537 34.8533 12.7257 33.8463C12.8786 32.9395 13.0353 32.0328 13.1882 31.1299C13.2302 30.8714 13.2417 30.6167 13.2302 30.3621C13.1882 29.4824 12.8212 28.6412 12.1829 28.0123C11.6363 27.4721 11.0859 26.9358 10.5393 26.3956C9.70982 25.5815 8.88419 24.7673 8.05474 23.9532C7.17559 23.0889 6.88127 21.9584 7.04181 20.905C7.16412 20.1024 7.55401 19.3423 8.16559 18.7906C8.6472 18.3546 9.26261 18.0459 9.98886 17.9379C11.0247 17.7874 12.0606 17.633 13.0964 17.4826C13.9641 17.3552 14.828 17.2279 15.6957 17.1006C16.4563 16.9887 17.1443 16.626 17.6718 16.0897C17.9317 15.8234 18.1573 15.5186 18.3255 15.1752C18.8491 14.1064 19.369 13.0415 19.8926 11.9727C20.2213 11.3013 20.5501 10.6299 20.8788 9.95857C21.5477 8.57338 22.897 7.92902 24.2081 8.00619C25.3816 8.07564 26.5283 8.72 27.1322 9.95857L28.3554 12.4588C28.7988 13.3656 29.2421 14.2685 29.6817 15.1752C29.8996 15.6189 30.2054 15.997 30.5685 16.3096C31.0578 16.7263 31.6579 17.008 32.3115 17.1044C33.2862 17.2472 34.2647 17.39 35.2395 17.5327C36.1645 17.6678 37.0895 17.8028 38.0145 17.9417C39.0007 18.0845 39.7766 18.6015 40.2926 19.2999C40.6558 19.7938 40.8889 20.3764 40.9692 20.9822C41.0992 21.9815 40.8239 23.0464 40.0289 23.876C39.2224 24.721 38.3623 25.5197 37.5291 26.3377C36.9595 26.8972 36.39 27.4567 35.8205 28.0161C35.2395 28.5911 34.884 29.3435 34.7961 30.1383C34.7578 30.4663 34.7617 30.8019 34.819 31.1376C35.1439 33.0476 35.4688 34.9614 35.7937 36.8713C35.8549 37.2379 35.8587 37.5928 35.8166 37.9324C35.6905 38.9317 35.1439 39.7806 34.3832 40.3323C33.378 41.0616 31.9981 41.2622 30.7252 40.587C30.5074 40.4712 30.2895 40.3555 30.0716 40.2397C28.9669 39.6532 27.8623 39.0668 26.7576 38.4803C25.9396 38.0443 25.1522 37.5427 24.2004 37.4848C23.5736 37.4462 22.9391 37.5735 22.3695 37.8784C21.0584 38.5767 19.7436 39.2713 18.4325 39.9696" fill="url(#paint0_linear_2854_112725)"/>
<g filter="url(#filter0_b_2854_112725)">
<mask id="path-2-inside-1_2854_112725" fill="white">
<path d="M18.4401 39.9658C18.0541 40.1703 17.6642 40.3786 17.2781 40.5831C16.1811 41.1658 15.0038 41.0963 14.0559 40.5947C13.1882 40.1394 12.5154 39.3253 12.267 38.3298C12.1523 37.8745 12.1256 37.3806 12.2135 36.8636C12.3855 35.8565 12.5537 34.8533 12.7257 33.8463C12.8786 32.9395 13.0353 32.0328 13.1882 31.1299C13.2302 30.8714 13.2417 30.6167 13.2302 30.3621C13.1882 29.4824 12.8212 28.6412 12.1829 28.0123C11.6363 27.4721 11.0859 26.9358 10.5393 26.3956C9.70982 25.5815 8.88419 24.7673 8.05474 23.9532C7.17559 23.0889 6.88127 21.9584 7.04181 20.905C7.16412 20.1024 7.55401 19.3423 8.16559 18.7906C8.6472 18.3546 9.26261 18.0459 9.98886 17.9379C11.0247 17.7874 12.0606 17.633 13.0964 17.4826C13.9641 17.3552 14.828 17.2279 15.6957 17.1006C16.4563 16.9887 17.1443 16.626 17.6718 16.0897C17.9317 15.8234 18.1573 15.5186 18.3255 15.1752C18.8491 14.1064 19.369 13.0415 19.8926 11.9727C20.2213 11.3013 20.5501 10.6299 20.8788 9.95857C21.5477 8.57338 22.897 7.92902 24.2081 8.00619C25.3816 8.07564 26.5283 8.72 27.1322 9.95857L28.3554 12.4588C28.7988 13.3656 29.2421 14.2685 29.6817 15.1752C29.8996 15.6189 30.2054 15.997 30.5685 16.3096C31.0578 16.7263 31.6579 17.008 32.3115 17.1044C33.2862 17.2472 34.2647 17.39 35.2395 17.5327C36.1645 17.6678 37.0895 17.8028 38.0145 17.9417C39.0007 18.0845 39.7766 18.6015 40.2926 19.2999C40.6558 19.7938 40.8889 20.3764 40.9692 20.9822C41.0992 21.9815 40.8239 23.0464 40.0289 23.876C39.2224 24.721 38.3623 25.5197 37.5291 26.3377C36.9595 26.8972 36.39 27.4567 35.8205 28.0161C35.2395 28.5911 34.884 29.3435 34.7961 30.1383C34.7578 30.4663 34.7617 30.8019 34.819 31.1376C35.1439 33.0476 35.4688 34.9614 35.7937 36.8713C35.8549 37.2379 35.8587 37.5928 35.8166 37.9324C35.6905 38.9317 35.1439 39.7806 34.3832 40.3323C33.378 41.0616 31.9981 41.2622 30.7252 40.587C30.5074 40.4712 30.2895 40.3555 30.0716 40.2397C28.9669 39.6532 27.8623 39.0668 26.7576 38.4803C25.9396 38.0443 25.1522 37.5427 24.2004 37.4848C23.5736 37.4462 22.9391 37.5735 22.3695 37.8784C21.0584 38.5767 19.7436 39.2713 18.4325 39.9696"/>
</mask>
<path d="M18.4401 39.9658C18.0541 40.1703 17.6642 40.3786 17.2781 40.5831C16.1811 41.1658 15.0038 41.0963 14.0559 40.5947C13.1882 40.1394 12.5154 39.3253 12.267 38.3298C12.1523 37.8745 12.1256 37.3806 12.2135 36.8636C12.3855 35.8565 12.5537 34.8533 12.7257 33.8463C12.8786 32.9395 13.0353 32.0328 13.1882 31.1299C13.2302 30.8714 13.2417 30.6167 13.2302 30.3621C13.1882 29.4824 12.8212 28.6412 12.1829 28.0123C11.6363 27.4721 11.0859 26.9358 10.5393 26.3956C9.70982 25.5815 8.88419 24.7673 8.05474 23.9532C7.17559 23.0889 6.88127 21.9584 7.04181 20.905C7.16412 20.1024 7.55401 19.3423 8.16559 18.7906C8.6472 18.3546 9.26261 18.0459 9.98886 17.9379C11.0247 17.7874 12.0606 17.633 13.0964 17.4826C13.9641 17.3552 14.828 17.2279 15.6957 17.1006C16.4563 16.9887 17.1443 16.626 17.6718 16.0897C17.9317 15.8234 18.1573 15.5186 18.3255 15.1752C18.8491 14.1064 19.369 13.0415 19.8926 11.9727C20.2213 11.3013 20.5501 10.6299 20.8788 9.95857C21.5477 8.57338 22.897 7.92902 24.2081 8.00619C25.3816 8.07564 26.5283 8.72 27.1322 9.95857L28.3554 12.4588C28.7988 13.3656 29.2421 14.2685 29.6817 15.1752C29.8996 15.6189 30.2054 15.997 30.5685 16.3096C31.0578 16.7263 31.6579 17.008 32.3115 17.1044C33.2862 17.2472 34.2647 17.39 35.2395 17.5327C36.1645 17.6678 37.0895 17.8028 38.0145 17.9417C39.0007 18.0845 39.7766 18.6015 40.2926 19.2999C40.6558 19.7938 40.8889 20.3764 40.9692 20.9822C41.0992 21.9815 40.8239 23.0464 40.0289 23.876C39.2224 24.721 38.3623 25.5197 37.5291 26.3377C36.9595 26.8972 36.39 27.4567 35.8205 28.0161C35.2395 28.5911 34.884 29.3435 34.7961 30.1383C34.7578 30.4663 34.7617 30.8019 34.819 31.1376C35.1439 33.0476 35.4688 34.9614 35.7937 36.8713C35.8549 37.2379 35.8587 37.5928 35.8166 37.9324C35.6905 38.9317 35.1439 39.7806 34.3832 40.3323C33.378 41.0616 31.9981 41.2622 30.7252 40.587C30.5074 40.4712 30.2895 40.3555 30.0716 40.2397C28.9669 39.6532 27.8623 39.0668 26.7576 38.4803C25.9396 38.0443 25.1522 37.5427 24.2004 37.4848C23.5736 37.4462 22.9391 37.5735 22.3695 37.8784C21.0584 38.5767 19.7436 39.2713 18.4325 39.9696" fill="white" fill-opacity="0.1"/>
<path d="M17.2781 40.5831L16.81 39.6994L16.8091 39.7L17.2781 40.5831ZM14.0559 40.5947L14.5236 39.7108L14.5205 39.7092L14.0559 40.5947ZM12.267 38.3298L13.2372 38.0876L13.2367 38.0856L12.267 38.3298ZM12.2135 36.8636L11.2278 36.6952L11.2276 36.6959L12.2135 36.8636ZM12.7257 33.8463L13.7114 34.0146L13.7118 34.0125L12.7257 33.8463ZM13.1882 31.1299L14.1742 31.2969L14.1752 31.2904L13.1882 31.1299ZM13.2302 30.3621L14.2292 30.3171L14.2291 30.3143L13.2302 30.3621ZM12.1829 28.0123L11.48 28.7236L11.4811 28.7246L12.1829 28.0123ZM10.5393 26.3956L11.2422 25.6843L11.2398 25.6819L10.5393 26.3956ZM8.05474 23.9532L7.35368 24.6663L7.35425 24.6669L8.05474 23.9532ZM7.04181 20.905L6.05322 20.7543L7.04181 20.905ZM8.16559 18.7906L8.83545 19.5331L8.83671 19.5319L8.16559 18.7906ZM9.98886 17.9379L9.8451 16.9482L9.84172 16.9487L9.98886 17.9379ZM13.0964 17.4826L13.2402 18.4722L13.2416 18.472L13.0964 17.4826ZM15.6957 17.1006L15.8409 18.09L15.8412 18.0899L15.6957 17.1006ZM17.6718 16.0897L18.3848 16.7909L18.3874 16.7882L17.6718 16.0897ZM18.3255 15.1752L17.4274 14.7352L17.4274 14.7354L18.3255 15.1752ZM19.8926 11.9727L20.7906 12.4127L20.7907 12.4124L19.8926 11.9727ZM20.8788 9.95857L21.7769 10.3983L21.7793 10.3934L20.8788 9.95857ZM24.2081 8.00619L24.2672 7.00793L24.2668 7.00791L24.2081 8.00619ZM27.1322 9.95857L26.2334 10.3968L26.2339 10.398L27.1322 9.95857ZM28.3554 12.4588L29.2537 12.0196L29.2536 12.0194L28.3554 12.4588ZM29.6817 15.1752L28.7819 15.6114L28.7841 15.6159L29.6817 15.1752ZM30.5685 16.3096L29.9162 17.0675L29.9201 17.0709L30.5685 16.3096ZM32.3115 17.1044L32.1655 18.0937L32.1666 18.0939L32.3115 17.1044ZM35.2395 17.5327L35.0945 18.5222L35.095 18.5222L35.2395 17.5327ZM38.0145 17.9417L37.866 18.9306L37.8712 18.9314L38.0145 17.9417ZM40.2926 19.2999L41.0983 18.7075L41.0969 18.7056L40.2926 19.2999ZM40.9692 20.9822L41.9608 20.8532L41.9605 20.8508L40.9692 20.9822ZM40.0289 23.876L39.3069 23.1841L39.3055 23.1856L40.0289 23.876ZM37.5291 26.3377L36.8285 25.6241L36.8283 25.6243L37.5291 26.3377ZM35.8205 28.0161L35.1197 27.3028L35.1171 27.3053L35.8205 28.0161ZM34.7961 30.1383L35.7894 30.2541L35.79 30.2482L34.7961 30.1383ZM34.819 31.1376L35.8048 30.9699L35.8047 30.9693L34.819 31.1376ZM35.7937 36.8713L36.7801 36.7067L36.7795 36.7036L35.7937 36.8713ZM35.8166 37.9324L36.8088 38.0576L36.8091 38.0553L35.8166 37.9324ZM34.3832 40.3323L33.7961 39.5229L33.7961 39.5229L34.3832 40.3323ZM30.7252 40.587L30.2561 41.4701L30.2566 41.4704L30.7252 40.587ZM30.0716 40.2397L30.5408 39.3566L30.5405 39.3565L30.0716 40.2397ZM26.7576 38.4803L26.2872 39.3627L26.2887 39.3635L26.7576 38.4803ZM24.2004 37.4848L24.139 38.4829L24.1397 38.4829L24.2004 37.4848ZM22.3695 37.8784L22.8397 38.7609L22.8414 38.76L22.3695 37.8784ZM17.972 39.0821C17.7781 39.1848 17.5833 39.2885 17.3894 39.3916C17.1953 39.4949 17.0021 39.5977 16.81 39.6994L17.7462 41.4668C17.9402 41.3641 18.135 41.2604 18.3288 41.1573C18.523 41.054 18.7161 40.9512 18.9082 40.8495L17.972 39.0821ZM16.8091 39.7C16.0232 40.1173 15.1973 40.0673 14.5236 39.7108L13.5882 41.4786C14.8104 42.1253 16.339 42.2142 17.7472 41.4663L16.8091 39.7ZM14.5205 39.7092C13.8945 39.3807 13.4137 38.7947 13.2372 38.0876L11.2968 38.5719C11.6172 39.8559 12.4819 40.8981 13.5912 41.4802L14.5205 39.7092ZM13.2367 38.0856C13.1554 37.7626 13.1351 37.4089 13.1993 37.0312L11.2276 36.6959C11.116 37.3523 11.1493 37.9864 11.2973 38.574L13.2367 38.0856ZM13.1992 37.0319C13.2854 36.5275 13.3705 36.0242 13.4556 35.5218C13.5406 35.0191 13.6255 34.5173 13.7114 34.0146L11.74 33.6779C11.6538 34.1823 11.5686 34.6856 11.4836 35.1881C11.3985 35.6908 11.3136 36.1926 11.2278 36.6952L13.1992 37.0319ZM13.7118 34.0125C13.8653 33.1019 14.0198 32.2086 14.1741 31.2969L12.2022 30.9629C12.0508 31.857 11.8918 32.7772 11.7396 33.68L13.7118 34.0125ZM14.1752 31.2904C14.2295 30.9565 14.2434 30.6325 14.2292 30.3171L12.2312 30.4071C12.24 30.601 12.2309 30.7863 12.2012 30.9694L14.1752 31.2904ZM14.2291 30.3143C14.1753 29.1881 13.7052 28.1083 12.8847 27.2999L11.4811 28.7246C11.9373 29.1741 12.2011 29.7766 12.2314 30.4098L14.2291 30.3143ZM12.8858 27.301C12.6111 27.0295 12.3355 26.7591 12.0615 26.4902C11.787 26.2209 11.514 25.953 11.2422 25.6843L9.83636 27.1069C10.1111 27.3784 10.3866 27.6488 10.6607 27.9177C10.9352 28.187 11.2081 28.4549 11.48 28.7236L12.8858 27.301ZM11.2398 25.6819C10.8255 25.2753 10.4122 24.8687 9.99832 24.4615C9.58461 24.0545 9.17043 23.6471 8.75522 23.2395L7.35425 24.6669C7.7685 25.0734 8.18186 25.4801 8.5957 25.8872C9.0094 26.2942 9.42359 26.7017 9.83879 27.1093L11.2398 25.6819ZM8.75579 23.2401C8.12462 22.6196 7.91406 21.819 8.03039 21.0557L6.05322 20.7543C5.84848 22.0977 6.22656 23.5582 7.35368 24.6663L8.75579 23.2401ZM8.03039 21.0557C8.11995 20.468 8.40489 19.9215 8.83545 19.5331L7.49572 18.0481C6.70312 18.7632 6.20829 19.7369 6.05322 20.7543L8.03039 21.0557ZM8.83671 19.5319C9.17482 19.2258 9.60882 19.0054 10.136 18.927L9.84172 16.9487C8.91639 17.0864 8.11959 17.4833 7.49446 18.0492L8.83671 19.5319ZM10.1326 18.9275C10.6516 18.8521 11.1704 18.7757 11.6882 18.6996C12.2063 18.6233 12.7233 18.5473 13.2402 18.4722L12.9527 16.4929C12.4337 16.5683 11.9149 16.6447 11.3971 16.7209C10.879 16.7971 10.362 16.8732 9.8451 16.9482L10.1326 18.9275ZM13.2416 18.472C13.6757 18.4083 14.1087 18.3446 14.5416 18.2809C14.9745 18.2173 15.4072 18.1536 15.8409 18.09L15.5505 16.1112C15.1164 16.1749 14.6834 16.2385 14.2505 16.3022C13.8176 16.3659 13.3849 16.4295 12.9513 16.4932L13.2416 18.472ZM15.8412 18.0899C16.8258 17.9451 17.7107 17.4762 18.3848 16.7909L16.9589 15.3884C16.578 15.7757 16.0868 16.0323 15.5501 16.1112L15.8412 18.0899ZM18.3874 16.7882C18.7115 16.4563 19.0027 16.0659 19.2235 15.615L17.4274 14.7354C17.3118 14.9713 17.152 15.1906 16.9563 15.3911L18.3874 16.7882ZM19.2235 15.6152C19.4855 15.0804 19.7465 14.5466 20.0074 14.0133C20.2683 13.4798 20.529 12.9467 20.7906 12.4127L18.9946 11.5327C18.7326 12.0675 18.4716 12.6012 18.2107 13.1346C17.9498 13.6681 17.6891 14.2012 17.4274 14.7352L19.2235 15.6152ZM20.7907 12.4124C20.9551 12.0767 21.1195 11.7411 21.2838 11.4054C21.4482 11.0697 21.6126 10.734 21.7769 10.3983L19.9807 9.51882C19.8163 9.8545 19.652 10.1902 19.4876 10.5259C19.3232 10.8616 19.1589 11.1972 18.9945 11.5329L20.7907 12.4124ZM21.7793 10.3934C22.2554 9.40755 23.2029 8.94875 24.1493 9.00446L24.2668 7.00791C22.5912 6.90928 20.84 7.73921 19.9783 9.52371L21.7793 10.3934ZM24.149 9.00444C24.9938 9.05444 25.8012 9.51056 26.2334 10.3968L28.031 9.52028C27.2553 7.92944 25.7693 7.09684 24.2672 7.00793L24.149 9.00444ZM26.2339 10.398L27.4571 12.8983L29.2536 12.0194L28.0305 9.51912L26.2339 10.398ZM27.457 12.8981C27.9014 13.8069 28.3433 14.7067 28.7819 15.6114L30.5816 14.739C30.141 13.8302 29.6961 12.9243 29.2537 12.0196L27.457 12.8981ZM28.7841 15.6159C29.067 16.1921 29.4606 16.6754 29.9162 17.0675L31.2208 15.5517C30.9502 15.3187 30.7322 15.0458 30.5794 14.7344L28.7841 15.6159ZM29.9201 17.0709C30.5472 17.605 31.32 17.9689 32.1655 18.0937L32.4575 16.1151C31.9958 16.047 31.5684 15.8476 31.2169 15.5483L29.9201 17.0709ZM32.1666 18.0939C32.6541 18.1653 33.1426 18.2367 33.6308 18.3081C34.1192 18.3794 34.6073 18.4508 35.0945 18.5222L35.3844 16.5433C34.8969 16.4719 34.4084 16.4005 33.9201 16.3291C33.4318 16.2577 32.9436 16.1863 32.4564 16.115L32.1666 18.0939ZM35.095 18.5222C36.0203 18.6573 36.9433 18.7921 37.866 18.9306L38.163 16.9528C37.2356 16.8135 36.3086 16.6782 35.3839 16.5432L35.095 18.5222ZM37.8712 18.9314C38.5768 19.0335 39.121 19.3969 39.4884 19.8941L41.0969 18.7056C40.4322 17.8061 39.4245 17.1354 38.1578 16.952L37.8712 18.9314ZM39.487 19.8923C39.7496 20.2495 39.9195 20.6733 39.9779 21.1135L41.9605 20.8508C41.8583 20.0795 41.5619 19.338 41.0983 18.7075L39.487 19.8923ZM39.9775 21.1111C40.0722 21.8393 39.8729 22.5936 39.3069 23.1841L40.7509 24.5679C41.775 23.4993 42.1261 22.1237 41.9608 20.8532L39.9775 21.1111ZM39.3055 23.1856C38.513 24.0159 37.6892 24.7792 36.8285 25.6241L38.2296 27.0513C39.0354 26.2603 39.9317 25.4262 40.7523 24.5665L39.3055 23.1856ZM36.8283 25.6243C36.5435 25.9041 36.2587 26.1838 35.974 26.4635C35.6892 26.7433 35.4044 27.023 35.1197 27.3028L36.5212 28.7295C36.806 28.4498 37.0908 28.17 37.3755 27.8903C37.6603 27.6106 37.9451 27.3308 38.2298 27.0511L36.8283 25.6243ZM35.1171 27.3053C34.3704 28.0442 33.9148 29.0099 33.8021 30.0284L35.79 30.2482C35.8532 29.677 36.1085 29.1379 36.5238 28.727L35.1171 27.3053ZM33.8028 30.0225C33.7546 30.4361 33.7585 30.868 33.8333 31.306L35.8047 30.9693C35.7649 30.7359 35.7611 30.4964 35.7893 30.2541L33.8028 30.0225ZM33.8332 31.3053C33.9956 32.2602 34.158 33.2161 34.3205 34.172C34.4829 35.1279 34.6454 36.0839 34.8079 37.039L36.7795 36.7036C36.6171 35.7487 36.4547 34.7929 36.2922 33.8369C36.1298 32.881 35.9673 31.925 35.8048 30.9699L33.8332 31.3053ZM34.8073 37.0359C34.8522 37.3045 34.8548 37.5626 34.8242 37.8095L36.8091 38.0553C36.8626 37.623 36.8576 37.1712 36.7801 36.7067L34.8073 37.0359ZM34.8245 37.8071C34.7353 38.5139 34.3484 39.1222 33.7961 39.5229L34.9704 41.1418C35.9394 40.4389 36.6457 39.3496 36.8088 38.0576L34.8245 37.8071ZM33.7961 39.5229C33.0736 40.0469 32.1019 40.1853 31.1939 39.7036L30.2566 41.4704C31.8943 42.3391 33.6823 42.0762 34.9704 41.1418L33.7961 39.5229ZM31.1944 39.7039C31.0855 39.646 30.9765 39.5881 30.8676 39.5303C30.7587 39.4724 30.6497 39.4145 30.5408 39.3566L29.6024 41.1228C29.7114 41.1807 29.8203 41.2386 29.9292 41.2965C30.0382 41.3543 30.1471 41.4122 30.2561 41.4701L31.1944 39.7039ZM30.5405 39.3565C29.9882 39.0632 29.4359 38.77 28.8835 38.4768C28.3312 38.1835 27.7789 37.8903 27.2265 37.597L26.2887 39.3635C26.841 39.6568 27.3933 39.95 27.9457 40.2432C28.498 40.5365 29.0503 40.8297 29.6027 41.123L30.5405 39.3565ZM27.228 37.5978C26.5166 37.2186 25.4877 36.5612 24.2611 36.4866L24.1397 38.4829C24.8168 38.5241 25.3626 38.8699 26.2872 39.3627L27.228 37.5978ZM24.2619 36.4867C23.4593 36.4373 22.6389 36.6 21.8976 36.9967L22.8414 38.76C23.2392 38.5471 23.6878 38.4551 24.139 38.4829L24.2619 36.4867ZM21.8994 36.9958C21.2447 37.3445 20.589 37.6923 19.9324 38.0406C19.276 38.3887 18.6188 38.7374 17.9623 39.087L18.9026 40.8522C19.5573 40.5035 20.213 40.1557 20.8696 39.8074C21.526 39.4593 22.1832 39.1106 22.8397 38.7609L21.8994 36.9958Z" fill="black" fill-opacity="0.05" mask="url(#path-2-inside-1_2854_112725)"/>
</g>
<defs>
<filter id="filter0_b_2854_112725" x="5" y="6" width="38" height="37" filterUnits="userSpaceOnUse" color-interpolation-filters="sRGB">
<feFlood flood-opacity="0" result="BackgroundImageFix"/>
<feGaussianBlur in="BackgroundImageFix" stdDeviation="1"/>
<feComposite in2="SourceAlpha" operator="in" result="effect1_backgroundBlur_2854_112725"/>
<feBlend mode="normal" in="SourceGraphic" in2="effect1_backgroundBlur_2854_112725" result="shape"/>
</filter>
<linearGradient id="paint0_linear_2854_112725" x1="12.1944" y1="16.4857" x2="36.7671" y2="31.8289" gradientUnits="userSpaceOnUse">
<stop stop-color="#FEC346"/>
<stop offset="1" stop-color="#FFEA4D"/>
</linearGradient>
</defs>
</svg>
