<svg width="24" height="25" viewBox="0 0 24 25" fill="none" xmlns="http://www.w3.org/2000/svg">
<path fill-rule="evenodd" clip-rule="evenodd" d="M9.6 6.66797C9.6 5.34249 10.6745 4.26797 12 4.26797C13.3255 4.26797 14.4 5.34249 14.4 6.66797C14.4 7.99345 13.3255 9.06797 12 9.06797C10.6745 9.06797 9.6 7.99345 9.6 6.66797ZM12 2.66797C9.79086 2.66797 8 4.45883 8 6.66797C8 8.87711 9.79086 10.668 12 10.668C14.2091 10.668 16 8.87711 16 6.66797C16 4.45883 14.2091 2.66797 12 2.66797ZM20.2419 14.2607C15.4271 10.9027 9.05427 10.8095 4.14332 14.0252L3.81393 14.2409C3.30603 14.5735 3 15.1397 3 15.7468V19.8678C3 20.862 3.80589 21.6678 4.8 21.6678H19.1992C20.1933 21.6678 20.9992 20.862 20.9992 19.8678V15.7122C20.9992 15.1337 20.7164 14.5917 20.2419 14.2607ZM5.01983 15.3638C9.38418 12.506 15.0477 12.5888 19.3266 15.5731C19.3721 15.6048 19.3992 15.6568 19.3992 15.7122V19.8678C19.3992 19.9783 19.3097 20.0678 19.1992 20.0678H4.8C4.68954 20.0678 4.6 19.9783 4.6 19.8678V15.7468C4.6 15.6794 4.634 15.6164 4.69044 15.5795L5.01983 15.3638Z" fill="#33363D"/>
</svg>
