<svg width="48" height="48" viewBox="0 0 48 48" fill="none" xmlns="http://www.w3.org/2000/svg">
<path d="M31.4403 4H16.5597C14.0415 4 12 5.99913 12 8.46519V39.5348C12 42.0009 14.0415 44 16.5597 44H31.4403C33.9585 44 36 42.0009 36 39.5348V8.46519C36 5.99913 33.9585 4 31.4403 4Z" fill="url(#paint0_linear_2854_112671)"/>
<path d="M22.3169 39H25.6828C25.858 39 26 39.2549 26 39.5692V40.3232C26 40.6968 25.8311 41 25.6229 41H22.3771C22.1689 41 22 40.6968 22 40.3232V39.5692C22 39.2549 22.142 39 22.3172 39H22.3169Z" fill="#8EA7DA"/>
<g filter="url(#filter0_b_2854_112671)">
<path d="M31.4403 4H16.5597C14.0415 4 12 5.99913 12 8.46519V39.5348C12 42.0009 14.0415 44 16.5597 44H31.4403C33.9585 44 36 42.0009 36 39.5348V8.46519C36 5.99913 33.9585 4 31.4403 4Z" fill="white" fill-opacity="0.1"/>
</g>
<path d="M24 17.9126V17.2177C24 15.8706 24 15.197 24.2678 14.6283C24.433 14.2775 24.6697 13.9598 24.9648 13.6928C25.4433 13.2598 26.1213 13.0233 27.4774 12.5503L30.2616 11.5792C31.3685 11.1931 31.922 11 32.5 11C33.078 11 33.6315 11.1931 34.7384 11.5792L37.5226 12.5503C38.8787 13.0233 39.5567 13.2598 40.0352 13.6928C40.3303 13.9598 40.567 14.2775 40.7322 14.6283C41 15.197 41 15.8706 41 17.2177V17.9126C41 20.076 41 21.1576 40.7197 22.1476C40.3736 23.3701 39.7173 24.4976 38.806 25.4354C38.068 26.1949 37.0942 26.7862 35.1467 27.9688C34.2748 28.4982 33.8388 28.7629 33.3754 28.886C32.8032 29.038 32.1968 29.038 31.6246 28.886C31.1612 28.7629 30.7252 28.4982 29.8533 27.9688C27.9058 26.7862 26.932 26.1949 26.194 25.4354C25.2827 24.4976 24.6264 23.3701 24.2803 22.1476C24 21.1576 24 20.076 24 17.9126Z" fill="url(#paint1_linear_2854_112671)"/>
<g filter="url(#filter1_b_2854_112671)">
<path d="M24 17.9126V17.2177C24 15.8706 24 15.197 24.2678 14.6283C24.433 14.2775 24.6697 13.9598 24.9648 13.6928C25.4433 13.2598 26.1213 13.0233 27.4774 12.5503L30.2616 11.5792C31.3685 11.1931 31.922 11 32.5 11C33.078 11 33.6315 11.1931 34.7384 11.5792L37.5226 12.5503C38.8787 13.0233 39.5567 13.2598 40.0352 13.6928C40.3303 13.9598 40.567 14.2775 40.7322 14.6283C41 15.197 41 15.8706 41 17.2177V17.9126C41 20.076 41 21.1576 40.7197 22.1476C40.3736 23.3701 39.7173 24.4976 38.806 25.4354C38.068 26.1949 37.0942 26.7862 35.1467 27.9688C34.2748 28.4982 33.8388 28.7629 33.3754 28.886C32.8032 29.038 32.1968 29.038 31.6246 28.886C31.1612 28.7629 30.7252 28.4982 29.8533 27.9688C27.9058 26.7862 26.932 26.1949 26.194 25.4354C25.2827 24.4976 24.6264 23.3701 24.2803 22.1476C24 21.1576 24 20.076 24 17.9126Z" fill="white" fill-opacity="0.1"/>
<path d="M39.6997 14.0635L40.0352 13.6928L39.6997 14.0635C39.9471 14.2874 40.1435 14.5519 40.2798 14.8413C40.379 15.0519 40.4375 15.2975 40.4682 15.672C40.4996 16.0547 40.5 16.5361 40.5 17.2177V17.9126C40.5 20.1049 40.4955 21.104 40.2386 22.0113C39.9158 23.1517 39.3027 24.2068 38.4474 25.087C37.7646 25.7897 36.8582 26.3445 34.8871 27.5414C33.9891 28.0867 33.6243 28.3025 33.247 28.4028C32.759 28.5324 32.241 28.5324 31.753 28.4028C31.3756 28.3025 31.0109 28.0867 30.1129 27.5414C28.1418 26.3445 27.2354 25.7897 26.5526 25.087C25.6973 24.2068 25.0842 23.1517 24.7614 22.0113C24.5045 21.104 24.5 20.1049 24.5 17.9126V17.2177C24.5 16.5361 24.5004 16.0547 24.5318 15.672C24.5625 15.2975 24.621 15.0519 24.7202 14.8413C24.8565 14.5519 25.0529 14.2874 25.3003 14.0635C25.4833 13.898 25.7177 13.7566 26.0904 13.5955C26.4687 13.432 26.9573 13.2613 27.6421 13.0224L30.4263 12.0513C31.5649 11.6541 32.0262 11.5 32.5 11.5C32.9738 11.5 33.4351 11.6541 34.5737 12.0513L37.3579 13.0224C38.0427 13.2613 38.5313 13.432 38.9096 13.5955C39.2823 13.7566 39.5167 13.898 39.6997 14.0635Z" stroke="black" stroke-opacity="0.05"/>
</g>
<defs>
<filter id="filter0_b_2854_112671" x="11" y="3" width="26" height="42" filterUnits="userSpaceOnUse" color-interpolation-filters="sRGB">
<feFlood flood-opacity="0" result="BackgroundImageFix"/>
<feGaussianBlur in="BackgroundImageFix" stdDeviation="0.5"/>
<feComposite in2="SourceAlpha" operator="in" result="effect1_backgroundBlur_2854_112671"/>
<feBlend mode="normal" in="SourceGraphic" in2="effect1_backgroundBlur_2854_112671" result="shape"/>
</filter>
<filter id="filter1_b_2854_112671" x="22" y="9" width="21" height="22" filterUnits="userSpaceOnUse" color-interpolation-filters="sRGB">
<feFlood flood-opacity="0" result="BackgroundImageFix"/>
<feGaussianBlur in="BackgroundImageFix" stdDeviation="1"/>
<feComposite in2="SourceAlpha" operator="in" result="effect1_backgroundBlur_2854_112671"/>
<feBlend mode="normal" in="SourceGraphic" in2="effect1_backgroundBlur_2854_112671" result="shape"/>
</filter>
<linearGradient id="paint0_linear_2854_112671" x1="15.5" y1="5" x2="42.371" y2="31.4157" gradientUnits="userSpaceOnUse">
<stop stop-color="#B4C9E9"/>
<stop offset="1" stop-color="#D1E4FF"/>
</linearGradient>
<linearGradient id="paint1_linear_2854_112671" x1="26.5972" y1="15.6286" x2="39.4598" y2="22.9907" gradientUnits="userSpaceOnUse">
<stop stop-color="#0B50D0"/>
<stop offset="1" stop-color="#488FF7"/>
</linearGradient>
</defs>
</svg>
