<svg width="232" height="48" viewBox="0 0 232 48" fill="none" xmlns="http://www.w3.org/2000/svg">
<path d="M48 24C48 37.2564 37.2564 48 24 48C10.7436 48 0 37.2564 0 24C0 10.7436 10.7436 0 24 0C37.2564 0 48 10.7436 48 24Z" fill="white"/>
<path d="M35.2843 22.331C31.4623 19.7354 26.572 20.7962 24.0065 24.6934C21.8698 27.9586 18.6347 28.3649 17.3858 28.3649C13.293 28.3649 10.5093 25.4909 9.67423 22.5191C9.67423 22.5191 9.65918 22.4589 9.65166 22.4363C9.64414 22.4063 9.63661 22.3686 9.62909 22.3385C9.30558 21.0972 9.22282 20.5028 9.22282 19.1862C9.22282 12.0765 16.5206 4.16174 27.0159 4.16174C37.5112 4.16174 43.9288 12.3473 45.5162 16.899C45.4861 16.8163 45.456 16.7335 45.4335 16.6583C42.3714 7.75045 33.93 1.35547 23.9915 1.35547C11.4874 1.35547 1.3457 11.4896 1.3457 24.0012C1.3457 35.1812 9.41091 44.7511 20.5984 44.7511C29.5213 44.7511 35.5175 39.7479 38.2636 32.8564C39.7758 29.0871 38.7075 24.6558 35.2843 22.331Z" fill="#003964"/>
<path d="M45.6454 17.3335C44.3212 12.8947 38.1218 4.15234 27.0021 4.15234C16.4993 4.15234 9.20898 12.0671 9.20898 19.1768C9.20898 20.4934 9.29174 21.0878 9.61525 22.3291C9.47983 21.7875 9.41212 21.2458 9.41212 20.7116C9.41212 13.3085 16.8228 8.18495 24.4366 8.18495C34.7513 8.18495 43.1099 16.5436 43.1099 26.8583C43.1099 34.9385 38.4604 41.9429 31.7043 45.3059C40.4165 42.1536 46.6385 33.81 46.6385 24.0069C46.6385 21.6896 46.33 19.6432 45.6454 17.3411" fill="#ED1A3B"/>
<g clip-path="url(#clip0_1375_4682)">
<path d="M62.4004 12.9486H65.16V15.8786H71.4554V12.9486H74.1719V23.8929H62.4004V12.9486ZM63.6724 25.5518H81.3082V34.5572H63.6724V25.5518ZM71.4554 18.2269H65.16V21.5662H71.4554V18.2269ZM78.5486 27.9216H66.432V32.1443H78.5486V27.9216ZM78.527 12.4746H81.3297V24.3884H78.527V19.4979H75.2499V17.0419H78.527V12.4746Z" fill="#58595B"/>
<path d="M85.0802 15.5123V13.1209H98.016V15.5339H92.4967L98.2316 22.5357L96.2697 24.1299L91.6559 18.3992L87.0853 24.5177L85.0371 22.8588L90.7504 15.5123H85.0587H85.0802ZM102.996 30.2053C102.996 30.9593 102.845 31.6703 102.522 32.3382C102.22 33.006 101.789 33.5877 101.272 34.0832C100.733 34.5787 100.107 34.9881 99.3958 35.2681C98.6844 35.5698 97.9298 35.699 97.1321 35.699C96.3344 35.699 95.5798 35.5482 94.8467 35.2681C94.1137 34.9665 93.4885 34.5787 92.9495 34.0832C92.4321 33.5877 92.0224 33.006 91.699 32.3382C91.3972 31.6703 91.2247 30.9593 91.2247 30.2053C91.2247 29.4513 91.3756 28.7403 91.699 28.0509C92.0009 27.383 92.4321 26.8014 92.9495 26.2843C93.4885 25.7888 94.1137 25.3795 94.8467 25.0994C95.5798 24.7978 96.3344 24.6685 97.1321 24.6685C97.9298 24.6685 98.6844 24.8193 99.3958 25.0994C100.107 25.401 100.733 25.7888 101.272 26.2843C101.789 26.7798 102.199 27.3615 102.522 28.0509C102.845 28.7403 102.996 29.4297 102.996 30.2053ZM100.258 30.1838C100.258 29.3435 99.9564 28.6111 99.3311 28.0078C98.7059 27.4046 97.9729 27.0814 97.1321 27.0814C96.2912 27.0814 95.5582 27.383 94.9545 28.0078C94.3509 28.6326 94.0275 29.3435 94.0275 30.1838C94.0275 31.024 94.3293 31.7565 94.9545 32.3597C95.5582 32.9629 96.2912 33.2646 97.1321 33.2646C97.9729 33.2646 98.7059 32.9629 99.3311 32.3597C99.9564 31.7565 100.258 31.024 100.258 30.1838ZM102.112 24.41V19.5195H97.9298V17.1066H102.112V12.4746H104.915V24.41H102.112Z" fill="#58595B"/>
<path d="M108.754 26.7141H129.451V29.1917H120.504V34.987H117.68V29.1917H108.754V26.7141ZM113.195 15.7051H125.053V12.8613H127.813V23.698H110.436V12.8613H113.195V15.7051ZM125.031 18.1181H113.174V21.2204H125.031V18.1181Z" fill="#58595B"/>
<path d="M141.783 21.8241V12.6895H159.139V14.9731H144.564V16.158H159.031V18.3555H144.564V19.6051H159.203V21.8241H151.852V23.2675H160.799V25.5728H140.102V23.2675H149.027V21.8241H141.762H141.783ZM155.969 31.0234C155.969 31.6912 155.84 32.3376 155.56 32.9193C155.28 33.5009 154.891 34.0395 154.396 34.5135C153.878 34.9659 153.296 35.3106 152.628 35.5907C151.959 35.8492 151.248 36 150.472 36C149.696 36 149.006 35.8708 148.316 35.5907C147.626 35.3106 147.065 34.9659 146.548 34.5135C146.03 34.0395 145.642 33.5225 145.362 32.9193C145.082 32.316 144.952 31.6912 144.952 31.0234C144.952 30.3555 145.082 29.6877 145.362 29.106C145.642 28.5027 146.03 27.9857 146.548 27.5117C147.044 27.0593 147.626 26.7146 148.316 26.4345C148.984 26.176 149.696 26.0252 150.472 26.0252C151.248 26.0252 151.959 26.1544 152.628 26.4345C153.296 26.693 153.878 27.0593 154.396 27.5117C154.891 27.9857 155.28 28.5027 155.56 29.106C155.84 29.7092 155.969 30.334 155.969 31.0234ZM153.21 31.0018C153.21 30.2693 152.93 29.623 152.391 29.106C151.852 28.5889 151.205 28.3088 150.472 28.3088C149.739 28.3088 149.092 28.5674 148.553 29.106C148.014 29.6446 147.734 30.2693 147.734 31.0018C147.734 31.7343 148.014 32.3807 148.553 32.8977C149.092 33.4148 149.739 33.6948 150.472 33.6948C151.205 33.6948 151.852 33.4363 152.391 32.8977C152.93 32.3807 153.21 31.7343 153.21 31.0018Z" fill="#58595B"/>
<path d="M176.45 13.8959V16.2226H163.299V13.8959H168.452V12H171.427V13.8959H176.45ZM164.592 26.3914H167.33V28.0718H179.231V26.3914H181.969V34.535H164.592V26.3914ZM175.092 21.5224C175.092 22.1688 174.963 22.7935 174.682 23.3537C174.402 23.9138 174.036 24.4309 173.561 24.8618C173.087 25.2926 172.548 25.6373 171.923 25.8743C171.297 26.1329 170.629 26.2406 169.939 26.2406C169.249 26.2406 168.559 26.1113 167.934 25.8743C167.309 25.6158 166.748 25.2926 166.296 24.8618C165.821 24.4309 165.455 23.9354 165.175 23.3537C164.894 22.7935 164.765 22.1688 164.765 21.5224C164.765 20.8761 164.894 20.2513 165.175 19.6697C165.455 19.088 165.821 18.5925 166.296 18.1616C166.77 17.7307 167.309 17.386 167.934 17.149C168.559 16.8905 169.228 16.7828 169.939 16.7828C170.651 16.7828 171.319 16.912 171.923 17.149C172.548 17.4075 173.087 17.7307 173.561 18.1616C174.036 18.5925 174.402 19.088 174.682 19.6697C174.963 20.2513 175.092 20.8546 175.092 21.5224ZM179.231 30.2047H167.33V32.316H179.231V30.2047ZM172.397 21.4794C172.397 20.8115 172.16 20.2298 171.664 19.7558C171.19 19.2819 170.608 19.0233 169.939 19.0233C169.271 19.0233 168.689 19.2603 168.214 19.7558C167.74 20.2298 167.481 20.8115 167.481 21.4794C167.481 22.1472 167.719 22.7289 168.214 23.2029C168.689 23.6768 169.271 23.9138 169.939 23.9138C170.608 23.9138 171.19 23.6768 171.664 23.2029C172.138 22.7289 172.397 22.1472 172.397 21.4794ZM181.969 25.5296H179.167V12.474H181.969V17.5368H185.203V20.2513H181.969V25.5296Z" fill="#58595B"/>
<path d="M186.756 16.7606V14.4123H192.038V12.2148H195.013V14.4123H200.037V16.7606H194.604L200.252 22.4913L198.398 24.2148L193.526 19.1736L188.739 24.6242L186.821 22.836L192.469 16.7391H186.777L186.756 16.7606ZM204.435 30.2041C204.435 30.9581 204.284 31.6691 203.96 32.3369C203.659 33.0048 203.227 33.5865 202.71 34.082C202.171 34.5775 201.546 34.9868 200.834 35.2669C200.123 35.5685 199.368 35.6978 198.571 35.6978C197.773 35.6978 197.018 35.547 196.285 35.2669C195.552 34.9653 194.927 34.5775 194.388 34.082C193.871 33.5865 193.461 33.0048 193.138 32.3369C192.836 31.6691 192.663 30.9581 192.663 30.2041C192.663 29.45 192.814 28.7391 193.138 28.0497C193.461 27.3603 193.871 26.8001 194.388 26.2831C194.927 25.7876 195.552 25.3782 196.285 25.0981C197.018 24.7965 197.773 24.6673 198.571 24.6673C199.368 24.6673 200.123 24.8181 200.834 25.0981C201.546 25.3998 202.171 25.7876 202.71 26.2831C203.227 26.7786 203.637 27.3603 203.96 28.0497C204.284 28.7391 204.435 29.4285 204.435 30.2041ZM201.697 30.1825C201.697 29.3423 201.395 28.6098 200.77 28.0066C200.144 27.4034 199.411 27.0802 198.571 27.0802C197.73 27.0802 196.997 27.3818 196.393 28.0066C195.789 28.6098 195.466 29.3423 195.466 30.1825C195.466 31.0227 195.768 31.7552 196.393 32.3585C197.018 32.9617 197.73 33.2633 198.571 33.2633C199.411 33.2633 200.144 32.9617 200.77 32.3585C201.395 31.7552 201.697 31.0227 201.697 30.1825ZM205.577 24.9258H202.775V12.4734H205.577V17.1053H208.811V19.863H205.577V24.9258Z" fill="#58595B"/>
<path d="M210.902 27.7277V25.2286H231.6V27.7277H222.652V34.9881H219.828V27.7277H210.902ZM227.094 23.2897V15.6631H212.498V13.1855H229.875V23.2897H227.072H227.094Z" fill="#58595B"/>
</g>
<defs>
<clipPath id="clip0_1375_4682">
<rect width="169.2" height="24" fill="white" transform="translate(62.4004 12)"/>
</clipPath>
</defs>
</svg>
