<svg width="1200" height="152" viewBox="0 0 1200 152" fill="none" xmlns="http://www.w3.org/2000/svg">
<path d="M24.6562 9.4375V37.9375H20.625V9.4375H24.6562ZM16.4062 11.9375V15.1875H6.5625V27.7812C11.6562 27.7656 14.7812 27.6562 18.375 27L18.75 30.2812C14.8125 31.0312 11.1875 31.1562 5.03125 31.1562H2.5625V11.9375H16.4062ZM40.5312 17.1875C40.5312 21.7812 42.875 26.6875 47.6562 28.6875L45.5 31.8125C42.1406 30.3906 39.8281 27.5625 38.5625 24.0938C37.2656 27.8594 34.9062 30.9844 31.5625 32.5312L29.2812 29.375C34 27.2812 36.4375 22 36.4375 17.1875V15.4375H30.4062V12.1875H46.4688V15.4375H40.5312V17.1875ZM53.3125 9.4375V37.875H49.2812V9.4375H53.3125ZM72.6875 11V14.125H63.4688V15.875H71.8438V18.8438H63.4688V20.7812C67.6562 20.7812 70.4688 20.7188 73.7188 20.2188L74 23.3438C70.2188 23.9062 67 23.9375 61.7188 23.9375H59.5V11H72.6875ZM82.125 9.4375V24.5H78.1562V18.625H73.5312V15.5H78.1562V9.4375H82.125ZM82.125 25.5312V33H67.2188V34.625H82.9688V37.6875H63.2188V30.125H78.1562V28.5938H63.1875V25.5312H82.125ZM110.781 9.4375V26.3125H106.812V19.5938H102.375V16.375H106.812V9.4375H110.781ZM101.062 26.9375C107.125 26.9688 110.844 28.9688 110.875 32.4375C110.844 35.875 107.125 37.9062 101.062 37.9062C95 37.9062 91.2812 35.875 91.2812 32.4375C91.2812 28.9688 95 26.9688 101.062 26.9375ZM101.062 30C97.2812 30 95.25 30.7812 95.25 32.4375C95.25 34.0625 97.2812 34.875 101.062 34.875C104.844 34.875 106.906 34.0625 106.906 32.4375C106.906 30.7812 104.844 30 101.062 30ZM103.219 11.1562V14.3438H97.5625C97.6562 17.6562 99.6562 21 104.094 22.4688L102.125 25.5938C98.9844 24.5781 96.8281 22.5156 95.5938 19.9375C94.3281 22.8438 92.0625 25.1875 88.6875 26.3438L86.625 23.1875C91.2969 21.625 93.3906 17.9062 93.5 14.3438H87.7812V11.1562H103.219ZM141.469 25.8438V28.9688H130.344V37.875H126.406V28.9688H115.438V25.8438H141.469ZM122.438 10.5312V13.8125H134.375V10.5312H138.375V23.0938H118.5V10.5312H122.438ZM122.438 19.9062H134.375V16.9375H122.438V19.9062ZM160 11.875V15H144.188V11.875H150.312V9.1875H154.281V11.875H160ZM152.25 16.0312C156.094 16.0312 158.969 18.3125 159 21.5C158.969 24.625 156.094 26.9062 152.25 26.9062C148.438 26.9062 145.562 24.625 145.594 21.5C145.562 18.3125 148.438 16.0312 152.25 16.0312ZM152.25 19.0312C150.5 19.0312 149.281 19.9688 149.312 21.5C149.281 22.9688 150.5 23.875 152.25 23.875C153.969 23.875 155.281 22.9688 155.281 21.5C155.281 19.9688 153.969 19.0312 152.25 19.0312ZM168.094 9.4375V27.5H164.125V24.5H160.25V21.2812H164.125V18.9688H160.312V15.8125H164.125V9.4375H168.094ZM168.094 28.8438V37.875H164.125V32H148.562V28.8438H168.094ZM196.594 9.46875V30.2188H192.594V9.46875H196.594ZM197.344 34.1875V37.375H177.531V28.2188H181.562V34.1875H197.344ZM183.688 13.7812C183.656 17.5312 185.656 21.2188 190.344 22.7188L188.312 25.8438C185.109 24.7812 182.891 22.6562 181.625 19.9375C180.359 22.8594 178.078 25.2031 174.75 26.3438L172.688 23.1875C177.469 21.5938 179.531 17.625 179.531 13.7812V11.0312H183.688V13.7812ZM222.406 15.875C222.406 21.2188 224.562 26.4062 229.312 28.4688L226.875 31.6562C223.719 30.1094 221.609 27.2812 220.438 23.7812C219.188 27.5 217 30.5469 213.75 32.1562L211.25 28.9062C216.125 26.7188 218.344 21.2188 218.375 15.875V11.625H222.406V15.875ZM235.656 9.4375V37.9375H231.719V21.5938H226.125V18.375H231.719V9.4375H235.656ZM264.125 9.4375V37.9375H260.094V9.4375H264.125ZM245.719 11.6875V18.625H251.844V11.6875H255.781V31.2812H241.719V11.6875H245.719ZM245.719 28.0625H251.844V21.7188H245.719V28.0625ZM283.938 13.1875C283.938 17.3438 287.625 21.8125 294.062 22.9062L292.312 26.2188C287.359 25.2344 283.672 22.4531 281.844 18.7812C279.953 22.4219 276.266 25.2188 271.344 26.2188L269.625 22.9062C275.938 21.7812 279.656 17.3125 279.688 13.1875V11.125H283.938V13.1875ZM295 31.0938V34.375H268.969V31.0938H295Z" fill="#1E2124"/>
<path d="M0 82C0 76.4772 4.47715 72 10 72H70C75.5229 72 80 76.4772 80 82V142C80 147.523 75.5229 152 70 152H10C4.47715 152 0 147.523 0 142V82Z" fill="#EEF2F7"/>
<g opacity="0.2">
<path d="M36 123V111L53 110.5V123H36Z" fill="#1A80E5"/>
<path d="M53.3333 110.667C53.3333 114.547 36 114.547 36 110.667C36 109.194 39.8802 108 44.6667 108C49.4531 108 53.3333 109.194 53.3333 110.667Z" fill="#1A80E5"/>
<path d="M53.3333 122.667C53.3333 124.139 49.4531 125.333 44.6667 125.333C39.8802 125.333 36 124.139 36 122.667C36 121.194 39.8802 120 44.6667 120C49.4531 120 53.3333 121.194 53.3333 122.667Z" fill="#1A80E5"/>
</g>
<path d="M53.3333 110.667C53.3333 112.139 49.4531 113.333 44.6667 113.333C39.8802 113.333 36 112.139 36 110.667C36 109.194 39.8802 108 44.6667 108C49.4531 108 53.3333 109.194 53.3333 110.667Z" stroke="#1A80E5" stroke-width="2"/>
<path d="M53.3333 116.667C53.3333 118.14 49.4531 119.333 44.6667 119.333C39.8802 119.333 36 118.14 36 116.667" stroke="#1A80E5" stroke-width="2"/>
<path d="M53.3333 110V121.733C53.3333 123.353 49.4531 124.667 44.6667 124.667C39.8802 124.667 36 123.353 36 121.733V110" stroke="#1A80E5" stroke-width="2"/>
<ellipse cx="35.3346" cy="101.333" rx="8.66667" ry="2.66667" stroke="#1A80E5" stroke-width="2"/>
<path d="M32.0013 110.667C29.4789 110.36 27.1612 109.566 26.668 108M32.0013 117.333C29.4789 117.026 27.1612 116.233 26.668 114.667" stroke="#1A80E5" stroke-width="2" stroke-linecap="round"/>
<path d="M32.0013 124C29.4789 123.693 27.1612 122.9 26.668 121.333L26.668 101.333" stroke="#1A80E5" stroke-width="2" stroke-linecap="round"/>
<path d="M44 104V101.333" stroke="#1A80E5" stroke-width="2" stroke-linecap="round"/>
<path d="M107.957 91.3105V93.2402H92.501V91.3105H99.0137V88.1934H94.1338V79.3984H96.5088V82.0146H103.875V79.3984H106.231V88.1934H101.37V91.3105H107.957ZM96.5088 86.3008H103.875V83.9072H96.5088V86.3008ZM124.378 91.3291V93.2402H108.922V91.3291H115.453V87.5625H117.828V91.3291H124.378ZM123.023 79.6025V81.5137H117.884C118.079 83.7402 120.175 85.8091 123.803 86.3379L122.875 88.2119C119.916 87.6924 117.726 86.2451 116.641 84.2412C115.564 86.2822 113.394 87.7666 110.48 88.3047L109.553 86.4307C113.06 85.8647 115.166 83.7495 115.36 81.5137H110.202V79.6025H123.023ZM138.962 79.083V80.4375C138.962 81.7549 138.962 83.2207 138.572 85.1504H140.799V87.0615H125.343V85.1504H136.179C136.55 83.4619 136.596 82.1538 136.605 80.9756H127.235V79.083H138.962ZM138.906 88.8428V95.0215H127.18V88.8428H138.906ZM129.499 90.6982V93.1289H136.55V90.6982H129.499ZM142.376 93.5V91.5332L146.699 87.043C147.812 85.8555 148.555 85.1504 148.573 84.0371C148.573 82.7939 147.72 82.1074 146.644 82.1074C145.549 82.1074 144.77 82.8496 144.77 84.1855H142.283C142.265 81.5879 144.046 79.8809 146.699 79.8809C149.297 79.8809 151.134 81.4951 151.134 83.8516C151.134 85.3545 150.503 86.5791 147.961 89.1396L146.068 91.125V91.1992H151.301V93.5H142.376ZM152.711 91.125V88.9541L157.294 80.0664H159.984L155.494 88.7871V88.8799H158.593V85.0947H161.19V88.8799H162.749V91.125H161.19V93.5H158.537V91.125H152.711Z" fill="#1E2124"/>
<path d="M102.708 110.664V113.813H104.671V114.78H102.708V118.281H101.565V110.664H102.708ZM94.2119 111.411V113.403H98.0059V111.411H99.1484V117.461H93.084V111.411H94.2119ZM94.2119 116.538H98.0059V114.326H94.2119V116.538ZM102.811 119.014V119.937H95.6768V122.573H103.06V123.511H94.5342V119.014H102.811ZM111.424 110.898C114.324 110.898 116.023 111.689 116.023 113.14C116.023 114.619 114.324 115.41 111.424 115.425C108.523 115.41 106.81 114.619 106.81 113.14C106.81 111.689 108.523 110.898 111.424 110.898ZM111.424 111.763C109.256 111.763 107.996 112.29 108.011 113.14C107.996 114.048 109.256 114.546 111.424 114.546C113.577 114.546 114.852 114.048 114.852 113.14C114.852 112.29 113.577 111.763 111.424 111.763ZM117.356 116.304V117.241H105.491V116.304H117.356ZM115.833 118.369V121.284H108.099V122.632H116.229V123.54H106.956V120.435H114.705V119.248H106.927V118.369H115.833ZM129.31 111.88C129.31 113.711 131.712 115.308 134.056 115.63L133.587 116.567C131.565 116.23 129.566 115.11 128.724 113.506C127.889 115.117 125.882 116.23 123.86 116.567L123.392 115.63C125.735 115.308 128.123 113.74 128.123 111.88V111.133H129.31V111.88ZM134.642 118.003V118.97H129.251V123.687H128.123V118.97H122.776V118.003H134.642ZM144.471 119.409C144.471 120.559 145.086 121.782 146.331 122.485C147.562 121.716 148.221 120.42 148.221 119.409V118.691H149.349V119.409C149.349 120.742 150.33 122.09 152 122.661L151.429 123.511C150.125 123.049 149.209 122.141 148.763 121.05C148.36 122.104 147.562 123.101 146.36 123.613C145.093 123.13 144.288 122.17 143.899 121.079C143.438 122.134 142.537 123.042 141.292 123.511L140.706 122.661C142.347 122.046 143.343 120.654 143.357 119.409V118.691H144.471V119.409ZM150.813 110.679V118.12H149.671V110.679H150.813ZM143.782 111.44C145.76 111.44 147.195 112.671 147.195 114.487C147.195 116.274 145.76 117.505 143.782 117.505C141.805 117.505 140.369 116.274 140.369 114.487C140.369 112.671 141.805 111.44 143.782 111.44ZM143.782 112.422C142.449 112.407 141.482 113.271 141.497 114.487C141.482 115.688 142.449 116.538 143.782 116.553C145.101 116.538 146.067 115.688 146.067 114.487C146.067 113.271 145.101 112.407 143.782 112.422ZM163.558 114.619V115.542H154.637V111.147H155.779V114.619H163.558ZM164.935 117.314V118.252H153.011V117.314H164.935ZM163.631 122.412V123.364H154.563V119.585H155.706V122.412H163.631ZM182.234 121.064V122.017H170.311V121.064H175.672V118.252H171.717V111.587H172.874V113.945H179.642V111.587H180.77V118.252H176.8V121.064H182.234ZM172.874 117.314H179.642V114.883H172.874V117.314ZM195.198 121.05V122.017H183.274V121.05H188.65V117.886H189.808V121.05H195.198ZM189.808 113.14C189.808 115.22 192.386 117.007 194.627 117.373L194.158 118.281C192.166 117.893 190.064 116.626 189.236 114.81C188.394 116.633 186.299 117.93 184.344 118.34L183.86 117.417C186.058 117.036 188.621 115.22 188.621 113.14V112.817H184.256V111.851H194.173V112.817H189.808V113.14ZM206.595 111.367V112.334C206.595 113.345 206.595 114.531 206.258 116.157H208.162V117.109H196.238V116.157H205.101C205.452 114.524 205.452 113.345 205.452 112.334V112.319H197.747V111.367H206.595ZM206.653 118.911V123.511H197.703V118.911H206.653ZM198.846 119.819V122.573H205.511V119.819H198.846ZM215.135 110.898C218.035 110.898 219.734 111.689 219.734 113.14C219.734 114.619 218.035 115.41 215.135 115.425C212.234 115.41 210.521 114.619 210.521 113.14C210.521 111.689 212.234 110.898 215.135 110.898ZM215.135 111.763C212.967 111.763 211.707 112.29 211.722 113.14C211.707 114.048 212.967 114.546 215.135 114.546C217.288 114.546 218.562 114.048 218.562 113.14C218.562 112.29 217.288 111.763 215.135 111.763ZM221.067 116.304V117.241H209.202V116.304H221.067ZM219.544 118.369V121.284H211.81V122.632H219.939V123.54H210.667V120.435H218.416V119.248H210.638V118.369H219.544ZM236.668 110.679V114.971H238.631V115.938H236.668V120.435H235.525V110.679H236.668ZM234.28 112.275V113.213H226.517V112.275H229.827V110.679H230.97V112.275H234.28ZM230.398 113.931C232.259 113.931 233.519 114.883 233.533 116.362C233.519 117.827 232.259 118.765 230.398 118.765C228.523 118.765 227.249 117.827 227.264 116.362C227.249 114.883 228.523 113.931 230.398 113.931ZM230.398 114.839C229.168 114.839 228.348 115.439 228.362 116.362C228.348 117.285 229.168 117.871 230.398 117.856C231.614 117.871 232.435 117.285 232.449 116.362C232.435 115.439 231.614 114.839 230.398 114.839ZM237.269 122.441V123.408H228.523V119.658H229.651V122.441H237.269ZM254.568 110.679V120.317H253.411V115.308H250.335V118.091H244.432V111.543H245.574V113.857H249.207V111.543H250.335V114.341H253.411V110.679H254.568ZM254.861 122.441V123.408H246.146V119.365H247.303V122.441H254.861ZM245.574 117.139H249.207V114.766H245.574V117.139ZM267.898 110.664V123.687H266.785V110.664H267.898ZM265.276 110.942V123.027H264.178V116.699H262.508C262.383 119.233 261.307 120.815 259.695 120.815C257.996 120.815 256.897 119.058 256.897 116.289C256.897 113.521 257.996 111.763 259.695 111.763C261.277 111.763 262.347 113.293 262.493 115.747H264.178V110.942H265.276ZM259.695 112.847C258.641 112.847 257.967 114.165 257.981 116.289C257.967 118.398 258.641 119.731 259.695 119.717C260.75 119.731 261.424 118.398 261.424 116.289C261.424 114.165 260.75 112.847 259.695 112.847ZM102.693 133.679V137.619H104.642V138.586H102.693V142.409H101.536V133.679H102.693ZM92.4688 141.076C93.5088 141.076 94.7246 141.076 95.999 141.032V140.08C94.4829 139.948 93.5088 139.238 93.5088 138.161C93.5088 136.975 94.7246 136.242 96.5557 136.242C98.4014 136.242 99.6025 136.975 99.6172 138.161C99.6025 139.23 98.6504 139.941 97.1416 140.08V140.988C98.3574 140.93 99.5879 140.834 100.73 140.666L100.833 141.501C98.0059 141.999 94.8857 142.014 92.6006 142.014L92.4688 141.076ZM102.693 143.054V146.687H101.536V143.977H94.0654V143.054H102.693ZM100.335 134.865V135.744H92.791V134.865H95.999V133.562H97.1416V134.865H100.335ZM96.5557 137.062C95.3545 137.048 94.6074 137.473 94.6074 138.161C94.6074 138.835 95.3545 139.304 96.5557 139.289C97.7568 139.304 98.5186 138.835 98.5186 138.161C98.5186 137.473 97.7568 137.048 96.5557 137.062ZM116.243 133.679V143.2H115.101V133.679H116.243ZM116.653 145.441V146.408H107.835V142.233H108.978V145.441H116.653ZM109.212 134.587C111.16 134.587 112.625 135.905 112.625 137.78C112.625 139.685 111.16 140.988 109.212 140.988C107.264 140.988 105.799 139.685 105.799 137.78C105.799 135.905 107.264 134.587 109.212 134.587ZM109.212 135.598C107.894 135.598 106.912 136.506 106.927 137.78C106.912 139.084 107.894 139.978 109.212 139.978C110.501 139.978 111.497 139.084 111.497 137.78C111.497 136.506 110.501 135.598 109.212 135.598ZM128.533 133.664V139.04H130.716V139.992H128.533V146.687H127.391V133.664H128.533ZM126.131 135.759V136.711H118.382V135.759H121.736V133.825H122.879V135.759H126.131ZM122.322 137.795C124.168 137.795 125.501 139.025 125.516 140.783C125.501 142.541 124.168 143.771 122.322 143.771C120.462 143.771 119.114 142.541 119.129 140.783C119.114 139.025 120.462 137.795 122.322 137.795ZM122.322 138.762C121.106 138.762 120.213 139.611 120.228 140.783C120.213 141.97 121.106 142.805 122.322 142.79C123.523 142.805 124.402 141.97 124.417 140.783C124.402 139.611 123.523 138.762 122.322 138.762ZM141.863 134.982V136.286C141.849 137.883 141.849 139.67 141.38 142.292L140.208 142.16C140.706 139.67 140.706 137.839 140.706 136.286V135.935H132.679V134.982H141.863ZM143.284 143.889V144.841H131.419V143.889H136.077V139.23H137.205V143.889H143.284ZM159.456 133.679V143.229H158.313V133.679H159.456ZM159.866 145.441V146.408H151.048V142.351H152.19V145.441H159.866ZM153.318 135.715C153.304 137.692 154.666 139.479 156.6 140.183L155.999 141.105C154.49 140.527 153.318 139.355 152.747 137.854C152.168 139.45 150.982 140.732 149.466 141.34L148.836 140.446C150.813 139.685 152.146 137.766 152.146 135.715V134.411H153.318V135.715ZM166.106 136.462C166.106 138.088 167.513 139.538 169.432 140.109L168.875 141.003C167.366 140.556 166.158 139.567 165.579 138.278C165.008 139.707 163.821 140.827 162.269 141.34L161.712 140.461C163.631 139.816 164.979 138.234 164.979 136.462V136.184H162.034V135.261H164.979V133.605H166.136V135.261H169.051V136.184H166.106V136.462ZM172.464 133.664V141.56H171.307V138.352H168.641V137.399H171.307V133.664H172.464ZM168.143 141.911C170.853 141.911 172.508 142.761 172.508 144.284C172.508 145.793 170.853 146.657 168.143 146.657C165.433 146.657 163.777 145.793 163.777 144.284C163.777 142.761 165.433 141.911 168.143 141.911ZM168.143 142.805C166.15 142.819 164.905 143.361 164.92 144.284C164.905 145.192 166.15 145.749 168.143 145.749C170.149 145.749 171.365 145.192 171.365 144.284C171.365 143.361 170.149 142.819 168.143 142.805ZM184.812 133.62V136.784H186.79V137.736H184.812V140.827H183.67V133.62H184.812ZM184.812 141.501V144.387H177.664V145.661H185.296V146.54H176.536V143.537H183.67V142.365H176.507V141.501H184.812ZM182.425 134.851V135.773H174.661V134.851H177.972V133.532H179.114V134.851H182.425ZM178.543 136.359C180.433 136.359 181.663 137.18 181.678 138.498C181.663 139.816 180.433 140.637 178.543 140.637C176.639 140.637 175.394 139.816 175.408 138.498C175.394 137.18 176.639 136.359 178.543 136.359ZM178.543 137.209C177.312 137.209 176.492 137.722 176.507 138.498C176.492 139.289 177.312 139.772 178.543 139.772C179.773 139.772 180.579 139.289 180.594 138.498C180.579 137.722 179.773 137.209 178.543 137.209ZM198.45 134.88C198.45 136.711 200.853 138.308 203.196 138.63L202.728 139.567C200.706 139.23 198.707 138.11 197.864 136.506C197.029 138.117 195.022 139.23 193.001 139.567L192.532 138.63C194.876 138.308 197.264 136.74 197.264 134.88V134.133H198.45V134.88ZM203.782 141.003V141.97H198.392V146.687H197.264V141.97H191.917V141.003H203.782ZM213.611 142.409C213.611 143.559 214.227 144.782 215.472 145.485C216.702 144.716 217.361 143.42 217.361 142.409V141.691H218.489V142.409C218.489 143.742 219.471 145.09 221.141 145.661L220.569 146.511C219.266 146.049 218.35 145.141 217.903 144.05C217.5 145.104 216.702 146.101 215.501 146.613C214.234 146.13 213.428 145.17 213.04 144.079C212.579 145.134 211.678 146.042 210.433 146.511L209.847 145.661C211.487 145.046 212.483 143.654 212.498 142.409V141.691H213.611V142.409ZM219.954 133.679V141.12H218.812V133.679H219.954ZM212.923 134.44C214.9 134.44 216.336 135.671 216.336 137.487C216.336 139.274 214.9 140.505 212.923 140.505C210.945 140.505 209.51 139.274 209.51 137.487C209.51 135.671 210.945 134.44 212.923 134.44ZM212.923 135.422C211.59 135.407 210.623 136.271 210.638 137.487C210.623 138.688 211.59 139.538 212.923 139.553C214.241 139.538 215.208 138.688 215.208 137.487C215.208 136.271 214.241 135.407 212.923 135.422ZM232.698 137.619V138.542H223.777V134.147H224.92V137.619H232.698ZM234.075 140.314V141.252H222.151V140.314H234.075ZM232.771 145.412V146.364H223.704V142.585H224.847V145.412H232.771ZM244.036 137.165C244.036 139.523 245.545 141.896 247.435 142.761L246.746 143.698C245.267 142.937 244.043 141.376 243.465 139.523C242.886 141.472 241.663 143.142 240.184 143.933L239.437 143.01C241.341 142.072 242.864 139.567 242.864 137.165V134.792H244.036V137.165ZM250.247 133.664V146.716H249.104V139.055H246.014V138.117H249.104V133.664H250.247ZM263.152 133.664V146.716H261.995V133.664H263.152ZM254.319 134.777V138.22H258.201V134.777H259.329V143.566H253.177V134.777H254.319ZM254.319 142.6H258.201V139.143H254.319V142.6ZM271.868 135.583C271.868 137.81 274.417 139.802 276.688 140.227L276.16 141.193C274.197 140.739 272.125 139.34 271.282 137.414C270.44 139.333 268.375 140.732 266.404 141.193L265.877 140.227C268.133 139.787 270.667 137.824 270.667 135.583V134.587H271.868V135.583ZM277.303 143.962V144.914H265.379V143.962H277.303Z" fill="#464C53"/>
<path d="M303 82C303 76.4772 307.477 72 313 72H373C378.523 72 383 76.4772 383 82V142C383 147.523 378.523 152 373 152H313C307.477 152 303 147.523 303 142V82Z" fill="#EEF2F7"/>
<path d="M350.333 114V116C350.333 120.4 350.333 122.6 348.966 123.967C347.6 125.334 345.4 125.334 341 125.334C336.6 125.334 334.4 125.334 333.033 123.967C331.667 122.6 331.667 120.4 331.667 116V108C331.667 103.601 331.667 101.401 333.033 100.034C334.175 98.892 335.898 98.704 339 98.6731" stroke="#1A80E5" stroke-width="2" stroke-linecap="round"/>
<path d="M348.332 98.4999C346.432 98.4999 345.2 99.878 343.744 100.32C343.151 100.499 342.855 100.589 342.735 100.715C342.616 100.842 342.58 101.027 342.51 101.397C341.759 105.354 343.401 109.013 347.316 110.437C347.737 110.59 347.947 110.667 348.334 110.667C348.721 110.667 348.931 110.59 349.351 110.437C353.267 109.013 354.907 105.354 354.156 101.397C354.085 101.027 354.05 100.842 353.93 100.715C353.81 100.589 353.514 100.499 352.922 100.32C351.465 99.8781 350.232 98.4999 348.332 98.4999Z" fill="#1A80E5" fill-opacity="0.2" stroke="#1A80E5" stroke-width="2" stroke-linecap="round" stroke-linejoin="round"/>
<path d="M339.667 121.333H342.333" stroke="#1A80E5" stroke-width="2" stroke-linecap="round" stroke-linejoin="round"/>
<path d="M409.732 79.3408V91.6611H407.376V85.6123H404.611V83.7012H407.376V79.3408H409.732ZM410.141 94.0176V95.9102H398.525V90.585H400.9V94.0176H410.141ZM401.884 82.6436C401.884 84.5918 403.071 86.6885 405.762 87.5605L404.593 89.4346C402.719 88.8315 401.438 87.5977 400.696 86.0576C399.954 87.7646 398.609 89.1191 396.614 89.7871L395.408 87.8574C398.191 86.9854 399.453 84.7773 399.472 82.625V82.3652H396.076V80.4727H405.242V82.3652H401.884V82.6436ZM418.156 83.9238C418.138 86.5029 419.511 89.4717 422.294 90.752L420.977 92.6074C419.093 91.7446 417.748 90.019 417.006 87.9873C416.245 90.2231 414.863 92.1157 412.905 93.0342L411.532 91.1602C414.353 89.8428 415.763 86.707 415.781 83.9238V82.8848H412.2V80.9551H421.552V82.8848H418.156V83.9238ZM425.244 79.3223V85.7607H427.73V87.7461H425.244V96.207H422.869V79.3223H425.244ZM443.743 87.0967V89.0078H428.343V87.0967H443.743ZM436.024 89.9541C439.68 89.9541 441.888 91.1045 441.906 93.0898C441.888 95.0938 439.68 96.207 436.024 96.207C432.332 96.207 430.105 95.0938 430.105 93.0898C430.105 91.1045 432.332 89.9541 436.024 89.9541ZM436.024 91.791C433.687 91.791 432.499 92.1992 432.518 93.0898C432.499 93.9619 433.687 94.3701 436.024 94.3701C438.307 94.3701 439.513 93.9619 439.531 93.0898C439.513 92.1992 438.307 91.791 436.024 91.791ZM442.352 80.1016V81.9941H437.75C438.13 83.1724 439.847 84.3413 443.094 84.6289L442.259 86.4844C439.077 86.1782 436.924 84.9722 436.024 83.3301C435.134 84.9722 433.019 86.1782 429.809 86.4844L429.029 84.6289C432.202 84.3413 433.937 83.1816 434.336 81.9941H429.753V80.1016H442.352ZM458.995 79.3223V89.2119H456.639V87.0596H453.484V88.2842H445.469V80.5654H453.484V81.79H456.639V79.3223H458.995ZM447.825 82.4395V86.4102H451.165V82.4395H447.825ZM453.225 89.6572C456.824 89.6572 459.032 90.8633 459.051 92.9414C459.032 95.0195 456.824 96.207 453.225 96.207C449.625 96.207 447.417 95.0195 447.417 92.9414C447.417 90.8633 449.625 89.6572 453.225 89.6572ZM453.225 91.457C450.979 91.457 449.773 91.9395 449.773 92.9414C449.773 93.9062 450.979 94.4072 453.225 94.4072C455.47 94.4072 456.694 93.9062 456.694 92.9414C456.694 91.9395 455.47 91.457 453.225 91.457ZM453.484 85.1484H456.639V83.6641H453.484V85.1484ZM467.567 83.1445C467.567 86.3174 468.848 89.3975 471.668 90.6221L470.221 92.5146C468.347 91.5962 467.094 89.917 466.398 87.8389C465.656 90.0469 464.357 91.856 462.428 92.8115L460.943 90.8818C463.838 89.583 465.155 86.3174 465.174 83.1445V80.6211H467.567V83.1445ZM475.435 79.3223V96.2441H473.097V86.54H469.775V84.6289H473.097V79.3223H475.435ZM498.535 92.292V94.2402H483.079V92.292H489.592V88.8408H484.712V80.5654H496.81V88.8408H491.948V92.292H498.535ZM487.05 82.458V86.9854H494.472V82.458H487.05ZM512.822 79.3223V85.6309H515.309V87.6162H512.822V96.207H510.447V79.3223H512.822ZM502.395 80.6582V84.7773H505.901V80.6582H508.258V92.292H500.038V80.6582H502.395ZM502.395 90.3809H505.901V86.6143H502.395V90.3809ZM520.727 79.8232C523.287 79.8232 525.235 81.4189 525.235 83.6826C525.235 85.9092 523.287 87.5234 520.727 87.5234C518.11 87.5234 516.181 85.9092 516.181 83.6826C516.181 81.4189 518.11 79.8232 520.727 79.8232ZM520.727 81.7529C519.428 81.7529 518.463 82.458 518.481 83.6826C518.463 84.8887 519.428 85.6123 520.727 85.6123C522.007 85.6123 522.953 84.8887 522.953 83.6826C522.953 82.458 522.007 81.7529 520.727 81.7529ZM530.06 79.3223V87.7832H527.685V79.3223H530.06ZM530.06 88.4883V93.0713H521.079V94.166H530.523V96.0215H518.76V91.3457H527.703V90.3066H518.723V88.4883H530.06Z" fill="#1E2124"/>
<path d="M407.451 120.05V121.017H395.527V120.05H400.889V116.871H396.934V110.763H405.972V116.871H402.017V120.05H407.451ZM398.062 111.686V115.948H404.858V111.686H398.062ZM420.371 116.241V117.179H408.491V116.241H420.371ZM419.009 113.854V114.806H410V110.235H418.892V111.173H411.143V113.854H419.009ZM419.111 121.427V122.394H410.029V118.585H411.172V121.427H419.111ZM436.572 109.664V117.428H435.415V114.015H432.793V113.062H435.415V109.664H436.572ZM432.251 117.838C434.961 117.838 436.616 118.717 436.616 120.255C436.616 121.793 434.961 122.672 432.251 122.687C429.541 122.672 427.886 121.793 427.886 120.255C427.886 118.717 429.541 117.838 432.251 117.838ZM432.251 118.731C430.259 118.731 429.014 119.303 429.028 120.255C429.014 121.192 430.259 121.764 432.251 121.764C434.243 121.764 435.474 121.192 435.474 120.255C435.474 119.303 434.243 118.731 432.251 118.731ZM430.303 112.052C430.303 113.751 431.606 115.362 433.511 116.021L432.91 116.944C431.445 116.417 430.31 115.326 429.761 113.971C429.189 115.501 427.981 116.725 426.436 117.311L425.835 116.388C427.769 115.685 429.146 113.927 429.146 112.066V111.583H426.201V110.616H433.218V111.583H430.303V112.052ZM450.649 117.398V118.336H445.215V122.687H444.087V118.336H438.726V117.398H450.649ZM441.392 110.206V112.008H447.954V110.206H449.111V115.816H440.249V110.206H441.392ZM441.392 114.879H447.954V112.945H441.392V114.879ZM466.821 109.679V119.229H465.664V114.234H462.983V113.282H465.664V109.679H466.821ZM467.188 121.441V122.408H458.457V118.365H459.614V121.441H467.188ZM460.552 112.359C460.552 114.044 461.855 115.685 463.76 116.329L463.159 117.252C461.687 116.725 460.552 115.626 459.995 114.278C459.431 115.78 458.23 116.981 456.685 117.56L456.084 116.622C458.003 115.948 459.395 114.234 459.395 112.359V111.686H456.45V110.733H463.467V111.686H460.552V112.359ZM473.398 113.663C473.384 115.758 474.893 118.058 476.782 118.951L476.123 119.859C474.658 119.149 473.42 117.596 472.842 115.831C472.241 117.75 470.93 119.435 469.473 120.182L468.77 119.273C470.645 118.365 472.256 115.89 472.271 113.663V111.964H469.238V111.012H476.328V111.964H473.398V113.663ZM479.067 109.664V114.938H481.25V115.919H479.067V122.687H477.925V109.664H479.067ZM493.818 115.86V116.812H481.953V115.86H493.818ZM487.886 117.955C490.684 117.955 492.354 118.819 492.368 120.313C492.354 121.822 490.684 122.657 487.886 122.657C485.073 122.657 483.389 121.822 483.389 120.313C483.389 118.819 485.073 117.955 487.886 117.955ZM487.886 118.863C485.791 118.878 484.546 119.391 484.561 120.313C484.546 121.222 485.791 121.734 487.886 121.734C489.951 121.734 491.211 121.222 491.211 120.313C491.211 119.391 489.951 118.878 487.886 118.863ZM492.764 110.338V111.29H488.633C488.677 112.77 490.845 113.897 493.159 114.161L492.734 115.084C490.603 114.813 488.604 113.861 487.886 112.403C487.175 113.861 485.183 114.813 483.037 115.084L482.627 114.161C484.897 113.897 487.08 112.77 487.139 111.29H483.037V110.338H492.764ZM505.713 109.664V117.384H504.556V115.333H501.509V116.446H495.532V110.66H501.509V111.788H504.556V109.664H505.713ZM496.675 111.598V115.509H500.381V111.598H496.675ZM501.392 117.765C504.102 117.765 505.757 118.658 505.757 120.226C505.757 121.778 504.102 122.657 501.392 122.657C498.682 122.657 497.026 121.778 497.026 120.226C497.026 118.658 498.682 117.765 501.392 117.765ZM501.392 118.658C499.399 118.673 498.154 119.244 498.169 120.226C498.154 121.163 499.399 121.749 501.392 121.749C503.384 121.749 504.614 121.163 504.614 120.226C504.614 119.244 503.384 118.673 501.392 118.658ZM501.509 114.366H504.556V112.74H501.509V114.366ZM512.466 113.165C512.466 115.523 513.975 117.896 515.864 118.761L515.176 119.698C513.696 118.937 512.473 117.376 511.895 115.523C511.316 117.472 510.093 119.142 508.613 119.933L507.866 119.01C509.771 118.072 511.294 115.567 511.294 113.165V110.792H512.466V113.165ZM518.677 109.664V122.716H517.534V115.055H514.443V114.117H517.534V109.664H518.677ZM532.754 115.714V116.622H520.83V115.714H532.754ZM531.26 117.662V120.431H523.438V121.676H531.685V122.511H522.28V119.64H530.117V118.526H522.266V117.662H531.26ZM531.216 110.06V112.755H523.525V113.897H531.45V114.732H522.383V111.964H530.059V110.895H522.339V110.06H531.216ZM539.814 110.221V112.096H543.608V110.221H544.751V115.89H538.687V110.221H539.814ZM539.814 114.952H543.608V112.989H539.814V114.952ZM548.311 109.664V112.491H550.273V113.458H548.311V116.402H547.168V109.664H548.311ZM548.311 117.018V120.167H541.162V121.603H548.794V122.54H540.034V119.288H547.168V117.94H540.005V117.018H548.311ZM553.789 117.12V118.849H560.308V117.12H561.45V122.511H552.646V117.12H553.789ZM553.789 121.573H560.308V119.757H553.789V121.573ZM561.45 110.265V111.217C561.45 112.213 561.45 113.37 561.099 114.996H563.018V115.948H551.094V114.996H559.971C560.308 113.377 560.308 112.213 560.308 111.217H552.603V110.265H561.45ZM574.238 109.62V112.784H576.216V113.736H574.238V116.827H573.096V109.62H574.238ZM574.238 117.501V120.387H567.09V121.661H574.722V122.54H565.962V119.537H573.096V118.365H565.933V117.501H574.238ZM571.851 110.851V111.773H564.087V110.851H567.397V109.532H568.54V110.851H571.851ZM567.969 112.359C569.858 112.359 571.089 113.18 571.104 114.498C571.089 115.816 569.858 116.637 567.969 116.637C566.064 116.637 564.819 115.816 564.834 114.498C564.819 113.18 566.064 112.359 567.969 112.359ZM567.969 113.209C566.738 113.209 565.918 113.722 565.933 114.498C565.918 115.289 566.738 115.772 567.969 115.772C569.199 115.772 570.005 115.289 570.02 114.498C570.005 113.722 569.199 113.209 567.969 113.209ZM402.061 133.88C402.061 135.711 404.463 137.308 406.807 137.63L406.338 138.567C404.316 138.23 402.317 137.11 401.475 135.506C400.64 137.117 398.633 138.23 396.611 138.567L396.143 137.63C398.486 137.308 400.874 135.74 400.874 133.88V133.133H402.061V133.88ZM407.393 140.003V140.97H402.002V145.687H400.874V140.97H395.527V140.003H407.393ZM417.222 141.409C417.222 142.559 417.837 143.782 419.082 144.485C420.312 143.716 420.972 142.42 420.972 141.409V140.691H422.1V141.409C422.1 142.742 423.081 144.09 424.751 144.661L424.18 145.511C422.876 145.049 421.96 144.141 421.514 143.05C421.111 144.104 420.312 145.101 419.111 145.613C417.844 145.13 417.039 144.17 416.65 143.079C416.189 144.134 415.288 145.042 414.043 145.511L413.457 144.661C415.098 144.046 416.094 142.654 416.108 141.409V140.691H417.222V141.409ZM423.564 132.679V140.12H422.422V132.679H423.564ZM416.533 133.44C418.511 133.44 419.946 134.671 419.946 136.487C419.946 138.274 418.511 139.505 416.533 139.505C414.556 139.505 413.12 138.274 413.12 136.487C413.12 134.671 414.556 133.44 416.533 133.44ZM416.533 134.422C415.2 134.407 414.233 135.271 414.248 136.487C414.233 137.688 415.2 138.538 416.533 138.553C417.852 138.538 418.818 137.688 418.818 136.487C418.818 135.271 417.852 134.407 416.533 134.422ZM436.309 136.619V137.542H427.388V133.147H428.53V136.619H436.309ZM437.686 139.314V140.252H425.762V139.314H437.686ZM436.382 144.412V145.364H427.314V141.585H428.457V144.412H436.382ZM447.646 136.165C447.646 138.523 449.155 140.896 451.045 141.761L450.356 142.698C448.877 141.937 447.654 140.376 447.075 138.523C446.497 140.472 445.273 142.142 443.794 142.933L443.047 142.01C444.951 141.072 446.475 138.567 446.475 136.165V133.792H447.646V136.165ZM453.857 132.664V145.716H452.715V138.055H449.624V137.117H452.715V132.664H453.857ZM466.763 132.664V145.716H465.605V132.664H466.763ZM457.93 133.777V137.22H461.812V133.777H462.939V142.566H456.787V133.777H457.93ZM457.93 141.6H461.812V138.143H457.93V141.6ZM475.479 134.583C475.479 136.81 478.027 138.802 480.298 139.227L479.771 140.193C477.808 139.739 475.735 138.34 474.893 136.414C474.05 138.333 471.985 139.732 470.015 140.193L469.487 139.227C471.743 138.787 474.277 136.824 474.277 134.583V133.587H475.479V134.583ZM480.913 142.962V143.914H468.989V142.962H480.913Z" fill="#464C53"/>
<path d="M606 82C606 76.4772 610.477 72 616 72H676C681.523 72 686 76.4772 686 82V142C686 147.523 681.523 152 676 152H616C610.477 152 606 147.523 606 142V82Z" fill="#EEF2F7"/>
<path d="M657.333 117.104C653.998 125.008 643.152 127.311 636.935 121.152C630.839 115.113 632.727 104.172 640.742 100.667" stroke="#1A80E5" stroke-width="2" stroke-linecap="round"/>
<path d="M653.578 112.667C656.095 112.667 657.353 112.667 658.166 111.54C658.196 111.498 658.247 111.422 658.274 111.378C659.004 110.196 658.628 109.288 657.875 107.472C657.193 105.825 656.193 104.328 654.933 103.068C653.672 101.807 652.175 100.807 650.528 100.125C648.712 99.3727 647.804 98.9965 646.622 99.7264C646.578 99.7537 646.502 99.8042 646.46 99.8345C645.333 100.647 645.333 101.906 645.333 104.423V107.237C645.333 109.796 645.333 111.076 646.129 111.871C646.924 112.667 648.204 112.667 650.764 112.667H653.578Z" fill="#1A80E5" fill-opacity="0.2" stroke="#1A80E5" stroke-width="2"/>
<path d="M707.147 80.918V92.0879H699.039V80.918H707.147ZM701.377 82.7734V90.2139H704.791V82.7734H701.377ZM711.823 79.3223V85.6865H714.31V87.6533H711.823V96.207H709.448V79.3223H711.823ZM729.061 79.3223V96.2441H726.667V79.3223H729.061ZM719.895 80.5098C722.437 80.5098 724.329 82.8477 724.329 86.5215C724.329 90.2324 722.437 92.5518 719.895 92.5518C717.297 92.5518 715.404 90.2324 715.423 86.5215C715.404 82.8477 717.297 80.5098 719.895 80.5098ZM719.895 82.6436C718.577 82.6436 717.705 84.0166 717.705 86.5215C717.705 89.0449 718.577 90.3994 719.895 90.3994C721.175 90.3994 722.047 89.0449 722.047 86.5215C722.047 84.0166 721.175 82.6436 719.895 82.6436ZM745.982 79.3223V96.207H743.7V79.3223H745.982ZM742.401 79.6191V95.4463H740.193V87.4121H737.169V85.4824H740.193V79.6191H742.401ZM738.319 81.2334V83.126H734.182V90.4736C735.991 90.4644 737.354 90.3716 738.932 90.0469L739.117 91.9766C737.206 92.3662 735.499 92.4404 733.031 92.4404H731.862V81.2334H738.319ZM761.902 79.3223V96.2441H759.509V79.3223H761.902ZM752.736 80.5098C755.278 80.5098 757.171 82.8477 757.171 86.5215C757.171 90.2324 755.278 92.5518 752.736 92.5518C750.139 92.5518 748.246 90.2324 748.265 86.5215C748.246 82.8477 750.139 80.5098 752.736 80.5098ZM752.736 82.6436C751.419 82.6436 750.547 84.0166 750.547 86.5215C750.547 89.0449 751.419 90.3994 752.736 90.3994C754.017 90.3994 754.889 89.0449 754.889 86.5215C754.889 84.0166 754.017 82.6436 752.736 82.6436ZM778.435 79.3223V96.2441H776.097V87.1895H773.128V85.2783H776.097V79.3223H778.435ZM772.85 80.7324V82.6436H767.32V85.4453H772.237V87.3008H767.32V90.4922C769.658 90.4736 771.532 90.3901 773.629 90.0654L773.87 91.958C771.402 92.3291 769.194 92.4219 766.3 92.4219H764.964V80.7324H772.85Z" fill="#1E2124"/>
<path d="M709.587 109.664V117.911H708.488V114.176H706.745V117.442H705.661V109.928H706.745V113.224H708.488V109.664H709.587ZM705.134 111.231V112.154H698.454V111.231H701.237V109.767H702.38V111.231H705.134ZM701.809 112.857C703.464 112.857 704.592 113.722 704.606 115.084C704.592 116.417 703.464 117.296 701.809 117.296C700.168 117.296 699.011 116.417 699.025 115.084C699.011 113.722 700.168 112.857 701.809 112.857ZM701.809 113.707C700.769 113.707 700.051 114.264 700.051 115.084C700.051 115.89 700.769 116.432 701.809 116.432C702.849 116.432 703.566 115.89 703.566 115.084C703.566 114.264 702.849 113.707 701.809 113.707ZM705.28 118.131C708.02 118.131 709.66 118.951 709.66 120.416C709.66 121.837 708.02 122.657 705.28 122.657C702.541 122.657 700.9 121.837 700.915 120.416C700.9 118.951 702.541 118.131 705.28 118.131ZM705.28 119.039C703.259 119.024 702.043 119.522 702.058 120.416C702.043 121.266 703.259 121.764 705.28 121.764C707.302 121.764 708.503 121.266 708.518 120.416C708.503 119.522 707.302 119.024 705.28 119.039ZM722.287 109.664V117.428H721.13V114.015H718.508V113.062H721.13V109.664H722.287ZM717.966 117.838C720.676 117.838 722.331 118.717 722.331 120.255C722.331 121.793 720.676 122.672 717.966 122.687C715.256 122.672 713.601 121.793 713.601 120.255C713.601 118.717 715.256 117.838 717.966 117.838ZM717.966 118.731C715.974 118.731 714.729 119.303 714.743 120.255C714.729 121.192 715.974 121.764 717.966 121.764C719.958 121.764 721.188 121.192 721.188 120.255C721.188 119.303 719.958 118.731 717.966 118.731ZM716.018 112.052C716.018 113.751 717.321 115.362 719.226 116.021L718.625 116.944C717.16 116.417 716.025 115.326 715.476 113.971C714.904 115.501 713.696 116.725 712.15 117.311L711.55 116.388C713.483 115.685 714.86 113.927 714.86 112.066V111.583H711.916V110.616H718.933V111.583H716.018V112.052ZM728.249 110.396L725.07 123.097H723.928L727.092 110.396H728.249ZM734.665 117.896C737.463 117.896 739.235 118.775 739.235 120.284C739.235 121.778 737.463 122.657 734.665 122.657C731.882 122.657 730.109 121.778 730.109 120.284C730.109 118.775 731.882 117.896 734.665 117.896ZM734.665 118.775C732.585 118.79 731.237 119.361 731.252 120.284C731.237 121.192 732.585 121.749 734.665 121.749C736.745 121.749 738.078 121.192 738.093 120.284C738.078 119.361 736.745 118.79 734.665 118.775ZM739.133 110.338V111.437C739.133 112.491 739.133 113.546 738.767 114.894L737.639 114.762C737.99 113.414 737.99 112.462 737.99 111.437V111.275H730.197V110.338H739.133ZM740.642 115.743V116.681H728.791V115.743H733.698V113.224H734.826V115.743H740.642ZM747.629 117.896C750.427 117.896 752.199 118.775 752.199 120.284C752.199 121.778 750.427 122.657 747.629 122.657C744.846 122.657 743.073 121.778 743.073 120.284C743.073 118.775 744.846 117.896 747.629 117.896ZM747.629 118.775C745.549 118.79 744.201 119.361 744.216 120.284C744.201 121.192 745.549 121.749 747.629 121.749C749.709 121.749 751.042 121.192 751.057 120.284C751.042 119.361 749.709 118.79 747.629 118.775ZM752.097 110.338V111.437C752.097 112.491 752.097 113.546 751.73 114.894L750.603 114.762C750.954 113.414 750.954 112.462 750.954 111.437V111.275H743.161V110.338H752.097ZM753.605 115.743V116.681H741.755V115.743H746.662V113.224H747.79V115.743H753.605ZM765.471 109.664V122.687H764.313V109.664H765.471ZM761.618 111.085C761.604 114.835 759.86 118.146 755.495 120.24L754.865 119.303C758.388 117.633 760.183 115.135 760.446 112.022H755.466V111.085H761.618ZM774.89 110.675V111.363C774.875 112.213 774.875 113.517 774.553 115.216L773.396 115.128C773.71 113.568 773.74 112.462 773.762 111.642H768.4V110.675H774.89ZM771.535 113.561V116.358C772.978 116.3 774.472 116.197 775.827 116.007L775.9 116.856C773.176 117.325 770.026 117.384 767.712 117.384L767.595 116.432C768.437 116.424 769.389 116.417 770.393 116.388V113.561H771.535ZM777.878 109.664V113.912H779.782V114.894H777.878V119.464H776.706V109.664H777.878ZM778.303 121.441V122.408H769.602V118.585H770.759V121.441H778.303ZM791.794 109.664V122.687H790.681V109.664H791.794ZM789.172 109.942V122.027H788.073V115.699H786.403C786.279 118.233 785.202 119.815 783.591 119.815C781.892 119.815 780.793 118.058 780.793 115.289C780.793 112.521 781.892 110.763 783.591 110.763C785.173 110.763 786.242 112.293 786.389 114.747H788.073V109.942H789.172ZM783.591 111.847C782.536 111.847 781.862 113.165 781.877 115.289C781.862 117.398 782.536 118.731 783.591 118.717C784.646 118.731 785.319 117.398 785.319 115.289C785.319 113.165 784.646 111.847 783.591 111.847ZM802.326 118.409C802.326 119.559 802.941 120.782 804.187 121.485C805.417 120.716 806.076 119.42 806.076 118.409V117.691H807.204V118.409C807.204 119.742 808.186 121.09 809.855 121.661L809.284 122.511C807.98 122.049 807.065 121.141 806.618 120.05C806.215 121.104 805.417 122.101 804.216 122.613C802.949 122.13 802.143 121.17 801.755 120.079C801.293 121.134 800.393 122.042 799.147 122.511L798.562 121.661C800.202 121.046 801.198 119.654 801.213 118.409V117.691H802.326V118.409ZM808.669 109.679V117.12H807.526V109.679H808.669ZM801.638 110.44C803.615 110.44 805.051 111.671 805.051 113.487C805.051 115.274 803.615 116.505 801.638 116.505C799.66 116.505 798.225 115.274 798.225 113.487C798.225 111.671 799.66 110.44 801.638 110.44ZM801.638 111.422C800.305 111.407 799.338 112.271 799.353 113.487C799.338 114.688 800.305 115.538 801.638 115.553C802.956 115.538 803.923 114.688 803.923 113.487C803.923 112.271 802.956 111.407 801.638 111.422ZM821.413 113.619V114.542H812.492V110.147H813.635V113.619H821.413ZM822.79 116.314V117.252H810.866V116.314H822.79ZM821.486 121.412V122.364H812.419V118.585H813.562V121.412H821.486ZM839.284 109.664V122.687H838.156V115.948H836.281V122.013H835.197V109.957H836.281V114.967H838.156V109.664H839.284ZM829.968 111.261V118.292C831.264 118.277 832.641 118.189 834.23 117.867L834.377 118.893C832.561 119.215 831.066 119.317 829.631 119.317H828.825V111.261H829.968ZM856.247 109.664V117.428H855.09V114.015H852.468V113.062H855.09V109.664H856.247ZM851.926 117.838C854.636 117.838 856.291 118.717 856.291 120.255C856.291 121.793 854.636 122.672 851.926 122.687C849.216 122.672 847.561 121.793 847.561 120.255C847.561 118.717 849.216 117.838 851.926 117.838ZM851.926 118.731C849.934 118.731 848.688 119.303 848.703 120.255C848.688 121.192 849.934 121.764 851.926 121.764C853.918 121.764 855.148 121.192 855.148 120.255C855.148 119.303 853.918 118.731 851.926 118.731ZM849.978 112.052C849.978 113.751 851.281 115.362 853.186 116.021L852.585 116.944C851.12 116.417 849.985 115.326 849.436 113.971C848.864 115.501 847.656 116.725 846.11 117.311L845.51 116.388C847.443 115.685 848.82 113.927 848.82 112.066V111.583H845.876V110.616H852.893V111.583H849.978V112.052ZM870.339 120.064V121.017H858.415V120.064H863.776V117.252H859.821V110.587H860.979V112.945H867.746V110.587H868.874V117.252H864.904V120.064H870.339ZM860.979 116.314H867.746V113.883H860.979V116.314ZM883.288 115.714V116.622H871.364V115.714H883.288ZM881.794 117.662V120.431H873.972V121.676H882.219V122.511H872.814V119.64H880.651V118.526H872.8V117.662H881.794ZM881.75 110.06V112.755H874.06V113.897H881.984V114.732H872.917V111.964H880.593V110.895H872.873V110.06H881.75ZM709.265 132.679V142.566H708.107V141.219H705.412V140.384H708.107V132.679H709.265ZM709.587 144.441V145.408H700.329V141.6H701.486V144.441H709.587ZM698.454 138.714C700.886 138.699 704.138 138.685 706.936 138.333L707.009 139.168C705.844 139.351 704.628 139.468 703.435 139.534V142.112H702.277V139.593C700.959 139.651 699.707 139.659 698.615 139.651L698.454 138.714ZM702.731 133.206C704.636 133.206 705.939 134.114 705.954 135.477C705.939 136.868 704.636 137.732 702.731 137.732C700.812 137.732 699.509 136.868 699.509 135.477C699.509 134.114 700.812 133.206 702.731 133.206ZM702.731 134.085C701.457 134.07 700.593 134.642 700.607 135.477C700.593 136.326 701.457 136.883 702.731 136.883C703.962 136.883 704.841 136.326 704.855 135.477C704.841 134.642 703.962 134.07 702.731 134.085ZM721.569 132.664V138.04H723.752V138.992H721.569V145.687H720.427V132.664H721.569ZM719.167 134.759V135.711H711.418V134.759H714.772V132.825H715.915V134.759H719.167ZM715.358 136.795C717.204 136.795 718.537 138.025 718.552 139.783C718.537 141.541 717.204 142.771 715.358 142.771C713.498 142.771 712.15 141.541 712.165 139.783C712.15 138.025 713.498 136.795 715.358 136.795ZM715.358 137.762C714.143 137.762 713.249 138.611 713.264 139.783C713.249 140.97 714.143 141.805 715.358 141.79C716.56 141.805 717.438 140.97 717.453 139.783C717.438 138.611 716.56 137.762 715.358 137.762ZM734.987 136.619V137.542H726.066V133.147H727.209V136.619H734.987ZM736.364 139.314V140.252H724.44V139.314H736.364ZM735.061 144.412V145.364H725.993V141.585H727.136V144.412H735.061ZM752.097 133.309V134.217C752.097 135.213 752.097 136.341 751.745 137.894L750.617 137.762C750.954 136.246 750.954 135.191 750.954 134.231H743.161V133.309H752.097ZM753.605 138.787V139.71H741.755V138.787H746.662V136.15H747.79V138.787H753.605ZM748.2 141.351C748.2 143.079 750.28 144.383 752.653 144.734L752.214 145.628C750.222 145.298 748.413 144.368 747.629 142.947C746.831 144.368 745.021 145.298 743.029 145.628L742.604 144.734C744.963 144.383 747.028 143.079 747.043 141.351V140.75H748.2V141.351ZM760.637 133.514C763.361 133.514 765.397 134.935 765.397 137.088C765.397 139.256 763.361 140.677 760.637 140.662C757.912 140.677 755.876 139.256 755.876 137.088C755.876 134.935 757.912 133.514 760.637 133.514ZM760.637 134.451C758.542 134.437 756.96 135.535 756.975 137.088C756.96 138.67 758.542 139.725 760.637 139.725C762.717 139.725 764.284 138.67 764.284 137.088C764.284 135.535 762.717 134.437 760.637 134.451ZM766.628 142.991V143.958H754.704V142.991H766.628ZM779.592 143.108V144.075H767.668V143.108H773.029V140.647H769.162V136.634H776.955V134.583H769.133V133.631H778.083V137.571H770.305V139.695H778.391V140.647H774.157V143.108H779.592ZM796.877 143.064V144.017H784.953V143.064H790.314V140.252H786.359V133.587H787.517V135.945H794.284V133.587H795.412V140.252H791.442V143.064H796.877ZM787.517 139.314H794.284V136.883H787.517V139.314ZM808.977 132.679V139.358H807.878V136.487H806.032V139.314H804.948V132.928H806.032V135.535H807.878V132.679H808.977ZM799.719 133.426V137.659C801.088 137.652 802.414 137.579 803.981 137.278L804.113 138.23C802.355 138.553 800.92 138.611 799.382 138.611H798.576V133.426H799.719ZM808.977 139.959V143.108H801.506V144.588H809.504V145.511H800.363V142.215H807.849V140.896H800.334V139.959H808.977ZM817.414 133.88C817.414 135.711 819.816 137.308 822.16 137.63L821.691 138.567C819.67 138.23 817.67 137.11 816.828 135.506C815.993 137.117 813.986 138.23 811.965 138.567L811.496 137.63C813.84 137.308 816.228 135.74 816.228 133.88V133.133H817.414V133.88ZM822.746 140.003V140.97H817.355V145.687H816.228V140.97H810.881V140.003H822.746ZM832.575 141.409C832.575 142.559 833.19 143.782 834.436 144.485C835.666 143.716 836.325 142.42 836.325 141.409V140.691H837.453V141.409C837.453 142.742 838.435 144.09 840.104 144.661L839.533 145.511C838.229 145.049 837.314 144.141 836.867 143.05C836.464 144.104 835.666 145.101 834.465 145.613C833.198 145.13 832.392 144.17 832.004 143.079C831.542 144.134 830.642 145.042 829.396 145.511L828.811 144.661C830.451 144.046 831.447 142.654 831.462 141.409V140.691H832.575V141.409ZM838.918 132.679V140.12H837.775V132.679H838.918ZM831.887 133.44C833.864 133.44 835.3 134.671 835.3 136.487C835.3 138.274 833.864 139.505 831.887 139.505C829.909 139.505 828.474 138.274 828.474 136.487C828.474 134.671 829.909 133.44 831.887 133.44ZM831.887 134.422C830.554 134.407 829.587 135.271 829.602 136.487C829.587 137.688 830.554 138.538 831.887 138.553C833.205 138.538 834.172 137.688 834.172 136.487C834.172 135.271 833.205 134.407 831.887 134.422ZM851.662 136.619V137.542H842.741V133.147H843.884V136.619H851.662ZM853.039 139.314V140.252H841.115V139.314H853.039ZM851.735 144.412V145.364H842.668V141.585H843.811V144.412H851.735ZM863 136.165C863 138.523 864.509 140.896 866.398 141.761L865.71 142.698C864.23 141.937 863.007 140.376 862.429 138.523C861.85 140.472 860.627 142.142 859.147 142.933L858.4 142.01C860.305 141.072 861.828 138.567 861.828 136.165V133.792H863V136.165ZM869.211 132.664V145.716H868.068V138.055H864.978V137.117H868.068V132.664H869.211ZM882.116 132.664V145.716H880.959V132.664H882.116ZM873.283 133.777V137.22H877.165V133.777H878.293V142.566H872.141V133.777H873.283ZM873.283 141.6H877.165V138.143H873.283V141.6ZM890.832 134.583C890.832 136.81 893.381 138.802 895.651 139.227L895.124 140.193C893.161 139.739 891.088 138.34 890.246 136.414C889.404 138.333 887.338 139.732 885.368 140.193L884.841 139.227C887.097 138.787 889.631 136.824 889.631 134.583V133.587H890.832V134.583ZM896.267 142.962V143.914H884.343V142.962H896.267Z" fill="#464C53"/>
<path d="M909 82C909 76.4772 913.477 72 919 72H979C984.523 72 989 76.4772 989 82V142C989 147.523 984.523 152 979 152H919C913.477 152 909 147.523 909 142V82Z" fill="#EEF2F7"/>
<path d="M949.695 100H948.359C947.608 100.011 946.861 100.041 946.127 100.09C940.538 100.461 936.087 104.967 935.72 110.625C935.649 111.732 935.649 112.878 935.72 113.986C935.854 116.046 936.767 117.954 937.841 119.565C938.465 120.693 938.054 122.1 937.404 123.33C936.935 124.217 936.701 124.66 936.889 124.98C937.077 125.3 937.497 125.31 938.338 125.331C940 125.371 941.121 124.901 942.011 124.246C942.515 123.875 942.768 123.689 942.942 123.667C943.116 123.646 943.458 123.787 944.142 124.068C944.757 124.321 945.472 124.477 946.127 124.521C948.029 124.647 950.02 124.647 951.927 124.521C955.293 124.297 958.273 122.573 960.189 120" stroke="#1A80E5" stroke-width="2" stroke-linecap="round" stroke-linejoin="round"/>
<path d="M952.781 110.897C951.681 111.556 948.796 112.903 950.553 114.588C951.411 115.411 952.367 116 953.569 116H960.428C961.63 116 962.586 115.411 963.444 114.588C965.201 112.903 962.316 111.556 961.216 110.897C958.636 109.35 955.361 109.35 952.781 110.897Z" fill="#1A80E5" fill-opacity="0.2"/>
<path d="M960.499 102.579C960.499 104.555 958.932 106.158 956.999 106.158C955.066 106.158 953.499 104.555 953.499 102.579C953.499 100.602 955.066 98.9999 956.999 98.9999C958.932 98.9999 960.499 100.602 960.499 102.579Z" fill="#1A80E5" fill-opacity="0.2"/>
<path d="M952.781 110.897C951.681 111.556 948.796 112.903 950.553 114.588C951.411 115.411 952.367 116 953.569 116H960.428C961.63 116 962.586 115.411 963.444 114.588C965.201 112.903 962.316 111.556 961.216 110.897C958.636 109.35 955.361 109.35 952.781 110.897Z" stroke="#1A80E5" stroke-width="2"/>
<path d="M960.499 102.579C960.499 104.555 958.932 106.158 956.999 106.158C955.066 106.158 953.499 104.555 953.499 102.579C953.499 100.602 955.066 98.9999 956.999 98.9999C958.932 98.9999 960.499 100.602 960.499 102.579Z" stroke="#1A80E5" stroke-width="2"/>
<path d="M1015.12 80.0645V81.3818C1015.12 82.625 1015.12 84.0537 1014.79 85.8721H1016.96V87.7646H1010.39V90.1953H1015.14V96.207H1012.76V92.0508H1003.06V90.1953H1008.01V87.7646H1001.5V85.8721H1012.39C1012.71 84.2949 1012.75 83.0518 1012.76 81.9385H1003.39V80.0645H1015.12ZM1027.03 80.6768V88.8223H1018.78V80.6768H1027.03ZM1021.11 82.5508V86.9482H1024.68V82.5508H1021.11ZM1032.06 79.3408V91.3457H1029.69V79.3408H1032.06ZM1032.51 93.9248V95.8359H1020.74V90.2324H1023.14V93.9248H1032.51ZM1048.48 79.3223V96.2441H1046.09V79.3223H1048.48ZM1037.55 80.6582V84.7773H1041.19V80.6582H1043.53V92.292H1035.18V80.6582H1037.55ZM1037.55 90.3809H1041.19V86.6143H1037.55V90.3809ZM1057.15 83.1445C1057.15 86.3174 1058.43 89.3975 1061.25 90.6221L1059.8 92.5146C1057.93 91.5962 1056.67 89.917 1055.98 87.8389C1055.24 90.0469 1053.94 91.856 1052.01 92.8115L1050.52 90.8818C1053.42 89.583 1054.73 86.3174 1054.75 83.1445V80.6211H1057.15V83.1445ZM1065.01 79.3223V96.2441H1062.68V86.54H1059.35V84.6289H1062.68V79.3223H1065.01ZM1086.26 80.3057V81.8271C1086.26 83.4043 1086.26 85.1299 1085.83 87.4863H1088.06V89.3975H1081.47V96.2256H1079.1V89.3975H1072.66V87.4863H1083.44C1083.87 85.3062 1083.9 83.6548 1083.9 82.1982H1074.42V80.3057H1086.26ZM1091.32 80.8623V84.7773H1092.55V80.8623H1094.46V92.292H1089.38V80.8623H1091.32ZM1091.32 90.3809H1092.55V86.6143H1091.32V90.3809ZM1097.28 80.8623V84.7773H1098.47V80.8623H1100.36V92.292H1095.35V80.8623H1097.28ZM1097.28 90.3809H1098.47V86.6143H1097.28V90.3809ZM1103.77 79.3223V96.207H1101.51V79.3223H1103.77Z" fill="#1E2124"/>
<path d="M1012.65 109.664V122.687H1011.52V115.948H1009.64V122.013H1008.56V109.957H1009.64V114.967H1011.52V109.664H1012.65ZM1003.33 111.261V118.292C1004.63 118.277 1006 118.189 1007.59 117.867L1007.74 118.893C1005.92 119.215 1004.43 119.317 1002.99 119.317H1002.19V111.261H1003.33ZM1023.18 111.261C1023.18 113.062 1024.5 114.586 1026.44 115.216L1025.8 116.109C1024.34 115.597 1023.21 114.579 1022.65 113.253C1022.09 114.791 1020.89 115.956 1019.33 116.534L1018.72 115.611C1020.7 114.923 1022.05 113.238 1022.05 111.275V110.191H1023.18V111.261ZM1028.99 109.664V112.535H1030.96V113.502H1028.99V116.622H1027.85V109.664H1028.99ZM1024.09 117.296V120.24H1021.1V121.676C1022.47 121.668 1023.3 121.639 1024.36 121.427L1024.48 122.335C1023.27 122.555 1022.34 122.584 1020.66 122.584H1019.97V119.391H1022.97V118.175H1019.94V117.296H1024.09ZM1028.99 117.296V122.584H1024.89V117.296H1028.99ZM1025.92 118.16V121.705H1027.98V118.16H1025.92ZM1036.04 110.616C1038.09 110.616 1039.54 111.861 1039.54 113.678C1039.54 115.494 1038.09 116.739 1036.04 116.739C1033.99 116.739 1032.51 115.494 1032.52 113.678C1032.51 111.861 1033.99 110.616 1036.04 110.616ZM1036.04 111.627C1034.65 111.627 1033.64 112.462 1033.65 113.678C1033.64 114.894 1034.65 115.729 1036.04 115.729C1037.42 115.729 1038.41 114.894 1038.41 113.678C1038.41 112.462 1037.42 111.627 1036.04 111.627ZM1042.46 109.664V122.716H1041.31V109.664H1042.46ZM1031.85 118.863C1034.25 118.863 1037.56 118.849 1040.45 118.424L1040.54 119.273C1037.56 119.83 1034.35 119.845 1032.01 119.845L1031.85 118.863ZM1060.94 116.241V117.179H1049.06V116.241H1060.94ZM1059.58 113.854V114.806H1050.57V110.235H1059.46V111.173H1051.71V113.854H1059.58ZM1059.68 121.427V122.394H1050.6V118.585H1051.74V121.427H1059.68ZM1073.91 116.241V117.179H1062.03V116.241H1073.91ZM1072.54 113.854V114.806H1063.53V110.235H1072.43V111.173H1064.68V113.854H1072.54ZM1072.65 121.427V122.394H1063.56V118.585H1064.71V121.427H1072.65ZM1085.17 109.679V113.971H1087.13V114.938H1085.17V119.435H1084.03V109.679H1085.17ZM1082.78 111.275V112.213H1075.02V111.275H1078.33V109.679H1079.47V111.275H1082.78ZM1078.9 112.931C1080.76 112.931 1082.02 113.883 1082.04 115.362C1082.02 116.827 1080.76 117.765 1078.9 117.765C1077.03 117.765 1075.75 116.827 1075.77 115.362C1075.75 113.883 1077.03 112.931 1078.9 112.931ZM1078.9 113.839C1077.67 113.839 1076.85 114.439 1076.86 115.362C1076.85 116.285 1077.67 116.871 1078.9 116.856C1080.12 116.871 1080.94 116.285 1080.95 115.362C1080.94 114.439 1080.12 113.839 1078.9 113.839ZM1085.77 121.441V122.408H1077.03V118.658H1078.15V121.441H1085.77ZM1104.15 116.109V117.032H1092.27V116.109H1097.65V114.586H1093.78V110.279H1102.67V111.202H1094.91V113.648H1102.76V114.586H1098.76V116.109H1104.15ZM1098.21 117.984C1101 117.984 1102.67 118.834 1102.69 120.328C1102.67 121.837 1101 122.672 1098.21 122.687C1095.39 122.672 1093.71 121.837 1093.71 120.328C1093.71 118.834 1095.39 117.984 1098.21 117.984ZM1098.21 118.893C1096.11 118.893 1094.87 119.435 1094.88 120.328C1094.87 121.236 1096.11 121.764 1098.21 121.764C1100.27 121.764 1101.53 121.236 1101.53 120.328C1101.53 119.435 1100.27 118.893 1098.21 118.893ZM1115.42 109.679V113.619H1117.38V114.586H1115.42V119.244H1114.28V109.679H1115.42ZM1116.02 121.441V122.408H1107.27V118.307H1108.4V121.441H1116.02ZM1106.92 110.616V112.813H1110.72V110.616H1111.86V117.047H1105.79V110.616H1106.92ZM1106.92 116.109H1110.72V113.722H1106.92V116.109ZM1122.61 113.663C1122.6 115.758 1124.11 118.058 1126 118.951L1125.34 119.859C1123.87 119.149 1122.63 117.596 1122.05 115.831C1121.45 117.75 1120.14 119.435 1118.69 120.182L1117.98 119.273C1119.86 118.365 1121.47 115.89 1121.48 113.663V111.964H1118.45V111.012H1125.54V111.964H1122.61V113.663ZM1128.28 109.664V114.938H1130.46V115.919H1128.28V122.687H1127.14V109.664H1128.28ZM1133.54 120.519L1132.4 124.503H1131.31L1132.12 120.519H1133.54ZM1011.88 133.309V134.246C1011.88 135.22 1011.88 136.385 1011.56 137.952H1013.45V138.89H1008.03V141.292H1011.97V145.687H1010.81V142.244H1002.76V141.292H1006.89V138.89H1001.53V137.952H1010.4C1010.74 136.355 1010.74 135.22 1010.74 134.246H1003.04V133.309H1011.88ZM1021.29 133.807V139.842H1015.18V133.807H1021.29ZM1016.31 134.759V138.919H1020.16V134.759H1016.31ZM1025.24 132.679V142.039H1024.1V132.679H1025.24ZM1025.65 144.295V145.247H1016.83V141.131H1017.98V144.295H1025.65ZM1038.19 132.664V145.716H1037.04V132.664H1038.19ZM1029.36 133.777V137.22H1033.24V133.777H1034.37V142.566H1028.22V133.777H1029.36ZM1029.36 141.6H1033.24V138.143H1029.36V141.6ZM1045 136.165C1045 138.523 1046.51 140.896 1048.4 141.761L1047.71 142.698C1046.23 141.937 1045.01 140.376 1044.43 138.523C1043.85 140.472 1042.63 142.142 1041.15 142.933L1040.4 142.01C1042.31 141.072 1043.83 138.567 1043.83 136.165V133.792H1045V136.165ZM1051.21 132.664V145.716H1050.07V138.055H1046.98V137.117H1050.07V132.664H1051.21ZM1059.92 133.895V137.557H1058.76V133.895H1059.92ZM1072.32 133.514V134.656C1072.32 135.894 1072.32 137.234 1071.96 139.109H1073.89V140.062H1068.51V145.716H1067.36V140.062H1062.03V139.109H1070.79C1071.18 137.234 1071.18 135.865 1071.18 134.656V134.466H1063.52V133.514H1072.32ZM1076.4 133.909V137.264H1077.98V133.909H1078.96V142.522H1075.41V133.909H1076.4ZM1076.4 141.57H1077.98V138.172H1076.4V141.57ZM1080.98 133.909V137.264H1082.53V133.909H1083.49V142.522H1080V133.909H1080.98ZM1080.98 141.57H1082.53V138.172H1080.98V141.57ZM1086.02 132.664V145.687H1084.92V132.664H1086.02ZM1090.17 133.895V137.557H1089.01V133.895H1090.17Z" fill="#464C53"/>
</svg>
