<svg width="200" height="160" viewBox="0 0 200 160" fill="none" xmlns="http://www.w3.org/2000/svg">
<g id="icon_subject_01">
<g id="Mask group">
<mask id="mask0_2321_96452" style="mask-type:alpha" maskUnits="userSpaceOnUse" x="0" y="0" width="200" height="160">
<rect id="200x160" width="200" height="160" fill="#FF0000"/>
</mask>
<g mask="url(#mask0_2321_96452)">
<g id="icon">
<g id="Group">
<path id="Vector" d="M203.981 153.105C204 152.983 204 152.851 204 152.729C204 152.672 204 152.607 204 152.541C204 152.522 204 152.503 204 152.484C204 152.278 203.981 152.08 203.953 151.883C203.953 151.864 203.953 151.845 203.953 151.836C203.756 150.652 203.549 149.467 203.351 148.293C203.389 148.528 203.408 148.762 203.408 149.007C203.408 149.073 203.408 149.129 203.398 149.195C203.398 149.364 203.38 149.533 203.351 149.702C203.342 149.787 203.314 149.881 203.295 149.975C203.267 150.125 203.229 150.266 203.182 150.417C203.145 150.529 203.107 150.633 203.07 150.746C203.023 150.877 202.966 150.999 202.9 151.131C202.835 151.272 202.759 151.413 202.675 151.563C202.59 151.704 202.506 151.845 202.412 151.996C202.365 152.062 202.318 152.137 202.271 152.203C202.12 152.409 201.951 152.625 201.763 152.832C201.754 152.851 201.735 152.86 201.725 152.879C201.584 153.03 201.425 153.18 201.265 153.33C201.171 153.415 201.096 153.509 201.002 153.594C200.739 153.829 200.457 154.054 200.146 154.28L141.459 196.81C141.12 197.055 140.763 197.28 140.406 197.487C140.312 197.543 140.228 197.59 140.134 197.637C139.682 197.891 139.212 198.126 138.724 198.333C138.639 198.371 138.545 198.399 138.461 198.436C138.188 198.54 137.925 198.643 137.643 198.737C137.492 198.794 137.333 198.831 137.182 198.888C136.994 198.944 136.816 199 136.628 199.047C136.459 199.094 136.289 199.141 136.12 199.179C135.96 199.216 135.791 199.254 135.631 199.292C135.453 199.329 135.265 199.357 135.086 199.395C134.936 199.423 134.786 199.451 134.645 199.47C134.447 199.498 134.25 199.517 134.052 199.545C133.911 199.564 133.77 199.583 133.629 199.592C133.441 199.611 133.253 199.621 133.066 199.63C132.915 199.63 132.765 199.649 132.614 199.658C132.445 199.658 132.276 199.658 132.116 199.658C131.938 199.658 131.759 199.658 131.59 199.658C131.458 199.658 131.336 199.639 131.204 199.639C130.97 199.63 130.735 199.611 130.509 199.592C130.406 199.583 130.312 199.564 130.208 199.555C129.898 199.517 129.588 199.47 129.278 199.414C129.165 199.395 129.052 199.376 128.949 199.348C128.479 199.245 128.018 199.123 127.576 198.972C127.501 198.944 127.426 198.916 127.351 198.888C126.89 198.718 126.449 198.54 126.044 198.314L14.1395 138.057C12.3349 137.089 11.3104 135.735 11.0566 134.26C11.254 135.444 11.4514 136.628 11.6582 137.803C11.912 139.279 12.9364 140.623 14.7411 141.6L126.627 201.839C127.041 202.055 127.482 202.243 127.934 202.412C128.009 202.44 128.084 202.469 128.159 202.497C128.601 202.647 129.052 202.769 129.531 202.873C129.569 202.873 129.607 202.901 129.654 202.91C129.719 202.929 129.795 202.929 129.86 202.939C130.161 202.995 130.471 203.042 130.791 203.08C130.857 203.08 130.923 203.108 130.988 203.108C131.026 203.108 131.054 203.108 131.092 203.108C131.327 203.126 131.552 203.145 131.787 203.155C131.891 203.155 131.994 203.173 132.097 203.173C132.126 203.173 132.144 203.173 132.173 203.173C132.342 203.173 132.52 203.173 132.699 203.173C132.84 203.173 132.99 203.173 133.131 203.173C133.15 203.173 133.178 203.173 133.197 203.173C133.347 203.173 133.498 203.155 133.648 203.145C133.799 203.145 133.958 203.136 134.109 203.117C134.146 203.117 134.175 203.117 134.212 203.108C134.353 203.098 134.494 203.079 134.635 203.061C134.786 203.042 134.927 203.033 135.077 203.014C135.124 203.014 135.18 202.995 135.227 202.986C135.368 202.967 135.5 202.939 135.641 202.92C135.772 202.892 135.913 202.882 136.045 202.854C136.111 202.845 136.167 202.826 136.233 202.807C136.383 202.769 136.543 202.741 136.694 202.704C136.806 202.675 136.929 202.657 137.041 202.619C137.107 202.6 137.163 202.581 137.229 202.563C137.417 202.516 137.596 202.459 137.774 202.403C137.887 202.365 137.991 202.346 138.103 202.309C138.15 202.29 138.197 202.271 138.244 202.252C138.517 202.158 138.79 202.055 139.053 201.952C139.128 201.923 139.203 201.895 139.278 201.867C139.288 201.867 139.306 201.858 139.316 201.848C139.805 201.641 140.275 201.406 140.726 201.153C140.773 201.125 140.829 201.106 140.876 201.078C140.923 201.049 140.961 201.021 141.008 200.993C141.374 200.777 141.722 200.561 142.06 200.316L200.748 157.786C201.058 157.56 201.34 157.334 201.603 157.099C201.697 157.015 201.782 156.921 201.866 156.836C202.017 156.686 202.186 156.545 202.318 156.394C202.336 156.376 202.346 156.366 202.355 156.348C202.543 156.141 202.703 155.934 202.853 155.727C202.9 155.652 202.947 155.586 202.994 155.52C203.051 155.436 203.107 155.361 203.164 155.276C203.201 155.21 203.22 155.154 203.257 155.088C203.342 154.947 203.408 154.806 203.483 154.665C203.511 154.599 203.558 154.533 203.586 154.468C203.615 154.402 203.624 154.345 203.652 154.28C203.69 154.167 203.727 154.064 203.765 153.951C203.784 153.885 203.812 153.819 203.831 153.753C203.85 153.669 203.859 153.594 203.878 153.509C203.897 153.424 203.915 153.33 203.934 153.246C203.934 153.199 203.953 153.152 203.962 153.105H203.981Z" fill="#7FAA65"/>
<path id="Vector_2" d="M200.278 144.486C204.508 146.77 204.451 151.131 200.156 154.242L141.468 196.773C137.173 199.893 130.265 200.57 126.026 198.295L14.1396 138.057C9.91003 135.782 9.95702 131.412 14.2618 128.291L72.9494 85.7606C77.2447 82.6495 84.153 81.9727 88.392 84.2473L200.278 144.486Z" fill="#A1CF84"/>
</g>
<path id="Vector_3" d="M114.926 123.921V80.1966L62.7051 51.3979V96.0622L35.8145 83.3077V124.701L142.014 180.249V138.64L114.926 123.921Z" fill="url(#paint0_linear_2321_96452)"/>
<path id="Vector_4" d="M114.924 80.1969V124.701L152.999 101.345V57.1787L114.924 80.1969Z" fill="#BDC2D6"/>
<path id="Vector_5" d="M152.999 101.345L114.924 124.701L142.012 138.64L180.482 114.494L152.999 101.345Z" fill="white"/>
<path id="Vector_6" d="M142.014 138.64V180.249L180.484 154.74V114.494L142.014 138.64Z" fill="#BDC2D6"/>
<path id="Vector_7" d="M35.8145 83.3075L62.7051 96.9361V68.7578L35.8145 83.3075Z" fill="white"/>
<path id="Vector_8" d="M153.002 57.1783L114.926 80.1965L62.7051 51.3979L100.076 29L153.002 57.1783Z" fill="white"/>
<path id="Vector_9" d="M69.2559 51.1349L100.169 32.459L146.375 57.1784L115.358 76.5687L69.2559 51.1349Z" fill="#D7D7DD"/>
<path id="Vector_10" d="M120.517 124.241L153.593 103.892L175.577 114.494L142.013 135.576L120.517 124.241Z" fill="#D7D7DD"/>
<path id="Vector_11" d="M62.7033 72.2637V93.8439L42.3262 83.1947L62.7033 72.2637Z" fill="#D7D7DD"/>
<path id="Vector_12" d="M68.7561 84.7363L108.307 105.207V109.108L68.7561 88.4489V84.7363Z" fill="url(#paint1_linear_2321_96452)"/>
<path id="Vector_13" d="M68.7561 93.4492L108.307 113.92V117.83L68.7561 97.1712V93.4492Z" fill="url(#paint2_linear_2321_96452)"/>
<path id="Vector_14" d="M68.7561 102.172L108.307 122.643V126.544L68.7561 105.884V102.172Z" fill="url(#paint3_linear_2321_96452)"/>
<path id="Vector_15" d="M68.7561 110.884L108.307 131.355V135.265L68.7561 114.606V110.884Z" fill="url(#paint4_linear_2321_96452)"/>
<path id="Vector_16" d="M68.7561 119.597L108.307 140.068V143.978L68.7561 123.319V119.597Z" fill="url(#paint5_linear_2321_96452)"/>
<path id="Vector_17" d="M68.7561 128.319L108.307 148.79V152.7L68.7561 132.041V128.319Z" fill="url(#paint6_linear_2321_96452)"/>
<path id="Vector_18" d="M42.0254 94.314V99.1357L46.208 101.476V96.6355L42.0254 94.314Z" fill="url(#paint7_linear_2321_96452)"/>
<path id="Vector_19" d="M42.0254 102.792V107.614L46.208 109.954V105.114L42.0254 102.792Z" fill="url(#paint8_linear_2321_96452)"/>
<path id="Vector_20" d="M42.0254 111.552V116.373L46.208 118.714V113.873L42.0254 111.552Z" fill="url(#paint9_linear_2321_96452)"/>
<path id="Vector_21" d="M49.5725 98.4492V103.271L53.7645 105.611V100.771L49.5725 98.4492Z" fill="url(#paint10_linear_2321_96452)"/>
<path id="Vector_22" d="M49.5725 106.927V111.749L53.7645 114.099V109.249L49.5725 106.927Z" fill="url(#paint11_linear_2321_96452)"/>
<path id="Vector_23" d="M49.5725 115.688V120.519L53.7645 122.85V118.009L49.5725 115.688Z" fill="url(#paint12_linear_2321_96452)"/>
<path id="Vector_24" d="M119.324 136.055V140.886L123.516 143.226V138.386L119.324 136.055Z" fill="url(#paint13_linear_2321_96452)"/>
<path id="Vector_25" d="M119.324 144.542V149.364L123.516 151.704V146.864L119.324 144.542Z" fill="url(#paint14_linear_2321_96452)"/>
<path id="Vector_26" d="M119.324 153.302V158.124L123.516 160.464V155.624L119.324 153.302Z" fill="url(#paint15_linear_2321_96452)"/>
<path id="Vector_27" d="M126.881 140.2V145.022L131.063 147.362V142.522L126.881 140.2Z" fill="url(#paint16_linear_2321_96452)"/>
<path id="Vector_28" d="M126.881 148.678V153.499L131.063 155.84V150.999L126.881 148.678Z" fill="url(#paint17_linear_2321_96452)"/>
<path id="Vector_29" d="M126.881 157.438V162.259L131.063 164.6V159.759L126.881 157.438Z" fill="url(#paint18_linear_2321_96452)"/>
<g id="Group_2">
<path id="Vector_30" d="M81.3906 70.732L83.637 69.7827L87.453 72.0385L85.2066 72.9784L81.3906 70.732Z" fill="#0EB69E"/>
<path id="Vector_31" d="M90.3743 82.9786L92.6112 82.0293L92.6018 87.1424L90.3555 88.0917L90.3743 82.9786Z" fill="#08A385"/>
<path id="Vector_32" d="M90.4039 70.9293L92.6503 69.98L92.6409 75.0931L90.3945 76.0424L90.4039 70.9293Z" fill="#08A385"/>
<path id="Vector_33" d="M85.2246 67.8746L87.4616 66.9253L92.6498 69.98L90.4035 70.9293L85.2246 67.8746Z" fill="#0EB69E"/>
<path id="Vector_34" d="M94.2102 78.2979L96.4566 77.3486L96.4378 84.2851L94.1914 85.2344L94.2102 78.2979Z" fill="#08A385"/>
<path id="Vector_35" d="M90.3945 76.0426L92.6409 75.0933L96.4569 77.349L94.2105 78.2983L90.3945 76.0426Z" fill="#0EB69E"/>
<path id="Vector_36" d="M90.4036 70.9292L90.3942 76.0423L94.2102 78.298L94.1914 85.2345L90.3754 82.9788L90.3566 88.0918L85.1683 85.0277L85.1871 79.9147L81.3711 77.6683L81.3899 70.7318L85.2059 72.9782L85.2247 67.8745L90.4036 70.9292Z" fill="#54D6C6"/>
</g>
<path id="Vector_37" d="M100.169 32.459L69.2559 51.1349L70.7315 51.9432L101.598 33.2203L100.169 32.459Z" fill="#B0B4C1"/>
<g id="Group_3">
<path id="Vector_38" d="M27.5879 121.985V129.241L61.8192 147.315V139.758L27.5879 121.985Z" fill="url(#paint19_linear_2321_96452)"/>
<path id="Vector_39" d="M27.5879 121.985L33.0299 118.714L66.7537 136.149L61.8192 139.758L27.5879 121.985Z" fill="white"/>
<path id="Vector_40" d="M61.8184 139.759V147.315L66.7529 143.377V136.149L61.8184 139.759Z" fill="#BDC2D6"/>
</g>
<path id="Vector_41" d="M153.593 103.892L120.517 124.241L121.852 124.945L154.861 104.512L153.593 103.892Z" fill="#B0B4C1"/>
<path id="Vector_42" d="M62.7033 72.2637L42.3262 83.1947L43.6984 83.9091L62.7033 73.6453V72.2637Z" fill="#B0B4C1"/>
</g>
</g>
</g>
</g>
<defs>
<linearGradient id="paint0_linear_2321_96452" x1="17.2984" y1="58.1371" x2="118.451" y2="135.331" gradientUnits="userSpaceOnUse">
<stop stop-color="white"/>
<stop offset="1" stop-color="#E1E9F7"/>
</linearGradient>
<linearGradient id="paint1_linear_2321_96452" x1="88.5317" y1="88.1388" x2="88.5317" y2="107.491" gradientUnits="userSpaceOnUse">
<stop stop-color="#B4D7FF"/>
<stop offset="1" stop-color="#70A2E5"/>
</linearGradient>
<linearGradient id="paint2_linear_2321_96452" x1="10.999" y1="96.8611" x2="11.9389" y2="116.204" gradientUnits="userSpaceOnUse">
<stop stop-color="#B4D7FF"/>
<stop offset="1" stop-color="#70A2E5"/>
</linearGradient>
<linearGradient id="paint3_linear_2321_96452" x1="10.999" y1="105.574" x2="11.939" y2="124.927" gradientUnits="userSpaceOnUse">
<stop stop-color="#B4D7FF"/>
<stop offset="1" stop-color="#70A2E5"/>
</linearGradient>
<linearGradient id="paint4_linear_2321_96452" x1="10.999" y1="114.296" x2="11.9389" y2="133.639" gradientUnits="userSpaceOnUse">
<stop stop-color="#B4D7FF"/>
<stop offset="1" stop-color="#70A2E5"/>
</linearGradient>
<linearGradient id="paint5_linear_2321_96452" x1="10.999" y1="123.009" x2="11.9389" y2="142.352" gradientUnits="userSpaceOnUse">
<stop stop-color="#B4D7FF"/>
<stop offset="1" stop-color="#70A2E5"/>
</linearGradient>
<linearGradient id="paint6_linear_2321_96452" x1="10.999" y1="131.722" x2="11.939" y2="151.074" gradientUnits="userSpaceOnUse">
<stop stop-color="#B4D7FF"/>
<stop offset="1" stop-color="#70A2E5"/>
</linearGradient>
<linearGradient id="paint7_linear_2321_96452" x1="40.1926" y1="95.4137" x2="46.0106" y2="99.0793" gradientUnits="userSpaceOnUse">
<stop stop-color="#B4D7FF"/>
<stop offset="1" stop-color="#70A2E5"/>
</linearGradient>
<linearGradient id="paint8_linear_2321_96452" x1="44.112" y1="103.788" x2="44.112" y2="109.484" gradientUnits="userSpaceOnUse">
<stop stop-color="#B4D7FF"/>
<stop offset="1" stop-color="#70A2E5"/>
</linearGradient>
<linearGradient id="paint9_linear_2321_96452" x1="44.112" y1="112.548" x2="44.112" y2="118.234" gradientUnits="userSpaceOnUse">
<stop stop-color="#B4D7FF"/>
<stop offset="1" stop-color="#70A2E5"/>
</linearGradient>
<linearGradient id="paint10_linear_2321_96452" x1="47.7491" y1="99.5489" x2="53.5671" y2="103.215" gradientUnits="userSpaceOnUse">
<stop stop-color="#B4D7FF"/>
<stop offset="1" stop-color="#70A2E5"/>
</linearGradient>
<linearGradient id="paint11_linear_2321_96452" x1="51.6685" y1="107.933" x2="51.6685" y2="113.619" gradientUnits="userSpaceOnUse">
<stop stop-color="#B4D7FF"/>
<stop offset="1" stop-color="#70A2E5"/>
</linearGradient>
<linearGradient id="paint12_linear_2321_96452" x1="51.6685" y1="116.684" x2="51.6685" y2="122.38" gradientUnits="userSpaceOnUse">
<stop stop-color="#B4D7FF"/>
<stop offset="1" stop-color="#70A2E5"/>
</linearGradient>
<linearGradient id="paint13_linear_2321_96452" x1="117.501" y1="137.164" x2="123.319" y2="140.829" gradientUnits="userSpaceOnUse">
<stop stop-color="#B4D7FF"/>
<stop offset="1" stop-color="#70A2E5"/>
</linearGradient>
<linearGradient id="paint14_linear_2321_96452" x1="121.42" y1="145.538" x2="121.42" y2="151.225" gradientUnits="userSpaceOnUse">
<stop stop-color="#B4D7FF"/>
<stop offset="1" stop-color="#70A2E5"/>
</linearGradient>
<linearGradient id="paint15_linear_2321_96452" x1="121.42" y1="154.299" x2="121.42" y2="159.985" gradientUnits="userSpaceOnUse">
<stop stop-color="#B4D7FF"/>
<stop offset="1" stop-color="#70A2E5"/>
</linearGradient>
<linearGradient id="paint16_linear_2321_96452" x1="125.048" y1="141.3" x2="130.866" y2="144.966" gradientUnits="userSpaceOnUse">
<stop stop-color="#B4D7FF"/>
<stop offset="1" stop-color="#70A2E5"/>
</linearGradient>
<linearGradient id="paint17_linear_2321_96452" x1="128.977" y1="149.674" x2="128.977" y2="155.37" gradientUnits="userSpaceOnUse">
<stop stop-color="#B4D7FF"/>
<stop offset="1" stop-color="#70A2E5"/>
</linearGradient>
<linearGradient id="paint18_linear_2321_96452" x1="128.977" y1="158.434" x2="128.977" y2="164.12" gradientUnits="userSpaceOnUse">
<stop stop-color="#B4D7FF"/>
<stop offset="1" stop-color="#70A2E5"/>
</linearGradient>
<linearGradient id="paint19_linear_2321_96452" x1="21.6196" y1="123.31" x2="41.7283" y2="148.471" gradientUnits="userSpaceOnUse">
<stop stop-color="white"/>
<stop offset="1" stop-color="#E1E9F7"/>
</linearGradient>
</defs>
</svg>
