<svg width="1200" height="361" viewBox="0 0 1200 361" fill="none" xmlns="http://www.w3.org/2000/svg">
<path d="M10.0938 16.5C10.0938 21.375 11.4375 26 15.4375 28.125L13.0938 31.2812C10.625 29.9375 9.03125 27.6406 8.09375 24.8125C7.07812 27.9531 5.375 30.5781 2.8125 32.125L0.3125 29.2188C4.59375 26.6562 6.1875 21.5938 6.21875 16.7812V11.875H10.0938V16.5ZM25.5 9.4375V37.875H21.6875V23.7188H19.2188V36.5625H15.4688V9.84375H19.2188V20.5312H21.6875V9.4375H25.5ZM56.5938 11.9688V15.125H39.7188V11.9688H46.1875V9.28125H50.1562V11.9688H56.5938ZM48.1562 16.0312C52.2812 16.0312 55.1562 18.1562 55.1562 21.2812C55.1562 24.4062 52.2812 26.5312 48.1562 26.5312C44.0312 26.5312 41.0938 24.4062 41.0938 21.2812C41.0938 18.1562 44.0312 16.0312 48.1562 16.0312ZM48.1562 19.0312C46.25 19.0312 44.9688 19.8125 45 21.2812C44.9688 22.7188 46.25 23.4688 48.1562 23.4688C50.0625 23.4688 51.375 22.7188 51.375 21.2812C51.375 19.8125 50.0625 19.0312 48.1562 19.0312ZM62.2812 9.4375V16.8125H66.125V20.0625H62.2812V27.2812H58.2812V9.4375H62.2812ZM62.2812 28.4688V37.875H58.2812V31.6562H43.125V28.4688H62.2812ZM92.2812 9.4375V37.875H88.25V9.4375H92.2812ZM83.75 12.4062C83.75 21.0312 80.7188 28.1875 70.5625 33L68.4688 29.8125C75.8125 26.3438 79.0469 21.8438 79.6875 15.5312H70V12.4062H83.75ZM118.312 15.875C118.312 21.0938 120.688 26.3438 125.5 28.375L123.156 31.5625C119.906 30.0938 117.656 27.2656 116.375 23.75C115.078 27.5781 112.75 30.6719 109.281 32.25L106.875 28.9375C111.844 26.8438 114.25 21.4062 114.281 15.875V11.625H118.312V15.875ZM131.062 9.4375V37.9375H127.031V9.4375H131.062ZM152.062 11.0938V14.2812H146.406C146.438 17.6094 148.406 21.0156 153.031 22.5L151 25.5938C147.844 24.5781 145.672 22.5469 144.438 20C143.172 22.7812 140.906 24.9844 137.594 26.0625L135.469 23C140.172 21.4844 142.312 17.8438 142.375 14.2812H136.562V11.0938H152.062ZM158.469 9.4375V16.3438H162.312V19.6562H158.469V26.5938H154.469V9.4375H158.469ZM158.469 27.8125V37.875H154.469V30.9688H139.312V27.8125H158.469ZM170.594 32.6875L167.906 41.5938H164.594L166.156 32.6875H170.594ZM211 25.3438V28.5938H199.875V37.9062H195.938V28.5938H184.969V25.3438H211ZM197.906 10.375C204 10.375 208.281 12.9062 208.281 16.8438C208.281 20.7188 204 23.1875 197.906 23.1875C191.812 23.1875 187.562 20.7188 187.594 16.8438C187.562 12.9062 191.812 10.375 197.906 10.375ZM197.906 13.5625C194.094 13.5625 191.656 14.75 191.688 16.8438C191.656 18.875 194.094 20.0312 197.906 20.0312C201.75 20.0312 204.156 18.875 204.156 16.8438C204.156 14.75 201.75 13.5625 197.906 13.5625ZM237.5 9.4375V37.9375H233.531V9.4375H237.5ZM228.688 11.8125V22.7812H219.312V28C223.641 27.9844 227.328 27.7344 231.5 27.0625L231.844 30.2812C227.156 31.0938 222.938 31.2812 217.75 31.2812H215.188V19.625H224.625V15.0312H215.156V11.8125H228.688ZM260.188 11.4375C264.531 11.4375 267.656 15.375 267.688 21.5625C267.656 27.8125 264.531 31.7188 260.188 31.7188C255.844 31.7188 252.656 27.8125 252.688 21.5625C252.656 15.375 255.844 11.4375 260.188 11.4375ZM260.188 15.0312C258 15.0312 256.531 17.3438 256.531 21.5625C256.531 25.8125 258 28.0938 260.188 28.0938C262.406 28.0938 263.844 25.8125 263.875 21.5625C263.844 17.3438 262.406 15.0312 260.188 15.0312ZM274.969 9.4375V20.1562H279.156V23.4688H274.969V37.875H270.969V9.4375H274.969ZM305 9.4375V37.9375H300.969V9.4375H305ZM289.562 11.4375C293.844 11.4375 297.031 15.375 297.031 21.5625C297.031 27.8125 293.844 31.7188 289.562 31.7188C285.188 31.7188 282 27.8125 282.031 21.5625C282 15.375 285.188 11.4375 289.562 11.4375ZM289.562 15.0312C287.344 15.0312 285.875 17.3438 285.875 21.5625C285.875 25.8125 287.344 28.0938 289.562 28.0938C291.719 28.0938 293.188 25.8125 293.188 21.5625C293.188 17.3438 291.719 15.0312 289.562 15.0312ZM335.844 22.1875V25.1562H309.812V22.1875H335.844ZM332.719 26.5625V33.2812H316.781V34.9062H333.562V37.625H312.812V30.75H328.781V29.3125H312.781V26.5625H332.719ZM332.688 9.9375V16.625H317.031V18.1562H333.188V20.8438H313.062V14.0938H328.688V12.6562H313V9.9375H332.688ZM358 10.625C362.344 10.5938 365.5 13.0625 365.5 16.6562C365.5 20.2188 362.344 22.7188 358 22.6875C353.656 22.7188 350.5 20.2188 350.531 16.6562C350.5 13.0625 353.656 10.5938 358 10.625ZM358 13.8125C355.875 13.8125 354.375 14.8438 354.375 16.6562C354.375 18.4375 355.875 19.4688 358 19.4375C360.188 19.4688 361.719 18.4375 361.719 16.6562C361.719 14.8438 360.188 13.8125 358 13.8125ZM372.688 9.46875V37.875H368.75V9.46875H372.688ZM348.781 24.4375C353.812 24.4375 360.969 24.3125 367.031 23.4062L367.281 26.3438C364.938 26.8125 362.531 27.1094 360.156 27.2812V37.0312H356.188V27.5312C353.688 27.6406 351.328 27.6562 349.281 27.6875L348.781 24.4375ZM399.938 9.46875V18.1875H403.781V21.4375H399.938V30.6875H395.938V9.46875H399.938ZM394.25 12.4375V15.5938H377.375V12.4375H383.844V9.40625H387.812V12.4375H394.25ZM385.812 16.5938C389.938 16.5938 392.812 18.8125 392.812 22.0938C392.812 25.375 389.938 27.5312 385.812 27.5312C381.656 27.5312 378.75 25.375 378.75 22.0938C378.75 18.8125 381.656 16.5938 385.812 16.5938ZM385.812 19.625C383.906 19.6562 382.625 20.5312 382.656 22.0938C382.625 23.6562 383.906 24.5 385.812 24.5C387.719 24.5 389.031 23.6562 389.031 22.0938C389.031 20.5312 387.719 19.6562 385.812 19.625ZM400.969 34.1875V37.375H381.5V29.0625H385.469V34.1875H400.969ZM440.219 9.4375V26.3125H436.25V19.5938H431.812V16.375H436.25V9.4375H440.219ZM430.5 26.9375C436.562 26.9688 440.281 28.9688 440.312 32.4375C440.281 35.875 436.562 37.9062 430.5 37.9062C424.438 37.9062 420.719 35.875 420.719 32.4375C420.719 28.9688 424.438 26.9688 430.5 26.9375ZM430.5 30C426.719 30 424.688 30.7812 424.688 32.4375C424.688 34.0625 426.719 34.875 430.5 34.875C434.281 34.875 436.344 34.0625 436.344 32.4375C436.344 30.7812 434.281 30 430.5 30ZM432.656 11.1562V14.3438H427C427.094 17.6562 429.094 21 433.531 22.4688L431.562 25.5938C428.422 24.5781 426.266 22.5156 425.031 19.9375C423.766 22.8438 421.5 25.1875 418.125 26.3438L416.062 23.1875C420.734 21.625 422.828 17.9062 422.938 14.3438H417.219V11.1562H432.656ZM453.875 15.9375C453.875 18.75 455.5 21.5625 459.094 22.75L457.312 25.75C454.797 24.8594 453.078 23.2188 452.062 21.1875C451.062 23.4219 449.328 25.2188 446.719 26.1875L444.906 23.25C448.469 21.9062 450.094 18.9688 450.094 15.9375V15.7812H445.688V12.6562H450.094V9.71875H453.875V12.6562H458.25V15.7812H453.875V15.9375ZM469.344 9.46875V26.8438H465.562V19.8125H463.281V26.7812H459.531V9.90625H463.281V16.5938H465.562V9.46875H469.344ZM469.344 28.0625V37.875H465.375V31.2812H449.688V28.0625H469.344Z" fill="#1F2123"/>
<rect y="72" width="588" height="200" rx="12" fill="white"/>
<path d="M45.4531 109.961V112.281H41.2344C41.293 113.957 42.8047 115.504 45.9688 116.078L44.7969 118.375C42.3828 117.906 40.7188 116.84 39.7812 115.398C38.832 116.98 37.1328 118.176 34.625 118.68L33.4062 116.359C36.6289 115.762 38.1289 114.086 38.2109 112.281H33.9688V109.961H38.2344V107.875H41.2344V109.961H45.4531ZM50.6094 107.852V129.156H47.6562V107.852H50.6094ZM32.6797 119.594C36.6172 119.594 41.8672 119.57 46.3672 118.984L46.5547 121.141C44.7969 121.445 42.9922 121.656 41.2109 121.773V128.5H38.2344V121.938C36.3828 122.008 34.6133 122.02 33.0547 122.008L32.6797 119.594ZM66.0312 109.727V112.094H53.375V109.727H58.2266V107.711H61.2031V109.727H66.0312ZM59.7031 112.773C62.7969 112.773 64.9531 114.367 64.9531 116.711C64.9531 119.055 62.7969 120.648 59.7031 120.648C56.6094 120.648 54.4062 119.055 54.4062 116.711C54.4062 114.367 56.6094 112.773 59.7031 112.773ZM59.7031 115.023C58.2734 115.023 57.3125 115.609 57.3359 116.711C57.3125 117.789 58.2734 118.352 59.7031 118.352C61.1328 118.352 62.1172 117.789 62.1172 116.711C62.1172 115.609 61.1328 115.023 59.7031 115.023ZM70.2969 107.828V113.359H73.1797V115.797H70.2969V121.211H67.2969V107.828H70.2969ZM70.2969 122.102V129.156H67.2969V124.492H55.9297V122.102H70.2969ZM93.5703 118.82V121.164H74.0703V118.82H82.3203V117.508H76.5078V108.344H91.2969V110.641H79.5078V111.836H90.8047V113.992H79.5078V115.211H91.4844V117.508H85.3203V118.82H93.5703ZM83.8203 122.148C88.5312 122.125 91.2266 123.391 91.25 125.641C91.2266 127.938 88.5312 129.156 83.8203 129.156C79.0391 129.156 76.3438 127.938 76.3438 125.641C76.3438 123.391 79.0391 122.125 83.8203 122.148ZM83.8203 124.352C80.75 124.352 79.3203 124.75 79.3438 125.641C79.3203 126.555 80.75 126.953 83.8203 126.953C86.8203 126.953 88.2266 126.555 88.25 125.641C88.2266 124.75 86.8203 124.352 83.8203 124.352ZM103.133 113.641C103.133 117.086 104.891 120.766 108.477 122.266L106.859 124.609C104.34 123.543 102.605 121.422 101.656 118.82C100.684 121.645 98.9141 123.988 96.4062 125.148L94.6953 122.781C98.2344 121.211 100.062 117.25 100.062 113.641V112.328H95.5391V109.891H107.586V112.328H103.133V113.641ZM112.719 107.828V129.156H109.695V107.828H112.719ZM123.664 112.656C123.664 116.664 125.281 120.555 128.844 122.102L127.016 124.492C124.648 123.332 123.066 121.211 122.188 118.586C121.25 121.375 119.609 123.66 117.172 124.867L115.297 122.43C118.953 120.789 120.617 116.664 120.641 112.656V109.469H123.664V112.656ZM133.602 107.828V129.203H130.648V116.945H126.453V114.531H130.648V107.828H133.602ZM162.711 118.82V121.211H143.258V118.82H151.461V117.109C147.617 116.793 145.203 115.199 145.203 112.727C145.203 110.055 148.273 108.367 152.984 108.367C157.648 108.367 160.719 110.055 160.742 112.727C160.719 115.211 158.281 116.805 154.461 117.109V118.82H162.711ZM160.508 126.391V128.781H145.602V122.547H148.602V126.391H160.508ZM152.984 110.734C150.031 110.734 148.297 111.461 148.32 112.727C148.297 114.109 150.031 114.766 152.984 114.766C155.938 114.766 157.648 114.109 157.648 112.727C157.648 111.461 155.938 110.734 152.984 110.734ZM180.828 107.828V115.891H183.969V118.352H180.828V129.203H177.875V107.828H180.828ZM174.734 109.609V117.883H167.867V121.75C170.973 121.738 173.539 121.598 176.375 121.117L176.633 123.508C173.375 124.094 170.445 124.234 166.695 124.234H164.891V115.516H171.758V112.023H164.867V109.609H174.734ZM202.602 107.852V123.18H199.602V107.852H202.602ZM203.164 126.391V128.781H188.305V121.633H191.328V126.391H203.164ZM190.906 109.211C194.188 109.211 196.742 111.461 196.742 114.578C196.742 117.766 194.188 119.992 190.906 119.992C187.625 119.992 185.07 117.766 185.07 114.578C185.07 111.461 187.625 109.211 190.906 109.211ZM190.906 111.812C189.242 111.789 187.977 112.844 188 114.578C187.977 116.359 189.242 117.391 190.906 117.391C192.523 117.391 193.789 116.359 193.789 114.578C193.789 112.844 192.523 111.789 190.906 111.812ZM230.258 107.852V123.414H227.258V107.852H230.258ZM230.82 126.391V128.781H215.961V121.914H218.984V126.391H230.82ZM220.578 111.086C220.555 113.898 222.055 116.664 225.57 117.789L224.047 120.133C221.645 119.336 219.98 117.742 219.031 115.703C218.082 117.895 216.371 119.652 213.875 120.508L212.328 118.141C215.914 116.945 217.461 113.969 217.461 111.086V109.023H220.578V111.086ZM245.305 110.055V112.398H240.992C241.016 114.59 242.633 116.816 246.055 117.695L244.672 119.992C242.246 119.383 240.535 118.035 239.562 116.289C238.637 118.281 236.926 119.84 234.406 120.555L233 118.234C236.422 117.262 237.992 114.824 238.016 112.398H233.727V110.055H238.016V107.734H241.039V110.055H245.305ZM251.117 107.828V120.719H248.141V115.938H244.672V113.547H248.141V107.828H251.117ZM243.828 121.07C248.375 121.094 251.164 122.523 251.188 125.078C251.164 127.656 248.375 129.156 243.828 129.156C239.305 129.156 236.492 127.656 236.492 125.078C236.492 122.523 239.305 121.094 243.828 121.07ZM243.828 123.367C240.992 123.367 239.469 123.93 239.469 125.078C239.469 126.25 240.992 126.883 243.828 126.883C246.711 126.883 248.211 126.25 248.211 125.078C248.211 123.93 246.711 123.367 243.828 123.367ZM264.406 108.789V111.32H268.766V108.789H271.766V118.094H261.43V108.789H264.406ZM264.406 115.75H268.766V113.57H264.406V115.75ZM277.719 107.828V111.977H280.602V114.391H277.719V118.68H274.719V107.828H277.719ZM277.719 119.477V125.266H266.539V126.648H278.328V129.016H263.609V123.133H274.742V121.797H263.562V119.477H277.719ZM286.812 119.969V122.242H295.695V119.969H298.648V128.922H283.883V119.969H286.812ZM286.812 126.508H295.695V124.516H286.812V126.508ZM298.742 108.695V110.406C298.742 112.023 298.742 113.758 298.25 116.172H301.062V118.562H281.539V116.172H295.273C295.695 114.109 295.754 112.504 295.766 111.086H283.93V108.695H298.742Z" fill="#1F2123"/>
<path d="M33.2783 163V161.921L37.1963 157.588C38.5244 156.11 39.1719 155.28 39.1885 154.151C39.1719 152.906 38.209 152.109 36.9473 152.109C35.6025 152.109 34.7559 153.006 34.7559 154.367H33.3281C33.3281 152.259 34.9053 150.814 36.9971 150.814C39.0889 150.814 40.5664 152.292 40.583 154.151C40.5664 155.479 39.9854 156.525 37.9434 158.733L35.3203 161.572V161.672H40.7822V163H33.2783ZM46.6924 163.166C44.1025 163.166 42.6582 161.107 42.6582 157.455V156.525C42.6582 152.856 44.1025 150.814 46.6924 150.814C49.2656 150.814 50.71 152.856 50.71 156.525V157.455C50.71 161.107 49.2656 163.166 46.6924 163.166ZM46.6924 161.854C48.4023 161.854 49.2656 160.394 49.2656 157.472V156.525C49.2656 153.587 48.4023 152.126 46.6924 152.126C44.9658 152.126 44.1191 153.587 44.1191 156.525V157.472C44.1191 160.394 44.9658 161.854 46.6924 161.854ZM52.8682 163V161.921L56.7861 157.588C58.1143 156.11 58.7617 155.28 58.7783 154.151C58.7617 152.906 57.7988 152.109 56.5371 152.109C55.1924 152.109 54.3457 153.006 54.3457 154.367H52.918C52.918 152.259 54.4951 150.814 56.5869 150.814C58.6787 150.814 60.1562 152.292 60.1729 154.151C60.1562 155.479 59.5752 156.525 57.5332 158.733L54.9102 161.572V161.672H60.3721V163H52.8682ZM66.3984 163.166C64.3066 163.166 62.7295 161.821 62.6299 159.979H64.1074C64.1904 161.058 65.1699 161.854 66.3984 161.854C67.8594 161.854 68.9053 160.726 68.9053 159.198C68.9053 157.621 67.8096 156.492 66.2988 156.476C65.3525 156.459 64.6221 156.758 64.207 157.555H62.7461L63.543 150.98H69.8184V152.309H64.8213L64.4062 155.828H64.5391C64.9541 155.43 65.7344 155.131 66.5479 155.131C68.7393 155.131 70.3662 156.841 70.3662 159.165C70.3662 161.473 68.6895 163.166 66.3984 163.166ZM80.6094 151.18V152.242H71.8105V151.18H75.5625V149.52H76.8574V151.18H80.6094ZM76.21 153.006C78.335 153.022 79.7461 154.052 79.7627 155.679C79.7461 157.289 78.335 158.335 76.21 158.335C74.085 158.335 72.6406 157.289 72.6572 155.679C72.6406 154.052 74.085 153.022 76.21 153.006ZM76.21 154.019C74.8154 154.035 73.8857 154.683 73.9023 155.679C73.8857 156.658 74.8154 157.289 76.21 157.289C77.5879 157.289 78.5176 156.658 78.5342 155.679C78.5176 154.683 77.5879 154.035 76.21 154.019ZM83.3154 149.586V153.687H85.54V154.782H83.3154V158.816H82.0205V149.586H83.3154ZM83.3154 159.63V164.345H82.0205V160.692H73.6533V159.63H83.3154ZM98.7051 149.603V160.526H97.3936V155.413H93.1436V154.367H97.3936V152.591H93.1436V151.545H97.3936V149.603H98.7051ZM99.1035 162.934V164.029H89.1924V159.597H90.5039V162.934H99.1035ZM88.6611 150.665V157.223C90.6948 157.214 92.6538 157.106 94.9033 156.691L95.0361 157.771C92.6289 158.219 90.6201 158.318 88.4619 158.335H87.3496V150.665H88.6611ZM113.082 156.509V157.571H108.517V161.39H114.676V162.485H101.162V161.39H107.238V157.571H102.889V150.798H112.933V151.86H104.2V156.509H113.082ZM134.266 161.39V162.485H120.752V161.39H126.845V158.003H128.123V161.39H134.266ZM132.971 151.943V153.022H128.156C128.165 155.338 130.622 157.04 133.452 157.505L132.954 158.534C130.588 158.111 128.422 156.924 127.492 155.081C126.554 156.924 124.388 158.111 122.014 158.534L121.499 157.505C124.346 157.04 126.82 155.338 126.828 153.022H122.014V151.943H126.845V149.901H128.123V151.943H132.971ZM148.908 156.608V157.704H135.444V156.608H148.908ZM147.331 154.135V155.197H137.154V150.184H147.231V151.279H138.433V154.135H147.331ZM142.168 158.999C145.339 158.999 147.231 159.962 147.248 161.655C147.231 163.365 145.339 164.312 142.168 164.312C138.98 164.312 137.071 163.365 137.071 161.655C137.071 159.962 138.98 158.999 142.168 158.999ZM142.168 160.012C139.794 160.028 138.383 160.626 138.399 161.655C138.383 162.701 139.794 163.282 142.168 163.282C144.509 163.282 145.937 162.701 145.937 161.655C145.937 160.626 144.509 160.028 142.168 160.012ZM158.969 151.18V152.242H150.17V151.18H153.922V149.52H155.217V151.18H158.969ZM154.569 153.006C156.694 153.022 158.105 154.052 158.122 155.679C158.105 157.289 156.694 158.335 154.569 158.335C152.444 158.335 151 157.289 151.017 155.679C151 154.052 152.444 153.022 154.569 153.006ZM154.569 154.019C153.175 154.035 152.245 154.683 152.262 155.679C152.245 156.658 153.175 157.289 154.569 157.289C155.947 157.289 156.877 156.658 156.894 155.679C156.877 154.683 155.947 154.035 154.569 154.019ZM161.675 149.586V153.687H163.899V154.782H161.675V158.816H160.38V149.586H161.675ZM161.675 159.63V164.345H160.38V160.692H152.013V159.63H161.675ZM176.683 151.08V152.724C176.683 154.616 176.683 156.525 176.151 159.265L174.873 159.115C175.404 156.509 175.404 154.566 175.404 152.724V152.159H166.24V151.08H176.683ZM178.276 161.174V162.253H164.829V161.174H168.166V156.31H169.461V161.174H171.852V156.31H173.13V161.174H178.276ZM196.604 149.586V157.505H195.31V149.586H196.604ZM188.337 158.252V160.045H195.31V158.252H196.604V164.146H187.042V158.252H188.337ZM188.337 163.083H195.31V161.091H188.337V163.083ZM188.636 150.316C190.877 150.3 192.504 151.678 192.504 153.703C192.504 155.712 190.877 157.09 188.636 157.09C186.395 157.09 184.768 155.712 184.768 153.703C184.768 151.678 186.395 150.3 188.636 150.316ZM188.636 151.412C187.125 151.396 186.029 152.358 186.046 153.703C186.029 155.048 187.125 156.011 188.636 156.011C190.13 156.011 191.226 155.048 191.226 153.703C191.226 152.358 190.13 151.396 188.636 151.412ZM207.943 151.18V152.242H199.145V151.18H202.896V149.52H204.191V151.18H207.943ZM203.544 153.006C205.669 153.022 207.08 154.052 207.097 155.679C207.08 157.289 205.669 158.335 203.544 158.335C201.419 158.335 199.975 157.289 199.991 155.679C199.975 154.052 201.419 153.022 203.544 153.006ZM203.544 154.019C202.149 154.035 201.22 154.683 201.236 155.679C201.22 156.658 202.149 157.289 203.544 157.289C204.922 157.289 205.852 156.658 205.868 155.679C205.852 154.683 204.922 154.035 203.544 154.019ZM210.649 149.586V153.687H212.874V154.782H210.649V158.816H209.354V149.586H210.649ZM210.649 159.63V164.345H209.354V160.692H200.987V159.63H210.649ZM231.352 149.586V164.345H230.09V149.586H231.352ZM228.413 149.901V163.598H227.168V158.75H224.811C224.296 160.228 223.316 161.091 222.055 161.091C220.129 161.091 218.884 159.099 218.884 155.961C218.884 152.823 220.129 150.831 222.055 150.831C223.316 150.831 224.296 151.694 224.811 153.172H227.168V149.901H228.413ZM222.055 152.06C220.843 152.06 220.096 153.554 220.096 155.961C220.096 158.352 220.843 159.862 222.055 159.846C223.25 159.862 224.03 158.352 224.03 155.961C224.03 153.554 223.25 152.06 222.055 152.06ZM225.093 154.251C225.192 154.774 225.242 155.347 225.242 155.961C225.242 156.567 225.192 157.14 225.109 157.654H227.168V154.251H225.093ZM245.629 149.586V158.385H244.317V154.517H241.346V153.438H244.317V149.586H245.629ZM240.731 158.85C243.803 158.85 245.679 159.846 245.679 161.589C245.679 163.332 243.803 164.328 240.731 164.345C237.66 164.328 235.784 163.332 235.784 161.589C235.784 159.846 237.66 158.85 240.731 158.85ZM240.731 159.862C238.474 159.862 237.062 160.51 237.079 161.589C237.062 162.651 238.474 163.299 240.731 163.299C242.989 163.299 244.384 162.651 244.384 161.589C244.384 160.51 242.989 159.862 240.731 159.862ZM238.523 152.292C238.523 154.218 240.001 156.044 242.159 156.791L241.479 157.837C239.818 157.239 238.532 156.002 237.909 154.467C237.262 156.202 235.892 157.588 234.141 158.252L233.46 157.206C235.651 156.409 237.212 154.417 237.212 152.309V151.761H233.875V150.665H241.827V151.761H238.523V152.292ZM256.935 150.731C259.109 150.748 260.653 152.74 260.67 155.878C260.653 159.016 259.109 161.008 256.935 161.008C254.743 161.008 253.216 159.016 253.216 155.878C253.216 152.74 254.743 150.748 256.935 150.731ZM256.935 151.894C255.474 151.91 254.444 153.471 254.444 155.878C254.444 158.285 255.474 159.846 256.935 159.846C258.412 159.846 259.408 158.285 259.408 155.878C259.408 153.471 258.412 151.91 256.935 151.894ZM264.405 149.586V155.479H266.879V156.608H264.405V164.345H263.11V149.586H264.405ZM281.14 156.891V157.937H267.676V156.891H273.769V155.164H269.386V150.283H279.463V151.329H270.664V154.102H279.562V155.164H275.03V156.891H281.14ZM274.399 159.016C277.57 159.016 279.463 159.979 279.479 161.672C279.463 163.382 277.57 164.328 274.399 164.345C271.212 164.328 269.303 163.382 269.303 161.672C269.303 159.979 271.212 159.016 274.399 159.016ZM274.399 160.045C272.025 160.045 270.614 160.659 270.631 161.672C270.614 162.701 272.025 163.299 274.399 163.299C276.74 163.299 278.168 162.701 278.168 161.672C278.168 160.659 276.74 160.045 274.399 160.045ZM289.092 149.852C292.379 149.852 294.305 150.748 294.305 152.392C294.305 154.068 292.379 154.965 289.092 154.981C285.805 154.965 283.862 154.068 283.862 152.392C283.862 150.748 285.805 149.852 289.092 149.852ZM289.092 150.831C286.635 150.831 285.207 151.429 285.224 152.392C285.207 153.421 286.635 153.985 289.092 153.985C291.532 153.985 292.977 153.421 292.977 152.392C292.977 151.429 291.532 150.831 289.092 150.831ZM295.815 155.978V157.04H282.368V155.978H295.815ZM294.089 158.318V161.622H285.323V163.149H294.537V164.179H284.028V160.659H292.811V159.314H283.995V158.318H294.089ZM313.878 154.467V155.529H303.668V150.333H313.745V151.412H304.963V154.467H313.878ZM315.422 157.14V158.202H309.495V161.141H308.2V158.202H301.958V157.14H315.422ZM313.994 162.934V164.029H303.685V159.829H304.996V162.934H313.994ZM334.198 149.586V164.345H332.937V149.586H334.198ZM331.26 149.901V163.598H330.015V158.75H327.657C327.143 160.228 326.163 161.091 324.901 161.091C322.976 161.091 321.73 159.099 321.73 155.961C321.73 152.823 322.976 150.831 324.901 150.831C326.163 150.831 327.143 151.694 327.657 153.172H330.015V149.901H331.26ZM324.901 152.06C323.689 152.06 322.942 153.554 322.942 155.961C322.942 158.352 323.689 159.862 324.901 159.846C326.097 159.862 326.877 158.352 326.877 155.961C326.877 153.554 326.097 152.06 324.901 152.06ZM327.939 154.251C328.039 154.774 328.089 155.347 328.089 155.961C328.089 156.567 328.039 157.14 327.956 157.654H330.015V154.251H327.939ZM348.409 149.586V164.378H347.098V149.586H348.409ZM338.398 150.848V154.749H342.798V150.848H344.076V160.809H337.104V150.848H338.398ZM338.398 159.713H342.798V155.795H338.398V159.713ZM359.765 151.18V152.242H350.966V151.18H354.718V149.52H356.013V151.18H359.765ZM355.365 153.006C357.49 153.022 358.901 154.052 358.918 155.679C358.901 157.289 357.49 158.335 355.365 158.335C353.24 158.335 351.796 157.289 351.812 155.679C351.796 154.052 353.24 153.022 355.365 153.006ZM355.365 154.019C353.971 154.035 353.041 154.683 353.058 155.679C353.041 156.658 353.971 157.289 355.365 157.289C356.743 157.289 357.673 156.658 357.689 155.679C357.673 154.683 356.743 154.035 355.365 154.019ZM362.471 149.586V153.687H364.695V154.782H362.471V158.816H361.176V149.586H362.471ZM362.471 159.63V164.345H361.176V160.692H352.809V159.63H362.471ZM379.122 158.352V159.414H372.963V164.345H371.685V159.414H365.608V158.352H379.122ZM368.63 150.2V152.242H376.067V150.2H377.379V156.559H367.335V150.2H368.63ZM368.63 155.496H376.067V153.305H368.63V155.496ZM393.831 161.356V162.452H380.317V161.356H386.394V157.754H381.911V150.831H392.154V157.754H387.672V161.356H393.831ZM383.189 151.877V156.708H390.893V151.877H383.189ZM407.66 149.586V164.345H406.398V149.586H407.66ZM404.688 149.901V163.598H403.443V156.426H401.551C401.41 159.298 400.189 161.091 398.363 161.091C396.438 161.091 395.192 159.099 395.192 155.961C395.192 152.823 396.438 150.831 398.363 150.831C400.156 150.831 401.368 152.566 401.534 155.347H403.443V149.901H404.688ZM398.363 152.06C397.168 152.06 396.404 153.554 396.421 155.961C396.404 158.352 397.168 159.862 398.363 159.846C399.559 159.862 400.322 158.352 400.322 155.961C400.322 153.554 399.559 152.06 398.363 152.06ZM422.336 149.586V164.345H421.091V149.586H422.336ZM419.231 149.984V163.598H417.986V156.708H414.865C413.96 158.426 412.541 159.945 410.482 161.157L409.719 160.211C412.931 158.31 414.542 155.646 414.782 152.558H410.35V151.479H416.077C416.069 152.931 415.836 154.334 415.347 155.646H417.986V149.984H419.231ZM434.854 152.375C434.854 153.869 436.331 155.131 438.423 155.596L437.892 156.642C436.19 156.227 434.878 155.322 434.239 154.118C433.6 155.421 432.272 156.409 430.521 156.841L429.956 155.795C432.081 155.33 433.559 153.952 433.559 152.375V152.309H430.271V151.279H433.559V149.636H434.854V151.279H438.141V152.309H434.854V152.375ZM441.461 149.603V164.361H440.183V149.603H441.461ZM429.259 157.887C432.081 157.887 435.833 157.854 439.104 157.438L439.187 158.385C437.775 158.617 436.314 158.758 434.887 158.833V163.913H433.592V158.899C432.098 158.974 430.678 158.982 429.441 158.982L429.259 157.887ZM452.816 151.18V152.242H444.018V151.18H447.77V149.52H449.064V151.18H452.816ZM448.417 153.006C450.542 153.022 451.953 154.052 451.97 155.679C451.953 157.289 450.542 158.335 448.417 158.335C446.292 158.335 444.848 157.289 444.864 155.679C444.848 154.052 446.292 153.022 448.417 153.006ZM448.417 154.019C447.022 154.035 446.093 154.683 446.109 155.679C446.093 156.658 447.022 157.289 448.417 157.289C449.795 157.289 450.725 156.658 450.741 155.679C450.725 154.683 449.795 154.035 448.417 154.019ZM455.522 149.586V153.687H457.747V154.782H455.522V158.816H454.228V149.586H455.522ZM455.522 159.63V164.345H454.228V160.692H445.86V159.63H455.522ZM462.628 150.731C464.803 150.748 466.347 152.74 466.363 155.878C466.347 159.016 464.803 161.008 462.628 161.008C460.437 161.008 458.909 159.016 458.909 155.878C458.909 152.74 460.437 150.748 462.628 150.731ZM462.628 151.894C461.167 151.91 460.138 153.471 460.138 155.878C460.138 158.285 461.167 159.846 462.628 159.846C464.105 159.846 465.102 158.285 465.102 155.878C465.102 153.471 464.105 151.91 462.628 151.894ZM470.099 149.586V155.479H472.572V156.608H470.099V164.345H468.804V149.586H470.099ZM486.833 156.891V157.937H473.369V156.891H479.462V155.164H475.079V150.283H485.156V151.329H476.357V154.102H485.256V155.164H480.724V156.891H486.833ZM480.093 159.016C483.264 159.016 485.156 159.979 485.173 161.672C485.156 163.382 483.264 164.328 480.093 164.345C476.905 164.328 474.996 163.382 474.996 161.672C474.996 159.979 476.905 159.016 480.093 159.016ZM480.093 160.045C477.719 160.045 476.308 160.659 476.324 161.672C476.308 162.701 477.719 163.299 480.093 163.299C482.434 163.299 483.861 162.701 483.861 161.672C483.861 160.659 482.434 160.045 480.093 160.045ZM505.194 149.586V158.335H503.883V156.011H500.43V157.272H493.656V150.715H500.43V151.993H503.883V149.586H505.194ZM494.951 151.777V156.21H499.151V151.777H494.951ZM500.297 158.767C503.368 158.767 505.244 159.779 505.244 161.556C505.244 163.315 503.368 164.312 500.297 164.312C497.226 164.312 495.35 163.315 495.35 161.556C495.35 159.779 497.226 158.767 500.297 158.767ZM500.297 159.779C498.039 159.796 496.628 160.443 496.645 161.556C496.628 162.618 498.039 163.282 500.297 163.282C502.555 163.282 503.949 162.618 503.949 161.556C503.949 160.443 502.555 159.796 500.297 159.779ZM500.43 154.915H503.883V153.072H500.43V154.915ZM521.148 158.352V159.414H514.989V164.345H513.711V159.414H507.635V158.352H521.148ZM510.656 150.2V152.242H518.094V150.2H519.405V156.559H509.361V150.2H510.656ZM510.656 155.496H518.094V153.305H510.656V155.496ZM526.411 150.117C527.706 150.117 528.802 150.599 529.482 151.396H533.268V149.586H534.562V157.173H533.268V155.479H529.532C528.843 156.31 527.731 156.808 526.411 156.808C524.187 156.808 522.576 155.446 522.576 153.454C522.576 151.479 524.187 150.117 526.411 150.117ZM526.411 151.196C524.9 151.18 523.821 152.126 523.821 153.454C523.821 154.799 524.9 155.745 526.411 155.762C527.872 155.745 528.968 154.799 528.968 153.454C528.968 152.126 527.872 151.18 526.411 151.196ZM534.562 157.92V161.456H526.328V163.1H535.127V164.146H525.033V160.46H533.268V158.966H525V157.92H534.562ZM530.08 152.441C530.171 152.757 530.229 153.097 530.229 153.454C530.229 153.803 530.171 154.126 530.08 154.434H533.268V152.441H530.08ZM548.574 149.603V153.388H550.815V154.5H548.574V158.401H547.279V149.603H548.574ZM548.574 159.132V164.146H539.228V159.132H548.574ZM540.506 160.145V163.083H547.312V160.145H540.506ZM544.357 150.399V154.434H538.979V156.525C541.602 156.525 543.502 156.451 545.802 156.077L545.935 157.123C543.561 157.538 541.585 157.621 538.846 157.621H537.7V153.421H543.079V151.479H537.667V150.399H544.357ZM40.3008 176.549V182.559H33.3779V176.549H40.3008ZM34.6562 177.611V181.529H39.0225V177.611H34.6562ZM44.7666 175.586V184.069H43.4883V175.586H44.7666ZM40.7656 186.095C40.7656 187.539 43.123 188.967 45.6631 189.282L45.2148 190.295C42.9902 189.996 40.9648 188.95 40.1016 187.572C39.2051 188.975 37.1299 189.996 34.9053 190.295L34.4404 189.282C36.9805 189 39.4209 187.572 39.4209 186.095H35.0547V185.082H39.4375V183.638H40.7324V185.082H45.1484V186.095H40.7656ZM57.749 178.375C57.749 179.869 59.2266 181.131 61.3184 181.596L60.7871 182.642C59.0854 182.227 57.7739 181.322 57.1348 180.118C56.4956 181.421 55.1675 182.409 53.416 182.841L52.8516 181.795C54.9766 181.33 56.4541 179.952 56.4541 178.375V178.309H53.167V177.279H56.4541V175.636H57.749V177.279H61.0361V178.309H57.749V178.375ZM64.3564 175.603V190.361H63.0781V175.603H64.3564ZM52.1543 183.887C54.9766 183.887 58.7285 183.854 61.999 183.438L62.082 184.385C60.6709 184.617 59.21 184.758 57.7822 184.833V189.913H56.4873V184.899C54.9932 184.974 53.5737 184.982 52.3369 184.982L52.1543 183.887ZM75.7119 177.18V178.242H66.9131V177.18H70.665V175.52H71.96V177.18H75.7119ZM71.3125 179.006C73.4375 179.022 74.8486 180.052 74.8652 181.679C74.8486 183.289 73.4375 184.335 71.3125 184.335C69.1875 184.335 67.7432 183.289 67.7598 181.679C67.7432 180.052 69.1875 179.022 71.3125 179.006ZM71.3125 180.019C69.918 180.035 68.9883 180.683 69.0049 181.679C68.9883 182.658 69.918 183.289 71.3125 183.289C72.6904 183.289 73.6201 182.658 73.6367 181.679C73.6201 180.683 72.6904 180.035 71.3125 180.019ZM78.418 175.586V179.687H80.6426V180.782H78.418V184.816H77.123V175.586H78.418ZM78.418 185.63V190.345H77.123V186.692H68.7559V185.63H78.418ZM95.0195 183.422V184.484H81.5557V183.422H87.6318V181.961H83.3486V176.018H93.3428V177.08H84.6602V178.458H92.9443V179.454H84.6602V180.915H93.4258V181.961H88.9268V183.422H95.0195ZM88.2959 185.597C91.5332 185.58 93.3594 186.41 93.376 187.954C93.3594 189.498 91.5332 190.312 88.2959 190.312C85.0254 190.312 83.1992 189.498 83.1992 187.954C83.1992 186.41 85.0254 185.58 88.2959 185.597ZM88.2959 186.576C85.8555 186.576 84.4941 187.074 84.5107 187.954C84.4941 188.851 85.8555 189.315 88.2959 189.299C90.7031 189.315 92.0645 188.851 92.0645 187.954C92.0645 187.074 90.7031 186.576 88.2959 186.576ZM101.544 180.118C101.544 182.625 103.37 185.165 105.545 186.111L104.814 187.141C103.088 186.352 101.594 184.65 100.913 182.608C100.216 184.775 98.73 186.659 97.0449 187.506L96.2646 186.477C98.373 185.464 100.216 182.675 100.232 180.118V178.192H96.7461V177.113H105.063V178.192H101.544V180.118ZM108.434 175.586V190.345H107.122V175.586H108.434ZM116.153 179.554C116.153 182.227 117.863 184.916 120.005 185.896L119.225 186.958C117.548 186.095 116.162 184.327 115.506 182.227C114.85 184.435 113.464 186.327 111.787 187.224L110.94 186.178C113.099 185.115 114.825 182.276 114.825 179.554V176.864H116.153V179.554ZM123.192 175.586V190.378H121.897V181.695H118.395V180.633H121.897V175.586H123.192ZM139.146 182.442V183.472H125.633V182.442H139.146ZM137.453 184.65V187.788H128.588V189.199H137.935V190.146H127.276V186.892H136.158V185.63H127.26V184.65H137.453ZM137.403 176.034V179.089H128.688V180.384H137.669V181.33H127.393V178.192H136.092V176.98H127.343V176.034H137.403ZM158.687 183.455V184.534H145.239V183.455H151.315V181.911C148.485 181.77 146.733 180.699 146.733 178.956C146.733 177.146 148.759 176.034 151.963 176.034C155.134 176.034 157.176 177.146 157.176 178.956C157.176 180.699 155.408 181.77 152.61 181.911V183.455H158.687ZM157.192 188.934V190.029H146.982V185.729H148.294V188.934H157.192ZM151.963 177.097C149.589 177.097 148.062 177.827 148.078 178.956C148.062 180.151 149.589 180.849 151.963 180.849C154.32 180.849 155.848 180.151 155.848 178.956C155.848 177.827 154.32 177.097 151.963 177.097ZM171.354 175.586V181.463H173.827V182.559H171.354V190.378H170.059V175.586H171.354ZM167.22 176.964V182.243H161.841V185.696C164.58 185.696 166.489 185.605 168.73 185.182L168.863 186.261C166.539 186.692 164.563 186.792 161.725 186.809H160.546V181.164H165.925V178.043H160.513V176.964H167.22ZM186.81 175.603V186.394H185.515V175.603H186.81ZM187.274 188.934V190.029H177.28V185.298H178.575V188.934H187.274ZM178.841 176.632C181.049 176.632 182.709 178.126 182.709 180.251C182.709 182.409 181.049 183.887 178.841 183.887C176.633 183.887 174.973 182.409 174.973 180.251C174.973 178.126 176.633 176.632 178.841 176.632ZM178.841 177.777C177.347 177.777 176.234 178.807 176.251 180.251C176.234 181.729 177.347 182.741 178.841 182.741C180.302 182.741 181.431 181.729 181.431 180.251C181.431 178.807 180.302 177.777 178.841 177.777ZM196.04 176.549C199.128 176.549 201.436 178.159 201.436 180.6C201.436 183.057 199.128 184.667 196.04 184.65C192.952 184.667 190.645 183.057 190.645 180.6C190.645 178.159 192.952 176.549 196.04 176.549ZM196.04 177.611C193.666 177.595 191.873 178.84 191.89 180.6C191.873 182.393 193.666 183.588 196.04 183.588C198.397 183.588 200.174 182.393 200.174 180.6C200.174 178.84 198.397 177.595 196.04 177.611ZM202.83 187.29V188.386H189.316V187.29H202.83ZM217.522 187.423V188.519H204.009V187.423H210.085V184.634H205.702V180.085H214.534V177.761H205.669V176.682H215.812V181.147H206.997V183.555H216.161V184.634H211.363V187.423H217.522ZM225.508 176.217V178.342H229.808V176.217H231.103V182.642H224.229V176.217H225.508ZM225.508 181.579H229.808V179.354H225.508V181.579ZM235.137 175.586V178.79H237.361V179.886H235.137V183.223H233.842V175.586H235.137ZM235.137 183.92V187.489H227.035V189.116H235.685V190.179H225.757V186.493H233.842V184.966H225.724V183.92H235.137ZM241.346 184.036V185.995H248.733V184.036H250.028V190.146H240.051V184.036H241.346ZM241.346 189.083H248.733V187.024H241.346V189.083ZM250.028 176.267V177.346C250.028 178.475 250.028 179.786 249.63 181.629H251.805V182.708H238.291V181.629H248.352C248.733 179.794 248.733 178.475 248.733 177.346H240.001V176.267H250.028ZM264.521 175.536V179.122H266.763V180.201H264.521V183.704H263.227V175.536H264.521ZM264.521 184.468V187.738H256.42V189.183H265.069V190.179H255.142V186.775H263.227V185.447H255.108V184.468H264.521ZM261.815 176.931V177.977H253.017V176.931H256.769V175.437H258.063V176.931H261.815ZM257.416 178.641C259.558 178.641 260.952 179.57 260.969 181.064C260.952 182.559 259.558 183.488 257.416 183.488C255.258 183.488 253.847 182.559 253.863 181.064C253.847 179.57 255.258 178.641 257.416 178.641ZM257.416 179.604C256.021 179.604 255.092 180.185 255.108 181.064C255.092 181.961 256.021 182.509 257.416 182.509C258.811 182.509 259.724 181.961 259.74 181.064C259.724 180.185 258.811 179.604 257.416 179.604ZM279.978 176.964C279.978 179.039 282.7 180.849 285.356 181.214L284.825 182.276C282.534 181.895 280.268 180.625 279.313 178.807C278.367 180.633 276.093 181.895 273.802 182.276L273.271 181.214C275.927 180.849 278.633 179.072 278.633 176.964V176.117H279.978V176.964ZM286.021 183.903V184.999H279.911V190.345H278.633V184.999H272.573V183.903H286.021ZM297.16 185.497C297.16 186.8 297.857 188.187 299.269 188.983C300.663 188.112 301.41 186.643 301.41 185.497V184.684H302.688V185.497C302.688 187.008 303.801 188.535 305.693 189.183L305.046 190.146C303.568 189.623 302.531 188.593 302.024 187.356C301.568 188.552 300.663 189.681 299.302 190.262C297.866 189.714 296.953 188.626 296.513 187.39C295.99 188.585 294.969 189.614 293.558 190.146L292.894 189.183C294.753 188.485 295.882 186.908 295.898 185.497V184.684H297.16V185.497ZM304.349 175.603V184.036H303.054V175.603H304.349ZM296.38 176.466C298.621 176.466 300.248 177.86 300.248 179.919C300.248 181.944 298.621 183.339 296.38 183.339C294.139 183.339 292.512 181.944 292.512 179.919C292.512 177.86 294.139 176.466 296.38 176.466ZM296.38 177.578C294.869 177.562 293.773 178.541 293.79 179.919C293.773 181.28 294.869 182.243 296.38 182.26C297.874 182.243 298.97 181.28 298.97 179.919C298.97 178.541 297.874 177.562 296.38 177.578ZM318.792 180.068V181.114H308.682V176.134H309.977V180.068H318.792ZM320.353 183.123V184.186H306.839V183.123H320.353ZM318.875 188.9V189.979H308.599V185.696H309.894V188.9H318.875ZM338.681 175.586V186.576H337.369V182.293H334.846V181.197H337.369V179.487H334.846V178.408H337.369V175.586H338.681ZM334.729 176.798V177.86H333.219V183.023C333.908 182.982 334.572 182.932 335.211 182.857L335.277 183.837C332.405 184.285 329.035 184.335 326.645 184.335L326.479 183.223L328.388 183.206V177.86H326.894V176.798H334.729ZM339.079 188.934V190.029H329.168V185.663H330.479V188.934H339.079ZM329.649 183.173C330.405 183.165 331.185 183.14 331.957 183.106V177.86H329.649V183.173ZM345.969 176.665C348.293 176.665 349.937 178.076 349.937 180.135C349.937 182.193 348.293 183.604 345.969 183.604C343.645 183.604 341.968 182.193 341.984 180.135C341.968 178.076 343.645 176.665 345.969 176.665ZM345.969 177.811C344.392 177.811 343.246 178.757 343.263 180.135C343.246 181.513 344.392 182.459 345.969 182.459C347.529 182.459 348.658 181.513 348.658 180.135C348.658 178.757 347.529 177.811 345.969 177.811ZM353.24 175.586V190.378H351.945V175.586H353.24ZM341.221 186.012C343.943 186.012 347.695 185.995 350.966 185.514L351.065 186.477C347.695 187.107 344.06 187.124 341.403 187.124L341.221 186.012ZM373.345 175.586V190.345H372.1V175.586H373.345ZM370.356 175.951V189.581H369.128V181.978H366.638V180.915H369.128V175.951H370.356ZM365.061 179.803C365.061 182.359 366.206 184.899 368.248 186.078L367.451 187.041C365.999 186.169 364.969 184.576 364.463 182.691C363.923 184.725 362.853 186.46 361.375 187.39L360.545 186.41C362.604 185.182 363.799 182.492 363.799 179.803V178.408H360.96V177.329H367.767V178.408H365.061V179.803ZM382.094 184.916C385.265 184.916 387.273 185.912 387.273 187.622C387.273 189.315 385.265 190.312 382.094 190.312C378.939 190.312 376.931 189.315 376.931 187.622C376.931 185.912 378.939 184.916 382.094 184.916ZM382.094 185.912C379.736 185.929 378.209 186.576 378.226 187.622C378.209 188.651 379.736 189.282 382.094 189.282C384.451 189.282 385.962 188.651 385.979 187.622C385.962 186.576 384.451 185.929 382.094 185.912ZM387.157 176.35V177.595C387.157 178.79 387.157 179.985 386.742 181.513L385.464 181.363C385.862 179.836 385.862 178.757 385.862 177.595V177.412H377.03V176.35H387.157ZM388.867 182.476V183.538H375.437V182.476H380.998V179.62H382.276V182.476H388.867Z" fill="#494D50"/>
<path d="M480.5 210C480.5 206.962 482.962 204.5 486 204.5H550C553.038 204.5 555.5 206.962 555.5 210V238C555.5 241.038 553.038 243.5 550 243.5H486C482.962 243.5 480.5 241.038 480.5 238V210Z" fill="#F0F5FE"/>
<path d="M480.5 210C480.5 206.962 482.962 204.5 486 204.5H550C553.038 204.5 555.5 206.962 555.5 210V238C555.5 241.038 553.038 243.5 550 243.5H486C482.962 243.5 480.5 241.038 480.5 238V210Z" stroke="#256EF4"/>
<path d="M503.352 217.679V227.229H502.209V217.679H503.352ZM503.762 229.441V230.408H494.943V226.351H496.086V229.441H503.762ZM497.214 219.715C497.199 221.692 498.562 223.479 500.495 224.183L499.895 225.105C498.386 224.527 497.214 223.355 496.643 221.854C496.064 223.45 494.877 224.732 493.361 225.34L492.731 224.446C494.709 223.685 496.042 221.766 496.042 219.715V218.411H497.214V219.715ZM510.002 220.462C510.002 222.088 511.408 223.538 513.327 224.109L512.771 225.003C511.262 224.556 510.053 223.567 509.475 222.278C508.903 223.707 507.717 224.827 506.164 225.34L505.607 224.461C507.526 223.816 508.874 222.234 508.874 220.462V220.184H505.93V219.261H508.874V217.605H510.031V219.261H512.946V220.184H510.002V220.462ZM516.359 217.664V225.56H515.202V222.352H512.536V221.399H515.202V217.664H516.359ZM512.038 225.911C514.748 225.911 516.403 226.761 516.403 228.284C516.403 229.793 514.748 230.657 512.038 230.657C509.328 230.657 507.673 229.793 507.673 228.284C507.673 226.761 509.328 225.911 512.038 225.911ZM512.038 226.805C510.046 226.819 508.801 227.361 508.815 228.284C508.801 229.192 510.046 229.749 512.038 229.749C514.045 229.749 515.261 229.192 515.261 228.284C515.261 227.361 514.045 226.819 512.038 226.805ZM528.605 217.664V223.04H530.788V223.992H528.605V230.687H527.463V217.664H528.605ZM526.203 219.759V220.711H518.454V219.759H521.809V217.825H522.951V219.759H526.203ZM522.395 221.795C524.24 221.795 525.573 223.025 525.588 224.783C525.573 226.541 524.24 227.771 522.395 227.771C520.534 227.771 519.187 226.541 519.201 224.783C519.187 223.025 520.534 221.795 522.395 221.795ZM522.395 222.762C521.179 222.762 520.285 223.611 520.3 224.783C520.285 225.97 521.179 226.805 522.395 226.79C523.596 226.805 524.475 225.97 524.489 224.783C524.475 223.611 523.596 222.762 522.395 222.762ZM542.258 217.664V230.687H541.101V217.664H542.258ZM538.405 219.085C538.391 222.835 536.647 226.146 532.282 228.24L531.652 227.303C535.175 225.633 536.97 223.135 537.233 220.022H532.253V219.085H538.405Z" fill="#0B50D0"/>
<rect x="612" y="72" width="588" height="200" rx="12" fill="white"/>
<path d="M664.156 124.281V126.719H644.633V124.281H652.883V120.109H655.859V124.281H664.156ZM662.445 110.758V113.148H655.93C656.176 115.516 658.59 117.918 663.453 118.516L662.375 120.836C658.555 120.355 655.801 118.773 654.383 116.57C652.941 118.773 650.211 120.355 646.391 120.836L645.289 118.516C650.152 117.918 652.566 115.516 652.836 113.148H646.32V110.758H652.883V108.086H655.859V110.758H662.445ZM684.875 117.578V120.016H665.375V117.578H684.875ZM682.648 113.711V116.078H667.742V108.391H682.531V110.805H670.719V113.711H682.648ZM675.078 121.305C679.695 121.305 682.484 122.711 682.508 125.219C682.484 127.75 679.695 129.156 675.078 129.156C670.414 129.156 667.602 127.75 667.602 125.219C667.602 122.711 670.414 121.305 675.078 121.305ZM675.078 123.578C672.125 123.578 670.625 124.141 670.648 125.219C670.625 126.344 672.125 126.883 675.078 126.883C677.961 126.883 679.484 126.344 679.508 125.219C679.484 124.141 677.961 123.578 675.078 123.578ZM703.297 112.75V115.094H697.344V116.5H705.57V118.867H686.117V116.5H694.344V115.094H688.555V108.531H703.133V110.922H691.531V112.75H703.297ZM703.203 120.016V125.453H691.32V126.719H703.766V128.992H688.391V123.367H700.25V122.219H688.367V120.016H703.203ZM726.312 118.047V120.461H706.859V118.047H715.062V116.383H709.344V108.297H712.297V110.195H720.852V108.297H723.828V116.383H718.062V118.047H726.312ZM712.297 114.039H720.852V112.422H712.297V114.039ZM723.992 121.844V128.922H709.109V121.844H723.992ZM712.062 124.141V126.531H721.062V124.141H712.062ZM745.297 109.68V111.766C745.273 114.367 745.273 117.297 744.5 121.586L741.57 121.328C742.273 117.426 742.297 114.52 742.297 112.047H729.523V109.68H745.297ZM747.055 124.117V126.555H727.602V124.117H731.75V117.414H734.727V124.117H737.07V117.414H740.023V124.117H747.055ZM766.18 107.828V118.633H763.203V107.828H766.18ZM766.203 119.547V125.336H754.859V126.648H766.789V129.016H751.93V123.109H763.227V121.867H751.883V119.547H766.203ZM756.523 109.938C756.5 112.516 758.047 115 761.539 116.008L760.086 118.305C757.637 117.59 755.949 116.113 755 114.227C754.016 116.289 752.27 117.93 749.727 118.68L748.25 116.336C751.812 115.281 753.406 112.586 753.406 109.938V108.297H756.523V109.938Z" fill="#1F2123"/>
<a href="https://www.gov.kr/portal/rcvfvrSvc/dtlEx/460000000133?administOrgCd=">
<rect fill="black" fill-opacity="0" x="62.2266" y="3.67969" width="20.7422" height="28.6406"/>
</a>
<path d="M658.327 151.827V152.906H656.136V154.965H658.327V156.061H656.136V158.352H654.841V149.586H656.136V151.827H658.327ZM648.748 150.482C650.989 150.466 652.616 151.894 652.633 153.952C652.616 156.011 650.989 157.405 648.748 157.422C646.507 157.405 644.863 156.011 644.88 153.952C644.863 151.894 646.507 150.466 648.748 150.482ZM648.748 151.595C647.254 151.578 646.142 152.558 646.158 153.952C646.142 155.347 647.254 156.31 648.748 156.326C650.259 156.31 651.354 155.347 651.354 153.952C651.354 152.558 650.259 151.578 648.748 151.595ZM651.404 158.8C654.409 158.816 656.269 159.812 656.269 161.572C656.269 163.299 654.409 164.312 651.404 164.312C648.383 164.312 646.507 163.299 646.507 161.572C646.507 159.812 648.383 158.816 651.404 158.8ZM651.404 159.862C649.18 159.862 647.802 160.493 647.818 161.572C647.802 162.635 649.18 163.266 651.404 163.266C653.646 163.266 655.007 162.635 655.007 161.572C655.007 160.493 653.646 159.862 651.404 159.862ZM672.737 156.708V157.771H669.151V159.646H671.077V164.345H669.766V160.692H660.784V159.646H662.859V157.771H659.29V156.708H672.737ZM666.014 149.951C669.218 149.935 671.227 150.997 671.227 152.757C671.227 154.533 669.218 155.596 666.014 155.579C662.81 155.596 660.784 154.533 660.784 152.757C660.784 150.997 662.81 149.935 666.014 149.951ZM666.014 150.997C663.623 150.98 662.112 151.661 662.129 152.757C662.112 153.886 663.623 154.566 666.014 154.566C668.371 154.566 669.898 153.886 669.898 152.757C669.898 151.661 668.371 150.98 666.014 150.997ZM664.171 159.646H667.873V157.771H664.171V159.646ZM690.401 149.586V154.766H692.609V155.861H690.401V161.141H689.09V149.586H690.401ZM690.933 162.934V164.029H681.021V160.36H682.333V162.934H690.933ZM678.813 158.368C679.984 158.368 681.37 158.36 682.814 158.302V157.173C681.096 157.015 679.992 156.193 679.992 154.948C679.992 153.521 681.37 152.674 683.445 152.674C685.537 152.674 686.898 153.521 686.915 154.948C686.898 156.185 685.819 157.007 684.109 157.173V158.235C685.496 158.169 686.89 158.036 688.177 157.837L688.293 158.767C685.122 159.364 681.553 159.414 678.963 159.431L678.813 158.368ZM687.729 151.047V152.026H679.179V151.047H682.814V149.553H684.109V151.047H687.729ZM683.445 153.604C682.084 153.604 681.237 154.118 681.237 154.948C681.237 155.762 682.084 156.276 683.445 156.276C684.807 156.276 685.67 155.762 685.67 154.948C685.67 154.118 684.807 153.604 683.445 153.604ZM705.808 149.603V158.468H704.496V156.476H700.578V155.396H704.496V153.404H700.728C699.756 155.778 697.474 157.497 694.319 158.435L693.771 157.405C697.341 156.343 699.557 154.351 699.831 151.794H694.519V150.698H701.242C701.242 151.279 701.176 151.835 701.06 152.358H704.496V149.603H705.808ZM700.977 158.617C703.965 158.617 705.891 159.68 705.891 161.439C705.891 163.216 703.965 164.278 700.977 164.278C697.955 164.278 696.046 163.216 696.046 161.439C696.046 159.68 697.955 158.617 700.977 158.617ZM700.977 159.663C698.752 159.646 697.324 160.327 697.324 161.439C697.324 162.552 698.752 163.216 700.977 163.216C703.168 163.216 704.579 162.552 704.596 161.439C704.579 160.327 703.168 159.646 700.977 159.663ZM713.096 150.665C715.42 150.665 717.063 152.076 717.063 154.135C717.063 156.193 715.42 157.604 713.096 157.604C710.771 157.604 709.095 156.193 709.111 154.135C709.095 152.076 710.771 150.665 713.096 150.665ZM713.096 151.811C711.519 151.811 710.373 152.757 710.39 154.135C710.373 155.513 711.519 156.459 713.096 156.459C714.656 156.459 715.785 155.513 715.785 154.135C715.785 152.757 714.656 151.811 713.096 151.811ZM720.367 149.586V164.378H719.072V149.586H720.367ZM708.348 160.012C711.07 160.012 714.822 159.995 718.093 159.514L718.192 160.477C714.822 161.107 711.187 161.124 708.53 161.124L708.348 160.012ZM740.09 149.603V160.526H738.778V156.559H735.292V158.003H728.602V150.582H729.896V153.205H734.014V150.582H735.292V152.309H738.778V149.603H740.09ZM740.422 162.934V164.029H730.544V159.447H731.855V162.934H740.422ZM729.896 156.924H734.014V154.234H729.896V156.924ZM735.292 155.479H738.778V153.404H735.292V155.479ZM754.002 149.586V155.878H756.359V156.974H754.002V164.345H752.69V149.586H754.002ZM742.364 160.41C743.568 160.41 744.971 160.41 746.432 160.36V158.717C744.713 158.526 743.593 157.521 743.609 156.061C743.593 154.4 745.004 153.321 747.096 153.321C749.154 153.321 750.582 154.4 750.599 156.061C750.582 157.521 749.445 158.526 747.743 158.733V160.311C749.121 160.244 750.507 160.136 751.794 159.945L751.877 160.941C748.656 161.489 745.17 161.522 742.58 161.522L742.364 160.41ZM751.528 151.396V152.458H742.63V151.396H746.432V149.619H747.743V151.396H751.528ZM747.096 154.334C745.734 154.334 744.821 155.031 744.821 156.061C744.821 157.09 745.734 157.754 747.096 157.737C748.44 157.754 749.354 157.09 749.354 156.061C749.354 155.031 748.44 154.334 747.096 154.334ZM775.601 156.608V157.704H762.137V156.608H775.601ZM774.023 154.135V155.197H763.847V150.184H773.924V151.279H765.125V154.135H774.023ZM768.86 158.999C772.031 158.999 773.924 159.962 773.94 161.655C773.924 163.365 772.031 164.312 768.86 164.312C765.673 164.312 763.764 163.365 763.764 161.655C763.764 159.962 765.673 158.999 768.86 158.999ZM768.86 160.012C766.486 160.028 765.075 160.626 765.092 161.655C765.075 162.701 766.486 163.282 768.86 163.282C771.201 163.282 772.629 162.701 772.629 161.655C772.629 160.626 771.201 160.028 768.86 160.012ZM789.479 149.586V164.345H788.218V149.586H789.479ZM786.508 149.901V163.598H785.263V156.426H783.37C783.229 159.298 782.009 161.091 780.183 161.091C778.257 161.091 777.012 159.099 777.012 155.961C777.012 152.823 778.257 150.831 780.183 150.831C781.976 150.831 783.188 152.566 783.354 155.347H785.263V149.901H786.508ZM780.183 152.06C778.987 152.06 778.224 153.554 778.24 155.961C778.224 158.352 778.987 159.862 780.183 159.846C781.378 159.862 782.142 158.352 782.142 155.961C782.142 153.554 781.378 152.06 780.183 152.06ZM808.09 149.569V155.396H810.248V156.509H808.09V164.345H806.795V149.569H808.09ZM800.619 151.146V152.226H798.162V159.364C798.893 159.348 799.789 159.281 800.769 159.065L800.901 160.161C799.507 160.46 798.395 160.477 797.515 160.477H796.867V151.146H800.619ZM805.4 151.146V152.226H802.761V159.381C803.915 159.364 804.836 159.29 805.882 159.032L806.015 160.128C804.72 160.443 803.674 160.477 802.18 160.477H801.466V151.146H805.4ZM822.533 149.586V155.463H825.007V156.559H822.533V164.378H821.238V149.586H822.533ZM818.399 150.964V156.243H813.021V159.696C815.76 159.696 817.669 159.605 819.91 159.182L820.043 160.261C817.719 160.692 815.743 160.792 812.904 160.809H811.726V155.164H817.104V152.043H811.692V150.964H818.399ZM839.533 151.18V152.242H830.734V151.18H834.486V149.52H835.781V151.18H839.533ZM835.134 153.006C837.259 153.022 838.67 154.052 838.687 155.679C838.67 157.289 837.259 158.335 835.134 158.335C833.009 158.335 831.564 157.289 831.581 155.679C831.564 154.052 833.009 153.022 835.134 153.006ZM835.134 154.019C833.739 154.035 832.81 154.683 832.826 155.679C832.81 156.658 833.739 157.289 835.134 157.289C836.512 157.289 837.441 156.658 837.458 155.679C837.441 154.683 836.512 154.035 835.134 154.019ZM842.239 149.586V153.687H844.464V154.782H842.239V158.816H840.944V149.586H842.239ZM842.239 159.63V164.345H840.944V160.692H832.577V159.63H842.239ZM857.247 151.08V152.724C857.247 154.616 857.247 156.525 856.716 159.265L855.438 159.115C855.969 156.509 855.969 154.566 855.969 152.724V152.159H846.805V151.08H857.247ZM858.841 161.174V162.253H845.394V161.174H848.73V156.31H850.025V161.174H852.416V156.31H853.694V161.174H858.841ZM864.535 150.549C866.81 150.565 868.453 151.96 868.47 154.019C868.453 155.87 867.125 157.189 865.199 157.422V159.945C866.577 159.879 867.963 159.779 869.25 159.613L869.333 160.593C866.212 161.124 862.709 161.157 860.119 161.141L859.903 160.045C861.09 160.037 862.468 160.028 863.888 159.979V157.422C861.929 157.198 860.584 155.878 860.601 154.019C860.584 151.96 862.228 150.565 864.535 150.549ZM864.535 151.678C862.991 151.678 861.862 152.641 861.879 154.019C861.862 155.396 862.991 156.359 864.535 156.359C866.062 156.359 867.175 155.396 867.191 154.019C867.175 152.641 866.062 151.678 864.535 151.678ZM871.491 149.586V155.679H873.898V156.808H871.491V164.345H870.196V149.586H871.491ZM884.955 154.118C884.955 156.625 886.781 159.165 888.956 160.111L888.226 161.141C886.499 160.352 885.005 158.65 884.324 156.608C883.627 158.775 882.141 160.659 880.456 161.506L879.676 160.477C881.784 159.464 883.627 156.675 883.644 154.118V152.192H880.157V151.113H888.475V152.192H884.955V154.118ZM891.845 149.586V164.345H890.533V149.586H891.845ZM906.604 159.099V164.345H905.292V160.145H896.676V159.099H906.604ZM906.604 149.586V158.285H905.292V156.16H901.49C900.801 156.999 899.714 157.497 898.436 157.488C896.228 157.505 894.601 156.044 894.601 153.952C894.601 151.894 896.228 150.433 898.436 150.433C899.706 150.433 900.793 150.931 901.49 151.761H905.292V149.586H906.604ZM898.436 151.545C896.925 151.545 895.846 152.558 895.846 153.952C895.846 155.396 896.925 156.393 898.436 156.393C899.88 156.393 900.992 155.396 900.992 153.952C900.992 152.558 899.88 151.545 898.436 151.545ZM902.071 155.081H905.292V152.84H902.071C902.188 153.188 902.254 153.554 902.254 153.952C902.254 154.351 902.188 154.732 902.071 155.081ZM914.008 153.554C914.008 156.16 915.734 158.833 917.826 159.862L917.029 160.908C915.402 160.053 914.041 158.31 913.394 156.26C912.729 158.443 911.335 160.302 909.675 161.19L908.845 160.145C911.003 159.082 912.713 156.243 912.729 153.554V150.864H914.008V153.554ZM920.482 149.586V155.579H922.956V156.708H920.482V164.345H919.188V149.586H920.482ZM935.855 149.586V164.345H934.561V149.586H935.855ZM923.836 160.41C925.098 160.402 926.542 160.394 928.036 160.344V158.733C926.268 158.542 925.114 157.538 925.131 156.061C925.114 154.4 926.542 153.321 928.667 153.321C930.792 153.321 932.236 154.4 932.236 156.061C932.236 157.521 931.091 158.526 929.348 158.717V160.294C930.775 160.236 932.22 160.128 933.581 159.945L933.681 160.941C930.394 161.473 926.774 161.522 924.035 161.522L923.836 160.41ZM933.199 151.412V152.475H924.151V151.412H928.036V149.603H929.348V151.412H933.199ZM928.667 154.334C927.306 154.334 926.343 155.031 926.343 156.061C926.343 157.09 927.306 157.754 928.667 157.737C930.045 157.754 930.991 157.09 930.991 156.061C930.991 155.031 930.045 154.334 928.667 154.334ZM954.881 149.586V154.085H957.105V155.181H954.881V160.394H953.569V149.586H954.881ZM950.896 150.731C950.896 154.533 948.174 157.355 943.924 158.684L943.359 157.638C946.896 156.534 949.203 154.425 949.485 151.827H943.974V150.731H950.896ZM955.562 162.934V164.029H945.634V159.298H946.929V162.934H955.562ZM962.866 150.665C965.19 150.665 966.834 152.076 966.834 154.135C966.834 156.193 965.19 157.604 962.866 157.604C960.542 157.604 958.865 156.193 958.882 154.135C958.865 152.076 960.542 150.665 962.866 150.665ZM962.866 151.811C961.289 151.811 960.144 152.757 960.16 154.135C960.144 155.513 961.289 156.459 962.866 156.459C964.427 156.459 965.556 155.513 965.556 154.135C965.556 152.757 964.427 151.811 962.866 151.811ZM970.138 149.586V164.378H968.843V149.586H970.138ZM958.118 160.012C960.841 160.012 964.593 159.995 967.863 159.514L967.963 160.477C964.593 161.107 960.957 161.124 958.301 161.124L958.118 160.012ZM985.992 151.08V152.159H977.642V151.08H981.228V149.453H982.522V151.08H985.992ZM981.858 152.873C983.834 152.873 985.229 153.936 985.229 155.546C985.229 157.14 983.834 158.186 981.858 158.186C979.866 158.186 978.505 157.14 978.521 155.546C978.505 153.936 979.866 152.873 981.858 152.873ZM981.858 153.886C980.58 153.886 979.733 154.55 979.733 155.546C979.733 156.525 980.58 157.206 981.858 157.206C983.137 157.206 984 156.525 984.017 155.546C984 154.55 983.137 153.886 981.858 153.886ZM989.86 149.586V158.318H988.549V157.007H985.976V155.928H988.549V154.118H985.992V153.039H988.549V149.586H989.86ZM981.543 158.933V160.493H988.565V158.933H989.86V164.146H980.248V158.933H981.543ZM981.543 163.1H988.565V161.506H981.543V163.1ZM999.323 150.499V154.633H994.243V156.924C997.016 156.924 998.443 156.882 1000.19 156.559L1000.32 157.638C998.477 157.937 996.982 157.986 993.994 157.986H992.948V153.637H998.028V151.545H992.915V150.499H999.323ZM1004.55 149.603V158.667H1003.24V155.928H1000.3V154.849H1003.24V152.856H1000.3V151.794H1003.24V149.603H1004.55ZM1004.55 159.464V164.378H1003.24V160.526H994.608V159.464H1004.55ZM1015.19 151.229V151.993C1015.18 153.155 1015.18 155.114 1014.76 157.854L1013.45 157.737C1013.85 155.264 1013.88 153.471 1013.88 152.292H1007.69V151.229H1015.19ZM1011.33 155.446V159.929C1012.96 159.871 1014.64 159.763 1016.17 159.58L1016.24 160.56C1013.14 161.041 1009.67 161.107 1007.03 161.091L1006.86 160.012C1007.83 160.003 1008.91 159.995 1010.05 159.962V155.446H1011.33ZM1018.4 149.586V155.762H1020.79V156.891H1018.4V164.345H1017.1V149.586H1018.4ZM1038.83 149.603V160.51H1037.52V156.525H1033.71C1033.02 157.397 1031.93 157.92 1030.67 157.92C1028.46 157.92 1026.83 156.393 1026.83 154.234C1026.83 152.076 1028.46 150.549 1030.67 150.532C1031.92 150.541 1032.99 151.055 1033.69 151.91H1037.52V149.603H1038.83ZM1039.25 162.934V164.029H1029.36V159.364H1030.67V162.934H1039.25ZM1030.67 151.694C1029.16 151.711 1028.08 152.757 1028.08 154.234C1028.08 155.712 1029.16 156.758 1030.67 156.758C1032.11 156.758 1033.22 155.712 1033.22 154.234C1033.22 152.757 1032.11 151.711 1030.67 151.694ZM1034.29 152.989C1034.41 153.371 1034.49 153.786 1034.49 154.234C1034.49 154.666 1034.41 155.073 1034.29 155.446H1037.52V152.989H1034.29ZM1053.93 149.586V164.345H1052.68V149.586H1053.93ZM1050.94 149.984V163.598H1049.69V158.484H1046.95V157.405H1049.69V154.782H1047.2C1046.48 157.281 1044.86 159.489 1042.07 161.157L1041.28 160.211C1044.49 158.31 1046.1 155.646 1046.36 152.558H1041.94V151.479H1047.65C1047.65 152.234 1047.58 152.981 1047.45 153.703H1049.69V149.984H1050.94ZM1069.48 156.442V157.472H1055.97V156.442H1069.48ZM1067.79 158.65V161.788H1058.92V163.199H1068.27V164.146H1057.61V160.892H1066.49V159.63H1057.59V158.65H1067.79ZM1067.74 150.034V153.089H1059.02V154.384H1068V155.33H1057.73V152.192H1066.43V150.98H1057.68V150.034H1067.74ZM1089.02 157.422V158.484H1075.56V157.422H1081.63V155.961H1077.35V150.018H1087.34V151.08H1078.66V152.458H1086.95V153.454H1078.66V154.915H1087.43V155.961H1082.93V157.422H1089.02ZM1082.3 159.597C1085.54 159.58 1087.36 160.41 1087.38 161.954C1087.36 163.498 1085.54 164.312 1082.3 164.312C1079.03 164.312 1077.2 163.498 1077.2 161.954C1077.2 160.41 1079.03 159.58 1082.3 159.597ZM1082.3 160.576C1079.86 160.576 1078.5 161.074 1078.51 161.954C1078.5 162.851 1079.86 163.315 1082.3 163.299C1084.71 163.315 1086.07 162.851 1086.07 161.954C1086.07 161.074 1084.71 160.576 1082.3 160.576ZM1097.64 152.143V153.205H1090.23V152.143H1093.3V150.034H1094.6V152.143H1097.64ZM1093.94 154.201C1095.79 154.201 1097.12 155.596 1097.14 157.555C1097.12 159.53 1095.79 160.941 1093.94 160.941C1092.09 160.941 1090.76 159.53 1090.76 157.555C1090.76 155.596 1092.09 154.201 1093.94 154.201ZM1093.94 155.297C1092.77 155.313 1091.93 156.26 1091.93 157.555C1091.93 158.866 1092.77 159.812 1093.94 159.796C1095.11 159.812 1095.98 158.866 1095.98 157.555C1095.98 156.26 1095.11 155.313 1093.94 155.297ZM1102.83 149.586V164.345H1101.59V156.891H1099.63V163.614H1098.4V149.951H1099.63V155.812H1101.59V149.586H1102.83ZM1123.3 157.173V158.235H1109.86V157.173H1115.93V155.28H1117.21V157.173H1123.3ZM1117.21 149.503V150.98H1121.94V152.026H1117.29C1117.39 153.67 1119.73 154.774 1122.51 155.031L1122.12 156.011C1119.67 155.753 1117.48 154.907 1116.58 153.438C1115.68 154.907 1113.48 155.753 1111.04 156.011L1110.64 155.031C1113.43 154.774 1115.76 153.67 1115.87 152.026H1111.25V150.98H1115.93V149.503H1117.21ZM1121.66 159.58V164.146H1111.5V159.58H1121.66ZM1112.79 160.626V163.083H1120.38V160.626H1112.79ZM1138 157.173V158.235H1124.55V157.173H1130.62V155.28H1131.9V157.173H1138ZM1131.9 149.503V150.98H1136.63V152.026H1131.99C1132.08 153.67 1134.43 154.774 1137.2 155.031L1136.82 156.011C1134.36 155.753 1132.17 154.907 1131.27 153.438C1130.37 154.907 1128.18 155.753 1125.73 156.011L1125.33 155.031C1128.12 154.774 1130.45 153.67 1130.56 152.026H1125.94V150.98H1130.62V149.503H1131.9ZM1136.35 159.58V164.146H1126.19V159.58H1136.35ZM1127.49 160.626V163.083H1135.07V160.626H1127.49ZM1150.78 149.603V154.467H1153V155.562H1150.78V160.659H1149.48V149.603H1150.78ZM1148.07 151.412V152.475H1139.27V151.412H1143.03V149.603H1144.32V151.412H1148.07ZM1143.67 153.288C1145.78 153.288 1147.21 154.367 1147.23 156.044C1147.21 157.704 1145.78 158.767 1143.67 158.767C1141.55 158.767 1140.1 157.704 1140.12 156.044C1140.1 154.367 1141.55 153.288 1143.67 153.288ZM1143.67 154.317C1142.28 154.317 1141.35 154.998 1141.37 156.044C1141.35 157.09 1142.28 157.754 1143.67 157.737C1145.05 157.754 1145.98 157.09 1146 156.044C1145.98 154.998 1145.05 154.317 1143.67 154.317ZM1151.46 162.934V164.029H1141.55V159.779H1142.83V162.934H1151.46ZM656.451 179.554V180.6H651.969V182.027H658.045V183.09H644.598V182.027H650.674V180.6H646.391V176.167H656.302V177.246H647.702V179.554H656.451ZM656.318 184.352V187.639H647.553V189.133H656.767V190.179H646.258V186.676H655.04V185.348H646.225V184.352H656.318ZM672.737 182.974V184.053H659.29V182.974H665.366V181.33H661.083V175.901H662.378V177.595H669.683V175.901H670.978V181.33H666.661V182.974H672.737ZM662.378 180.284H669.683V178.591H662.378V180.284ZM671.094 185.431V190.146H660.934V185.431H671.094ZM662.229 186.46V189.083H669.815V186.46H662.229ZM679.179 179.554C679.179 182.227 680.889 184.916 683.03 185.896L682.25 186.958C680.573 186.095 679.187 184.327 678.531 182.227C677.875 184.435 676.489 186.327 674.812 187.224L673.966 186.178C676.124 185.115 677.851 182.276 677.851 179.554V176.864H679.179V179.554ZM686.218 175.586V190.378H684.923V181.695H681.42V180.633H684.923V175.586H686.218ZM700.844 175.586V190.378H699.532V175.586H700.844ZM690.833 176.848V180.749H695.232V176.848H696.511V186.809H689.538V176.848H690.833ZM690.833 185.713H695.232V181.795H690.833V185.713ZM710.722 177.761C710.722 180.284 713.61 182.542 716.184 183.023L715.586 184.119C713.361 183.604 711.012 182.019 710.058 179.836C709.103 182.011 706.762 183.596 704.529 184.119L703.932 183.023C706.488 182.525 709.36 180.301 709.36 177.761V176.632H710.722V177.761ZM716.881 187.257V188.336H703.367V187.257H716.881ZM735.574 175.586V190.345H734.329V175.586H735.574ZM732.586 175.951V189.581H731.357V181.978H728.867V180.915H731.357V175.951H732.586ZM727.29 179.803C727.29 182.359 728.436 184.899 730.478 186.078L729.681 187.041C728.228 186.169 727.199 184.576 726.692 182.691C726.153 184.725 725.082 186.46 723.604 187.39L722.774 186.41C724.833 185.182 726.028 182.492 726.028 179.803V178.408H723.189V177.329H729.996V178.408H727.29V179.803ZM744.323 184.916C747.494 184.916 749.503 185.912 749.503 187.622C749.503 189.315 747.494 190.312 744.323 190.312C741.169 190.312 739.16 189.315 739.16 187.622C739.16 185.912 741.169 184.916 744.323 184.916ZM744.323 185.912C741.966 185.929 740.438 186.576 740.455 187.622C740.438 188.651 741.966 189.282 744.323 189.282C746.681 189.282 748.191 188.651 748.208 187.622C748.191 186.576 746.681 185.929 744.323 185.912ZM749.387 176.35V177.595C749.387 178.79 749.387 179.985 748.972 181.513L747.693 181.363C748.092 179.836 748.092 178.757 748.092 177.595V177.412H739.26V176.35H749.387ZM751.097 182.476V183.538H737.666V182.476H743.228V179.62H744.506V182.476H751.097Z" fill="#494D50"/>
<path d="M1092.5 210C1092.5 206.962 1094.96 204.5 1098 204.5H1162C1165.04 204.5 1167.5 206.962 1167.5 210V238C1167.5 241.038 1165.04 243.5 1162 243.5H1098C1094.96 243.5 1092.5 241.038 1092.5 238V210Z" stroke="#61666B"/>
<path d="M1115.72 217.664V230.687H1114.59V223.948H1112.71V230.013H1111.63V217.957H1112.71V222.967H1114.59V217.664H1115.72ZM1106.4 219.261V226.292C1107.7 226.277 1109.07 226.189 1110.66 225.867L1110.81 226.893C1108.99 227.215 1107.5 227.317 1106.06 227.317H1105.26V219.261H1106.4ZM1129.43 224.109V225.062H1117.56V224.109H1120.51V222.278C1119.47 221.875 1118.88 221.209 1118.88 220.33C1118.88 218.792 1120.64 217.913 1123.5 217.913C1126.32 217.913 1128.1 218.792 1128.1 220.33C1128.1 221.202 1127.52 221.868 1126.48 222.264V224.109H1129.43ZM1123.5 226.058C1126.29 226.058 1127.96 226.863 1127.98 228.357C1127.96 229.837 1126.29 230.657 1123.5 230.657C1120.67 230.657 1119 229.837 1119 228.357C1119 226.863 1120.67 226.058 1123.5 226.058ZM1123.5 226.937C1121.4 226.951 1120.16 227.464 1120.17 228.357C1120.16 229.236 1121.4 229.764 1123.5 229.764C1125.56 229.764 1126.82 229.236 1126.82 228.357C1126.82 227.464 1125.56 226.951 1123.5 226.937ZM1123.5 218.821C1121.37 218.821 1120.05 219.393 1120.07 220.33C1120.05 221.282 1121.37 221.839 1123.5 221.839C1125.61 221.839 1126.92 221.282 1126.92 220.33C1126.92 219.393 1125.61 218.821 1123.5 218.821ZM1121.65 224.109H1125.34V222.586C1124.79 222.681 1124.18 222.732 1123.5 222.732C1122.81 222.732 1122.2 222.681 1121.65 222.586V224.109ZM1142.45 228.064V229.017H1130.53V228.064H1135.89V225.252H1131.93V218.587H1133.09V220.945H1139.86V218.587H1140.99V225.252H1137.02V228.064H1142.45ZM1133.09 224.314H1139.86V221.883H1133.09V224.314ZM1154.26 217.664V230.687H1153.1V217.664H1154.26ZM1150.41 219.085C1150.39 222.835 1148.65 226.146 1144.28 228.24L1143.65 227.303C1147.18 225.633 1148.97 223.135 1149.23 220.022H1144.25V219.085H1150.41Z" fill="#1F2123"/>
<path d="M13.1816 320.937V331.977H11.0732V328.391H7.62012C6.88965 329.163 5.83545 329.636 4.66504 329.636C2.37402 329.636 0.630859 327.976 0.647461 325.734C0.630859 323.46 2.37402 321.816 4.66504 321.8C5.83545 321.808 6.88135 322.273 7.62012 323.045H11.0732V320.937H13.1816ZM13.5469 334.068V335.762H3.1543V330.864H5.2793V334.068H13.5469ZM4.66504 323.692C3.48633 323.692 2.63965 324.456 2.65625 325.734C2.63965 326.996 3.48633 327.76 4.66504 327.76C5.77734 327.76 6.64062 326.996 6.64062 325.734C6.64062 324.456 5.77734 323.692 4.66504 323.692ZM8.5332 324.738C8.60791 325.054 8.64941 325.386 8.64941 325.734C8.64941 326.066 8.60791 326.39 8.5332 326.697H11.0732V324.738H8.5332ZM23.6074 322.016V322.962C23.6074 324.008 23.6074 325.519 23.2588 327.395L21.1836 327.195C21.4492 325.743 21.5156 324.647 21.5322 323.742H15.8379V322.016H23.6074ZM19.8555 325.502V328.391C21.3579 328.333 22.9019 328.216 24.3213 328.009L24.4375 329.536C21.2998 330.117 17.7471 330.167 15.124 330.184L14.9414 328.49C15.7881 328.49 16.7427 328.49 17.7471 328.457V325.502H19.8555ZM27.3096 320.92V325.519H29.1357V327.295H27.3096V332.226H25.1348V320.92H27.3096ZM27.7744 334.068V335.762H17.166V331.213H19.291V334.068H27.7744ZM48.5098 329.254V330.947H42.6328V336.027H40.541V330.947H34.7305V329.254H48.5098ZM47.2812 321.717V323.377H42.8818C43.0894 324.854 44.7578 326.34 47.8623 326.714L47.0986 328.374C44.4424 328.017 42.5415 326.88 41.6367 325.319C40.707 326.88 38.8228 328.017 36.1914 328.374L35.4111 326.714C38.4658 326.34 40.1509 324.854 40.3916 323.377H35.9756V321.717H47.2812ZM62.4883 320.92V336.027H60.4795V320.92H62.4883ZM59.4004 321.169V335.33H57.4082V327.81H55.416V326.1H57.4082V321.169H59.4004ZM54.2041 324.971C54.2041 327.478 54.9844 330.018 57.1924 331.279L55.9473 332.84C54.6025 332.043 53.7144 330.69 53.208 329.071C52.6851 330.831 51.772 332.325 50.3857 333.172L49.1074 331.611C51.332 330.25 52.1621 327.527 52.1621 324.971V324.157H49.6885V322.464H56.4951V324.157H54.2041V324.971ZM68.2822 321.982C70.3242 321.982 71.8433 323.667 72.1504 326.382H74.7734V320.92H76.8652V336.061H74.7734V328.075H72.167C71.9429 330.98 70.3906 332.757 68.2822 332.757C65.9912 332.757 64.3477 330.682 64.3643 327.361C64.3477 324.074 65.9912 321.982 68.2822 321.982ZM68.2822 323.892C67.1533 323.892 66.373 325.12 66.3896 327.361C66.373 329.619 67.1533 330.831 68.2822 330.831C69.4277 330.831 70.1748 329.619 70.1748 327.361C70.1748 325.12 69.4277 323.892 68.2822 323.892Z" fill="#1F2123"/>
<rect x="103" y="296" width="183" height="65" rx="12" fill="white"/>
<path d="M130.211 311.961V312.773H123.482V311.961H126.352V310.691H127.342V311.961H130.211ZM126.847 313.357C128.472 313.37 129.551 314.157 129.563 315.401C129.551 316.633 128.472 317.433 126.847 317.433C125.222 317.433 124.117 316.633 124.13 315.401C124.117 314.157 125.222 313.37 126.847 313.357ZM126.847 314.132C125.78 314.145 125.069 314.64 125.082 315.401C125.069 316.15 125.78 316.633 126.847 316.633C127.9 316.633 128.611 316.15 128.624 315.401C128.611 314.64 127.9 314.145 126.847 314.132ZM132.28 310.742V313.878H133.981V314.716H132.28V317.801H131.29V310.742H132.28ZM132.28 318.423V322.028H131.29V319.235H124.892V318.423H132.28ZM138.057 312.989C138.057 314.233 138.933 315.503 140.38 316.049L139.859 316.811C138.774 316.392 137.993 315.585 137.587 314.614C137.168 315.693 136.362 316.652 135.251 317.128L134.705 316.354C136.19 315.706 137.104 314.246 137.104 312.989V311.453H138.057V312.989ZM144.277 310.755V317.725H143.325V314.614H141.827V317.369H140.888V310.971H141.827V313.789H143.325V310.755H144.277ZM140.545 317.979C142.881 317.979 144.341 318.715 144.341 319.997C144.341 321.267 142.881 322.003 140.545 322.003C138.196 322.003 136.749 321.267 136.762 319.997C136.749 318.715 138.196 317.979 140.545 317.979ZM140.545 318.74C138.818 318.74 137.739 319.21 137.752 319.997C137.739 320.771 138.818 321.229 140.545 321.229C142.259 321.229 143.338 320.771 143.351 319.997C143.338 319.21 142.259 318.74 140.545 318.74ZM155.563 311.479V316.074H150.27V311.479H155.563ZM151.247 312.291V315.287H154.586V312.291H151.247ZM158.979 310.742V317.229H158.001V310.742H158.979ZM155.919 318.778C155.919 319.883 157.722 320.975 159.664 321.216L159.321 321.99C157.62 321.762 156.071 320.962 155.411 319.908C154.726 320.981 153.139 321.762 151.438 321.99L151.082 321.216C153.024 321 154.891 319.908 154.891 318.778H151.552V318.004H154.903V316.899H155.894V318.004H159.271V318.778H155.919ZM171.407 311.961V312.773H164.679V311.961H167.548V310.691H168.538V311.961H171.407ZM168.043 313.357C169.668 313.37 170.747 314.157 170.76 315.401C170.747 316.633 169.668 317.433 168.043 317.433C166.418 317.433 165.313 316.633 165.326 315.401C165.313 314.157 166.418 313.37 168.043 313.357ZM168.043 314.132C166.977 314.145 166.266 314.64 166.278 315.401C166.266 316.15 166.977 316.633 168.043 316.633C169.097 316.633 169.808 316.15 169.82 315.401C169.808 314.64 169.097 314.145 168.043 314.132ZM173.477 310.742V313.878H175.178V314.716H173.477V317.801H172.486V310.742H173.477ZM173.477 318.423V322.028H172.486V319.235H166.088V318.423H173.477ZM186.21 317.445V318.258H181.5V322.028H180.522V318.258H175.876V317.445H186.21ZM178.187 311.212V312.773H183.874V311.212H184.877V316.074H177.196V311.212H178.187ZM178.187 315.262H183.874V313.586H178.187V315.262ZM197.458 319.743V320.581H187.124V319.743H191.771V316.988H188.343V311.694H196.176V316.988H192.748V319.743H197.458ZM189.32 312.494V316.188H195.211V312.494H189.32Z" fill="#256EF4"/>
<path d="M135.583 340.43V341.938H132.727V346.348H130.822V341.938H128.098V346.348H126.179V341.938H123.381V340.43H135.583ZM129.445 333.457C132.302 333.457 134.309 334.644 134.309 336.475C134.309 338.276 132.302 339.404 129.445 339.404C126.589 339.404 124.597 338.276 124.611 336.475C124.597 334.644 126.589 333.457 129.445 333.457ZM129.445 334.951C127.658 334.951 126.516 335.493 126.53 336.475C126.516 337.412 127.658 337.939 129.445 337.939C131.247 337.939 132.375 337.412 132.375 336.475C132.375 335.493 131.247 334.951 129.445 334.951ZM147.507 333.018V346.348H145.632V333.018H147.507ZM141.574 337.192C141.574 339.126 142.673 341.309 144.885 342.217L143.874 343.652C142.358 343.03 141.274 341.755 140.666 340.225C140.073 341.851 138.981 343.213 137.429 343.857L136.433 342.422C138.63 341.47 139.714 339.229 139.714 337.192V336.68H136.872V335.186H139.699V333.311H141.56V335.186H144.343V336.68H141.574V337.192ZM160.617 333.032V343.096H158.742V342.041H156.193V340.767H158.742V333.032H160.617ZM160.91 344.619V346.113H150.979V342.129H152.839V340.356C151.645 340.408 150.51 340.415 149.499 340.415L149.279 338.936C151.726 338.921 155.021 338.892 157.834 338.54L157.937 339.873C156.882 340.049 155.791 340.173 154.714 340.254V342.788H152.839V344.619H160.91ZM153.615 333.486C155.549 333.472 156.94 334.453 156.94 335.874C156.94 337.295 155.549 338.218 153.615 338.218C151.638 338.218 150.261 337.295 150.261 335.874C150.261 334.453 151.623 333.472 153.615 333.486ZM153.615 334.849C152.663 334.849 152.019 335.215 152.033 335.874C152.019 336.519 152.663 336.87 153.615 336.87C154.509 336.87 155.153 336.519 155.168 335.874C155.153 335.215 154.509 334.849 153.615 334.849ZM173.801 333.823V339.434H167.282V333.823H173.801ZM169.128 335.273V337.969H171.94V335.273H169.128ZM177.756 333.018V340.576H175.896V333.018H177.756ZM177.99 341.309V342.7H174.255C174.46 343.608 175.866 344.656 178.503 344.912L177.873 346.318C175.654 346.113 174.079 345.308 173.273 344.253C172.446 345.322 170.864 346.106 168.63 346.318L167.985 344.912C170.659 344.7 172.065 343.63 172.263 342.7H168.527V341.309H172.321V340.21H174.196V341.309H177.99ZM196.096 343.301V344.824H183.894V343.301H189.05V340.693H190.91V343.301H196.096ZM195.026 334.849V336.343H190.954C191.108 337.822 192.617 339.324 195.656 339.697L194.982 341.147C192.595 340.847 190.874 339.858 189.987 338.481C189.086 339.858 187.38 340.847 184.992 341.147L184.304 339.697C187.343 339.324 188.852 337.822 189.021 336.343H184.948V334.849H189.05V333.179H190.91V334.849H195.026ZM209.016 339.067V340.576H203.859V341.558C206.181 341.733 207.551 342.568 207.565 343.945C207.551 345.483 205.808 346.348 202.922 346.348C199.992 346.348 198.249 345.483 198.249 343.945C198.249 342.561 199.633 341.726 201.999 341.558V340.576H196.857V339.067H209.016ZM202.922 342.935C201.076 342.949 200.139 343.271 200.153 343.945C200.139 344.59 201.076 344.941 202.922 344.941C204.724 344.941 205.676 344.59 205.69 343.945C205.676 343.271 204.724 342.949 202.922 342.935ZM207.917 333.589V335.054H204.299C204.614 335.991 205.969 336.892 208.503 337.104L207.844 338.569C205.332 338.328 203.632 337.375 202.922 336.079C202.219 337.375 200.549 338.328 198.015 338.569L197.399 337.104C199.868 336.892 201.23 335.984 201.574 335.054H197.971V333.589H207.917ZM222.009 339.111V340.635H209.821V339.111H222.009ZM220.617 336.694V338.174H211.301V333.369H220.544V334.878H213.161V336.694H220.617ZM215.886 341.44C218.771 341.44 220.515 342.319 220.529 343.887C220.515 345.469 218.771 346.348 215.886 346.348C212.971 346.348 211.213 345.469 211.213 343.887C211.213 342.319 212.971 341.44 215.886 341.44ZM215.886 342.861C214.04 342.861 213.103 343.213 213.117 343.887C213.103 344.59 214.04 344.927 215.886 344.927C217.688 344.927 218.64 344.59 218.654 343.887C218.64 343.213 217.688 342.861 215.886 342.861ZM230.695 334.204V335.684H222.785V334.204H225.817V332.944H227.678V334.204H230.695ZM226.74 336.108C228.674 336.108 230.021 337.104 230.021 338.569C230.021 340.034 228.674 341.03 226.74 341.03C224.807 341.03 223.43 340.034 223.43 338.569C223.43 337.104 224.807 336.108 226.74 336.108ZM226.74 337.515C225.847 337.515 225.246 337.881 225.261 338.569C225.246 339.243 225.847 339.595 226.74 339.595C227.634 339.595 228.249 339.243 228.249 338.569C228.249 337.881 227.634 337.515 226.74 337.515ZM233.361 333.018V336.475H235.163V337.998H233.361V341.382H231.486V333.018H233.361ZM233.361 341.938V346.348H231.486V343.433H224.382V341.938H233.361ZM246.809 334.175V335.479C246.794 337.104 246.794 338.936 246.311 341.616L244.479 341.455C244.919 339.016 244.934 337.2 244.934 335.654H236.95V334.175H246.809ZM247.907 343.198V344.722H235.749V343.198H238.342V339.009H240.202V343.198H241.667V339.009H243.513V343.198H247.907Z" fill="#1F2123"/>
<path fill-rule="evenodd" clip-rule="evenodd" d="M255.604 344.657C255.801 344.876 256.138 344.893 256.357 344.696L261.69 339.897C261.803 339.795 261.867 339.651 261.867 339.5C261.867 339.349 261.803 339.205 261.69 339.104L256.357 334.303C256.138 334.106 255.801 334.124 255.604 334.343C255.407 334.562 255.424 334.899 255.643 335.096L260.536 339.5L255.643 343.904C255.424 344.101 255.407 344.438 255.604 344.657Z" fill="#303336"/>
<rect x="298" y="296" width="179" height="65" rx="12" fill="white"/>
<path d="M328.74 315.77V316.544H324.081V317.598H327.42V320.035H320.717V321.14H327.763V321.901H319.727V319.324H326.442V318.347H319.701V317.598H323.104V316.544H318.47V315.77H328.74ZM324.081 310.679V311.732H327.699V312.52H324.157C324.341 313.643 326.106 314.354 328.182 314.487L327.877 315.249C325.992 315.09 324.291 314.506 323.599 313.434C322.907 314.506 321.206 315.09 319.308 315.249L319.016 314.487C321.079 314.354 322.843 313.643 323.04 312.52H319.523V311.732H323.104V310.679H324.081ZM333.488 312.875C333.476 314.424 334.656 315.858 336.319 316.442L335.812 317.242C334.529 316.779 333.533 315.82 333.031 314.614C332.555 315.966 331.533 317.007 330.2 317.521L329.654 316.722C331.368 316.112 332.498 314.589 332.511 312.837V311.44H333.488V312.875ZM338.516 310.742V314.208H340.217V315.059H338.516V319.083H337.525V310.742H338.516ZM339.036 320.949V321.787H331.47V318.283H332.485V320.949H339.036ZM342.312 318.042C341.715 318.042 341.232 317.56 341.245 316.976C341.232 316.392 341.715 315.922 342.312 315.922C342.87 315.922 343.365 316.392 343.365 316.976C343.365 317.56 342.87 318.042 342.312 318.042ZM354.88 316.188V317.001H352.138V318.436H353.61V322.028H352.607V319.235H345.739V318.436H347.326V317.001H344.597V316.188H354.88ZM349.738 311.021C352.188 311.009 353.725 311.821 353.725 313.167C353.725 314.525 352.188 315.338 349.738 315.325C347.288 315.338 345.739 314.525 345.739 313.167C345.739 311.821 347.288 311.009 349.738 311.021ZM349.738 311.821C347.91 311.809 346.755 312.329 346.768 313.167C346.755 314.03 347.91 314.551 349.738 314.551C351.541 314.551 352.709 314.03 352.709 313.167C352.709 312.329 351.541 311.809 349.738 311.821ZM348.329 318.436H351.16V317.001H348.329V318.436ZM358.854 311.618C360.517 311.631 361.697 313.154 361.71 315.554C361.697 317.953 360.517 319.477 358.854 319.477C357.178 319.477 356.01 317.953 356.01 315.554C356.01 313.154 357.178 311.631 358.854 311.618ZM358.854 312.507C357.736 312.52 356.949 313.713 356.949 315.554C356.949 317.395 357.736 318.588 358.854 318.588C359.983 318.588 360.745 317.395 360.745 315.554C360.745 313.713 359.983 312.52 358.854 312.507ZM364.566 310.742V315.249H366.458V316.112H364.566V322.028H363.576V310.742H364.566ZM374.85 314.208C374.85 316.125 376.246 318.067 377.909 318.791L377.351 319.578C376.03 318.975 374.888 317.674 374.367 316.112C373.834 317.769 372.698 319.21 371.409 319.857L370.812 319.07C372.425 318.296 373.834 316.163 373.847 314.208V312.735H371.181V311.91H377.541V312.735H374.85V314.208ZM380.118 310.742V322.028H379.115V310.742H380.118ZM391.354 310.755V319.324H390.351V318.156H388.015V317.433H390.351V310.755H391.354ZM391.633 320.949V321.787H383.609V318.486H384.612V320.949H391.633ZM381.984 315.985C384.092 315.973 386.91 315.96 389.335 315.655L389.398 316.379C388.389 316.538 387.335 316.639 386.301 316.696V318.931H385.298V316.747C384.155 316.798 383.07 316.804 382.124 316.798L381.984 315.985ZM385.691 311.212C387.342 311.212 388.472 311.999 388.484 313.18C388.472 314.386 387.342 315.135 385.691 315.135C384.028 315.135 382.898 314.386 382.898 313.18C382.898 311.999 384.028 311.212 385.691 311.212ZM385.691 311.974C384.587 311.961 383.838 312.456 383.851 313.18C383.838 313.916 384.587 314.398 385.691 314.398C386.758 314.398 387.52 313.916 387.532 313.18C387.52 312.456 386.758 311.961 385.691 311.974Z" fill="#256EF4"/>
<path d="M330.598 343.271V344.795H318.396V343.271H323.537V340.811H319.685V333.867H321.56V335.933H327.375V333.867H329.235V340.811H325.397V343.271H330.598ZM321.56 339.316H327.375V337.427H321.56V339.316ZM343.518 339.243V340.723H340.588V341.968H342.038V346.348H340.178V343.433H332.707V341.968H334.23V340.723H331.359V339.243H343.518ZM337.438 333.281C340.368 333.267 342.272 334.277 342.287 335.903C342.272 337.529 340.368 338.54 337.438 338.54C334.494 338.54 332.575 337.529 332.575 335.903C332.575 334.277 334.494 333.267 337.438 333.281ZM337.438 334.731C335.578 334.731 334.509 335.142 334.523 335.903C334.509 336.694 335.578 337.09 337.438 337.09C339.284 337.09 340.354 336.694 340.354 335.903C340.354 335.142 339.284 334.731 337.438 334.731ZM336.12 341.968H338.742V340.723H336.12V341.968ZM356.525 343.33V344.868H344.323V343.33H347.443V341.294H345.729V336.812H353.273V335.376H345.715V333.882H355.119V338.306H347.604V339.785H355.427V341.294H353.537V343.33H356.525ZM349.26 343.33H351.706V341.294H349.26V343.33ZM368.801 333.823V339.434H362.282V333.823H368.801ZM364.128 335.273V337.969H366.94V335.273H364.128ZM372.756 333.018V340.576H370.896V333.018H372.756ZM372.99 341.309V342.7H369.255C369.46 343.608 370.866 344.656 373.503 344.912L372.873 346.318C370.654 346.113 369.079 345.308 368.273 344.253C367.446 345.322 365.864 346.106 363.63 346.318L362.985 344.912C365.659 344.7 367.065 343.63 367.263 342.7H363.527V341.309H367.321V340.21H369.196V341.309H372.99ZM386.804 334.204V335.684H378.894V334.204H381.926V332.944H383.786V334.204H386.804ZM382.849 336.108C384.782 336.108 386.13 337.104 386.13 338.569C386.13 340.034 384.782 341.03 382.849 341.03C380.915 341.03 379.538 340.034 379.538 338.569C379.538 337.104 380.915 336.108 382.849 336.108ZM382.849 337.515C381.955 337.515 381.354 337.881 381.369 338.569C381.354 339.243 381.955 339.595 382.849 339.595C383.742 339.595 384.357 339.243 384.357 338.569C384.357 337.881 383.742 337.515 382.849 337.515ZM389.47 333.018V336.475H391.271V337.998H389.47V341.382H387.595V333.018H389.47ZM389.47 341.938V346.348H387.595V343.433H380.49V341.938H389.47ZM403.02 333.018V346.377H401.13V333.018H403.02ZM394.392 334.072V337.324H397.263V334.072H399.108V343.257H392.517V334.072H394.392ZM394.392 341.748H397.263V338.774H394.392V341.748ZM414.313 336.65C414.313 338.804 415.412 341.104 417.653 342.041L416.643 343.506C415.068 342.839 413.984 341.514 413.391 339.888C412.783 341.653 411.677 343.118 410.109 343.843L409.04 342.363C411.252 341.382 412.395 338.906 412.395 336.65V335.83H409.567V334.307H417.097V335.83H414.313V336.65ZM420.305 333.018V346.348H418.415V333.018H420.305ZM433.4 333.032V343.096H431.525V342.041H428.977V340.767H431.525V333.032H433.4ZM433.693 344.619V346.113H423.762V342.129H425.622V340.356C424.428 340.408 423.293 340.415 422.282 340.415L422.062 338.936C424.509 338.921 427.805 338.892 430.617 338.54L430.72 339.873C429.665 340.049 428.574 340.173 427.497 340.254V342.788H425.622V344.619H433.693ZM426.398 333.486C428.332 333.472 429.724 334.453 429.724 335.874C429.724 337.295 428.332 338.218 426.398 338.218C424.421 338.218 423.044 337.295 423.044 335.874C423.044 334.453 424.406 333.472 426.398 333.486ZM426.398 334.849C425.446 334.849 424.802 335.215 424.816 335.874C424.802 336.519 425.446 336.87 426.398 336.87C427.292 336.87 427.937 336.519 427.951 335.874C427.937 335.215 427.292 334.849 426.398 334.849Z" fill="#1F2123"/>
<path fill-rule="evenodd" clip-rule="evenodd" d="M446.604 344.657C446.801 344.876 447.138 344.893 447.357 344.696L452.69 339.897C452.803 339.795 452.867 339.651 452.867 339.5C452.867 339.349 452.803 339.205 452.69 339.104L447.357 334.303C447.138 334.106 446.801 334.124 446.604 334.343C446.407 334.562 446.424 334.899 446.643 335.096L451.536 339.5L446.643 343.904C446.424 344.101 446.407 344.438 446.604 344.657Z" fill="#303336"/>
</svg>
