<svg width="824" height="264" viewBox="0 0 824 264" fill="none" xmlns="http://www.w3.org/2000/svg">
<g filter="url(#filter0_dd_2492_70113)">
<rect x="16" y="8" width="792" height="232" rx="32" fill="white" shape-rendering="crispEdges"/>
<g opacity="0.9">
<path d="M55.5 38C55.5 39.933 53.933 41.5 52 41.5C50.067 41.5 48.5 39.933 48.5 38C48.5 36.067 50.067 34.5 52 34.5C53.933 34.5 55.5 36.067 55.5 38Z" fill="#03163A" stroke="#03163A" stroke-width="1.8"/>
<path d="M59 48.5942C59 50.5272 55.9099 51.5 52.0439 51.5C48.1779 51.5 45 50.5272 45 48.5942C45 46.6612 48.1779 44.5 52.0439 44.5C55.9099 44.5 59 46.6612 59 48.5942Z" fill="#03163A" stroke="#03163A" stroke-width="1.8"/>
</g>
<path d="M67.4844 35.5664H69.4883L74.0156 46.625H74.1826L78.71 35.5664H80.7139V49H79.1367V38.8506H79.0068L74.832 49H73.3477L69.1729 38.8506H69.0615V49H67.4844V35.5664ZM84.499 52.7852C84.1465 52.7852 83.8125 52.7666 83.6084 52.748V51.3193C83.7754 51.3379 84.1465 51.3564 84.3877 51.3564C85.0371 51.3564 85.5752 51.3008 86.1133 49.835L86.4102 49.0742L82.6807 38.9248H84.4248L87.1709 46.9219H87.2822L90.0283 38.9248H91.7725L87.5049 50.4473C86.9111 52.0244 85.9277 52.7852 84.499 52.7852ZM108.379 39.7598C107.804 38.0342 106.486 36.9395 104.575 36.9395C102.2 36.9395 100.308 38.8135 100.308 42.2832C100.308 45.7529 102.2 47.627 104.687 47.627C106.959 47.627 108.509 46.1055 108.546 43.7305H105.039V42.2646H110.179V43.7119C110.179 47.0518 107.878 49.1855 104.687 49.1855C101.105 49.1855 98.6934 46.5322 98.6934 42.2832C98.6934 38.0342 101.124 35.3809 104.575 35.3809C107.414 35.3809 109.604 37.1621 110.104 39.7598H108.379ZM116.599 49.2041C113.853 49.2041 111.997 47.1445 111.997 44.0088C111.997 40.873 113.853 38.7949 116.599 38.7949C119.326 38.7949 121.163 40.873 121.163 44.0088C121.163 47.1445 119.326 49.2041 116.599 49.2041ZM116.599 47.7939C118.621 47.7939 119.567 46.0127 119.567 44.0088C119.567 42.0049 118.621 40.2051 116.599 40.2051C114.539 40.2051 113.593 42.0049 113.593 44.0088C113.593 46.0127 114.539 47.7939 116.599 47.7939ZM131.183 38.9248L127.453 49H125.802L122.091 38.9248H123.835L126.581 46.9219H126.692L129.438 38.9248H131.183Z" fill="#1E2124"/>
<path d="M140.5 42.5C140.5 37.2533 144.753 33 150 33C155.247 33 159.5 37.2533 159.5 42.5C159.5 47.7467 155.247 52 150 52C144.753 52 140.5 47.7467 140.5 42.5Z" fill="white"/>
<path d="M140.5 42.5C140.5 37.2533 144.753 33 150 33C155.247 33 159.5 37.2533 159.5 42.5C159.5 47.7467 155.247 52 150 52C144.753 52 140.5 47.7467 140.5 42.5Z" stroke="#B1B8BE"/>
<path fill-rule="evenodd" clip-rule="evenodd" d="M148.202 46.3677C148.35 46.5319 148.603 46.5452 148.767 46.3974L152.767 42.7976C152.851 42.7217 152.9 42.6137 152.9 42.5003C152.9 42.3869 152.851 42.2788 152.767 42.2029L148.767 38.6027C148.603 38.4549 148.35 38.4682 148.202 38.6324C148.055 38.7966 148.068 39.0495 148.232 39.1973L151.902 42.5002L148.232 45.8028C148.068 45.9506 148.055 46.2035 148.202 46.3677Z" fill="#33363D" stroke="#33363D" stroke-linecap="round" stroke-linejoin="round"/>
<path d="M162.895 93.7639C162.432 93.5386 161.915 93.4125 161.373 93.4125H151.692C150.614 93.4125 149.594 92.9082 148.906 92.041C148.465 91.4832 148.025 90.9254 147.58 90.3715C146.892 89.5043 145.869 89 144.794 89H135.627C134.626 89 133.719 89.4241 133.063 90.1155C132.408 90.807 132 91.7545 132 92.805V117.878C132 119.016 132.441 120.044 133.151 120.793C133.861 121.538 134.844 122 135.93 122H161.07C162.156 122 163.135 121.538 163.849 120.793C164.559 120.048 165 119.016 165 117.878V97.2175C165 97.2175 165 97.2061 165 97.1984C164.993 95.6779 164.133 94.3637 162.895 93.7639Z" fill="url(#paint0_linear_2492_70113)"/>
<g filter="url(#filter1_b_2492_70113)">
<path d="M162.895 93.7639C162.432 93.5386 161.915 93.4125 161.373 93.4125H151.692C150.614 93.4125 149.594 92.9082 148.906 92.041C148.465 91.4832 148.025 90.9254 147.58 90.3715C146.892 89.5043 145.869 89 144.794 89H135.627C134.626 89 133.719 89.4241 133.063 90.1155C132.408 90.807 132 91.7545 132 92.805V117.878C132 119.016 132.441 120.044 133.151 120.793C133.861 121.538 134.844 122 135.93 122H161.07C162.156 122 163.135 121.538 163.849 120.793C164.559 120.048 165 119.016 165 117.878V97.2175C165 97.2175 165 97.2061 165 97.1984C164.993 95.6779 164.133 94.3637 162.895 93.7639Z" fill="white" fill-opacity="0.1"/>
<path d="M162.676 94.2134L162.677 94.2139C163.74 94.7289 164.493 95.867 164.5 97.1993V97.1993V97.1994V97.1994V97.1995V97.1995V97.1996V97.1996V97.1997V97.1997V97.1998V97.1998V97.1999V97.1999V97.1999V97.2V97.2V97.2001V97.2001V97.2002V97.2002V97.2003V97.2003V97.2004V97.2004V97.2005V97.2005V97.2006V97.2006V97.2007V97.2007V97.2008V97.2008V97.2009V97.2009V97.201V97.201V97.201V97.2011V97.2011V97.2012V97.2012V97.2013V97.2013V97.2014V97.2014V97.2015V97.2015V97.2016V97.2016V97.2017V97.2017V97.2018V97.2018V97.2019V97.2019V97.202V97.202V97.2021V97.2021V97.2022V97.2022V97.2023V97.2023V97.2024V97.2024V97.2025V97.2025V97.2026V97.2026V97.2027V97.2027V97.2028V97.2028V97.2029V97.2029V97.203V97.203V97.2031V97.2031V97.2032V97.2032V97.2033V97.2033V97.2034V97.2034V97.2035V97.2035V97.2036V97.2036V97.2037V97.2037V97.2038V97.2038V97.2039V97.2039V97.204V97.204V97.2041V97.2041V97.2042V97.2042V97.2043V97.2043V97.2044V97.2044V97.2045V97.2045V97.2046V97.2046V97.2047V97.2047V97.2048V97.2048V97.2049V97.2049V97.205V97.205V97.2051V97.2051V97.2052V97.2052V97.2053V97.2053V97.2054V97.2054V97.2055V97.2055V97.2056V97.2056V97.2057V97.2057V97.2058V97.2058V97.2059V97.2059V97.206V97.206V97.2061V97.2061V97.2062V97.2062V97.2063V97.2063V97.2064V97.2064V97.2065V97.2065V97.2066V97.2066V97.2067V97.2067V97.2068V97.2068V97.2069V97.2069V97.207V97.207V97.2071V97.2071V97.2072V97.2072V97.2073V97.2073V97.2074V97.2074V97.2075V97.2075V97.2076V97.2076V97.2077V97.2077V97.2078V97.2078V97.2079V97.2079V97.208V97.208V97.2081V97.2081V97.2082V97.2082V97.2083V97.2083V97.2084V97.2084V97.2085V97.2085V97.2086V97.2086V97.2087V97.2087V97.2087V97.2088V97.2088V97.2089V97.2089V97.209V97.209V97.2091V97.2091V97.2092V97.2092V97.2093V97.2093V97.2094V97.2094V97.2095V97.2095V97.2096V97.2096V97.2097V97.2097V97.2097V97.2098V97.2098V97.2099V97.2099V97.21V97.21V97.2101V97.2101V97.2102V97.2102V97.2103V97.2103V97.2103V97.2104V97.2104V97.2105V97.2105V97.2106V97.2106V97.2107V97.2107V97.2108V97.2108V97.2108V97.2109V97.2109V97.211V97.211V97.2111V97.2111V97.2112V97.2112V97.2112V97.2113V97.2113V97.2114V97.2114V97.2115V97.2115V97.2115V97.2116V97.2116V97.2117V97.2117V97.2118V97.2118V97.2118V97.2119V97.2119V97.212V97.212V97.2121V97.2121V97.2121V97.2122V97.2122V97.2123V97.2123V97.2123V97.2124V97.2124V97.2125V97.2125V97.2126V97.2126V97.2126V97.2127V97.2127V97.2128V97.2128V97.2128V97.2129V97.2129V97.213V97.213V97.213V97.2131V97.2131V97.2132V97.2132V97.2132V97.2133V97.2133V97.2133V97.2134V97.2134V97.2135V97.2135V97.2135V97.2136V97.2136V97.2136V97.2137V97.2137V97.2138V97.2138V97.2138V97.2139V97.2139V97.2139V97.214V97.214V97.214V97.2141V97.2141V97.2142V97.2142V97.2142V97.2143V97.2143V97.2143V97.2144V97.2144V97.2144V97.2145V97.2145V97.2145V97.2146V97.2146V97.2146V97.2147V97.2147V97.2147V97.2148V97.2148V97.2148V97.2149V97.2149V97.2149V97.215V97.215V97.215V97.2151V97.2151V97.2151V97.2151V97.2152V97.2152V97.2152V97.2153V97.2153V97.2153V97.2154V97.2154V97.2154V97.2154V97.2155V97.2155V97.2155V97.2156V97.2156V97.2156V97.2157V97.2158V97.2158V97.2159V97.2159V97.216V97.216V97.2161V97.2161V97.2162V97.2162V97.2163V97.2163V97.2164V97.2164V97.2164V97.2165V97.2165V97.2166V97.2166V97.2166V97.2167V97.2167V97.2168V97.2168V97.2168V97.2169V97.2169V97.2169V97.217V97.217V97.217V97.2171V97.2171V97.2171V97.2172V97.2172V97.2172V97.2173V97.2173V97.2173V97.2174V97.2174V97.2174V97.2175V97.2175V117.878C164.5 118.886 164.11 119.794 163.488 120.447C162.861 121.101 162.009 121.5 161.07 121.5H135.93C134.991 121.5 134.136 121.101 133.513 120.448C132.889 119.79 132.5 118.885 132.5 117.878V92.805C132.5 91.8861 132.856 91.0608 133.426 90.4595C133.993 89.8615 134.771 89.5 135.627 89.5H144.794C145.711 89.5 146.592 89.9302 147.189 90.6824L147.19 90.6843C147.633 91.2366 148.073 91.7929 148.514 92.351L148.514 92.3518C149.294 93.3339 150.456 93.9125 151.692 93.9125H161.373C161.837 93.9125 162.28 94.0203 162.676 94.2134Z" stroke="black" stroke-opacity="0.04"/>
</g>
<path d="M136.855 120.21C137.387 120.7 138.117 121 138.926 121H158.071C158.879 121 159.613 120.7 160.142 120.21C160.67 119.721 161 119.049 161 118.305V98.6955C161 97.9514 160.674 97.2759 160.142 96.7897C159.61 96.3035 158.879 96 158.071 96H138.929C138.121 96 137.387 96.3002 136.858 96.7897C136.326 97.2792 136 97.9514 136 98.6955V118.301C136 119.045 136.326 119.721 136.858 120.207L136.855 120.21Z" fill="url(#paint1_linear_2492_70113)"/>
<path d="M138.926 120.75C138.243 120.75 137.623 120.518 137.151 120.136L137.027 120.022C136.543 119.58 136.25 118.97 136.25 118.301V98.6955C136.25 98.0275 136.542 97.4202 137.028 96.9737L137.028 96.9737L137.028 96.9731C137.51 96.5272 138.183 96.25 138.929 96.25H158.071C158.816 96.25 159.487 96.5297 159.973 96.9742C160.457 97.4169 160.75 98.027 160.75 98.6955V118.305C160.75 118.972 160.455 119.58 159.972 120.027C159.49 120.473 158.817 120.75 158.071 120.75H138.926Z" stroke="black" stroke-opacity="0.05" stroke-width="0.5"/>
<path opacity="0.6" d="M132.375 120.32C132.487 120.475 132.614 120.62 132.76 120.754C133.488 121.442 134.496 121.869 135.609 121.869C135.803 121.869 135.998 121.869 136.188 121.869C144.023 121.866 150.311 121.873 158.194 121.869H161.387C162.5 121.869 163.505 121.442 164.237 120.754C164.375 120.624 164.494 120.482 164.603 120.334C165.062 119.696 165.26 119.29 165.417 118.45C165.469 118.168 165.562 117.508 165.678 116.601C166.126 113.069 166.914 105.44 167 102.385C167 102.268 167 102.152 166.993 102.035C166.847 100.26 165.215 98.8701 163.284 98.8701C161.548 98.8701 159.931 98.8701 158.31 98.8701C156.82 98.8701 155.326 98.8701 153.739 98.8701C152.634 98.8701 151.588 99.3359 150.883 100.137C150.431 100.652 149.979 101.167 149.523 101.679C148.818 102.48 147.768 102.946 146.667 102.946C144.026 102.946 139.553 102.946 136.143 102.946C135.243 102.946 134.418 102.946 133.72 102.946C133.163 102.946 132.633 103.062 132.159 103.27C130.844 103.845 129.985 105.123 130 106.488C130.015 107.85 130.967 114.537 131.371 117.194C131.445 117.691 131.501 118.051 131.52 118.217C131.628 119.057 131.916 119.688 132.379 120.32H132.375Z" fill="url(#paint2_linear_2492_70113)"/>
<g filter="url(#filter2_b_2492_70113)">
<path d="M132.375 120.32C132.487 120.475 132.614 120.62 132.76 120.754C133.488 121.442 134.496 121.869 135.609 121.869C135.803 121.869 135.998 121.869 136.188 121.869C144.023 121.866 150.311 121.873 158.194 121.869H161.387C162.5 121.869 163.505 121.442 164.237 120.754C164.375 120.624 164.494 120.482 164.603 120.334C165.062 119.696 165.26 119.29 165.417 118.45C165.469 118.168 165.562 117.508 165.678 116.601C166.126 113.069 166.914 105.44 167 102.385C167 102.268 167 102.152 166.993 102.035C166.847 100.26 165.215 98.8701 163.284 98.8701C161.548 98.8701 159.931 98.8701 158.31 98.8701C156.82 98.8701 155.326 98.8701 153.739 98.8701C152.634 98.8701 151.588 99.3359 150.883 100.137C150.431 100.652 149.979 101.167 149.523 101.679C148.818 102.48 147.768 102.946 146.667 102.946C144.026 102.946 139.553 102.946 136.143 102.946C135.243 102.946 134.418 102.946 133.72 102.946C133.163 102.946 132.633 103.062 132.159 103.27C130.844 103.845 129.985 105.123 130 106.488C130.015 107.85 130.967 114.537 131.371 117.194C131.445 117.691 131.501 118.051 131.52 118.217C131.628 119.057 131.916 119.688 132.379 120.32H132.375Z" fill="white" fill-opacity="0.1"/>
<path d="M136.163 103.446H136.143H136.163ZM136.163 103.446H136.183M136.163 103.446H136.183M136.183 103.446H136.203M136.183 103.446H136.203M136.203 103.446H136.223M136.203 103.446H136.223M136.223 103.446H136.243M136.223 103.446H136.243M136.243 103.446H136.263M136.243 103.446H136.263M136.263 103.446H136.284M136.263 103.446H136.284M136.284 103.446H136.304M136.284 103.446H136.304M136.304 103.446H136.324M136.304 103.446H136.324M136.324 103.446H136.344M136.324 103.446H136.344M136.344 103.446H136.364M136.344 103.446H136.364M136.364 103.446H136.385M136.364 103.446H136.385M136.385 103.446H136.405M136.385 103.446H136.405M136.405 103.446H136.425M136.405 103.446H136.425M136.425 103.446H136.446M136.425 103.446H136.446M136.446 103.446H136.466M136.446 103.446H136.466M136.466 103.446H136.486M136.466 103.446H136.486M136.486 103.446H136.507M136.486 103.446H136.507M136.507 103.446H136.527M136.507 103.446H136.527M136.527 103.446H136.547M136.527 103.446H136.547M136.547 103.446H136.568M136.547 103.446H136.568M136.568 103.446H136.588M136.568 103.446H136.588M136.588 103.446H136.609M136.588 103.446H136.609M136.609 103.446H136.629M136.609 103.446H136.629M136.629 103.446H136.65M136.629 103.446H136.65M136.65 103.446H136.67M136.65 103.446H136.67M136.67 103.446H136.691M136.67 103.446H136.691M136.691 103.446H136.712M136.691 103.446H136.712M136.712 103.446H136.732M136.712 103.446H136.732M136.732 103.446H136.753M136.732 103.446H136.753M136.753 103.446H136.774M136.753 103.446H136.774M136.774 103.446H136.794M136.774 103.446H136.794M136.794 103.446H136.815M136.794 103.446H136.815M136.815 103.446H136.836M136.815 103.446H136.836M136.836 103.446H136.856M136.836 103.446H136.856M136.856 103.446H136.877M136.856 103.446H136.877M136.877 103.446H136.898M136.877 103.446H136.898M136.898 103.446H136.919M136.898 103.446H136.919M136.919 103.446H136.94M136.919 103.446H136.94M136.94 103.446H136.96M136.94 103.446H136.96M136.96 103.446H136.981M136.96 103.446H136.981M136.981 103.446H137.002M136.981 103.446H137.002M137.002 103.446H137.023M137.002 103.446H137.023M137.023 103.446H137.044M137.023 103.446H137.044M137.044 103.446H137.065M137.044 103.446H137.065M137.065 103.446H137.086M137.065 103.446H137.086M137.086 103.446H137.107M137.086 103.446H137.107M137.107 103.446H137.128M137.107 103.446H137.128M137.128 103.446H137.149M137.128 103.446H137.149M137.149 103.446H137.17M137.149 103.446H137.17M137.17 103.446H137.191M137.17 103.446H137.191M137.191 103.446H137.212M137.191 103.446H137.212M137.212 103.446H137.233M137.212 103.446H137.233M137.233 103.446H137.254M137.233 103.446H137.254M137.254 103.446H137.275M137.254 103.446H137.275M137.275 103.446H137.296M137.275 103.446H137.296M137.296 103.446H137.317M137.296 103.446H137.317M137.317 103.446H137.339M137.317 103.446H137.339M137.339 103.446H137.36M137.339 103.446H137.36M137.36 103.446H137.381M137.36 103.446H137.381M137.381 103.446H137.402M137.381 103.446H137.402M137.402 103.446H137.423M137.402 103.446H137.423M137.423 103.446H137.445M137.423 103.446H137.445M137.445 103.446H137.466M137.445 103.446H137.466M137.466 103.446H137.487M137.466 103.446H137.487M137.487 103.446H137.509M137.487 103.446H137.509M137.509 103.446H137.53M137.509 103.446H137.53M137.53 103.446H137.551M137.53 103.446H137.551M137.551 103.446H137.573M137.551 103.446H137.573M137.573 103.446H137.594M137.573 103.446H137.594M137.594 103.446H137.615M137.594 103.446H137.615M137.615 103.446H137.637M137.615 103.446H137.637M137.637 103.446H137.658M137.637 103.446H137.658M137.658 103.446H137.679M137.658 103.446H137.679M137.679 103.446H137.701M137.679 103.446H137.701M137.701 103.446H137.722M137.701 103.446H137.722M137.722 103.446H137.744M137.722 103.446H137.744M137.744 103.446H137.765M137.744 103.446H137.765M137.765 103.446H137.787M137.765 103.446H137.787M137.787 103.446H137.808M137.787 103.446H137.808M137.808 103.446H137.83M137.808 103.446H137.83M137.83 103.446H137.851M137.83 103.446H137.851M137.851 103.446H137.873M137.851 103.446H137.873M137.873 103.446H137.894M137.873 103.446H137.894M137.894 103.446H137.916M137.894 103.446H137.916M137.916 103.446H137.938M137.916 103.446H137.938M137.938 103.446H137.959M137.938 103.446H137.959M137.959 103.446H137.981M137.959 103.446H137.981M137.981 103.446H138.002M137.981 103.446H138.002M138.002 103.446H138.024M138.002 103.446H138.024M138.024 103.446H138.046M138.024 103.446H138.046M138.046 103.446H138.067M138.046 103.446H138.067M138.067 103.446H138.089M138.067 103.446H138.089M138.089 103.446H138.111M138.089 103.446H138.111M138.111 103.446H138.132M138.111 103.446H138.132M138.132 103.446H138.154M138.132 103.446H138.154M138.154 103.446H138.176M138.154 103.446H138.176M138.176 103.446H138.198M138.176 103.446H138.198M138.198 103.446H138.219M138.198 103.446H138.219M138.219 103.446H138.241M138.219 103.446H138.241M138.241 103.446H138.263M138.241 103.446H138.263M138.263 103.446H138.285M138.263 103.446H138.285M138.285 103.446H138.306M138.285 103.446H138.306M138.306 103.446H138.328M138.306 103.446H138.328M138.328 103.446H138.35M138.328 103.446H138.35M138.35 103.446H138.372M138.35 103.446H138.372M138.372 103.446H138.394M138.372 103.446H138.394M138.394 103.446H138.416M138.394 103.446H138.416M138.416 103.446H138.437M138.416 103.446H138.437M138.437 103.446H138.459M138.437 103.446H138.459M138.459 103.446H138.481M138.459 103.446H138.481M138.481 103.446H138.503M138.481 103.446H138.503M138.503 103.446H138.525M138.503 103.446H138.525M138.525 103.446H138.547M138.525 103.446H138.547M138.547 103.446H138.569M138.547 103.446H138.569M138.569 103.446H138.591M138.569 103.446H138.591M138.591 103.446H138.613M138.591 103.446H138.613M138.613 103.446H138.635M138.613 103.446H138.635M138.635 103.446H138.657M138.635 103.446H138.657M138.657 103.446H138.679M138.657 103.446H138.679M138.679 103.446H138.7M138.679 103.446H138.7M138.7 103.446H138.722M138.7 103.446H138.722M138.722 103.446H138.744M138.722 103.446H138.744M138.744 103.446H138.766M138.744 103.446H138.766M138.766 103.446H138.788M138.766 103.446H138.788M138.788 103.446H138.81M138.788 103.446H138.81M138.81 103.446H138.833M138.81 103.446H138.833M138.833 103.446H138.855M138.833 103.446H138.855M138.855 103.446H138.877M138.855 103.446H138.877M138.877 103.446H138.899M138.877 103.446H138.899M138.899 103.446H138.921M138.899 103.446H138.921M138.921 103.446H138.943M138.921 103.446H138.943M138.943 103.446H138.965M138.943 103.446H138.965M138.965 103.446H138.987M138.965 103.446H138.987M138.987 103.446H139.009M138.987 103.446H139.009M139.009 103.446H139.031M139.009 103.446H139.031M139.031 103.446H139.053M139.031 103.446H139.053M139.053 103.446H139.075M139.053 103.446H139.075M139.075 103.446H139.097M139.075 103.446H139.097M139.097 103.446H139.119M139.097 103.446H139.119M139.119 103.446H139.142M139.119 103.446H139.142M139.142 103.446H139.164M139.142 103.446H139.164M139.164 103.446H139.186M139.164 103.446H139.186M139.186 103.446H139.208M139.186 103.446H139.208M139.208 103.446H139.23M139.208 103.446H139.23M139.23 103.446H139.252M139.23 103.446H139.252M139.252 103.446H139.274M139.252 103.446H139.274M139.274 103.446H139.297M139.274 103.446H139.297M139.297 103.446H139.319M139.297 103.446H139.319M139.319 103.446H139.341M139.319 103.446H139.341M139.341 103.446H139.363M139.341 103.446H139.363M139.363 103.446H139.385M139.363 103.446H139.385M139.385 103.446H139.407M139.385 103.446H139.407M139.407 103.446H139.43M139.407 103.446H139.43M139.43 103.446H139.452M139.43 103.446H139.452M139.452 103.446H139.474M139.452 103.446H139.474M139.474 103.446H139.496M139.474 103.446H139.496M139.496 103.446H139.518M139.496 103.446H139.518M139.518 103.446H139.541M139.518 103.446H139.541M139.541 103.446H139.563M139.541 103.446H139.563M139.563 103.446H139.585M139.563 103.446H139.585M139.585 103.446H139.607M139.585 103.446H139.607M139.607 103.446H139.63M139.607 103.446H139.63M139.63 103.446H139.652M139.63 103.446H139.652M139.652 103.446H139.674M139.652 103.446H139.674M139.674 103.446H139.696M139.674 103.446H139.696M139.696 103.446H139.719M139.696 103.446H139.719M139.719 103.446H139.741M139.719 103.446H139.741M139.741 103.446H139.763M139.741 103.446H139.763M139.763 103.446H139.785M139.763 103.446H139.785M139.785 103.446H139.807M139.785 103.446H139.807M139.807 103.446H139.83M139.807 103.446H139.83M139.83 103.446H139.852M139.83 103.446H139.852M139.852 103.446H139.874M139.852 103.446H139.874M139.874 103.446H139.896M139.874 103.446H139.896M139.896 103.446H139.919M139.896 103.446H139.919M139.919 103.446H139.941M139.919 103.446H139.941M139.941 103.446H139.963M139.941 103.446H139.963M139.963 103.446H139.986M139.963 103.446H139.986M139.986 103.446H140.008M139.986 103.446H140.008M140.008 103.446H140.03M140.008 103.446H140.03M140.03 103.446H140.052M140.03 103.446H140.052M140.052 103.446H140.075M140.052 103.446H140.075M140.075 103.446H140.097M140.075 103.446H140.097M140.097 103.446H140.119M140.097 103.446H140.119M140.119 103.446H140.141M140.119 103.446H140.141M140.141 103.446H140.164M140.141 103.446H140.164M140.164 103.446H140.186M140.164 103.446H140.186M140.186 103.446H140.208M140.186 103.446H140.208M140.208 103.446H140.23M140.208 103.446H140.23M140.23 103.446H140.253M140.23 103.446H140.253M140.253 103.446H140.275M140.253 103.446H140.275M140.275 103.446H140.297M140.275 103.446H140.297M140.297 103.446H140.32M140.297 103.446H140.32M140.32 103.446H140.342M140.32 103.446H140.342M140.342 103.446H140.364M140.342 103.446H140.364M140.364 103.446H140.386M140.364 103.446H140.386M140.386 103.446H140.409M140.386 103.446H140.409M140.409 103.446H140.431M140.409 103.446H140.431M140.431 103.446H140.453M140.431 103.446H140.453M140.453 103.446H140.475M140.453 103.446H140.475M140.475 103.446H140.498M140.475 103.446H140.498M140.498 103.446H140.52M140.498 103.446H140.52M140.52 103.446H140.542M140.52 103.446H140.542M140.542 103.446H140.564M140.542 103.446H140.564M140.564 103.446H140.587M140.564 103.446H140.587M140.587 103.446H140.609M140.587 103.446H140.609M140.609 103.446H140.631M140.609 103.446H140.631M140.631 103.446H140.653M140.631 103.446H140.653M140.653 103.446H140.676M140.653 103.446H140.676M140.676 103.446H140.698M140.676 103.446H140.698M140.698 103.446H140.72M140.698 103.446H140.72M140.72 103.446H140.742M140.72 103.446H140.742M140.742 103.446H140.764M140.742 103.446H140.764M140.764 103.446H140.787M140.764 103.446H140.787M140.787 103.446H140.809M140.787 103.446H140.809M140.809 103.446H140.831M140.809 103.446H140.831M140.831 103.446H140.853M140.831 103.446H140.853M140.853 103.446H140.876M140.853 103.446H140.876M140.876 103.446H140.898M140.876 103.446H140.898M140.898 103.446H140.92M140.898 103.446H140.92M140.92 103.446H140.942M140.92 103.446H140.942M140.942 103.446H140.964M140.942 103.446H140.964M140.964 103.446H140.987M140.964 103.446H140.987M140.987 103.446H141.009M140.987 103.446H141.009M141.009 103.446H141.031M141.009 103.446H141.031M141.031 103.446H141.053M141.031 103.446H141.053M141.053 103.446H141.075M141.053 103.446H141.075M141.075 103.446H141.097M141.075 103.446H141.097M141.097 103.446H141.12M141.097 103.446H141.12M141.12 103.446H141.142M141.12 103.446H141.142M141.142 103.446H141.164M141.142 103.446H141.164M141.164 103.446H141.186M141.164 103.446H141.186M141.186 103.446H141.208M141.186 103.446H141.208M141.208 103.446H141.23M141.208 103.446H141.23M141.23 103.446H141.252M141.23 103.446H141.252M141.252 103.446H141.274M141.252 103.446H141.274M141.274 103.446H141.297M141.274 103.446H141.297M141.297 103.446H141.319M141.297 103.446H141.319M141.319 103.446H141.341M141.319 103.446H141.341M141.341 103.446H141.363M141.341 103.446H141.363M141.363 103.446H141.385M141.363 103.446H141.385M141.385 103.446H141.407M141.385 103.446H141.407M141.407 103.446H141.429M141.407 103.446H141.429M141.429 103.446H141.451M141.429 103.446H141.451M141.451 103.446H141.473M141.451 103.446H141.473M141.473 103.446H141.495M141.473 103.446H141.495M141.495 103.446H141.517M141.495 103.446H141.517M141.517 103.446H141.539M141.517 103.446H141.539M141.539 103.446H141.561M141.539 103.446H141.561M141.561 103.446H141.583M141.561 103.446H141.583M141.583 103.446H141.605M141.583 103.446H141.605M141.605 103.446H141.627M141.605 103.446H141.627M141.627 103.446H141.649M141.627 103.446H141.649M141.649 103.446H141.671M141.649 103.446H141.671M141.671 103.446H141.693M141.671 103.446H141.693M141.693 103.446H141.715M141.693 103.446H141.715M141.715 103.446H141.737M141.715 103.446H141.737M141.737 103.446H141.759M141.737 103.446H141.759M141.759 103.446H141.781M141.759 103.446H141.781M141.781 103.446H141.803M141.781 103.446H141.803M141.803 103.446H141.825M141.803 103.446H141.825M141.825 103.446H141.847M141.825 103.446H141.847M141.847 103.446H141.869M141.847 103.446H141.869M141.869 103.446H141.891M141.869 103.446H141.891M141.891 103.446H141.913M141.891 103.446H141.913M141.913 103.446H141.934M141.913 103.446H141.934M141.934 103.446H141.956M141.934 103.446H141.956M141.956 103.446H141.978M141.956 103.446H141.978M141.978 103.446H142M141.978 103.446H142M142 103.446H142.022M142 103.446H142.022M142.022 103.446H142.044M142.022 103.446H142.044M142.044 103.446H142.065M142.044 103.446H142.065M142.065 103.446H142.087M142.065 103.446H142.087M142.087 103.446H142.109M142.087 103.446H142.109M142.109 103.446H142.131M142.109 103.446H142.131M142.131 103.446H142.153M142.131 103.446H142.153M142.153 103.446H142.174M142.153 103.446H142.174M142.174 103.446H142.196M142.174 103.446H142.196M142.196 103.446H142.218M142.196 103.446H142.218M142.218 103.446H142.239M142.218 103.446H142.239M142.239 103.446H142.261M142.239 103.446H142.261M142.261 103.446H142.283M142.261 103.446H142.283M142.283 103.446H142.305M142.283 103.446H142.305M142.305 103.446H142.326M142.305 103.446H142.326M142.326 103.446H142.348M142.326 103.446H142.348M142.348 103.446H142.369M142.348 103.446H142.369M142.369 103.446H142.391M142.369 103.446H142.391M142.391 103.446H142.413M142.391 103.446H142.413M142.413 103.446H142.434M142.413 103.446H142.434M142.434 103.446H142.456M142.434 103.446H142.456M142.456 103.446H142.477M142.456 103.446H142.477M142.477 103.446H142.499M142.477 103.446H142.499M142.499 103.446H142.521M142.499 103.446H142.521M142.521 103.446H142.542M142.521 103.446H142.542M142.542 103.446H142.564M142.542 103.446H142.564M142.564 103.446H142.585M142.564 103.446H142.585M142.585 103.446H142.607M142.585 103.446H142.607M142.607 103.446H142.628M142.607 103.446H142.628M142.628 103.446H142.65M142.628 103.446H142.65M142.65 103.446H142.671M142.65 103.446H142.671M142.671 103.446H142.692M142.671 103.446H142.692M142.692 103.446H142.714M142.692 103.446H142.714M142.714 103.446H142.735M142.714 103.446H142.735M142.735 103.446H142.757M142.735 103.446H142.757M142.757 103.446H142.778M142.757 103.446H142.778M142.778 103.446H142.799M142.778 103.446H142.799M142.799 103.446H142.821M142.799 103.446H142.821M142.821 103.446H142.842M142.821 103.446H142.842M142.842 103.446H142.863M142.842 103.446H142.863M142.863 103.446H142.885M142.863 103.446H142.885M142.885 103.446H142.906M142.885 103.446H142.906M142.906 103.446H142.927M142.906 103.446H142.927M142.927 103.446H142.948M142.927 103.446H142.948M142.948 103.446H142.97M142.948 103.446H142.97M142.97 103.446H142.991M142.97 103.446H142.991M142.991 103.446H143.012M142.991 103.446H143.012M143.012 103.446H143.033M143.012 103.446H143.033M143.033 103.446H143.054M143.033 103.446H143.054M143.054 103.446H143.076M143.054 103.446H143.076M143.076 103.446H143.097M143.076 103.446H143.097M143.097 103.446H143.118M143.097 103.446H143.118M143.118 103.446H143.139M143.118 103.446H143.139M143.139 103.446H143.16M143.139 103.446H143.16M143.16 103.446H143.181M143.16 103.446H143.181M143.181 103.446H143.202M143.181 103.446H143.202M143.202 103.446H143.223M143.202 103.446H143.223M143.223 103.446H143.244M143.223 103.446H143.244M143.244 103.446H143.265M143.244 103.446H143.265M143.265 103.446H143.286M143.265 103.446H143.286M143.286 103.446H143.307M143.286 103.446H143.307M143.307 103.446H143.328M143.307 103.446H143.328M143.328 103.446H143.349M143.328 103.446H143.349M143.349 103.446H143.37M143.349 103.446H143.37M143.37 103.446H143.391M143.37 103.446H143.391M143.391 103.446H143.412M143.391 103.446H143.412M143.412 103.446H143.432M143.412 103.446H143.432M143.432 103.446H143.453M143.432 103.446H143.453M143.453 103.446H143.474M143.453 103.446H143.474M143.474 103.446H143.495M143.474 103.446H143.495M143.495 103.446H143.516M143.495 103.446H143.516M143.516 103.446H143.536M143.516 103.446H143.536M143.536 103.446H143.557M143.536 103.446H143.557M143.557 103.446H143.578M143.557 103.446H143.578M143.578 103.446H143.598M143.578 103.446H143.598M143.598 103.446H143.619M143.598 103.446H143.619M143.619 103.446H143.64M143.619 103.446H143.64M143.64 103.446H143.66M143.64 103.446H143.66M143.66 103.446H143.681M143.66 103.446H143.681M143.681 103.446H143.702M143.681 103.446H143.702M143.702 103.446H143.722M143.702 103.446H143.722M143.722 103.446H143.743M143.722 103.446H143.743M143.743 103.446H143.763M143.743 103.446H143.763M143.763 103.446H143.784M143.763 103.446H143.784M143.784 103.446H143.804M143.784 103.446H143.804M143.804 103.446H143.825M143.804 103.446H143.825M143.825 103.446H143.845M143.825 103.446H143.845M143.845 103.446H143.865M143.845 103.446H143.865M143.865 103.446H143.886M143.865 103.446H143.886M143.886 103.446H143.906M143.886 103.446H143.906M143.906 103.446H143.926M143.906 103.446H143.926M143.926 103.446H143.947M143.926 103.446H143.947M143.947 103.446H143.967M143.947 103.446H143.967M143.967 103.446H143.987M143.967 103.446H143.987M143.987 103.446H144.008M143.987 103.446H144.008M144.008 103.446H144.028M144.008 103.446H144.028M144.028 103.446H144.048M144.028 103.446H144.048M144.048 103.446H144.068M144.048 103.446H144.068M144.068 103.446H144.088M144.068 103.446H144.088M144.088 103.446H144.109M144.088 103.446H144.109M144.109 103.446H144.129M144.109 103.446H144.129M144.129 103.446H144.149M144.129 103.446H144.149M144.149 103.446H144.169M144.149 103.446H144.169M144.169 103.446H144.189M144.169 103.446H144.189M144.189 103.446H144.209M144.189 103.446H144.209M144.209 103.446H144.229M144.209 103.446H144.229M144.229 103.446H144.249M144.229 103.446H144.249M144.249 103.446H144.269M144.249 103.446H144.269M144.269 103.446H144.289M144.269 103.446H144.289M144.289 103.446H144.309M144.289 103.446H144.309M144.309 103.446H144.328M144.309 103.446H144.328M144.328 103.446H144.348M144.328 103.446H144.348M144.348 103.446H144.368M144.348 103.446H144.368M144.368 103.446H144.388M144.368 103.446H144.388M144.388 103.446H144.408M144.388 103.446H144.408M144.408 103.446H144.427M144.408 103.446H144.427M144.427 103.446H144.447M144.427 103.446H144.447M144.447 103.446H144.467M144.447 103.446H144.467M144.467 103.446H144.486H144.467Z" stroke="black" stroke-opacity="0.04"/>
</g>
<path d="M108.349 148.177V156.322H100.092V148.177H108.349ZM102.43 150.051V154.448H105.992V150.051H102.43ZM113.377 146.841V158.846H111.002V146.841H113.377ZM113.822 161.425V163.336H102.059V157.732H104.452V161.425H113.822ZM129.965 146.841V159.588H127.59V158.252H124.361V156.638H127.59V146.841H129.965ZM130.336 161.518V163.41H117.756V158.363H120.112V156.118C118.6 156.183 117.162 156.192 115.882 156.192L115.604 154.318C118.702 154.3 122.877 154.263 126.439 153.817L126.569 155.506C125.233 155.729 123.851 155.886 122.487 155.988V159.198H120.112V161.518H130.336ZM121.096 147.416C123.545 147.397 125.308 148.641 125.308 150.44C125.308 152.24 123.545 153.409 121.096 153.409C118.591 153.409 116.847 152.24 116.847 150.44C116.847 148.641 118.572 147.397 121.096 147.416ZM121.096 149.142C119.89 149.142 119.073 149.605 119.092 150.44C119.073 151.257 119.89 151.702 121.096 151.702C122.228 151.702 123.044 151.257 123.062 150.44C123.044 149.605 122.228 149.142 121.096 149.142ZM146.219 146.841V159.161H143.844V146.841H146.219ZM146.664 161.518V163.41H134.9V157.974H137.294V161.518H146.664ZM138.556 149.401C138.537 151.628 139.725 153.817 142.508 154.708L141.302 156.563C139.4 155.933 138.083 154.671 137.331 153.057C136.58 154.792 135.225 156.183 133.249 156.86L132.024 154.986C134.863 154.04 136.088 151.684 136.088 149.401V147.769H138.556V149.401ZM158.131 148.585V150.44H154.717C154.735 152.175 156.016 153.938 158.725 154.634L157.63 156.452C155.709 155.97 154.355 154.903 153.585 153.521C152.852 155.098 151.498 156.332 149.503 156.897L148.39 155.061C151.099 154.291 152.342 152.361 152.36 150.44H148.965V148.585H152.36V146.748H154.754V148.585H158.131ZM162.732 146.822V157.027H160.376V153.242H157.63V151.35H160.376V146.822H162.732ZM156.962 157.306C160.562 157.324 162.77 158.456 162.788 160.479C162.77 162.52 160.562 163.707 156.962 163.707C153.381 163.707 151.154 162.52 151.154 160.479C151.154 158.456 153.381 157.324 156.962 157.306ZM156.962 159.124C154.717 159.124 153.511 159.569 153.511 160.479C153.511 161.406 154.717 161.907 156.962 161.907C159.244 161.907 160.432 161.406 160.432 160.479C160.432 159.569 159.244 159.124 156.962 159.124ZM179.153 146.841V159.699H176.797V156.508H174.515V154.634H176.797V152.945H174.515V151.034H176.797V146.841H179.153ZM174.348 148.604V150.478H164.959V148.604H168.596V146.804H170.952V148.604H174.348ZM169.746 151.071C172.065 151.071 173.735 152.444 173.754 154.393C173.735 156.341 172.065 157.695 169.746 157.695C167.445 157.695 165.775 156.341 165.794 154.393C165.775 152.444 167.445 151.071 169.746 151.071ZM169.746 152.908C168.707 152.927 167.983 153.446 168.002 154.393C167.983 155.357 168.707 155.896 169.746 155.896C170.767 155.896 171.509 155.357 171.527 154.393C171.509 153.446 170.767 152.927 169.746 152.908ZM179.506 161.518V163.41H167.909V158.604H170.303V161.518H179.506ZM194.851 146.841V151.628H197.003V153.576H194.851V158.233H192.476V146.841H194.851ZM189.154 158.382C192.81 158.363 194.906 159.328 194.906 161.054C194.906 162.798 192.81 163.726 189.154 163.726C185.48 163.726 183.384 162.798 183.384 161.054C183.384 159.328 185.48 158.363 189.154 158.382ZM189.154 160.089C186.816 160.089 185.74 160.404 185.759 161.054C185.74 161.685 186.816 162 189.154 162C191.455 162 192.513 161.685 192.531 161.054C192.513 160.404 191.455 160.089 189.154 160.089ZM181.157 155.988C182.391 155.988 183.792 155.979 185.258 155.933V154.949C183.412 154.699 182.271 153.845 182.289 152.593C182.271 151.09 183.903 150.181 186.427 150.181C188.932 150.181 190.546 151.09 190.564 152.593C190.546 153.845 189.433 154.699 187.614 154.949V155.858C188.997 155.784 190.388 155.673 191.696 155.506L191.863 157.102C188.282 157.732 184.386 157.77 181.398 157.77L181.157 155.988ZM191.27 148.028V149.772H181.603V148.028H185.258V146.692H187.614V148.028H191.27ZM186.427 151.721C185.221 151.721 184.534 152.036 184.553 152.593C184.534 153.187 185.221 153.483 186.427 153.483C187.614 153.483 188.282 153.187 188.301 152.593C188.282 152.036 187.614 151.721 186.427 151.721Z" fill="#1E2124"/>
<path d="M143.391 199L149.789 185.031V184.914H142.336V182.031H153.445V184.938L147 199H143.391Z" fill="#256EF4"/>
<path d="M141 202.609H154.828V204.812H141V202.609Z" fill="#256EF4"/>
<path d="M331.44 85H316.56C314.041 85 312 86.9991 312 89.4652V120.535C312 123.001 314.041 125 316.56 125H331.44C333.959 125 336 123.001 336 120.535V89.4652C336 86.9991 333.959 85 331.44 85Z" fill="url(#paint3_linear_2492_70113)"/>
<path d="M322.317 120H325.683C325.858 120 326 120.255 326 120.569V121.323C326 121.697 325.831 122 325.623 122H322.377C322.169 122 322 121.697 322 121.323V120.569C322 120.255 322.142 120 322.317 120H322.317Z" fill="#8EA7DA"/>
<g filter="url(#filter3_b_2492_70113)">
<path d="M331.44 85H316.56C314.041 85 312 86.9991 312 89.4652V120.535C312 123.001 314.041 125 316.56 125H331.44C333.959 125 336 123.001 336 120.535V89.4652C336 86.9991 333.959 85 331.44 85Z" fill="white" fill-opacity="0.1"/>
</g>
<path d="M324 98.9126V98.2177C324 96.8706 324 96.197 324.268 95.6283C324.433 95.2775 324.67 94.9598 324.965 94.6928C325.443 94.2598 326.121 94.0233 327.477 93.5503L330.262 92.5792C331.369 92.1931 331.922 92 332.5 92C333.078 92 333.631 92.1931 334.738 92.5792L337.523 93.5503C338.879 94.0233 339.557 94.2598 340.035 94.6928C340.33 94.9598 340.567 95.2775 340.732 95.6283C341 96.197 341 96.8706 341 98.2177V98.9126C341 101.076 341 102.158 340.72 103.148C340.374 104.37 339.717 105.498 338.806 106.435C338.068 107.195 337.094 107.786 335.147 108.969C334.275 109.498 333.839 109.763 333.375 109.886C332.803 110.038 332.197 110.038 331.625 109.886C331.161 109.763 330.725 109.498 329.853 108.969C327.906 107.786 326.932 107.195 326.194 106.435C325.283 105.498 324.626 104.37 324.28 103.148C324 102.158 324 101.076 324 98.9126Z" fill="url(#paint4_linear_2492_70113)"/>
<g filter="url(#filter4_b_2492_70113)">
<path d="M324 98.9126V98.2177C324 96.8706 324 96.197 324.268 95.6283C324.433 95.2775 324.67 94.9598 324.965 94.6928C325.443 94.2598 326.121 94.0233 327.477 93.5503L330.262 92.5792C331.369 92.1931 331.922 92 332.5 92C333.078 92 333.631 92.1931 334.738 92.5792L337.523 93.5503C338.879 94.0233 339.557 94.2598 340.035 94.6928C340.33 94.9598 340.567 95.2775 340.732 95.6283C341 96.197 341 96.8706 341 98.2177V98.9126C341 101.076 341 102.158 340.72 103.148C340.374 104.37 339.717 105.498 338.806 106.435C338.068 107.195 337.094 107.786 335.147 108.969C334.275 109.498 333.839 109.763 333.375 109.886C332.803 110.038 332.197 110.038 331.625 109.886C331.161 109.763 330.725 109.498 329.853 108.969C327.906 107.786 326.932 107.195 326.194 106.435C325.283 105.498 324.626 104.37 324.28 103.148C324 102.158 324 101.076 324 98.9126Z" fill="white" fill-opacity="0.1"/>
<path d="M339.7 95.0635L340.035 94.6928L339.7 95.0635C339.947 95.2874 340.144 95.5519 340.28 95.8413C340.379 96.0519 340.437 96.2975 340.468 96.672C340.5 97.0547 340.5 97.5361 340.5 98.2177V98.9126C340.5 101.105 340.496 102.104 340.239 103.011C339.916 104.152 339.303 105.207 338.447 106.087C337.765 106.79 336.858 107.345 334.887 108.541C333.989 109.087 333.624 109.303 333.247 109.403C332.759 109.532 332.241 109.532 331.753 109.403C331.376 109.303 331.011 109.087 330.113 108.541C328.142 107.345 327.235 106.79 326.553 106.087C325.697 105.207 325.084 104.152 324.761 103.011C324.504 102.104 324.5 101.105 324.5 98.9126V98.2177C324.5 97.5361 324.5 97.0547 324.532 96.672C324.563 96.2975 324.621 96.0519 324.72 95.8413C324.856 95.5519 325.053 95.2874 325.3 95.0635C325.483 94.898 325.718 94.7566 326.09 94.5955C326.469 94.432 326.957 94.2613 327.642 94.0224L330.426 93.0513C331.565 92.6541 332.026 92.5 332.5 92.5C332.974 92.5 333.435 92.6541 334.574 93.0513L337.358 94.0224C338.043 94.2613 338.531 94.432 338.91 94.5955C339.282 94.7566 339.517 94.898 339.7 95.0635Z" stroke="black" stroke-opacity="0.05"/>
</g>
<path d="M297.68 146.841V159.161H295.324V153.112H292.559V151.201H295.324V146.841H297.68ZM298.088 161.518V163.41H286.473V158.085H288.848V161.518H298.088ZM289.832 150.144C289.832 152.092 291.019 154.188 293.709 155.061L292.541 156.935C290.667 156.332 289.386 155.098 288.644 153.558C287.902 155.265 286.557 156.619 284.562 157.287L283.356 155.357C286.139 154.485 287.401 152.277 287.419 150.125V149.865H284.024V147.973H293.19V149.865H289.832V150.144ZM306.104 151.424C306.085 154.003 307.458 156.972 310.242 158.252L308.924 160.107C307.041 159.245 305.696 157.519 304.954 155.487C304.193 157.723 302.811 159.616 300.853 160.534L299.48 158.66C302.3 157.343 303.71 154.207 303.729 151.424V150.385H300.148V148.455H309.5V150.385H306.104V151.424ZM313.192 146.822V153.261H315.678V155.246H313.192V163.707H310.817V146.822H313.192ZM331.691 154.597V156.508H316.291V154.597H331.691ZM323.972 157.454C327.627 157.454 329.835 158.604 329.854 160.59C329.835 162.594 327.627 163.707 323.972 163.707C320.28 163.707 318.053 162.594 318.053 160.59C318.053 158.604 320.28 157.454 323.972 157.454ZM323.972 159.291C321.634 159.291 320.447 159.699 320.465 160.59C320.447 161.462 321.634 161.87 323.972 161.87C326.254 161.87 327.46 161.462 327.479 160.59C327.46 159.699 326.254 159.291 323.972 159.291ZM330.299 147.602V149.494H325.698C326.078 150.672 327.794 151.841 331.042 152.129L330.207 153.984C327.024 153.678 324.872 152.472 323.972 150.83C323.082 152.472 320.966 153.678 317.756 153.984L316.977 152.129C320.15 151.841 321.885 150.682 322.284 149.494H317.701V147.602H330.299ZM346.943 146.822V156.712H344.586V154.56H341.432V155.784H333.417V148.065H341.432V149.29H344.586V146.822H346.943ZM335.773 149.939V153.91H339.113V149.939H335.773ZM341.172 157.157C344.772 157.157 346.98 158.363 346.999 160.441C346.98 162.52 344.772 163.707 341.172 163.707C337.573 163.707 335.365 162.52 335.365 160.441C335.365 158.363 337.573 157.157 341.172 157.157ZM341.172 158.957C338.927 158.957 337.721 159.439 337.721 160.441C337.721 161.406 338.927 161.907 341.172 161.907C343.417 161.907 344.642 161.406 344.642 160.441C344.642 159.439 343.417 158.957 341.172 158.957ZM341.432 152.648H344.586V151.164H341.432V152.648ZM355.515 150.645C355.515 153.817 356.795 156.897 359.616 158.122L358.168 160.015C356.294 159.096 355.042 157.417 354.346 155.339C353.604 157.547 352.305 159.356 350.375 160.312L348.891 158.382C351.786 157.083 353.103 153.817 353.122 150.645V148.121H355.515V150.645ZM363.382 146.822V163.744H361.044V154.04H357.723V152.129H361.044V146.822H363.382Z" fill="#1E2124"/>
<path d="M318.406 199V196.516L323.867 190.844C325.273 189.344 326.211 188.453 326.234 187.047C326.234 185.477 325.156 184.609 323.797 184.609C322.414 184.609 321.43 185.547 321.43 187.234H318.289C318.266 183.953 320.516 181.797 323.867 181.797C327.148 181.797 329.469 183.836 329.469 186.812C329.469 188.711 328.672 190.258 325.461 193.492L323.07 196V196.094H329.68V199H318.406Z" fill="#256EF4"/>
<path d="M317 202.609H330.828V204.812H317V202.609Z" fill="#256EF4"/>
<path d="M494.44 120.966C494.054 121.17 493.664 121.379 493.278 121.583C492.181 122.166 491.004 122.096 490.056 121.595C489.188 121.139 488.515 120.325 488.267 119.33C488.152 118.874 488.126 118.381 488.213 117.864C488.385 116.857 488.554 115.853 488.726 114.846C488.879 113.94 489.035 113.033 489.188 112.13C489.23 111.871 489.242 111.617 489.23 111.362C489.188 110.482 488.821 109.641 488.183 109.012C487.636 108.472 487.086 107.936 486.539 107.396C485.71 106.581 484.884 105.767 484.055 104.953C483.176 104.089 482.881 102.958 483.042 101.905C483.164 101.102 483.554 100.342 484.166 99.7906C484.647 99.3546 485.263 99.0459 485.989 98.9379C487.025 98.7874 488.061 98.633 489.096 98.4826C489.964 98.3552 490.828 98.2279 491.696 98.1006C492.456 97.9887 493.144 97.626 493.672 97.0897C493.932 96.8234 494.157 96.5186 494.325 96.1752C494.849 95.1064 495.369 94.0415 495.893 92.9727C496.221 92.3013 496.55 91.6299 496.879 90.9586C497.548 89.5734 498.897 88.929 500.208 89.0062C501.382 89.0756 502.528 89.72 503.132 90.9586L504.355 93.4588C504.799 94.3656 505.242 95.2685 505.682 96.1752C505.9 96.6189 506.205 96.997 506.569 97.3096C507.058 97.7263 507.658 98.008 508.312 98.1044C509.286 98.2472 510.265 98.39 511.239 98.5327C512.164 98.6678 513.089 98.8028 514.014 98.9417C515.001 99.0845 515.777 99.6015 516.293 100.3C516.656 100.794 516.889 101.376 516.969 101.982C517.099 102.982 516.824 104.046 516.029 104.876C515.222 105.721 514.362 106.52 513.529 107.338C512.96 107.897 512.39 108.457 511.82 109.016C511.239 109.591 510.884 110.343 510.796 111.138C510.758 111.466 510.762 111.802 510.819 112.138C511.144 114.048 511.469 115.961 511.794 117.871C511.855 118.238 511.859 118.593 511.817 118.932C511.69 119.932 511.144 120.781 510.383 121.332C509.378 122.062 507.998 122.262 506.725 121.587C506.507 121.471 506.289 121.355 506.072 121.24C504.967 120.653 503.862 120.067 502.758 119.48C501.94 119.044 501.152 118.543 500.2 118.485C499.574 118.446 498.939 118.574 498.37 118.878C497.058 119.577 495.744 120.271 494.432 120.97" fill="url(#paint5_linear_2492_70113)"/>
<g filter="url(#filter5_b_2492_70113)">
<mask id="path-26-inside-1_2492_70113" fill="white">
<path d="M494.44 120.966C494.054 121.17 493.664 121.379 493.278 121.583C492.181 122.166 491.004 122.096 490.056 121.595C489.188 121.139 488.515 120.325 488.267 119.33C488.152 118.874 488.126 118.381 488.213 117.864C488.385 116.857 488.554 115.853 488.726 114.846C488.879 113.94 489.035 113.033 489.188 112.13C489.23 111.871 489.242 111.617 489.23 111.362C489.188 110.482 488.821 109.641 488.183 109.012C487.636 108.472 487.086 107.936 486.539 107.396C485.71 106.581 484.884 105.767 484.055 104.953C483.176 104.089 482.881 102.958 483.042 101.905C483.164 101.102 483.554 100.342 484.166 99.7906C484.647 99.3546 485.263 99.0459 485.989 98.9379C487.025 98.7874 488.061 98.633 489.096 98.4826C489.964 98.3552 490.828 98.2279 491.696 98.1006C492.456 97.9887 493.144 97.626 493.672 97.0897C493.932 96.8234 494.157 96.5186 494.325 96.1752C494.849 95.1064 495.369 94.0415 495.893 92.9727C496.221 92.3013 496.55 91.6299 496.879 90.9586C497.548 89.5734 498.897 88.929 500.208 89.0062C501.382 89.0756 502.528 89.72 503.132 90.9586L504.355 93.4588C504.799 94.3656 505.242 95.2685 505.682 96.1752C505.9 96.6189 506.205 96.997 506.569 97.3096C507.058 97.7263 507.658 98.008 508.312 98.1044C509.286 98.2472 510.265 98.39 511.239 98.5327C512.164 98.6678 513.089 98.8028 514.014 98.9417C515.001 99.0845 515.777 99.6015 516.293 100.3C516.656 100.794 516.889 101.376 516.969 101.982C517.099 102.982 516.824 104.046 516.029 104.876C515.222 105.721 514.362 106.52 513.529 107.338C512.96 107.897 512.39 108.457 511.82 109.016C511.239 109.591 510.884 110.343 510.796 111.138C510.758 111.466 510.762 111.802 510.819 112.138C511.144 114.048 511.469 115.961 511.794 117.871C511.855 118.238 511.859 118.593 511.817 118.932C511.69 119.932 511.144 120.781 510.383 121.332C509.378 122.062 507.998 122.262 506.725 121.587C506.507 121.471 506.289 121.355 506.072 121.24C504.967 120.653 503.862 120.067 502.758 119.48C501.94 119.044 501.152 118.543 500.2 118.485C499.574 118.446 498.939 118.574 498.37 118.878C497.058 119.577 495.744 120.271 494.432 120.97"/>
</mask>
<path d="M494.44 120.966C494.054 121.17 493.664 121.379 493.278 121.583C492.181 122.166 491.004 122.096 490.056 121.595C489.188 121.139 488.515 120.325 488.267 119.33C488.152 118.874 488.126 118.381 488.213 117.864C488.385 116.857 488.554 115.853 488.726 114.846C488.879 113.94 489.035 113.033 489.188 112.13C489.23 111.871 489.242 111.617 489.23 111.362C489.188 110.482 488.821 109.641 488.183 109.012C487.636 108.472 487.086 107.936 486.539 107.396C485.71 106.581 484.884 105.767 484.055 104.953C483.176 104.089 482.881 102.958 483.042 101.905C483.164 101.102 483.554 100.342 484.166 99.7906C484.647 99.3546 485.263 99.0459 485.989 98.9379C487.025 98.7874 488.061 98.633 489.096 98.4826C489.964 98.3552 490.828 98.2279 491.696 98.1006C492.456 97.9887 493.144 97.626 493.672 97.0897C493.932 96.8234 494.157 96.5186 494.325 96.1752C494.849 95.1064 495.369 94.0415 495.893 92.9727C496.221 92.3013 496.55 91.6299 496.879 90.9586C497.548 89.5734 498.897 88.929 500.208 89.0062C501.382 89.0756 502.528 89.72 503.132 90.9586L504.355 93.4588C504.799 94.3656 505.242 95.2685 505.682 96.1752C505.9 96.6189 506.205 96.997 506.569 97.3096C507.058 97.7263 507.658 98.008 508.312 98.1044C509.286 98.2472 510.265 98.39 511.239 98.5327C512.164 98.6678 513.089 98.8028 514.014 98.9417C515.001 99.0845 515.777 99.6015 516.293 100.3C516.656 100.794 516.889 101.376 516.969 101.982C517.099 102.982 516.824 104.046 516.029 104.876C515.222 105.721 514.362 106.52 513.529 107.338C512.96 107.897 512.39 108.457 511.82 109.016C511.239 109.591 510.884 110.343 510.796 111.138C510.758 111.466 510.762 111.802 510.819 112.138C511.144 114.048 511.469 115.961 511.794 117.871C511.855 118.238 511.859 118.593 511.817 118.932C511.69 119.932 511.144 120.781 510.383 121.332C509.378 122.062 507.998 122.262 506.725 121.587C506.507 121.471 506.289 121.355 506.072 121.24C504.967 120.653 503.862 120.067 502.758 119.48C501.94 119.044 501.152 118.543 500.2 118.485C499.574 118.446 498.939 118.574 498.37 118.878C497.058 119.577 495.744 120.271 494.432 120.97" fill="white" fill-opacity="0.1"/>
<path d="M493.278 121.583L492.81 120.699L492.809 120.7L493.278 121.583ZM490.056 121.595L490.524 120.711L490.521 120.709L490.056 121.595ZM488.267 119.33L489.237 119.088L489.237 119.086L488.267 119.33ZM488.213 117.864L487.228 117.695L487.228 117.696L488.213 117.864ZM488.726 114.846L489.711 115.015L489.712 115.013L488.726 114.846ZM489.188 112.13L490.174 112.297L490.175 112.29L489.188 112.13ZM489.23 111.362L490.229 111.317L490.229 111.314L489.23 111.362ZM488.183 109.012L487.48 109.724L487.481 109.725L488.183 109.012ZM486.539 107.396L487.242 106.684L487.24 106.682L486.539 107.396ZM484.055 104.953L483.354 105.666L483.354 105.667L484.055 104.953ZM483.042 101.905L482.053 101.754L483.042 101.905ZM484.166 99.7906L484.835 100.533L484.837 100.532L484.166 99.7906ZM485.989 98.9379L485.845 97.9482L485.842 97.9487L485.989 98.9379ZM489.096 98.4826L489.24 99.4722L489.242 99.472L489.096 98.4826ZM491.696 98.1006L491.841 99.09L491.841 99.0899L491.696 98.1006ZM493.672 97.0897L494.385 97.7909L494.387 97.7882L493.672 97.0897ZM494.325 96.1752L493.427 95.7352L493.427 95.7354L494.325 96.1752ZM495.893 92.9727L496.791 93.4127L496.791 93.4124L495.893 92.9727ZM496.879 90.9586L497.777 91.3983L497.779 91.3934L496.879 90.9586ZM500.208 89.0062L500.267 88.0079L500.267 88.0079L500.208 89.0062ZM503.132 90.9586L502.233 91.3968L502.234 91.398L503.132 90.9586ZM504.355 93.4588L505.254 93.0196L505.254 93.0194L504.355 93.4588ZM505.682 96.1752L504.782 96.6114L504.784 96.6159L505.682 96.1752ZM506.569 97.3096L505.916 98.0675L505.92 98.0709L506.569 97.3096ZM508.312 98.1044L508.166 99.0937L508.167 99.0939L508.312 98.1044ZM511.239 98.5327L511.095 99.5222L511.095 99.5222L511.239 98.5327ZM514.014 98.9417L513.866 99.9306L513.871 99.9314L514.014 98.9417ZM516.293 100.3L517.098 99.7075L517.097 99.7056L516.293 100.3ZM516.969 101.982L517.961 101.853L517.961 101.851L516.969 101.982ZM516.029 104.876L515.307 104.184L515.306 104.186L516.029 104.876ZM513.529 107.338L512.829 106.624L512.828 106.624L513.529 107.338ZM511.82 109.016L511.12 108.303L511.117 108.305L511.82 109.016ZM510.796 111.138L511.789 111.254L511.79 111.248L510.796 111.138ZM510.819 112.138L511.805 111.97L511.805 111.969L510.819 112.138ZM511.794 117.871L512.78 117.707L512.78 117.704L511.794 117.871ZM511.817 118.932L512.809 119.058L512.809 119.055L511.817 118.932ZM510.383 121.332L509.796 120.523L509.796 120.523L510.383 121.332ZM506.725 121.587L506.256 122.47L506.257 122.47L506.725 121.587ZM506.072 121.24L506.541 120.357L506.541 120.356L506.072 121.24ZM502.758 119.48L502.287 120.363L502.289 120.364L502.758 119.48ZM500.2 118.485L500.139 119.483L500.14 119.483L500.2 118.485ZM498.37 118.878L498.84 119.761L498.841 119.76L498.37 118.878ZM493.972 120.082C493.778 120.185 493.583 120.288 493.389 120.392C493.195 120.495 493.002 120.598 492.81 120.699L493.746 122.467C493.94 122.364 494.135 122.26 494.329 122.157C494.523 122.054 494.716 121.951 494.908 121.849L493.972 120.082ZM492.809 120.7C492.023 121.117 491.197 121.067 490.524 120.711L489.588 122.479C490.81 123.125 492.339 123.214 493.747 122.466L492.809 120.7ZM490.521 120.709C489.894 120.381 489.414 119.795 489.237 119.088L487.297 119.572C487.617 120.856 488.482 121.898 489.591 122.48L490.521 120.709ZM489.237 119.086C489.155 118.763 489.135 118.409 489.199 118.031L487.228 117.696C487.116 118.352 487.149 118.986 487.297 119.574L489.237 119.086ZM489.199 118.032C489.285 117.528 489.371 117.024 489.456 116.522C489.541 116.019 489.626 115.517 489.711 115.015L487.74 114.678C487.654 115.182 487.569 115.686 487.484 116.188C487.399 116.691 487.314 117.193 487.228 117.695L489.199 118.032ZM489.712 115.013C489.865 114.102 490.02 113.209 490.174 112.297L488.202 111.963C488.051 112.857 487.892 113.777 487.74 114.68L489.712 115.013ZM490.175 112.29C490.23 111.957 490.243 111.632 490.229 111.317L488.231 111.407C488.24 111.601 488.231 111.786 488.201 111.969L490.175 112.29ZM490.229 111.314C490.175 110.188 489.705 109.108 488.885 108.3L487.481 109.725C487.937 110.174 488.201 110.777 488.231 111.41L490.229 111.314ZM488.886 108.301C488.611 108.029 488.336 107.759 488.061 107.49C487.787 107.221 487.514 106.953 487.242 106.684L485.836 108.107C486.111 108.378 486.387 108.649 486.661 108.918C486.935 109.187 487.208 109.455 487.48 109.724L488.886 108.301ZM487.24 106.682C486.826 106.275 486.412 105.869 485.998 105.462C485.585 105.055 485.17 104.647 484.755 104.24L483.354 105.667C483.768 106.073 484.182 106.48 484.596 106.887C485.009 107.294 485.424 107.702 485.839 108.109L487.24 106.682ZM484.756 104.24C484.125 103.62 483.914 102.819 484.03 102.056L482.053 101.754C481.848 103.098 482.227 104.558 483.354 105.666L484.756 104.24ZM484.03 102.056C484.12 101.468 484.405 100.921 484.835 100.533L483.496 99.0481C482.703 99.7632 482.208 100.737 482.053 101.754L484.03 102.056ZM484.837 100.532C485.175 100.226 485.609 100.005 486.136 99.927L485.842 97.9487C484.916 98.0864 484.12 98.4833 483.494 99.0492L484.837 100.532ZM486.133 99.9275C486.652 99.8521 487.17 99.7757 487.688 99.6996C488.206 99.6233 488.723 99.5473 489.24 99.4722L488.953 97.4929C488.434 97.5683 487.915 97.6447 487.397 97.7209C486.879 97.7971 486.362 97.8732 485.845 97.9482L486.133 99.9275ZM489.242 99.472C489.676 99.4083 490.109 99.3446 490.542 99.2809C490.974 99.2173 491.407 99.1536 491.841 99.09L491.55 97.1112C491.116 97.1749 490.683 97.2385 490.251 97.3022C489.818 97.3659 489.385 97.4295 488.951 97.4932L489.242 99.472ZM491.841 99.0899C492.826 98.9451 493.711 98.4762 494.385 97.7909L492.959 96.3884C492.578 96.7757 492.087 97.0323 491.55 97.1112L491.841 99.0899ZM494.387 97.7882C494.711 97.4563 495.003 97.0659 495.224 96.615L493.427 95.7354C493.312 95.9713 493.152 96.1906 492.956 96.3911L494.387 97.7882ZM495.223 96.6152C495.485 96.0804 495.747 95.5466 496.007 95.0133C496.268 94.4798 496.529 93.9467 496.791 93.4127L494.995 92.5327C494.733 93.0675 494.472 93.6012 494.211 94.1346C493.95 94.6681 493.689 95.2012 493.427 95.7352L495.223 96.6152ZM496.791 93.4124C496.955 93.0767 497.119 92.7411 497.284 92.4054C497.448 92.0697 497.613 91.734 497.777 91.3983L495.981 90.5188C495.816 90.8545 495.652 91.1902 495.488 91.5259C495.323 91.8616 495.159 92.1972 494.995 92.5329L496.791 93.4124ZM497.779 91.3934C498.255 90.4075 499.203 89.9488 500.149 90.0045L500.267 88.0079C498.591 87.9093 496.84 88.7392 495.978 90.5237L497.779 91.3934ZM500.149 90.0044C500.994 90.0544 501.801 90.5106 502.233 91.3968L504.031 90.5203C503.255 88.9294 501.769 88.0968 500.267 88.0079L500.149 90.0044ZM502.234 91.398L503.457 93.8983L505.254 93.0194L504.03 90.5191L502.234 91.398ZM503.457 93.8981C503.901 94.8069 504.343 95.7067 504.782 96.6114L506.582 95.739C506.141 94.8302 505.696 93.9243 505.254 93.0196L503.457 93.8981ZM504.784 96.6159C505.067 97.1921 505.461 97.6754 505.916 98.0675L507.221 96.5517C506.95 96.3187 506.732 96.0458 506.579 95.7344L504.784 96.6159ZM505.92 98.0709C506.547 98.605 507.32 98.9689 508.166 99.0937L508.458 97.1151C507.996 97.047 507.568 96.8476 507.217 96.5483L505.92 98.0709ZM508.167 99.0939C508.654 99.1653 509.143 99.2367 509.631 99.3081C510.119 99.3794 510.607 99.4508 511.095 99.5222L511.384 97.5433C510.897 97.4719 510.408 97.4005 509.92 97.3291C509.432 97.2577 508.944 97.1863 508.456 97.115L508.167 99.0939ZM511.095 99.5222C512.02 99.6573 512.943 99.7921 513.866 99.9306L514.163 97.9528C513.236 97.8135 512.309 97.6782 511.384 97.5432L511.095 99.5222ZM513.871 99.9314C514.577 100.034 515.121 100.397 515.488 100.894L517.097 99.7056C516.432 98.8061 515.425 98.1354 514.158 97.952L513.871 99.9314ZM515.487 100.892C515.75 101.25 515.92 101.673 515.978 102.114L517.961 101.851C517.858 101.079 517.562 100.338 517.098 99.7075L515.487 100.892ZM515.978 102.111C516.072 102.839 515.873 103.594 515.307 104.184L516.751 105.568C517.775 104.499 518.126 103.124 517.961 101.853L515.978 102.111ZM515.306 104.186C514.513 105.016 513.689 105.779 512.829 106.624L514.23 108.051C515.035 107.26 515.932 106.426 516.752 105.566L515.306 104.186ZM512.828 106.624C512.544 106.904 512.259 107.184 511.974 107.464C511.689 107.743 511.404 108.023 511.12 108.303L512.521 109.73C512.806 109.45 513.091 109.17 513.376 108.89C513.66 108.611 513.945 108.331 514.23 108.051L512.828 106.624ZM511.117 108.305C510.37 109.044 509.915 110.01 509.802 111.028L511.79 111.248C511.853 110.677 512.109 110.138 512.524 109.727L511.117 108.305ZM509.803 111.023C509.755 111.436 509.758 111.868 509.833 112.306L511.805 111.969C511.765 111.736 511.761 111.496 511.789 111.254L509.803 111.023ZM509.833 112.305C509.996 113.26 510.158 114.216 510.32 115.172C510.483 116.128 510.645 117.084 510.808 118.039L512.78 117.704C512.617 116.749 512.455 115.793 512.292 114.837C512.13 113.881 511.967 112.925 511.805 111.97L509.833 112.305ZM510.807 118.036C510.852 118.305 510.855 118.563 510.824 118.809L512.809 119.055C512.863 118.623 512.858 118.171 512.78 117.707L510.807 118.036ZM510.825 118.807C510.735 119.514 510.348 120.122 509.796 120.523L510.97 122.142C511.939 121.439 512.646 120.35 512.809 119.058L510.825 118.807ZM509.796 120.523C509.074 121.047 508.102 121.185 507.194 120.704L506.257 122.47C507.894 123.339 509.682 123.076 510.97 122.142L509.796 120.523ZM507.194 120.704C507.085 120.646 506.977 120.588 506.868 120.53C506.759 120.472 506.65 120.415 506.541 120.357L505.602 122.123C505.711 122.181 505.82 122.239 505.929 122.296C506.038 122.354 506.147 122.412 506.256 122.47L507.194 120.704ZM506.541 120.356C505.988 120.063 505.436 119.77 504.884 119.477C504.331 119.184 503.779 118.89 503.227 118.597L502.289 120.364C502.841 120.657 503.393 120.95 503.946 121.243C504.498 121.536 505.05 121.83 505.603 122.123L506.541 120.356ZM503.228 118.598C502.517 118.219 501.488 117.561 500.261 117.487L500.14 119.483C500.817 119.524 501.363 119.87 502.287 120.363L503.228 118.598ZM500.262 117.487C499.459 117.437 498.639 117.6 497.898 117.997L498.841 119.76C499.239 119.547 499.688 119.455 500.139 119.483L500.262 117.487ZM497.899 117.996C497.245 118.344 496.589 118.692 495.932 119.041C495.276 119.389 494.619 119.737 493.962 120.087L494.903 121.852C495.557 121.504 496.213 121.156 496.87 120.807C497.526 120.459 498.183 120.111 498.84 119.761L497.899 117.996Z" fill="black" fill-opacity="0.05" mask="url(#path-26-inside-1_2492_70113)"/>
</g>
<path d="M480.638 153.224V155.153H478.245V163.67H475.87V146.822H478.245V153.224H480.638ZM467.817 148.437V157.584C469.979 157.556 472.298 157.352 474.738 156.86L474.979 158.827C472.159 159.402 469.413 159.551 466.926 159.551H465.46V148.437H467.817ZM486.817 147.954C489.489 147.936 491.493 149.68 491.493 152.092C491.493 154.522 489.489 156.248 486.817 156.248C484.145 156.248 482.123 154.522 482.123 152.092C482.123 149.68 484.145 147.936 486.817 147.954ZM486.817 149.995C485.481 149.995 484.46 150.774 484.479 152.092C484.46 153.428 485.481 154.188 486.817 154.188C488.153 154.188 489.173 153.428 489.192 152.092C489.173 150.774 488.171 149.995 486.817 149.995ZM495.538 146.822V163.744H493.181V146.822H495.538ZM481.417 158.363C484.423 158.382 488.598 158.326 492.216 157.825L492.402 159.532C488.654 160.256 484.646 160.293 481.696 160.293L481.417 158.363ZM517.877 146.822V163.707H515.614V146.822H517.877ZM514.538 147.101V162.965H512.33V158.085H510.418C509.825 159.365 508.646 160.163 507.19 160.163C505.112 160.163 503.572 158.493 503.59 156.1C503.572 153.706 505.112 152.036 507.19 152.036C509.305 152.036 510.827 153.706 510.827 156.1V156.229H512.33V154.207H510.474V152.277H512.33V147.101H514.538ZM511.253 149.383V151.257H503.219V149.383H506.077V147.23H508.433V149.383H511.253ZM507.19 154.04C506.262 154.04 505.65 154.764 505.65 156.1C505.65 157.398 506.262 158.159 507.19 158.159C508.136 158.159 508.767 157.398 508.786 156.1C508.767 154.764 508.136 154.04 507.19 154.04ZM526.932 147.954V149.847H522.516V151.238H526.765V153.038H522.516V154.522C524.39 154.513 525.782 154.439 527.34 154.17L527.582 156.062C525.596 156.415 523.945 156.471 521.403 156.471H520.252V147.954H526.932ZM534.168 146.841V157.139H531.923V152.853H530.458V157.009H528.25V147.138H530.458V150.96H531.923V146.841H534.168ZM534.168 157.844V163.707H531.812V159.736H522.498V157.844H534.168Z" fill="#1E2124"/>
<path d="M494.859 182.031V196.188H497.977V199H487.898V196.188H491.32V185.57L487.898 187.891V184.586L491.578 182.031H494.859ZM504.047 194.219C504.117 195.578 505.266 196.305 506.695 196.328C508.172 196.305 509.297 195.461 509.297 193.914C509.297 192.438 508.289 191.43 506.273 191.43H504.492V189.039L507.938 185.102V184.914H501.469V182.031H512.203V184.516L508.078 189.109V189.344C511.289 189.766 512.742 191.922 512.742 194.148C512.742 197.148 510.164 199.234 506.695 199.234C503.25 199.234 500.789 197.219 500.695 194.219H504.047Z" fill="#256EF4"/>
<path d="M486 202.609H513.656V204.812H486V202.609Z" fill="#256EF4"/>
<path d="M666.568 92.7441C672.081 93.7336 675.367 96.5561 676.5 97.7445L686.4 93.9471C688.05 92.7441 690.621 91.9921 691.811 92.9528C693 93.9136 693 95.4737 693 98.594V109.808C693 112.661 693 114.087 692.237 114.978C691.473 115.869 689.793 116.17 686.432 116.774L686.432 116.774C683.436 117.311 681.098 118.168 679.405 119.029C677.74 119.876 676.908 120.3 676.5 120.3C676.092 120.3 675.26 119.876 673.595 119.029C671.902 118.168 669.564 117.311 666.568 116.774C663.207 116.17 661.527 115.869 660.763 114.978C660 114.087 660 112.661 660 109.808V98.594C660 95.4737 660 93.9136 661.189 92.9528C662.379 91.9921 663.775 92.2427 666.568 92.7441Z" fill="url(#paint6_linear_2492_70113)"/>
<g filter="url(#filter6_b_2492_70113)">
<path d="M666.568 92.7441C672.081 93.7336 675.367 96.5561 676.5 97.7445L686.4 93.9471C688.05 92.7441 690.621 91.9921 691.811 92.9528C693 93.9136 693 95.4737 693 98.594V109.808C693 112.661 693 114.087 692.237 114.978C691.473 115.869 689.793 116.17 686.432 116.774L686.432 116.774C683.436 117.311 681.098 118.168 679.405 119.029C677.74 119.876 676.908 120.3 676.5 120.3C676.092 120.3 675.26 119.876 673.595 119.029C671.902 118.168 669.564 117.311 666.568 116.774C663.207 116.17 661.527 115.869 660.763 114.978C660 114.087 660 112.661 660 109.808V98.594C660 95.4737 660 93.9136 661.189 92.9528C662.379 91.9921 663.775 92.2427 666.568 92.7441Z" fill="white" fill-opacity="0.1"/>
<path d="M676.138 98.0896L676.368 98.3306L676.679 98.2113L686.579 94.4139L686.641 94.3902L686.695 94.3511C687.467 93.788 688.459 93.3296 689.385 93.127C690.338 92.9185 691.083 93.0077 691.497 93.3418C691.966 93.7209 692.222 94.2215 692.358 95.0451C692.498 95.8952 692.5 97.0166 692.5 98.594V109.808C692.5 111.246 692.499 112.282 692.408 113.071C692.318 113.853 692.145 114.317 691.857 114.653C691.576 114.981 691.086 115.246 690.174 115.502C689.267 115.756 688.034 115.978 686.344 116.281L686.344 116.281L686.308 116.288L686.308 116.288C683.283 116.834 680.91 117.703 679.179 118.584C678.341 119.01 677.729 119.321 677.275 119.527C677.048 119.63 676.872 119.701 676.736 119.746C676.594 119.792 676.524 119.8 676.5 119.8C676.476 119.8 676.406 119.792 676.264 119.746C676.128 119.701 675.952 119.63 675.725 119.527C675.271 119.321 674.659 119.01 673.821 118.584C672.083 117.699 669.698 116.827 666.656 116.281C664.966 115.978 663.733 115.756 662.826 115.502C661.914 115.246 661.424 114.981 661.143 114.653C660.855 114.317 660.683 113.853 660.592 113.071C660.501 112.282 660.5 111.246 660.5 109.808V98.594C660.5 97.0166 660.502 95.8952 660.642 95.0451C660.778 94.2215 661.034 93.7209 661.503 93.3418C661.987 92.9515 662.511 92.7954 663.274 92.8002C664.068 92.8051 665.066 92.9824 666.48 93.2362C671.862 94.2023 675.057 96.9558 676.138 98.0896Z" stroke="black" stroke-opacity="0.05"/>
</g>
<path d="M686.398 109.895C680.623 111.579 677.415 118.316 676.498 120V97.2632C677.415 95.5789 680.623 89.6842 686.398 88V109.895Z" fill="url(#paint7_linear_2492_70113)"/>
<g filter="url(#filter7_b_2492_70113)">
<path d="M686.398 109.895C680.623 111.579 677.415 118.316 676.498 120V97.2632C677.415 95.5789 680.623 89.6842 686.398 88V109.895Z" fill="white" fill-opacity="0.1"/>
</g>
<path d="M640.217 153.224V155.153H637.824V163.67H635.449V146.822H637.824V153.224H640.217ZM627.396 148.437V157.584C629.558 157.556 631.877 157.352 634.317 156.86L634.558 158.827C631.738 159.402 628.992 159.551 626.505 159.551H625.04V148.437H627.396ZM646.396 147.954C649.068 147.936 651.072 149.68 651.072 152.092C651.072 154.522 649.068 156.248 646.396 156.248C643.724 156.248 641.702 154.522 641.702 152.092C641.702 149.68 643.724 147.936 646.396 147.954ZM646.396 149.995C645.06 149.995 644.04 150.774 644.058 152.092C644.04 153.428 645.06 154.188 646.396 154.188C647.732 154.188 648.752 153.428 648.771 152.092C648.752 150.774 647.75 149.995 646.396 149.995ZM655.117 146.822V163.744H652.76V146.822H655.117ZM640.997 158.363C644.002 158.382 648.177 158.326 651.795 157.825L651.981 159.532C648.233 160.256 644.225 160.293 641.275 160.293L640.997 158.363ZM668.216 149.828C668.216 151.646 669.163 153.465 671.408 154.318L670.146 156.118C668.708 155.571 667.715 154.569 667.103 153.316C666.491 154.782 665.433 156.007 663.856 156.656L662.576 154.838C664.951 153.799 665.916 151.721 665.916 149.828V147.843H668.216V149.828ZM677.327 146.841V157.157H675.082V152.871H673.671V156.638H671.463V147.138H673.671V150.96H675.082V146.841H677.327ZM671.556 157.398C675.119 157.398 677.401 158.586 677.419 160.553C677.401 162.52 675.119 163.707 671.556 163.707C667.975 163.707 665.711 162.52 665.711 160.553C665.711 158.586 667.975 157.398 671.556 157.398ZM671.556 159.161C669.348 159.161 668.068 159.644 668.086 160.553C668.068 161.462 669.348 161.926 671.556 161.926C673.746 161.926 675.026 161.462 675.026 160.553C675.026 159.644 673.746 159.161 671.556 159.161ZM692.746 146.822V150.812H694.898V152.778H692.746V156.768H690.371V146.822H692.746ZM692.746 157.361V161.146H683.691V162.019H693.302V163.596H681.316V159.718H690.371V158.938H681.297V157.361H692.746ZM679.052 154.949C680.286 154.958 681.687 154.958 683.153 154.912V154.17C681.307 153.957 680.166 153.187 680.184 151.98C680.166 150.607 681.798 149.81 684.322 149.81C686.827 149.81 688.441 150.607 688.459 151.98C688.441 153.187 687.328 153.947 685.509 154.17V154.838C686.892 154.773 688.283 154.662 689.591 154.485L689.758 155.951C686.159 156.563 682.244 156.582 679.293 156.582L679.052 154.949ZM689.165 147.88V149.457H679.498V147.88H683.153V146.674H685.509V147.88H689.165ZM684.322 151.275C683.116 151.275 682.429 151.498 682.448 151.98C682.429 152.481 683.116 152.741 684.322 152.76C685.509 152.741 686.177 152.481 686.196 151.98C686.177 151.498 685.509 151.275 684.322 151.275ZM709.89 146.822V156.842H707.534V152.853H704.899V150.941H707.534V146.822H709.89ZM704.12 157.213C707.719 157.231 709.927 158.419 709.946 160.479C709.927 162.52 707.719 163.726 704.12 163.726C700.52 163.726 698.312 162.52 698.312 160.479C698.312 158.419 700.52 157.231 704.12 157.213ZM704.12 159.031C701.875 159.031 700.668 159.495 700.668 160.479C700.668 161.443 701.875 161.926 704.12 161.926C706.365 161.926 707.589 161.443 707.589 160.479C707.589 159.495 706.365 159.031 704.12 159.031ZM705.4 147.843V149.735H702.042C702.097 151.702 703.285 153.688 705.919 154.56L704.75 156.415C702.886 155.812 701.605 154.587 700.873 153.057C700.121 154.782 698.776 156.174 696.772 156.86L695.547 154.986C698.321 154.059 699.564 151.851 699.629 149.735H696.234V147.843H705.4ZM727.536 159.811V161.74H712.08V159.811H718.592V156.693H713.712V147.898H716.087V150.515H723.454V147.898H725.81V156.693H720.949V159.811H727.536ZM716.087 154.801H723.454V152.407H716.087V154.801Z" fill="#1E2124"/>
<path d="M675.891 199.234C672.328 199.234 669.75 197.148 669.773 194.43C669.75 192.484 671.062 190.703 673.172 190.234V190.117C671.367 189.648 670.336 188.125 670.336 186.367C670.336 183.742 672.703 181.797 675.891 181.797C679.102 181.797 681.469 183.766 681.469 186.367C681.469 188.125 680.414 189.648 678.633 190.117V190.234C680.719 190.703 682.031 192.484 682.055 194.43C682.031 197.148 679.453 199.234 675.891 199.234ZM675.891 196.539C677.484 196.539 678.609 195.602 678.609 194.078C678.609 192.531 677.438 191.523 675.891 191.523C674.367 191.523 673.195 192.531 673.219 194.078C673.195 195.602 674.32 196.539 675.891 196.539ZM675.891 189.039C677.18 189.039 678.188 188.148 678.188 186.719C678.188 185.336 677.203 184.469 675.891 184.469C674.578 184.469 673.617 185.336 673.594 186.719C673.617 188.148 674.602 189.039 675.891 189.039Z" fill="#256EF4"/>
<path d="M669 202.609H682.828V204.812H669V202.609Z" fill="#256EF4"/>
<rect x="458" y="23" width="333" height="33" rx="16.5" fill="#0B50D0"/>
<rect x="458" y="23" width="333" height="33" rx="16.5" stroke="#0B50D0" stroke-width="2"/>
<path d="M477.128 44.5001C475.359 44.5001 474.474 44.5001 473.844 44.1224C473.433 43.8756 473.101 43.5226 472.887 43.1036C472.56 42.4624 472.648 41.6145 472.824 39.9188C472.971 38.5033 473.044 37.7955 473.406 37.2758C473.643 36.9345 473.964 36.6548 474.34 36.4614C474.913 36.1667 475.651 36.1667 477.128 36.1667H484.872C486.348 36.1667 487.087 36.1667 487.66 36.4614C488.036 36.6548 488.357 36.9345 488.594 37.2758C488.955 37.7955 489.029 38.5033 489.176 39.9188C489.352 41.6145 489.44 42.4624 489.113 43.1036C488.899 43.5226 488.567 43.8756 488.155 44.1224C487.525 44.5001 486.641 44.5001 484.872 44.5001" stroke="white" stroke-width="1.5"/>
<path d="M485.166 36.1667V34.5001C485.166 32.9287 485.166 32.1431 484.678 31.6549C484.19 31.1667 483.404 31.1667 481.833 31.1667H480.166C478.595 31.1667 477.809 31.1667 477.321 31.6549C476.833 32.1431 476.833 32.9287 476.833 34.5001V36.1667" stroke="white" stroke-width="1.5" stroke-linejoin="round"/>
<path d="M482.657 42.8335L479.342 42.8335C478.771 42.8335 478.486 42.8335 478.243 42.9242C477.919 43.0452 477.642 43.2801 477.455 43.5918C477.315 43.8255 477.246 44.126 477.107 44.7272C476.891 45.6664 476.782 46.136 476.856 46.5126C476.954 47.0146 477.26 47.4396 477.685 47.6647C478.004 47.8335 478.45 47.8335 479.342 47.8335L482.657 47.8335C483.549 47.8335 483.995 47.8335 484.314 47.6647C484.739 47.4396 485.045 47.0146 485.143 46.5126C485.217 46.136 485.109 45.6664 484.892 44.7272C484.754 44.126 484.685 43.8255 484.545 43.5918C484.358 43.2801 484.08 43.0452 483.756 42.9242C483.514 42.8335 483.228 42.8335 482.657 42.8335Z" stroke="white" stroke-width="1.5" stroke-linejoin="round"/>
<path d="M486 39.5H486.007" stroke="white" stroke-width="2" stroke-linecap="round" stroke-linejoin="round"/>
<path d="M499.109 42.3193C499.212 43.3887 500.135 43.9746 501.321 43.9746C502.581 43.9746 503.577 43.3008 503.562 41.9824C503.577 40.8252 502.845 39.8145 500.955 39.8145H500.091V38.7744L502.684 35.6543V35.5664H498.274V34.3945H504.456V35.3467L501.688 38.7158V38.8037C503.504 38.9062 504.866 40.2393 504.866 41.9971C504.866 43.8135 503.387 45.1465 501.292 45.1465C499.417 45.1465 497.879 44.0918 497.762 42.3193H499.109ZM509.861 33.6475C511.81 33.6621 513.23 34.834 513.23 36.5332C513.23 38.2324 511.81 39.4043 509.861 39.4043C507.884 39.4043 506.478 38.2324 506.478 36.5332C506.478 34.834 507.884 33.6621 509.861 33.6475ZM509.861 34.6143C508.558 34.6143 507.591 35.4053 507.605 36.5332C507.591 37.6758 508.558 38.4668 509.861 38.4668C511.15 38.4668 512.117 37.6758 512.117 36.5332C512.117 35.4053 511.15 34.6143 509.861 34.6143ZM516.922 33.1641V39.8584H515.779V33.1641H516.922ZM516.922 40.4883V43.623H509.612V45.0879H517.391V46.0107H508.484V42.7588H515.779V41.4111H508.455V40.4883H516.922ZM534.632 34.6582V35.6104H524.07V34.6582H528.816V33.0908H529.944V34.6582H534.632ZM535.379 41.6016V42.5537H529.944V46.2158H528.816V42.5537H523.455V41.6016H535.379ZM529.388 36.3574C532.039 36.3574 533.636 37.1338 533.636 38.54C533.636 39.917 532.039 40.6934 529.388 40.708C526.722 40.6934 525.125 39.917 525.14 38.54C525.125 37.1338 526.722 36.3574 529.388 36.3574ZM529.388 37.2363C527.439 37.2363 526.312 37.7197 526.326 38.54C526.312 39.3457 527.439 39.8145 529.388 39.8145C531.307 39.8145 532.435 39.3457 532.449 38.54C532.435 37.7197 531.307 37.2363 529.388 37.2363ZM552.605 38.9648V39.8584H547.229V41.0742H551.082V43.8867H543.348V45.1611H551.478V46.04H542.205V43.0664H549.954V41.9385H542.176V41.0742H546.102V39.8584H540.755V38.9648H552.605ZM547.229 33.0908V34.3066H551.404V35.2148H547.317C547.53 36.5112 549.566 37.3315 551.961 37.4854L551.609 38.3643C549.434 38.1812 547.471 37.5073 546.673 36.2695C545.875 37.5073 543.912 38.1812 541.722 38.3643L541.385 37.4854C543.765 37.3315 545.801 36.5112 546.028 35.2148H541.971V34.3066H546.102V33.0908H547.229ZM559.886 33.9697V37.6172H555.403V39.6387C557.85 39.6387 559.109 39.6021 560.647 39.3164L560.765 40.2686C559.139 40.5322 557.82 40.5762 555.184 40.5762H554.261V36.7383H558.743V34.8926H554.231V33.9697H559.886ZM564.5 33.1787V41.1768H563.343V38.7598H560.75V37.8076H563.343V36.0498H560.75V35.1123H563.343V33.1787H564.5ZM564.5 41.8799V46.2158H563.343V42.8174H555.726V41.8799H564.5ZM577.435 33.1641V46.1865H576.277V33.1641H577.435ZM573.582 34.585C573.567 38.335 571.824 41.6455 567.459 43.7402L566.829 42.8027C570.352 41.1328 572.146 38.6353 572.41 35.5225H567.43V34.585H573.582ZM589.812 33.1641V37.1338H591.775V38.1006H589.812V42.7002H588.655V33.1641H589.812ZM586.297 34.1748C586.297 37.5293 583.895 40.0195 580.145 41.1914L579.646 40.2686C582.767 39.2944 584.803 37.4341 585.052 35.1416H580.188V34.1748H586.297ZM590.413 44.9414V45.9082H581.653V41.7334H582.796V44.9414H590.413ZM603.333 33.1641V46.2158H602.176V33.1641H603.333ZM596.404 34.1748C598.338 34.1895 599.729 35.9473 599.729 38.7158C599.729 41.4844 598.338 43.2422 596.404 43.2422C594.456 43.2422 593.079 41.4844 593.079 38.7158C593.079 35.9473 594.456 34.1895 596.404 34.1748ZM596.404 35.2002C595.101 35.2148 594.192 36.5918 594.192 38.7158C594.192 40.8398 595.101 42.2168 596.404 42.2168C597.708 42.2168 598.616 40.8398 598.616 38.7158C598.616 36.5918 597.708 35.2148 596.404 35.2002ZM616.37 37.793V39.6533H621.746V40.6055H609.881V39.6533H615.242V37.793H616.37ZM615.813 41.6748C618.611 41.6748 620.281 42.4658 620.296 43.916C620.281 45.3662 618.611 46.1572 615.813 46.1572C612.986 46.1572 611.316 45.3662 611.316 43.916C611.316 42.4658 612.986 41.6748 615.813 41.6748ZM615.813 42.583C613.704 42.583 612.474 43.0664 612.488 43.916C612.474 44.7656 613.704 45.2637 615.813 45.2637C617.894 45.2637 619.139 44.7656 619.139 43.916C619.139 43.0664 617.894 42.583 615.813 42.583ZM620.691 33.7793V34.7168H616.561C616.634 36.167 618.816 37.2876 621.087 37.5293L620.662 38.4375C618.531 38.1812 616.531 37.251 615.813 35.8008C615.103 37.251 613.111 38.1812 610.965 38.4375L610.54 37.5293C612.811 37.2876 614.979 36.1816 615.066 34.7168H610.965V33.7793H620.691ZM634.769 43.6084V44.5752H622.845V43.6084H626.199V41.1328H624.339V37.1191H632.132V35.083H624.31V34.1309H633.26V38.0713H625.481V40.1807H633.567V41.1328H631.531V43.6084H634.769ZM627.327 43.6084H630.403V41.1328H627.327V43.6084ZM643.572 38.7891V39.7412H640.716V42.3047C641.99 42.2534 643.272 42.1655 644.48 42.0264L644.568 42.8906C641.683 43.3154 638.533 43.3594 636.043 43.3594L635.882 42.3926C637.017 42.3926 638.277 42.3853 639.573 42.3486V39.7412H636.878V34.4092H643.514V35.3467H638.006V38.7891H643.572ZM646.487 33.1641V46.2158H645.345V33.1641H646.487ZM659.305 37.1191V38.042H650.384V33.6475H651.526V37.1191H659.305ZM660.682 39.8145V40.752H648.758V39.8145H660.682ZM659.378 44.9121V45.8643H650.311V42.085H651.453V44.9121H659.378ZM677.176 33.1641V46.1865H676.048V39.4482H674.173V45.5127H673.089V33.457H674.173V38.4668H676.048V33.1641H677.176ZM667.859 34.7607V41.792C669.156 41.7773 670.533 41.6895 672.122 41.3672L672.269 42.3926C670.452 42.7148 668.958 42.8174 667.522 42.8174H666.717V34.7607H667.859ZM689.817 41.5576V46.1865H688.66V42.4805H681.058V41.5576H689.817ZM689.817 33.1641V40.8398H688.66V38.9648H685.306C684.698 39.7046 683.738 40.144 682.61 40.1367C680.662 40.1514 679.227 38.8623 679.227 37.0166C679.227 35.2002 680.662 33.9111 682.61 33.9111C683.731 33.9111 684.69 34.3506 685.306 35.083H688.66V33.1641H689.817ZM682.61 34.8926C681.277 34.8926 680.325 35.7861 680.325 37.0166C680.325 38.291 681.277 39.1699 682.61 39.1699C683.885 39.1699 684.866 38.291 684.866 37.0166C684.866 35.7861 683.885 34.8926 682.61 34.8926ZM685.818 38.0127H688.66V36.0352H685.818C685.921 36.3428 685.979 36.665 685.979 37.0166C685.979 37.3682 685.921 37.7051 685.818 38.0127ZM702.723 33.1641V46.2158H701.565V33.1641H702.723ZM695.794 34.1748C697.728 34.1895 699.119 35.9473 699.119 38.7158C699.119 41.4844 697.728 43.2422 695.794 43.2422C693.846 43.2422 692.469 41.4844 692.469 38.7158C692.469 35.9473 693.846 34.1895 695.794 34.1748ZM695.794 35.2002C694.49 35.2148 693.582 36.5918 693.582 38.7158C693.582 40.8398 694.49 42.2168 695.794 42.2168C697.098 42.2168 698.006 40.8398 698.006 38.7158C698.006 36.5918 697.098 35.2148 695.794 35.2002ZM714.28 34.3945V43.2422H716.229V45H709.93V43.2422H712.068V36.6064L709.93 38.0566V35.9912L712.229 34.3945H714.28ZM728.709 33.1787V42.8027H727.552V38.1592H724.666V37.1924H727.552V33.1787H728.709ZM724.725 34.1748C724.71 37.5146 722.322 40.0635 718.616 41.2793L718.118 40.3564C721.121 39.3677 723.208 37.5 723.465 35.1416H718.777V34.1748H724.725ZM729.046 44.9414V45.9082H720.418V41.8213H721.59V44.9414H729.046ZM739.607 41.9092C739.607 43.0591 740.223 44.2822 741.468 44.9854C742.698 44.2163 743.357 42.9199 743.357 41.9092V41.1914H744.485V41.9092C744.485 43.2422 745.467 44.5898 747.137 45.1611L746.565 46.0107C745.262 45.5493 744.346 44.6411 743.899 43.5498C743.497 44.6045 742.698 45.6006 741.497 46.1133C740.23 45.6299 739.424 44.6704 739.036 43.5791C738.575 44.6338 737.674 45.542 736.429 46.0107L735.843 45.1611C737.483 44.5459 738.479 43.1543 738.494 41.9092V41.1914H739.607V41.9092ZM745.95 33.1787V40.6201H744.808V33.1787H745.95ZM738.919 33.9404C740.896 33.9404 742.332 35.1709 742.332 36.9873C742.332 38.7744 740.896 40.0049 738.919 40.0049C736.941 40.0049 735.506 38.7744 735.506 36.9873C735.506 35.1709 736.941 33.9404 738.919 33.9404ZM738.919 34.9219C737.586 34.9072 736.619 35.7715 736.634 36.9873C736.619 38.1885 737.586 39.0381 738.919 39.0527C740.237 39.0381 741.204 38.1885 741.204 36.9873C741.204 35.7715 740.237 34.9072 738.919 34.9219ZM751.663 34.1748C753.436 34.1895 754.71 35.7056 754.9 38.1445H757.815V33.1641H758.958V46.2158H757.815V39.0967H754.915C754.776 41.6455 753.479 43.2422 751.663 43.2422C749.744 43.2422 748.396 41.4844 748.396 38.7158C748.396 35.9473 749.744 34.1895 751.663 34.1748ZM751.663 35.2002C750.374 35.2148 749.495 36.5918 749.495 38.7158C749.495 40.8398 750.374 42.2168 751.663 42.2168C752.938 42.2168 753.831 40.8398 753.831 38.7158C753.831 36.5918 752.938 35.2148 751.663 35.2002ZM773.05 43.5498V44.5166H761.126V43.5498H764.085V40.0342C762.972 39.4556 762.298 38.5181 762.298 37.3389C762.298 35.3174 764.275 33.999 767.059 33.9844C769.842 33.999 771.819 35.3174 771.819 37.3389C771.819 38.4961 771.167 39.4263 770.091 40.0049V43.5498H773.05ZM767.059 34.9365C764.92 34.9219 763.411 35.8887 763.411 37.3389C763.411 38.7891 764.92 39.7705 767.059 39.7705C769.183 39.7705 770.706 38.7891 770.706 37.3389C770.706 35.8887 769.183 34.9219 767.059 34.9365ZM765.213 43.5498H768.934V40.4443C768.37 40.5981 767.74 40.6787 767.059 40.6787C766.392 40.6787 765.77 40.6055 765.213 40.459V43.5498ZM776.199 34.3945L776.097 42.0117H774.866L774.764 34.3945H776.199ZM775.481 45.0879C774.969 45.0879 774.529 44.6631 774.544 44.1357C774.529 43.623 774.969 43.1982 775.481 43.1982C775.994 43.1982 776.419 43.623 776.419 44.1357C776.419 44.6631 775.994 45.0879 775.481 45.0879Z" fill="white"/>
</g>
<defs>
<filter id="filter0_dd_2492_70113" x="0" y="0" width="824" height="264" filterUnits="userSpaceOnUse" color-interpolation-filters="sRGB">
<feFlood flood-opacity="0" result="BackgroundImageFix"/>
<feColorMatrix in="SourceAlpha" type="matrix" values="0 0 0 0 0 0 0 0 0 0 0 0 0 0 0 0 0 0 127 0" result="hardAlpha"/>
<feOffset dy="8"/>
<feGaussianBlur stdDeviation="8"/>
<feComposite in2="hardAlpha" operator="out"/>
<feColorMatrix type="matrix" values="0 0 0 0 0 0 0 0 0 0 0 0 0 0 0 0 0 0 0.08 0"/>
<feBlend mode="normal" in2="BackgroundImageFix" result="effect1_dropShadow_2492_70113"/>
<feColorMatrix in="SourceAlpha" type="matrix" values="0 0 0 0 0 0 0 0 0 0 0 0 0 0 0 0 0 0 127 0" result="hardAlpha"/>
<feOffset/>
<feGaussianBlur stdDeviation="1"/>
<feComposite in2="hardAlpha" operator="out"/>
<feColorMatrix type="matrix" values="0 0 0 0 0 0 0 0 0 0 0 0 0 0 0 0 0 0 0.05 0"/>
<feBlend mode="normal" in2="effect1_dropShadow_2492_70113" result="effect2_dropShadow_2492_70113"/>
<feBlend mode="normal" in="SourceGraphic" in2="effect2_dropShadow_2492_70113" result="shape"/>
</filter>
<filter id="filter1_b_2492_70113" x="131" y="88" width="35" height="35" filterUnits="userSpaceOnUse" color-interpolation-filters="sRGB">
<feFlood flood-opacity="0" result="BackgroundImageFix"/>
<feGaussianBlur in="BackgroundImageFix" stdDeviation="0.5"/>
<feComposite in2="SourceAlpha" operator="in" result="effect1_backgroundBlur_2492_70113"/>
<feBlend mode="normal" in="SourceGraphic" in2="effect1_backgroundBlur_2492_70113" result="shape"/>
</filter>
<filter id="filter2_b_2492_70113" x="129" y="97.8701" width="39" height="25" filterUnits="userSpaceOnUse" color-interpolation-filters="sRGB">
<feFlood flood-opacity="0" result="BackgroundImageFix"/>
<feGaussianBlur in="BackgroundImageFix" stdDeviation="0.5"/>
<feComposite in2="SourceAlpha" operator="in" result="effect1_backgroundBlur_2492_70113"/>
<feBlend mode="normal" in="SourceGraphic" in2="effect1_backgroundBlur_2492_70113" result="shape"/>
</filter>
<filter id="filter3_b_2492_70113" x="311" y="84" width="26" height="42" filterUnits="userSpaceOnUse" color-interpolation-filters="sRGB">
<feFlood flood-opacity="0" result="BackgroundImageFix"/>
<feGaussianBlur in="BackgroundImageFix" stdDeviation="0.5"/>
<feComposite in2="SourceAlpha" operator="in" result="effect1_backgroundBlur_2492_70113"/>
<feBlend mode="normal" in="SourceGraphic" in2="effect1_backgroundBlur_2492_70113" result="shape"/>
</filter>
<filter id="filter4_b_2492_70113" x="322" y="90" width="21" height="22" filterUnits="userSpaceOnUse" color-interpolation-filters="sRGB">
<feFlood flood-opacity="0" result="BackgroundImageFix"/>
<feGaussianBlur in="BackgroundImageFix" stdDeviation="1"/>
<feComposite in2="SourceAlpha" operator="in" result="effect1_backgroundBlur_2492_70113"/>
<feBlend mode="normal" in="SourceGraphic" in2="effect1_backgroundBlur_2492_70113" result="shape"/>
</filter>
<filter id="filter5_b_2492_70113" x="481" y="87" width="38" height="37" filterUnits="userSpaceOnUse" color-interpolation-filters="sRGB">
<feFlood flood-opacity="0" result="BackgroundImageFix"/>
<feGaussianBlur in="BackgroundImageFix" stdDeviation="1"/>
<feComposite in2="SourceAlpha" operator="in" result="effect1_backgroundBlur_2492_70113"/>
<feBlend mode="normal" in="SourceGraphic" in2="effect1_backgroundBlur_2492_70113" result="shape"/>
</filter>
<filter id="filter6_b_2492_70113" x="658" y="90.3" width="37" height="32" filterUnits="userSpaceOnUse" color-interpolation-filters="sRGB">
<feFlood flood-opacity="0" result="BackgroundImageFix"/>
<feGaussianBlur in="BackgroundImageFix" stdDeviation="1"/>
<feComposite in2="SourceAlpha" operator="in" result="effect1_backgroundBlur_2492_70113"/>
<feBlend mode="normal" in="SourceGraphic" in2="effect1_backgroundBlur_2492_70113" result="shape"/>
</filter>
<filter id="filter7_b_2492_70113" x="674.499" y="86" width="13.8999" height="36" filterUnits="userSpaceOnUse" color-interpolation-filters="sRGB">
<feFlood flood-opacity="0" result="BackgroundImageFix"/>
<feGaussianBlur in="BackgroundImageFix" stdDeviation="1"/>
<feComposite in2="SourceAlpha" operator="in" result="effect1_backgroundBlur_2492_70113"/>
<feBlend mode="normal" in="SourceGraphic" in2="effect1_backgroundBlur_2492_70113" result="shape"/>
</filter>
<linearGradient id="paint0_linear_2492_70113" x1="137.042" y1="97.4857" x2="161.286" y2="112.179" gradientUnits="userSpaceOnUse">
<stop stop-color="#29E2CF"/>
<stop offset="1" stop-color="#19E4D0"/>
</linearGradient>
<linearGradient id="paint1_linear_2492_70113" x1="139.819" y1="102.429" x2="158.186" y2="113.559" gradientUnits="userSpaceOnUse">
<stop stop-color="white"/>
<stop offset="1" stop-color="#EFEFEF"/>
</linearGradient>
<linearGradient id="paint2_linear_2492_70113" x1="135.653" y1="104.784" x2="154.708" y2="123.362" gradientUnits="userSpaceOnUse">
<stop stop-color="#29E2CF"/>
<stop offset="1" stop-color="#19E4D0"/>
</linearGradient>
<linearGradient id="paint3_linear_2492_70113" x1="315.5" y1="86" x2="342.371" y2="112.416" gradientUnits="userSpaceOnUse">
<stop stop-color="#B4C9E9"/>
<stop offset="1" stop-color="#D1E4FF"/>
</linearGradient>
<linearGradient id="paint4_linear_2492_70113" x1="326.597" y1="96.6286" x2="339.46" y2="103.991" gradientUnits="userSpaceOnUse">
<stop stop-color="#0B50D0"/>
<stop offset="1" stop-color="#488FF7"/>
</linearGradient>
<linearGradient id="paint5_linear_2492_70113" x1="488.194" y1="97.4857" x2="512.767" y2="112.829" gradientUnits="userSpaceOnUse">
<stop stop-color="#FEC346"/>
<stop offset="1" stop-color="#FFEA4D"/>
</linearGradient>
<linearGradient id="paint6_linear_2492_70113" x1="665.042" y1="99.5" x2="686.992" y2="115.178" gradientUnits="userSpaceOnUse">
<stop stop-color="#FFBD67"/>
<stop offset="1" stop-color="#FFA16E"/>
</linearGradient>
<linearGradient id="paint7_linear_2492_70113" x1="684.886" y1="96.2286" x2="675.279" y2="98.0298" gradientUnits="userSpaceOnUse">
<stop stop-color="#FFDDBB"/>
<stop offset="1" stop-color="#FFCEB0"/>
</linearGradient>
</defs>
</svg>
