<svg width="1200" height="288" viewBox="0 0 1200 288" fill="none" xmlns="http://www.w3.org/2000/svg">
<path d="M23.4062 9.4375V16.4062H27.25V19.625H23.4062V26.5312H19.4062V9.4375H23.4062ZM23.4062 27.7812V37.875H19.4062V30.9375H4.25V27.7812H23.4062ZM5.65625 11.2188V15H11.4688V11.2188H15.4688V25.0312H1.6875V11.2188H5.65625ZM5.65625 21.875H11.4688V18.0938H5.65625V21.875ZM55.4375 25.125V28.3125H44.375V37.875H40.4375V28.3125H29.5V25.125H55.4375ZM53.125 10.9375V14.0625H44.8438C45.2344 16.8438 48.375 19.6406 54.2188 20.3438L52.7812 23.4688C47.7812 22.7969 44.2031 20.6562 42.5 17.7188C40.75 20.6562 37.2031 22.7969 32.25 23.4688L30.7812 20.3438C36.5312 19.6406 39.7031 16.8438 40.1562 14.0625H31.8438V10.9375H53.125ZM82.125 9.46875V31.125H78.1562V25.75H74.3125V22.5938H78.1562V19.75H74.3125V16.5312H78.1562V9.46875H82.125ZM74.0312 12.4375V15.5938H58.2188V12.4375H64.3438V9.40625H68.3125V12.4375H74.0312ZM66.2812 16.5938C70.1875 16.5938 73 18.9062 73.0312 22.1875C73 25.4688 70.1875 27.75 66.2812 27.75C62.4062 27.75 59.5938 25.4688 59.625 22.1875C59.5938 18.9062 62.4062 16.5938 66.2812 16.5938ZM66.2812 19.6875C64.5312 19.7188 63.3125 20.5938 63.3438 22.1875C63.3125 23.8125 64.5312 24.7188 66.2812 24.7188C68 24.7188 69.25 23.8125 69.2812 22.1875C69.25 20.5938 68 19.7188 66.2812 19.6875ZM82.7188 34.1875V37.375H63.1875V29.2812H67.2188V34.1875H82.7188ZM110.594 9.4375V25.4062H106.625V9.4375H110.594ZM92.4375 11.0625V20.6562C96.75 20.625 100.406 20.3125 104.219 19.5L104.688 22.7188C100.25 23.6562 96 24 90.9062 24H88.4375V11.0625H92.4375ZM110.594 26.5625V37.5312H91.5938V26.5625H110.594ZM95.5 29.6875V34.4062H106.688V29.6875H95.5ZM139.281 9.4375V37.9375H135.25V9.4375H139.281ZM123.844 11.4375C128.125 11.4375 131.312 15.375 131.312 21.5625C131.312 27.8125 128.125 31.7188 123.844 31.7188C119.469 31.7188 116.281 27.8125 116.312 21.5625C116.281 15.375 119.469 11.4375 123.844 11.4375ZM123.844 15.0312C121.625 15.0312 120.156 17.3438 120.156 21.5625C120.156 25.8125 121.625 28.0938 123.844 28.0938C126 28.0938 127.469 25.8125 127.469 21.5625C127.469 17.3438 126 15.0312 123.844 15.0312ZM161.594 10.4688V13.3125H173V10.4688H176.969V22.0938H169.281V24.5H180.281V27.6875H154.344V24.5H165.281V22.0938H157.656V10.4688H161.594ZM161.594 18.9062H173V16.375H161.594V18.9062ZM177.344 34.1875V37.375H157.469V29.3125H161.469V34.1875H177.344ZM402.281 11.125C406.656 11.125 410.062 14 410.094 18.0938C410.062 21.5312 407.672 24.1094 404.312 24.8438V28.7188C406.562 28.625 408.797 28.4375 410.906 28.1562L411.188 31.0938C405.25 32.2188 398.844 32.2188 394 32.1562L393.469 28.9375C395.516 28.9219 397.875 28.9219 400.344 28.875V24.875C396.859 24.1719 394.469 21.5781 394.469 18.0938C394.469 14 397.781 11.125 402.281 11.125ZM402.281 14.5C400.031 14.5 398.344 15.8125 398.375 18.0938C398.344 20.3438 400.031 21.6875 402.281 21.6875C404.469 21.6875 406.156 20.3438 406.156 18.0938C406.156 15.8125 404.469 14.5 402.281 14.5ZM416.406 9.4375V20.5938H420.281V23.9375H416.406V37.875H412.406V9.4375H416.406ZM456.5 9.4375V37.9375H452.469V9.4375H456.5ZM438.094 11.6875V18.625H444.219V11.6875H448.156V31.2812H434.094V11.6875H438.094ZM438.094 28.0625H444.219V21.7188H438.094V28.0625ZM487.281 22.75V25.9688H461.344V22.75H487.281ZM476.312 28.0312C476.312 31.0312 479.281 33.9375 485.531 34.6875L484.062 37.75C479.391 37.1094 476.047 35.2969 474.281 32.7188C472.516 35.2969 469.172 37.1094 464.5 37.75L463.094 34.6875C469.281 33.9375 472.25 31.0312 472.281 28.0312V27.4375H476.312V28.0312ZM476.375 10.875C476.375 13.9062 479.656 17.2812 486 18.0312L484.469 21.2188C479.656 20.5156 476.125 18.375 474.312 15.5312C472.484 18.3906 468.938 20.5156 464.125 21.2188L462.656 18.0312C468.938 17.2812 472.25 13.9688 472.281 10.875V9.90625H476.375V10.875ZM512.562 9.46875V18.1875H516.406V21.4375H512.562V30.6875H508.562V9.46875H512.562ZM506.875 12.4375V15.5938H490V12.4375H496.469V9.40625H500.438V12.4375H506.875ZM498.438 16.5938C502.562 16.5938 505.438 18.8125 505.438 22.0938C505.438 25.375 502.562 27.5312 498.438 27.5312C494.281 27.5312 491.375 25.375 491.375 22.0938C491.375 18.8125 494.281 16.5938 498.438 16.5938ZM498.438 19.625C496.531 19.6562 495.25 20.5312 495.281 22.0938C495.25 23.6562 496.531 24.5 498.438 24.5C500.344 24.5 501.656 23.6562 501.656 22.0938C501.656 20.5312 500.344 19.6562 498.438 19.625ZM513.594 34.1875V37.375H494.125V29.0625H498.094V34.1875H513.594ZM539.625 15.875C539.625 21.2188 541.781 26.4062 546.531 28.4688L544.094 31.6562C540.938 30.1094 538.828 27.2812 537.656 23.7812C536.406 27.5 534.219 30.5469 530.969 32.1562L528.469 28.9062C533.344 26.7188 535.562 21.2188 535.594 15.875V11.625H539.625V15.875ZM552.875 9.4375V37.9375H548.938V21.5938H543.344V18.375H548.938V9.4375H552.875ZM581.344 9.4375V37.9375H577.312V9.4375H581.344ZM562.938 11.6875V18.625H569.062V11.6875H573V31.2812H558.938V11.6875H562.938ZM562.938 28.0625H569.062V21.7188H562.938V28.0625ZM601.156 13.1875C601.156 17.3438 604.844 21.8125 611.281 22.9062L609.531 26.2188C604.578 25.2344 600.891 22.4531 599.062 18.7812C597.172 22.4219 593.484 25.2188 588.562 26.2188L586.844 22.9062C593.156 21.7812 596.875 17.3125 596.906 13.1875V11.125H601.156V13.1875ZM612.219 31.0938V34.375H586.188V31.0938H612.219Z" fill="#1F2123"/>
<path d="M219.156 25.125V28.3125H208.094V37.875H204.156V28.3125H193.219V25.125H219.156ZM216.844 10.9375V14.0625H208.562C208.953 16.8438 212.094 19.6406 217.938 20.3438L216.5 23.4688C211.5 22.7969 207.922 20.6562 206.219 17.7188C204.469 20.6562 200.922 22.7969 195.969 23.4688L194.5 20.3438C200.25 19.6406 203.422 16.8438 203.875 14.0625H195.562V10.9375H216.844ZM237.219 11.7188V25.4375H223.312V11.7188H237.219ZM227.25 14.875V22.2812H233.25V14.875H227.25ZM245.688 9.46875V29.6875H241.688V9.46875H245.688ZM246.438 34.0312V37.25H226.625V27.8125H230.656V34.0312H246.438ZM276.531 22.4375V25.6875H250.531V22.4375H276.531ZM273.562 17.2812V20.4375H253.688V10.1875H273.406V13.4062H257.656V17.2812H273.562ZM263.469 27.4062C269.625 27.4062 273.344 29.2812 273.375 32.625C273.344 36 269.625 37.875 263.469 37.875C257.25 37.875 253.5 36 253.5 32.625C253.5 29.2812 257.25 27.4062 263.469 27.4062ZM263.469 30.4375C259.531 30.4375 257.531 31.1875 257.562 32.625C257.531 34.125 259.531 34.8438 263.469 34.8438C267.312 34.8438 269.344 34.125 269.375 32.625C269.344 31.1875 267.312 30.4375 263.469 30.4375ZM305.188 24.6875V27.875H279.156V24.6875H290.188V22.625H282.406V14.8125H298.031V13.0625H282.344V9.96875H302.031V17.6875H286.375V19.5625H302.562V22.625H294.156V24.6875H305.188ZM302.188 29.5V37.75H298.156V32.625H282.062V29.5H302.188ZM333.844 22.4375V25.6875H307.844V22.4375H333.844ZM330.875 17.2812V20.4375H311V10.1875H330.719V13.4062H314.969V17.2812H330.875ZM320.781 27.4062C326.938 27.4062 330.656 29.2812 330.688 32.625C330.656 36 326.938 37.875 320.781 37.875C314.562 37.875 310.812 36 310.812 32.625C310.812 29.2812 314.562 27.4062 320.781 27.4062ZM320.781 30.4375C316.844 30.4375 314.844 31.1875 314.875 32.625C314.844 34.125 316.844 34.8438 320.781 34.8438C324.625 34.8438 326.656 34.125 326.688 32.625C326.656 31.1875 324.625 30.4375 320.781 30.4375ZM343.75 10.4688V13.3125H355.156V10.4688H359.125V22.0938H351.438V24.5H362.438V27.6875H336.5V24.5H347.438V22.0938H339.812V10.4688H343.75ZM343.75 18.9062H355.156V16.375H343.75V18.9062ZM359.5 34.1875V37.375H339.625V29.3125H343.625V34.1875H359.5ZM391.188 31.5312V34.7188H365.156V31.5312H371.625V26.125H367.312V22.9062H371.125V14.9062H367.188V11.7188H389V14.9062H385V22.9062H388.875V26.125H384.594V31.5312H391.188ZM375.125 22.9062H381.062V14.9062H375.125V22.9062ZM375.625 31.5312H380.594V26.125H375.625V31.5312Z" fill="#256EF4"/>
<rect y="80" width="384" height="208" rx="12" fill="white"/>
<rect opacity="0.3" x="24" y="127" width="210" height="12" fill="#256EF4"/>
<path d="M48.0859 123.594V125.984H39.7891V133.156H36.8359V125.984H28.6328V123.594H48.0859ZM46.3516 112.953V115.297H40.1406C40.4336 117.383 42.7891 119.48 47.1719 120.008L46.0938 122.352C42.3438 121.848 39.6602 120.242 38.3828 118.039C37.0703 120.242 34.4102 121.848 30.6953 122.352L29.5938 120.008C33.9062 119.48 36.2852 117.383 36.625 115.297H30.3906V112.953H46.3516ZM60.8828 113.539V123.828H50.4531V113.539H60.8828ZM53.4062 115.906V121.461H57.9062V115.906H53.4062ZM67.2344 111.852V127.016H64.2344V111.852H67.2344ZM67.7969 130.273V132.688H52.9375V125.609H55.9609V130.273H67.7969ZM89.6172 121.578V124.016H70.1172V121.578H89.6172ZM87.3906 117.711V120.078H72.4844V112.391H87.2734V114.805H75.4609V117.711H87.3906ZM79.8203 125.305C84.4375 125.305 87.2266 126.711 87.25 129.219C87.2266 131.75 84.4375 133.156 79.8203 133.156C75.1562 133.156 72.3438 131.75 72.3438 129.219C72.3438 126.711 75.1562 125.305 79.8203 125.305ZM79.8203 127.578C76.8672 127.578 75.3672 128.141 75.3906 129.219C75.3672 130.344 76.8672 130.883 79.8203 130.883C82.7031 130.883 84.2266 130.344 84.25 129.219C84.2266 128.141 82.7031 127.578 79.8203 127.578ZM110.359 123.266V125.656H90.8359V123.266H99.1094V121.719H93.2734V115.859H104.992V114.547H93.2266V112.227H107.992V118.016H96.25V119.422H108.391V121.719H102.086V123.266H110.359ZM108.109 126.875V133.062H105.086V129.219H93.0156V126.875H108.109ZM131.125 128.398V130.789H111.602V128.398H116.453V124.344H113.219V121.93H116.078V115.93H113.125V113.539H129.484V115.93H126.484V121.93H129.391V124.344H126.18V128.398H131.125ZM119.078 121.93H123.531V115.93H119.078V121.93ZM119.453 128.398H123.18V124.344H119.453V128.398ZM158.758 121.578V124.016H139.258V121.578H158.758ZM156.531 117.711V120.078H141.625V112.391H156.414V114.805H144.602V117.711H156.531ZM148.961 125.305C153.578 125.305 156.367 126.711 156.391 129.219C156.367 131.75 153.578 133.156 148.961 133.156C144.297 133.156 141.484 131.75 141.484 129.219C141.484 126.711 144.297 125.305 148.961 125.305ZM148.961 127.578C146.008 127.578 144.508 128.141 144.531 129.219C144.508 130.344 146.008 130.883 148.961 130.883C151.844 130.883 153.367 130.344 153.391 129.219C153.367 128.141 151.844 127.578 148.961 127.578ZM165.438 112.602V114.734H173.992V112.602H176.969V121.32H171.203V123.125H179.453V125.516H160V123.125H168.203V121.32H162.484V112.602H165.438ZM165.438 118.93H173.992V117.031H165.438V118.93ZM177.25 130.391V132.781H162.344V126.734H165.344V130.391H177.25ZM191.266 112.789V115.32H195.625V112.789H198.625V122.094H188.289V112.789H191.266ZM191.266 119.75H195.625V117.57H191.266V119.75ZM204.578 111.828V115.977H207.461V118.391H204.578V122.68H201.578V111.828H204.578ZM204.578 123.477V129.266H193.398V130.648H205.188V133.016H190.469V127.133H201.602V125.797H190.422V123.477H204.578ZM213.672 123.969V126.242H222.555V123.969H225.508V132.922H210.742V123.969H213.672ZM213.672 130.508H222.555V128.516H213.672V130.508ZM225.602 112.695V114.406C225.602 116.023 225.602 117.758 225.109 120.172H227.922V122.562H208.398V120.172H222.133C222.555 118.109 222.613 116.504 222.625 115.086H210.789V112.695H225.602Z" fill="#1D1D1D"/>
<path d="M31.1045 155.01C31.0898 156.753 33.4189 158.232 35.6895 158.569L35.2646 159.478C33.2285 159.133 31.251 158.049 30.46 156.475C29.6689 158.049 27.6841 159.133 25.6846 159.478L25.2305 158.569C27.4863 158.232 29.8154 156.753 29.8154 155.01V154.922H25.6406V153.984H35.2646V154.922H31.1045V155.01ZM36.3926 160.591V161.543H31.002V166.187H29.874V161.543H24.5273V160.591H36.3926ZM44.2881 154.307V160.342H38.1797V154.307H44.2881ZM39.3076 155.259V159.419H43.1602V155.259H39.3076ZM48.2432 153.179V162.539H47.1006V153.179H48.2432ZM48.6533 164.795V165.747H39.835V161.631H40.9775V164.795H48.6533ZM62.335 159.36V160.327H50.4551V159.36H62.335ZM60.9434 157.178V158.115H51.9639V153.691H60.8555V154.658H53.0918V157.178H60.9434ZM56.3877 161.47C59.1855 161.47 60.8555 162.319 60.8701 163.813C60.8555 165.322 59.1855 166.157 56.3877 166.157C53.5752 166.157 51.8906 165.322 51.8906 163.813C51.8906 162.319 53.5752 161.47 56.3877 161.47ZM56.3877 162.363C54.293 162.378 53.0479 162.905 53.0625 163.813C53.0479 164.736 54.293 165.249 56.3877 165.249C58.4531 165.249 59.7129 164.736 59.7129 163.813C59.7129 162.905 58.4531 162.378 56.3877 162.363ZM75.3281 160.342V161.294H63.4043V160.342H68.7949V158.965H64.957V155.786H72.6328V154.438H64.9131V153.501H73.79V156.65H66.0996V158.042H74.0684V158.965H69.9229V160.342H75.3281ZM73.8633 162.29V166.069H72.7061V163.228H64.7373V162.29H73.8633ZM88.3066 163.638V164.59H76.3828V163.638H79.708V160.532H77.4668V159.58H79.5029V155.332H77.4375V154.38H87.1641V155.332H85.0986V159.58H87.1348V160.532H84.8936V163.638H88.3066ZM80.6455 159.58H83.9707V155.332H80.6455V159.58ZM80.8652 163.638H83.751V160.532H80.8652V163.638ZM105.548 159.36V160.327H93.668V159.36H105.548ZM104.156 157.178V158.115H95.1768V153.691H104.068V154.658H96.3047V157.178H104.156ZM99.6006 161.47C102.398 161.47 104.068 162.319 104.083 163.813C104.068 165.322 102.398 166.157 99.6006 166.157C96.7881 166.157 95.1035 165.322 95.1035 163.813C95.1035 162.319 96.7881 161.47 99.6006 161.47ZM99.6006 162.363C97.5059 162.378 96.2607 162.905 96.2754 163.813C96.2607 164.736 97.5059 165.249 99.6006 165.249C101.666 165.249 102.926 164.736 102.926 163.813C102.926 162.905 101.666 162.378 99.6006 162.363ZM109.356 153.691V155.347H115.802V153.691H116.944V158.892H113.136V160.283H118.497V161.235H106.632V160.283H111.993V158.892H108.214V153.691H109.356ZM109.356 157.969H115.802V156.255H109.356V157.969ZM117.179 164.941V165.908H108.17V162.275H109.327V164.941H117.179ZM134.889 159.214V160.151H130.172V154.409H134.728V155.347H131.329V159.214H134.889ZM135.841 163.564V164.517H123.917V163.564H129.264V160.811H130.392V163.564H135.841ZM129.381 154.409V155.361H126.1V159.199C127.198 159.192 128.29 159.104 129.498 158.833L129.601 159.8C128.18 160.122 126.979 160.166 125.675 160.151H124.957V154.409H129.381ZM147.413 157.119V158.042H138.492V153.647H139.635V157.119H147.413ZM148.79 159.814V160.752H136.866V159.814H148.79ZM147.486 164.912V165.864H138.419V162.085H139.562V164.912H147.486ZM160.743 155.01C160.729 156.753 163.058 158.232 165.328 158.569L164.903 159.478C162.867 159.133 160.89 158.049 160.099 156.475C159.308 158.049 157.323 159.133 155.323 159.478L154.869 158.569C157.125 158.232 159.454 156.753 159.454 155.01V154.922H155.279V153.984H164.903V154.922H160.743V155.01ZM166.031 160.591V161.543H160.641V166.187H159.513V161.543H154.166V160.591H166.031ZM173.927 154.307V160.342H167.818V154.307H173.927ZM168.946 155.259V159.419H172.799V155.259H168.946ZM177.882 153.179V162.539H176.739V153.179H177.882ZM178.292 164.795V165.747H169.474V161.631H170.616V164.795H178.292ZM191.974 159.36V160.327H180.094V159.36H191.974ZM190.582 157.178V158.115H181.603V153.691H190.494V154.658H182.73V157.178H190.582ZM186.026 161.47C188.824 161.47 190.494 162.319 190.509 163.813C190.494 165.322 188.824 166.157 186.026 166.157C183.214 166.157 181.529 165.322 181.529 163.813C181.529 162.319 183.214 161.47 186.026 161.47ZM186.026 162.363C183.932 162.378 182.687 162.905 182.701 163.813C182.687 164.736 183.932 165.249 186.026 165.249C188.092 165.249 189.352 164.736 189.352 163.813C189.352 162.905 188.092 162.378 186.026 162.363ZM204.967 160.342V161.294H193.043V160.342H198.434V158.965H194.596V155.786H202.271V154.438H194.552V153.501H203.429V156.65H195.738V158.042H203.707V158.965H199.562V160.342H204.967ZM203.502 162.29V166.069H202.345V163.228H194.376V162.29H203.502ZM217.945 163.638V164.59H206.021V163.638H209.347V160.532H207.105V159.58H209.142V155.332H207.076V154.38H216.803V155.332H214.737V159.58H216.773V160.532H214.532V163.638H217.945ZM210.284 159.58H213.609V155.332H210.284V159.58ZM210.504 163.638H213.39V160.532H210.504V163.638ZM235.23 163.579V164.546H223.307V163.579H228.683V160.591H229.811V163.579H235.23ZM234.088 155.244V156.196H229.84C229.847 158.24 232.015 159.741 234.513 160.151L234.073 161.06C231.986 160.686 230.074 159.639 229.254 158.013C228.426 159.639 226.515 160.686 224.42 161.06L223.966 160.151C226.478 159.741 228.661 158.24 228.668 156.196H224.42V155.244H228.683V153.442H229.811V155.244H234.088ZM238.995 153.691V155.347H245.44V153.691H246.583V158.892H242.774V160.283H248.136V161.235H236.271V160.283H241.632V158.892H237.853V153.691H238.995ZM238.995 157.969H245.44V156.255H238.995V157.969ZM246.817 164.941V165.908H237.809V162.275H238.966V164.941H246.817ZM255.167 153.398C258.067 153.398 259.767 154.189 259.767 155.64C259.767 157.119 258.067 157.91 255.167 157.925C252.267 157.91 250.553 157.119 250.553 155.64C250.553 154.189 252.267 153.398 255.167 153.398ZM255.167 154.263C252.999 154.263 251.739 154.79 251.754 155.64C251.739 156.548 252.999 157.046 255.167 157.046C257.32 157.046 258.595 156.548 258.595 155.64C258.595 154.79 257.32 154.263 255.167 154.263ZM261.1 158.804V159.741H249.234V158.804H261.1ZM259.576 160.869V163.784H251.842V165.132H259.972V166.04H250.699V162.935H258.448V161.748H250.67V160.869H259.576ZM26.2119 176.721V178.596H30.0059V176.721H31.1484V182.39H25.084V176.721H26.2119ZM26.2119 181.452H30.0059V179.489H26.2119V181.452ZM34.708 176.164V178.991H36.6709V179.958H34.708V182.902H33.5654V176.164H34.708ZM34.708 183.518V186.667H27.5596V188.103H35.1914V189.04H26.4316V185.788H33.5654V184.44H26.4023V183.518H34.708ZM40.1865 183.62V185.349H46.7051V183.62H47.8477V189.011H39.0439V183.62H40.1865ZM40.1865 188.073H46.7051V186.257H40.1865V188.073ZM47.8477 176.765V177.717C47.8477 178.713 47.8477 179.87 47.4961 181.496H49.415V182.448H37.4912V181.496H46.3682C46.7051 179.877 46.7051 178.713 46.7051 177.717H39V176.765H47.8477ZM60.6357 176.164V179.313H62.5986V180.28H60.6357V183.781H59.4932V176.164H60.6357ZM52.1396 176.911V178.903H55.9336V176.911H57.0762V182.961H51.0117V176.911H52.1396ZM52.1396 182.038H55.9336V179.826H52.1396V182.038ZM60.7383 184.514V185.437H53.6045V188.073H60.9873V189.011H52.4619V184.514H60.7383ZM74.1855 176.164V189.187H73.0283V176.164H74.1855ZM70.333 177.585C70.3184 181.335 68.5752 184.646 64.21 186.74L63.5801 185.803C67.103 184.133 68.8975 181.635 69.1611 178.522H64.1807V177.585H70.333ZM84.9961 176.809C86.9443 176.794 88.3359 177.863 88.3359 179.46C88.3359 181.042 86.9443 182.141 84.9961 182.126C83.0479 182.141 81.6562 181.042 81.6562 179.46C81.6562 177.863 83.0479 176.794 84.9961 176.809ZM84.9961 177.746C83.6924 177.731 82.7695 178.449 82.7842 179.46C82.7695 180.485 83.6924 181.188 84.9961 181.174C86.3145 181.188 87.2373 180.485 87.2373 179.46C87.2373 178.449 86.3145 177.731 84.9961 177.746ZM91.4414 176.179V189.201H90.3135V176.179H91.4414ZM80.6748 183.239C83.1211 183.239 86.4609 183.195 89.3613 182.771L89.4346 183.635C88.1895 183.862 86.8931 184.001 85.6406 184.074V188.791H84.498V184.147C83.1724 184.206 81.9199 184.213 80.8359 184.221L80.6748 183.239ZM103.849 176.179V180.471H105.812V181.438H103.849V185.935H102.706V176.179H103.849ZM101.461 177.775V178.713H93.6973V177.775H97.0078V176.179H98.1504V177.775H101.461ZM97.5791 179.431C99.4395 179.431 100.699 180.383 100.714 181.862C100.699 183.327 99.4395 184.265 97.5791 184.265C95.7041 184.265 94.4297 183.327 94.4443 181.862C94.4297 180.383 95.7041 179.431 97.5791 179.431ZM97.5791 180.339C96.3486 180.339 95.5283 180.939 95.543 181.862C95.5283 182.785 96.3486 183.371 97.5791 183.356C98.7949 183.371 99.6152 182.785 99.6299 181.862C99.6152 180.939 98.7949 180.339 97.5791 180.339ZM104.449 187.941V188.908H95.7041V185.158H96.832V187.941H104.449ZM117.75 177.307V183.342H111.642V177.307H117.75ZM112.77 178.259V182.419H116.622V178.259H112.77ZM121.705 176.179V185.539H120.562V176.179H121.705ZM122.115 187.795V188.747H113.297V184.631H114.439V187.795H122.115ZM134.654 176.179V186.066H133.497V184.719H130.802V183.884H133.497V176.179H134.654ZM134.977 187.941V188.908H125.719V185.1H126.876V187.941H134.977ZM123.844 182.214C126.275 182.199 129.527 182.185 132.325 181.833L132.398 182.668C131.234 182.851 130.018 182.968 128.824 183.034V185.612H127.667V183.093C126.349 183.151 125.096 183.159 124.005 183.151L123.844 182.214ZM128.121 176.706C130.025 176.706 131.329 177.614 131.344 178.977C131.329 180.368 130.025 181.232 128.121 181.232C126.202 181.232 124.898 180.368 124.898 178.977C124.898 177.614 126.202 176.706 128.121 176.706ZM128.121 177.585C126.847 177.57 125.982 178.142 125.997 178.977C125.982 179.826 126.847 180.383 128.121 180.383C129.352 180.383 130.23 179.826 130.245 178.977C130.23 178.142 129.352 177.57 128.121 177.585ZM147.633 176.164V183.151H146.49V176.164H147.633ZM140.338 183.811V185.393H146.49V183.811H147.633V189.011H139.195V183.811H140.338ZM140.338 188.073H146.49V186.315H140.338V188.073ZM140.602 176.809C142.579 176.794 144.015 178.01 144.015 179.797C144.015 181.569 142.579 182.785 140.602 182.785C138.624 182.785 137.188 181.569 137.188 179.797C137.188 178.01 138.624 176.794 140.602 176.809ZM140.602 177.775C139.269 177.761 138.302 178.61 138.316 179.797C138.302 180.983 139.269 181.833 140.602 181.833C141.92 181.833 142.887 180.983 142.887 179.797C142.887 178.61 141.92 177.761 140.602 177.775ZM160.582 176.164V189.187H159.439V176.164H160.582ZM151.822 177.453V184.836C153.807 184.829 155.865 184.667 158.048 184.206L158.209 185.188C155.895 185.671 153.829 185.832 151.749 185.832H150.694V177.453H151.822ZM172.887 176.164V181.32H175.069V182.287H172.887V189.216H171.744V176.164H172.887ZM169.459 177.438V178.391H164.522V184.982C166.881 184.982 168.551 184.873 170.484 184.514L170.631 185.51C168.595 185.876 166.881 185.949 164.405 185.949H163.38V177.438H169.459ZM177.398 188.088C176.886 188.088 176.446 187.663 176.461 187.136C176.446 186.623 176.886 186.198 177.398 186.198C177.911 186.198 178.336 186.623 178.336 187.136C178.336 187.663 177.911 188.088 177.398 188.088Z" fill="#494D50"/>
<path d="M284.5 230C284.5 226.962 286.962 224.5 290 224.5H354C357.038 224.5 359.5 226.962 359.5 230V258C359.5 261.038 357.038 263.5 354 263.5H290C286.962 263.5 284.5 261.038 284.5 258V230Z" fill="#F0F5FE"/>
<path d="M284.5 230C284.5 226.962 286.962 224.5 290 224.5H354C357.038 224.5 359.5 226.962 359.5 230V258C359.5 261.038 357.038 263.5 354 263.5H290C286.962 263.5 284.5 261.038 284.5 258V230Z" stroke="#256EF4"/>
<path d="M298.284 238.221V240.096H302.078V238.221H303.221V243.89H297.156V238.221H298.284ZM298.284 242.952H302.078V240.989H298.284V242.952ZM306.78 237.664V240.491H308.743V241.458H306.78V244.402H305.638V237.664H306.78ZM306.78 245.018V248.167H299.632V249.603H307.264V250.54H298.504V247.288H305.638V245.94H298.475V245.018H306.78ZM312.259 245.12V246.849H318.777V245.12H319.92V250.511H311.116V245.12H312.259ZM312.259 249.573H318.777V247.757H312.259V249.573ZM319.92 238.265V239.217C319.92 240.213 319.92 241.37 319.568 242.996H321.487V243.948H309.563V242.996H318.44C318.777 241.377 318.777 240.213 318.777 239.217H311.072V238.265H319.92ZM332.605 237.664V243.04H334.788V243.992H332.605V250.687H331.463V237.664H332.605ZM330.203 239.759V240.711H322.454V239.759H325.809V237.825H326.951V239.759H330.203ZM326.395 241.795C328.24 241.795 329.573 243.025 329.588 244.783C329.573 246.541 328.24 247.771 326.395 247.771C324.534 247.771 323.187 246.541 323.201 244.783C323.187 243.025 324.534 241.795 326.395 241.795ZM326.395 242.762C325.179 242.762 324.285 243.611 324.3 244.783C324.285 245.97 325.179 246.805 326.395 246.79C327.596 246.805 328.475 245.97 328.489 244.783C328.475 243.611 327.596 242.762 326.395 242.762ZM346.258 237.664V250.687H345.101V237.664H346.258ZM342.405 239.085C342.391 242.835 340.647 246.146 336.282 248.24L335.652 247.303C339.175 245.633 340.97 243.135 341.233 240.022H336.253V239.085H342.405Z" fill="#0B50D0"/>
<rect x="408" y="80" width="792" height="96" rx="12" fill="white"/>
<rect x="432" y="111.5" width="6" height="6" rx="2" fill="#256EF4"/>
<path d="M460.732 105.841V118.18H458.376V112.669H455.352V110.721H458.376V105.841H460.732ZM455.5 107.084C455.5 111.611 452.624 114.951 447.688 116.491L446.724 114.617C450.221 113.522 452.476 111.509 452.921 109.014H447.596V107.084H455.5ZM461.159 120.518V122.41H449.6V116.937H452.012V120.518H461.159ZM478.322 114.135V116.009H471.772V117.475H476.448V122.688H474.092V119.349H464.629V117.475H469.435V116.009H462.922V114.135H478.322ZM471.772 105.841V107.362H476.838V109.199H471.958C472.227 110.415 473.943 111.509 477.636 111.76L476.912 113.522C473.813 113.309 471.661 112.418 470.604 111.055C469.537 112.418 467.384 113.309 464.295 113.522L463.571 111.76C467.245 111.509 468.961 110.415 469.249 109.199H464.406V107.362H469.435V105.841H471.772ZM494.743 112.521V114.395H488.212V115.471H492.869V119.794H483.462V120.814H493.314V122.596H481.143V118.124H490.531V117.252H481.124V115.471H485.837V114.395H479.343V112.521H494.743ZM492.795 106.305V111.63H481.254V106.305H492.795ZM483.573 108.142V109.812H490.438V108.142H483.573ZM510.366 105.822V122.707H508.121V114.228H506.488V121.891H504.317V106.101H506.488V112.335H508.121V105.822H510.366ZM502.536 107.771V109.682H498.621V116.881C500.254 116.872 501.701 116.788 503.334 116.491L503.501 118.421C501.441 118.811 499.642 118.866 497.415 118.885H496.246V107.771H502.536ZM521.777 106.954V108.847H518.419C518.438 110.813 519.616 112.715 522.315 113.504L521.184 115.359C519.319 114.793 518.029 113.662 517.287 112.205C516.536 113.912 515.163 115.267 513.131 115.935L511.925 114.061C514.727 113.179 515.988 110.99 516.025 108.847H512.574V106.954H521.777ZM525.581 105.822V109.737H527.863V111.667H525.581V115.842H523.206V105.822H525.581ZM520.052 116.176C523.559 116.157 525.748 117.363 525.748 119.423C525.748 121.482 523.559 122.707 520.052 122.707C516.471 122.707 514.263 121.482 514.263 119.423C514.263 117.363 516.471 116.157 520.052 116.176ZM520.052 118.013C517.825 118.013 516.619 118.477 516.638 119.423C516.619 120.388 517.825 120.87 520.052 120.87C522.241 120.87 523.41 120.388 523.41 119.423C523.41 118.477 522.241 118.013 520.052 118.013Z" fill="#1E2124"/>
<path d="M457.265 138.164V151.216H456.107V138.164H457.265ZM450.336 139.175C452.27 139.189 453.661 140.947 453.661 143.716C453.661 146.484 452.27 148.242 450.336 148.242C448.388 148.242 447.011 146.484 447.011 143.716C447.011 140.947 448.388 139.189 450.336 139.175ZM450.336 140.2C449.032 140.215 448.124 141.592 448.124 143.716C448.124 145.84 449.032 147.217 450.336 147.217C451.64 147.217 452.548 145.84 452.548 143.716C452.548 141.592 451.64 140.215 450.336 140.2ZM470.609 139.307V145.342H464.501V139.307H470.609ZM465.629 140.259V144.419H469.481V140.259H465.629ZM474.564 138.179V147.539H473.422V138.179H474.564ZM474.975 149.795V150.747H466.156V146.631H467.299V149.795H474.975ZM487.514 138.179V148.066H486.356V146.719H483.661V145.884H486.356V138.179H487.514ZM487.836 149.941V150.908H478.578V147.1H479.735V149.941H487.836ZM476.703 144.214C479.135 144.199 482.387 144.185 485.185 143.833L485.258 144.668C484.093 144.851 482.877 144.968 481.684 145.034V147.612H480.526V145.093C479.208 145.151 477.956 145.159 476.864 145.151L476.703 144.214ZM480.98 138.706C482.885 138.706 484.188 139.614 484.203 140.977C484.188 142.368 482.885 143.232 480.98 143.232C479.062 143.232 477.758 142.368 477.758 140.977C477.758 139.614 479.062 138.706 480.98 138.706ZM480.98 139.585C479.706 139.57 478.842 140.142 478.856 140.977C478.842 141.826 479.706 142.383 480.98 142.383C482.211 142.383 483.09 141.826 483.104 140.977C483.09 140.142 482.211 139.57 480.98 139.585ZM501.605 145.034V145.972H489.74V145.034H501.605ZM500.287 149.941V150.908H491.278V147.114H492.436V149.941H500.287ZM495.673 138.633C498.471 138.618 500.272 139.585 500.272 141.211C500.272 142.837 498.471 143.804 495.673 143.804C492.846 143.804 491.059 142.837 491.059 141.211C491.059 139.585 492.846 138.618 495.673 138.633ZM495.673 139.556C493.578 139.556 492.23 140.186 492.245 141.211C492.23 142.236 493.578 142.866 495.673 142.866C497.753 142.866 499.101 142.236 499.101 141.211C499.101 140.186 497.753 139.556 495.673 139.556ZM517.821 138.179V147.803H516.664V143.159H513.778V142.192H516.664V138.179H517.821ZM513.837 139.175C513.822 142.515 511.435 145.063 507.729 146.279L507.23 145.356C510.233 144.368 512.321 142.5 512.577 140.142H507.89V139.175H513.837ZM518.158 149.941V150.908H509.53V146.821H510.702V149.941H518.158ZM531.854 144.727V145.664H526.479V147.158H530.39V151.143H529.232V148.096H521.308V147.158H525.351V145.664H519.989V144.727H531.854ZM526.479 138.105V139.453H530.653V140.376H526.552C526.632 141.855 528.69 142.874 531.151 143.115L530.771 143.994C528.625 143.76 526.706 142.976 525.922 141.65C525.131 142.976 523.212 143.76 521.073 143.994L520.692 143.115C523.139 142.874 525.197 141.855 525.292 140.376H521.22V139.453H525.351V138.105H526.479ZM544.818 143.672V144.609H539.442V145.898H543.295V148.813H535.561V150.132H543.69V151.04H534.418V147.949H542.167V146.792H534.389V145.898H538.3V144.609H532.953V143.672H544.818ZM543.28 138.604V142.573H534.491V138.604H543.28ZM535.634 139.526V141.65H542.138V139.526H535.634ZM557.05 138.164V151.187H555.951V144.36H554.032V150.513H552.978V138.457H554.032V143.408H555.951V138.164H557.05ZM551.278 139.761V140.713H547.543V146.982C549.337 146.975 550.583 146.909 552.025 146.616L552.128 147.583C550.561 147.905 549.228 147.964 547.235 147.964H546.4V139.761H551.278ZM563.29 140.64C563.29 142.339 564.564 143.862 566.483 144.492L565.941 145.4C564.44 144.91 563.305 143.87 562.748 142.559C562.184 144.053 560.983 145.217 559.423 145.781L558.837 144.858C560.785 144.199 562.147 142.515 562.162 140.64V140.083H559.188V139.131H566.22V140.083H563.29V140.64ZM569.062 138.164V141.489H571.024V142.456H569.062V146.03H567.919V138.164H569.062ZM564.887 146.382C567.567 146.382 569.179 147.261 569.179 148.755C569.179 150.278 567.567 151.157 564.887 151.157C562.206 151.157 560.565 150.278 560.565 148.755C560.565 147.261 562.206 146.382 564.887 146.382ZM564.887 147.305C562.924 147.305 561.708 147.847 561.723 148.755C561.708 149.692 562.924 150.234 564.887 150.234C566.864 150.234 568.065 149.692 568.065 148.755C568.065 147.847 566.864 147.305 564.887 147.305ZM576.107 139.116C578.158 139.116 579.608 140.361 579.608 142.178C579.608 143.994 578.158 145.239 576.107 145.239C574.057 145.239 572.577 143.994 572.592 142.178C572.577 140.361 574.057 139.116 576.107 139.116ZM576.107 140.127C574.716 140.127 573.705 140.962 573.72 142.178C573.705 143.394 574.716 144.229 576.107 144.229C577.484 144.229 578.48 143.394 578.48 142.178C578.48 140.962 577.484 140.127 576.107 140.127ZM582.523 138.164V151.216H581.381V138.164H582.523ZM571.918 147.363C574.32 147.363 577.631 147.349 580.517 146.924L580.604 147.773C577.631 148.33 574.423 148.345 572.079 148.345L571.918 147.363ZM590.814 138.721V140.596H594.608V138.721H595.751V144.39H589.687V138.721H590.814ZM590.814 143.452H594.608V141.489H590.814V143.452ZM599.311 138.164V140.991H601.273V141.958H599.311V144.902H598.168V138.164H599.311ZM599.311 145.518V148.667H592.162V150.103H599.794V151.04H591.034V147.788H598.168V146.44H591.005V145.518H599.311ZM604.789 145.62V147.349H611.308V145.62H612.45V151.011H603.646V145.62H604.789ZM604.789 150.073H611.308V148.257H604.789V150.073ZM612.45 138.765V139.717C612.45 140.713 612.45 141.87 612.099 143.496H614.018V144.448H602.094V143.496H610.971C611.308 141.877 611.308 140.713 611.308 139.717H603.603V138.765H612.45ZM630.351 144.214V145.151H625.634V139.409H630.189V140.347H626.791V144.214H630.351ZM631.303 148.564V149.517H619.379V148.564H624.726V145.811H625.854V148.564H631.303ZM624.843 139.409V140.361H621.562V144.199C622.66 144.192 623.751 144.104 624.96 143.833L625.062 144.8C623.642 145.122 622.44 145.166 621.137 145.151H620.419V139.409H624.843ZM642.875 142.119V143.042H633.954V138.647H635.097V142.119H642.875ZM644.252 144.814V145.752H632.328V144.814H644.252ZM642.948 149.912V150.864H633.881V147.085H635.023V149.912H642.948ZM653.217 138.633C654.359 138.633 655.326 139.058 655.927 139.761H659.267V138.164H660.409V144.858H659.267V143.364H655.971C655.363 144.097 654.381 144.536 653.217 144.536C651.254 144.536 649.833 143.335 649.833 141.577C649.833 139.834 651.254 138.633 653.217 138.633ZM653.217 139.585C651.884 139.57 650.932 140.405 650.932 141.577C650.932 142.764 651.884 143.599 653.217 143.613C654.506 143.599 655.473 142.764 655.473 141.577C655.473 140.405 654.506 139.57 653.217 139.585ZM660.409 145.518V148.638H653.144V150.088H660.907V151.011H652.001V147.759H659.267V146.44H651.972V145.518H660.409ZM656.454 140.684C656.535 140.962 656.586 141.262 656.586 141.577C656.586 141.885 656.535 142.17 656.454 142.441H659.267V140.684H656.454ZM672.772 138.179V141.519H674.75V142.5H672.772V145.942H671.63V138.179H672.772ZM672.772 146.587V151.011H664.525V146.587H672.772ZM665.653 147.48V150.073H671.659V147.48H665.653ZM669.052 138.882V142.441H664.306V144.287C666.62 144.287 668.297 144.221 670.326 143.892L670.443 144.814C668.349 145.181 666.605 145.254 664.188 145.254H663.178V141.548H667.924V139.834H663.148V138.882H669.052ZM681.488 138.398C684.389 138.398 686.088 139.189 686.088 140.64C686.088 142.119 684.389 142.91 681.488 142.925C678.588 142.91 676.874 142.119 676.874 140.64C676.874 139.189 678.588 138.398 681.488 138.398ZM681.488 139.263C679.32 139.263 678.061 139.79 678.075 140.64C678.061 141.548 679.32 142.046 681.488 142.046C683.642 142.046 684.916 141.548 684.916 140.64C684.916 139.79 683.642 139.263 681.488 139.263ZM687.421 143.804V144.741H675.556V143.804H687.421ZM685.897 145.869V148.784H678.163V150.132H686.293V151.04H677.021V147.935H684.77V146.748H676.991V145.869H685.897ZM702.919 138.164V143.54H705.102V144.492H702.919V151.187H701.776V138.164H702.919ZM700.517 140.259V141.211H692.768V140.259H696.122V138.325H697.265V140.259H700.517ZM696.708 142.295C698.554 142.295 699.887 143.525 699.901 145.283C699.887 147.041 698.554 148.271 696.708 148.271C694.848 148.271 693.5 147.041 693.515 145.283C693.5 143.525 694.848 142.295 696.708 142.295ZM696.708 143.262C695.492 143.262 694.599 144.111 694.613 145.283C694.599 146.47 695.492 147.305 696.708 147.29C697.909 147.305 698.788 146.47 698.803 145.283C698.788 144.111 697.909 143.262 696.708 143.262ZM716.571 138.164V151.187H715.414V138.164H716.571ZM712.719 139.585C712.704 143.335 710.961 146.646 706.596 148.74L705.966 147.803C709.489 146.133 711.283 143.635 711.547 140.522H706.566V139.585H712.719ZM727.382 138.809C729.33 138.794 730.722 139.863 730.722 141.46C730.722 143.042 729.33 144.141 727.382 144.126C725.434 144.141 724.042 143.042 724.042 141.46C724.042 139.863 725.434 138.794 727.382 138.809ZM727.382 139.746C726.078 139.731 725.155 140.449 725.17 141.46C725.155 142.485 726.078 143.188 727.382 143.174C728.7 143.188 729.623 142.485 729.623 141.46C729.623 140.449 728.7 139.731 727.382 139.746ZM733.827 138.179V151.201H732.699V138.179H733.827ZM723.061 145.239C725.507 145.239 728.847 145.195 731.747 144.771L731.82 145.635C730.575 145.862 729.279 146.001 728.026 146.074V150.791H726.884V146.147C725.558 146.206 724.306 146.213 723.222 146.221L723.061 145.239ZM742.558 140.42V141.357H736.024V140.42H738.734V138.56H739.877V140.42H742.558ZM739.291 142.236C740.932 142.236 742.104 143.467 742.118 145.195C742.104 146.938 740.932 148.184 739.291 148.184C737.665 148.184 736.493 146.938 736.493 145.195C736.493 143.467 737.665 142.236 739.291 142.236ZM739.291 143.203C738.266 143.218 737.519 144.053 737.519 145.195C737.519 146.353 738.266 147.188 739.291 147.173C740.331 147.188 741.093 146.353 741.093 145.195C741.093 144.053 740.331 143.218 739.291 143.203ZM747.143 138.164V151.187H746.044V144.609H744.315V150.542H743.231V138.486H744.315V143.657H746.044V138.164H747.143ZM753.603 141.665C753.603 144.023 755.111 146.396 757.001 147.261L756.312 148.198C754.833 147.437 753.61 145.876 753.031 144.023C752.453 145.972 751.229 147.642 749.75 148.433L749.003 147.51C750.907 146.572 752.431 144.067 752.431 141.665V139.292H753.603V141.665ZM759.813 138.164V151.216H758.671V143.555H755.58V142.617H758.671V138.164H759.813ZM777.055 138.179V147.729H775.912V138.179H777.055ZM777.465 149.941V150.908H768.646V146.851H769.789V149.941H777.465ZM770.917 140.215C770.902 142.192 772.265 143.979 774.198 144.683L773.598 145.605C772.089 145.027 770.917 143.855 770.346 142.354C769.767 143.95 768.581 145.232 767.064 145.84L766.435 144.946C768.412 144.185 769.745 142.266 769.745 140.215V138.911H770.917V140.215ZM783.705 140.962C783.705 142.588 785.111 144.038 787.03 144.609L786.474 145.503C784.965 145.056 783.756 144.067 783.178 142.778C782.606 144.207 781.42 145.327 779.867 145.84L779.311 144.961C781.229 144.316 782.577 142.734 782.577 140.962V140.684H779.633V139.761H782.577V138.105H783.734V139.761H786.649V140.684H783.705V140.962ZM790.062 138.164V146.06H788.905V142.852H786.239V141.899H788.905V138.164H790.062ZM785.741 146.411C788.451 146.411 790.106 147.261 790.106 148.784C790.106 150.293 788.451 151.157 785.741 151.157C783.031 151.157 781.376 150.293 781.376 148.784C781.376 147.261 783.031 146.411 785.741 146.411ZM785.741 147.305C783.749 147.319 782.504 147.861 782.519 148.784C782.504 149.692 783.749 150.249 785.741 150.249C787.748 150.249 788.964 149.692 788.964 148.784C788.964 147.861 787.748 147.319 785.741 147.305ZM802.309 138.164V143.54H804.491V144.492H802.309V151.187H801.166V138.164H802.309ZM799.906 140.259V141.211H792.157V140.259H795.512V138.325H796.654V140.259H799.906ZM796.098 142.295C797.943 142.295 799.276 143.525 799.291 145.283C799.276 147.041 797.943 148.271 796.098 148.271C794.237 148.271 792.89 147.041 792.904 145.283C792.89 143.525 794.237 142.295 796.098 142.295ZM796.098 143.262C794.882 143.262 793.988 144.111 794.003 145.283C793.988 146.47 794.882 147.305 796.098 147.29C797.299 147.305 798.178 146.47 798.192 145.283C798.178 144.111 797.299 143.262 796.098 143.262ZM815.727 142.119V143.042H806.806V138.647H807.948V142.119H815.727ZM817.104 144.814V145.752H805.18V144.814H817.104ZM815.8 149.912V150.864H806.732V147.085H807.875V149.912H815.8ZM829.276 139.307V145.342H823.168V139.307H829.276ZM824.296 140.259V144.419H828.148V140.259H824.296ZM833.231 138.179V147.539H832.089V138.179H833.231ZM833.642 149.795V150.747H824.823V146.631H825.966V149.795H833.642ZM846.181 138.179V148.066H845.023V146.719H842.328V145.884H845.023V138.179H846.181ZM846.503 149.941V150.908H837.245V147.1H838.402V149.941H846.503ZM835.37 144.214C837.802 144.199 841.054 144.185 843.852 143.833L843.925 144.668C842.76 144.851 841.544 144.968 840.351 145.034V147.612H839.193V145.093C837.875 145.151 836.623 145.159 835.531 145.151L835.37 144.214ZM839.647 138.706C841.552 138.706 842.855 139.614 842.87 140.977C842.855 142.368 841.552 143.232 839.647 143.232C837.729 143.232 836.425 142.368 836.425 140.977C836.425 139.614 837.729 138.706 839.647 138.706ZM839.647 139.585C838.373 139.57 837.509 140.142 837.523 140.977C837.509 141.826 838.373 142.383 839.647 142.383C840.878 142.383 841.757 141.826 841.771 140.977C841.757 140.142 840.878 139.57 839.647 139.585ZM852.772 141.665C852.772 143.965 854.296 146.323 856.142 147.231L855.438 148.154C854.003 147.4 852.802 145.862 852.23 144.053C851.645 145.979 850.414 147.62 848.949 148.403L848.217 147.48C850.121 146.543 851.63 144.038 851.645 141.665V139.292H852.772V141.665ZM858.485 138.164V143.452H860.668V144.448H858.485V151.187H857.343V138.164H858.485ZM873.28 145.737V146.689H867.846V151.187H866.718V146.689H861.356V145.737H873.28ZM871.728 138.896V143.965H862.895V138.896H871.728ZM864.022 139.834V143.057H870.585V139.834H864.022ZM885.087 138.164V145.151H883.944V138.164H885.087ZM877.792 145.811V147.393H883.944V145.811H885.087V151.011H876.649V145.811H877.792ZM877.792 150.073H883.944V148.315H877.792V150.073ZM878.056 138.809C880.033 138.794 881.469 140.01 881.469 141.797C881.469 143.569 880.033 144.785 878.056 144.785C876.078 144.785 874.643 143.569 874.643 141.797C874.643 140.01 876.078 138.794 878.056 138.809ZM878.056 139.775C876.723 139.761 875.756 140.61 875.771 141.797C875.756 142.983 876.723 143.833 878.056 143.833C879.374 143.833 880.341 142.983 880.341 141.797C880.341 140.61 879.374 139.761 878.056 139.775ZM898.036 138.164V151.187H896.894V138.164H898.036ZM889.276 139.453V146.836C891.261 146.829 893.319 146.667 895.502 146.206L895.663 147.188C893.349 147.671 891.283 147.832 889.203 147.832H888.148V139.453H889.276ZM910.341 138.164V143.32H912.523V144.287H910.341V151.216H909.198V138.164H910.341ZM906.913 139.438V140.391H901.977V146.982C904.335 146.982 906.005 146.873 907.938 146.514L908.085 147.51C906.049 147.876 904.335 147.949 901.859 147.949H900.834V139.438H906.913ZM914.853 150.088C914.34 150.088 913.9 149.663 913.915 149.136C913.9 148.623 914.34 148.198 914.853 148.198C915.365 148.198 915.79 148.623 915.79 149.136C915.79 149.663 915.365 150.088 914.853 150.088Z" fill="#494D50"/>
<path d="M1100.5 114C1100.5 110.962 1102.96 108.5 1106 108.5H1170C1173.04 108.5 1175.5 110.962 1175.5 114V142C1175.5 145.038 1173.04 147.5 1170 147.5H1106C1102.96 147.5 1100.5 145.038 1100.5 142V114Z" fill="#F0F5FE"/>
<path d="M1100.5 114C1100.5 110.962 1102.96 108.5 1106 108.5H1170C1173.04 108.5 1175.5 110.962 1175.5 114V142C1175.5 145.038 1173.04 147.5 1170 147.5H1106C1102.96 147.5 1100.5 145.038 1100.5 142V114Z" stroke="#256EF4"/>
<path d="M1114.28 122.221V124.096H1118.08V122.221H1119.22V127.89H1113.16V122.221H1114.28ZM1114.28 126.952H1118.08V124.989H1114.28V126.952ZM1122.78 121.664V124.491H1124.74V125.458H1122.78V128.402H1121.64V121.664H1122.78ZM1122.78 129.018V132.167H1115.63V133.603H1123.26V134.54H1114.5V131.288H1121.64V129.94H1114.47V129.018H1122.78ZM1128.26 129.12V130.849H1134.78V129.12H1135.92V134.511H1127.12V129.12H1128.26ZM1128.26 133.573H1134.78V131.757H1128.26V133.573ZM1135.92 122.265V123.217C1135.92 124.213 1135.92 125.37 1135.57 126.996H1137.49V127.948H1125.56V126.996H1134.44C1134.78 125.377 1134.78 124.213 1134.78 123.217H1127.07V122.265H1135.92ZM1148.61 121.664V127.04H1150.79V127.992H1148.61V134.687H1147.46V121.664H1148.61ZM1146.2 123.759V124.711H1138.45V123.759H1141.81V121.825H1142.95V123.759H1146.2ZM1142.39 125.795C1144.24 125.795 1145.57 127.025 1145.59 128.783C1145.57 130.541 1144.24 131.771 1142.39 131.771C1140.53 131.771 1139.19 130.541 1139.2 128.783C1139.19 127.025 1140.53 125.795 1142.39 125.795ZM1142.39 126.762C1141.18 126.762 1140.29 127.611 1140.3 128.783C1140.29 129.97 1141.18 130.805 1142.39 130.79C1143.6 130.805 1144.47 129.97 1144.49 128.783C1144.47 127.611 1143.6 126.762 1142.39 126.762ZM1162.26 121.664V134.687H1161.1V121.664H1162.26ZM1158.41 123.085C1158.39 126.835 1156.65 130.146 1152.28 132.24L1151.65 131.303C1155.18 129.633 1156.97 127.135 1157.23 124.022H1152.25V123.085H1158.41Z" fill="#0B50D0"/>
<rect x="408" y="192" width="792" height="96" rx="12" fill="white"/>
<rect x="432" y="223.5" width="6" height="6" rx="2" fill="#256EF4"/>
<path d="M452.735 222.424C452.717 225.003 454.09 227.972 456.873 229.252L455.556 231.107C453.672 230.245 452.327 228.519 451.585 226.487C450.824 228.723 449.442 230.616 447.484 231.534L446.111 229.66C448.932 228.343 450.342 225.207 450.36 222.424V221.385H446.779V219.455H456.131V221.385H452.735V222.424ZM459.823 217.822V224.261H462.31V226.246H459.823V234.707H457.448V217.822H459.823ZM478.359 225.801V227.656H462.922V225.801H469.49V224.354H464.796V218.564H476.504V220.401H467.152V222.498H476.597V224.354H471.81V225.801H478.359ZM470.604 228.51C474.259 228.51 476.467 229.623 476.485 231.627C476.467 233.594 474.259 234.726 470.604 234.726C466.911 234.726 464.685 233.594 464.685 231.627C464.685 229.623 466.911 228.51 470.604 228.51ZM470.604 230.31C468.266 230.31 467.078 230.755 467.097 231.627C467.078 232.518 468.266 232.926 470.604 232.926C472.886 232.926 474.092 232.518 474.11 231.627C474.092 230.755 472.886 230.31 470.604 230.31ZM485.447 223.11C485.447 225.504 486.69 228.231 489.381 229.493L488.063 231.274C486.264 230.467 485.011 228.872 484.297 226.988C483.573 229.02 482.237 230.736 480.326 231.571L479.027 229.734C481.773 228.528 483.091 225.652 483.109 223.11V222.461H479.621V220.568H483.091V218.193H485.466V220.568H488.898V222.461H485.447V223.11ZM492.665 217.822V224.372H495.151V226.357H492.665V234.707H490.29V217.822H492.665ZM516.675 225.541V227.471H501.237V225.541H516.675ZM514.912 222.479V224.354H503.111V218.268H514.819V220.179H505.468V222.479H514.912ZM508.919 228.491C512.574 228.491 514.782 229.604 514.801 231.59C514.782 233.594 512.574 234.707 508.919 234.707C505.227 234.707 503 233.594 503 231.59C503 229.604 505.227 228.491 508.919 228.491ZM508.919 230.291C506.581 230.291 505.394 230.736 505.412 231.59C505.394 232.48 506.581 232.907 508.919 232.907C511.201 232.907 512.407 232.48 512.426 231.59C512.407 230.736 511.201 230.291 508.919 230.291ZM533.096 226.877V228.77H517.64V226.877H524.189V225.652H519.569V221.014H528.847V219.975H519.532V218.138H531.222V222.721H521.926V223.834H531.537V225.652H526.546V226.877H533.096ZM531.314 229.734V234.633H528.921V231.59H519.365V229.734H531.314ZM553.858 217.841V230.588H551.483V229.252H548.255V227.638H551.483V217.841H553.858ZM554.229 232.518V234.41H541.649V229.363H544.006V227.118C542.494 227.183 541.056 227.192 539.775 227.192L539.497 225.318C542.596 225.3 546.771 225.263 550.333 224.817L550.463 226.506C549.127 226.729 547.745 226.886 546.381 226.988V230.198H544.006V232.518H554.229ZM544.989 218.416C547.438 218.397 549.201 219.641 549.201 221.44C549.201 223.24 547.438 224.409 544.989 224.409C542.484 224.409 540.74 223.24 540.74 221.44C540.74 219.641 542.466 218.397 544.989 218.416ZM544.989 220.142C543.783 220.142 542.967 220.605 542.985 221.44C542.967 222.257 543.783 222.702 544.989 222.702C546.121 222.702 546.938 222.257 546.956 221.44C546.938 220.605 546.121 220.142 544.989 220.142ZM571.411 227.563V229.419H564.806V234.707H562.468V229.419H555.955V227.563H571.411ZM560.111 218.472V220.42H567.199V218.472H569.574V225.931H557.773V218.472H560.111ZM560.111 224.038H567.199V222.275H560.111V224.038ZM580.726 218.583V220.587H584.177V218.583H586.552V225.949H578.369V218.583H580.726ZM580.726 224.094H584.177V222.368H580.726V224.094ZM591.265 217.822V221.106H593.547V223.018H591.265V226.413H588.89V217.822H591.265ZM591.265 227.044V231.627H582.414V232.722H591.747V234.596H580.095V229.938H588.908V228.881H580.058V227.044H591.265ZM598.464 227.434V229.233H605.496V227.434H607.834V234.521H596.145V227.434H598.464ZM598.464 232.61H605.496V231.033H598.464V232.61ZM607.908 218.509V219.863C607.908 221.144 607.908 222.517 607.519 224.428H609.745V226.32H594.289V224.428H605.162C605.496 222.795 605.542 221.524 605.552 220.401H596.182V218.509H607.908ZM620.896 218.305C622.26 218.305 623.448 218.769 624.255 219.548H628.059V217.822H630.415V226.283H628.059V224.817H624.273C623.476 225.625 622.279 226.098 620.896 226.098C618.317 226.098 616.388 224.483 616.406 222.183C616.388 219.9 618.317 218.305 620.896 218.305ZM620.896 220.216C619.579 220.216 618.633 220.958 618.651 222.183C618.633 223.444 619.579 224.187 620.896 224.187C622.177 224.187 623.104 223.444 623.104 222.183C623.104 220.958 622.177 220.216 620.896 220.216ZM630.415 227.007V231.571H621.564V232.666H630.916V234.521H619.189V229.827H628.059V228.825H619.171V227.007H630.415ZM625.275 221.385C625.322 221.635 625.35 221.904 625.35 222.183C625.35 222.461 625.322 222.73 625.275 222.98H628.059V221.385H625.275ZM646.001 217.841V221.83H648.283V223.797H646.001V227.86H643.626V217.841H646.001ZM646.001 228.565V234.521H634.942V228.565H646.001ZM637.262 230.421V232.629H643.682V230.421H637.262ZM640.954 218.657V223.797H635.573V225.318C638.366 225.3 640.258 225.207 642.401 224.836L642.661 226.691C640.23 227.174 638.06 227.248 634.646 227.248H633.217V222.016H638.653V220.55H633.198V218.657H640.954ZM668.638 217.841V230.161H666.263V217.841H668.638ZM669.083 232.518V234.41H657.319V228.974H659.713V232.518H669.083ZM660.975 220.401C660.956 222.628 662.144 224.817 664.927 225.708L663.721 227.563C661.819 226.933 660.501 225.671 659.75 224.057C658.999 225.792 657.644 227.183 655.668 227.86L654.443 225.986C657.282 225.04 658.507 222.684 658.507 220.401V218.769H660.975V220.401ZM680.55 219.585V221.44H677.136C677.154 223.175 678.435 224.938 681.144 225.634L680.049 227.452C678.128 226.97 676.774 225.903 676.004 224.521C675.271 226.098 673.917 227.332 671.922 227.897L670.809 226.061C673.518 225.291 674.761 223.361 674.779 221.44H671.384V219.585H674.779V217.748H677.173V219.585H680.55ZM685.151 217.822V228.027H682.795V224.242H680.049V222.35H682.795V217.822H685.151ZM679.381 228.306C682.98 228.324 685.188 229.456 685.207 231.479C685.188 233.52 682.98 234.707 679.381 234.707C675.8 234.707 673.573 233.52 673.573 231.479C673.573 229.456 675.8 228.324 679.381 228.306ZM679.381 230.124C677.136 230.124 675.93 230.569 675.93 231.479C675.93 232.406 677.136 232.907 679.381 232.907C681.663 232.907 682.851 232.406 682.851 231.479C682.851 230.569 681.663 230.124 679.381 230.124Z" fill="#1E2124"/>
<path d="M450.937 254.163C450.922 256.258 452.431 258.558 454.32 259.451L453.661 260.359C452.196 259.649 450.958 258.096 450.38 256.331C449.779 258.25 448.468 259.935 447.011 260.682L446.308 259.773C448.183 258.865 449.794 256.39 449.809 254.163V252.464H446.776V251.512H453.866V252.464H450.937V254.163ZM456.605 250.164V255.438H458.788V256.419H456.605V263.187H455.463V250.164H456.605ZM471.371 256.609V257.532H459.491V256.609H464.867V255.086H461V250.779H469.892V251.702H462.128V254.148H469.979V255.086H465.98V256.609H471.371ZM465.424 258.484C468.222 258.484 469.892 259.334 469.906 260.828C469.892 262.337 468.222 263.172 465.424 263.187C462.611 263.172 460.927 262.337 460.927 260.828C460.927 259.334 462.611 258.484 465.424 258.484ZM465.424 259.393C463.329 259.393 462.084 259.935 462.099 260.828C462.084 261.736 463.329 262.264 465.424 262.264C467.489 262.264 468.749 261.736 468.749 260.828C468.749 259.935 467.489 259.393 465.424 259.393ZM476.791 254.412C476.791 256.492 478.153 258.631 480.043 259.539L479.369 260.433C477.934 259.729 476.798 258.309 476.264 256.624C475.692 258.433 474.484 259.949 472.997 260.667L472.338 259.773C474.242 258.88 475.663 256.653 475.678 254.412V253.372H472.689V252.435H475.663V250.413H476.82V252.435H479.75V253.372H476.791V254.412ZM482.533 250.164V255.511H484.716V256.492H482.533V263.187H481.391V250.164H482.533ZM496.962 251.175V251.863C496.947 252.713 496.947 254.017 496.625 255.716L495.468 255.628C495.783 254.068 495.812 252.962 495.834 252.142H490.473V251.175H496.962ZM493.607 254.061V256.858C495.05 256.8 496.544 256.697 497.899 256.507L497.973 257.356C495.248 257.825 492.099 257.884 489.784 257.884L489.667 256.932C490.509 256.924 491.461 256.917 492.465 256.888V254.061H493.607ZM499.95 250.164V254.412H501.854V255.394H499.95V259.964H498.778V250.164H499.95ZM500.375 261.941V262.908H491.674V259.085H492.831V261.941H500.375ZM508.886 251.102V254.896H504.403V257.049C506.784 257.049 508.087 256.983 509.677 256.712L509.794 257.664C508.095 257.957 506.732 258.001 504.184 258.001H503.246V253.987H507.714V252.039H503.217V251.102H508.886ZM513.5 250.179V259.759H512.343V256.243H509.765V255.291H512.343V253.313H509.765V252.376H512.343V250.179H513.5ZM513.896 261.883V262.835H505.033V259.056H506.19V261.883H513.896ZM526.786 251.307V257.342H520.678V251.307H526.786ZM521.806 252.259V256.419H525.658V252.259H521.806ZM530.741 250.179V259.539H529.599V250.179H530.741ZM531.151 261.795V262.747H522.333V258.631H523.476V261.795H531.151ZM543.69 250.179V260.066H542.533V258.719H539.838V257.884H542.533V250.179H543.69ZM544.013 261.941V262.908H534.755V259.1H535.912V261.941H544.013ZM532.88 256.214C535.312 256.199 538.563 256.185 541.361 255.833L541.435 256.668C540.27 256.851 539.054 256.968 537.86 257.034V259.612H536.703V257.093C535.385 257.151 534.132 257.159 533.041 257.151L532.88 256.214ZM537.157 250.706C539.062 250.706 540.365 251.614 540.38 252.977C540.365 254.368 539.062 255.232 537.157 255.232C535.238 255.232 533.935 254.368 533.935 252.977C533.935 251.614 535.238 250.706 537.157 250.706ZM537.157 251.585C535.883 251.57 535.019 252.142 535.033 252.977C535.019 253.826 535.883 254.383 537.157 254.383C538.388 254.383 539.267 253.826 539.281 252.977C539.267 252.142 538.388 251.57 537.157 251.585ZM556.713 250.164V263.216H555.556V256.36H552.699V255.408H555.556V250.164H556.713ZM550.414 254.412C550.414 256.565 551.879 258.675 553.812 259.539L553.153 260.433C551.674 259.751 550.443 258.331 549.872 256.609C549.301 258.426 548.085 259.949 546.605 260.667L545.946 259.773C547.851 258.88 549.286 256.653 549.286 254.412V253.372H546.298V252.435H549.286V250.413H550.429V252.435H553.373V253.372H550.414V254.412ZM569.633 250.164V263.216H568.49V250.164H569.633ZM565.678 251.38V256.009H560.814V259.085C562.975 259.085 564.901 258.99 567.23 258.616L567.348 259.583C564.945 259.964 562.968 260.052 560.727 260.052H559.643V255.071H564.521V252.332H559.613V251.38H565.678ZM583.754 256.214V257.122H571.83V256.214H583.754ZM582.26 258.162V260.931H574.438V262.176H582.685V263.011H573.28V260.14H581.117V259.026H573.266V258.162H582.26ZM582.216 250.56V253.255H574.525V254.397H582.45V255.232H573.383V252.464H581.059V251.395H573.339V250.56H582.216ZM600.995 257.107V258.06H589.13V257.107H594.491V255.745C591.994 255.621 590.448 254.676 590.448 253.138C590.448 251.541 592.235 250.56 595.062 250.56C597.86 250.56 599.662 251.541 599.662 253.138C599.662 254.676 598.102 255.621 595.634 255.745V257.107H600.995ZM599.677 261.941V262.908H590.668V259.114H591.825V261.941H599.677ZM595.062 251.497C592.968 251.497 591.62 252.142 591.635 253.138C591.62 254.192 592.968 254.808 595.062 254.808C597.143 254.808 598.49 254.192 598.49 253.138C598.49 252.142 597.143 251.497 595.062 251.497ZM612.172 250.164V255.35H614.354V256.316H612.172V263.216H611.029V250.164H612.172ZM608.524 251.38V256.038H603.778V259.085C606.195 259.085 607.88 259.004 609.857 258.631L609.975 259.583C607.924 259.964 606.181 260.052 603.676 260.066H602.636V255.086H607.382V252.332H602.606V251.38H608.524ZM625.81 250.179V259.7H624.667V250.179H625.81ZM626.22 261.941V262.908H617.401V258.733H618.544V261.941H626.22ZM618.778 251.087C620.727 251.087 622.191 252.405 622.191 254.28C622.191 256.185 620.727 257.488 618.778 257.488C616.83 257.488 615.365 256.185 615.365 254.28C615.365 252.405 616.83 251.087 618.778 251.087ZM618.778 252.098C617.46 252.098 616.479 253.006 616.493 254.28C616.479 255.584 617.46 256.478 618.778 256.478C620.067 256.478 621.063 255.584 621.063 254.28C621.063 253.006 620.067 252.098 618.778 252.098ZM639.184 250.164V263.187H638.07V250.164H639.184ZM636.562 250.442V262.527H635.463V256.199H633.793C633.668 258.733 632.592 260.315 630.98 260.315C629.281 260.315 628.183 258.558 628.183 255.789C628.183 253.021 629.281 251.263 630.98 251.263C632.562 251.263 633.632 252.793 633.778 255.247H635.463V250.442H636.562ZM630.98 252.347C629.926 252.347 629.252 253.665 629.267 255.789C629.252 257.898 629.926 259.231 630.98 259.217C632.035 259.231 632.709 257.898 632.709 255.789C632.709 253.665 632.035 252.347 630.98 252.347ZM645.57 253.665C645.57 256.023 647.079 258.396 648.969 259.261L648.28 260.198C646.801 259.437 645.578 257.876 644.999 256.023C644.42 257.972 643.197 259.642 641.718 260.433L640.971 259.51C642.875 258.572 644.398 256.067 644.398 253.665V251.292H645.57V253.665ZM651.781 250.164V263.216H650.639V255.555H647.548V254.617H650.639V250.164H651.781ZM668.451 250.179V254.471H670.414V255.438H668.451V259.935H667.309V250.179H668.451ZM666.063 251.775V252.713H658.3V251.775H661.61V250.179H662.753V251.775H666.063ZM662.182 253.431C664.042 253.431 665.302 254.383 665.316 255.862C665.302 257.327 664.042 258.265 662.182 258.265C660.307 258.265 659.032 257.327 659.047 255.862C659.032 254.383 660.307 253.431 662.182 253.431ZM662.182 254.339C660.951 254.339 660.131 254.939 660.146 255.862C660.131 256.785 660.951 257.371 662.182 257.356C663.397 257.371 664.218 256.785 664.232 255.862C664.218 254.939 663.397 254.339 662.182 254.339ZM669.052 261.941V262.908H660.307V259.158H661.435V261.941H669.052ZM686.352 250.179V259.817H685.194V254.808H682.118V257.591H676.215V251.043H677.357V253.357H680.99V251.043H682.118V253.841H685.194V250.179H686.352ZM686.645 261.941V262.908H677.929V258.865H679.086V261.941H686.645ZM677.357 256.639H680.99V254.266H677.357V256.639ZM699.682 250.164V263.187H698.568V250.164H699.682ZM697.06 250.442V262.527H695.961V256.199H694.291C694.167 258.733 693.09 260.315 691.479 260.315C689.779 260.315 688.681 258.558 688.681 255.789C688.681 253.021 689.779 251.263 691.479 251.263C693.061 251.263 694.13 252.793 694.276 255.247H695.961V250.442H697.06ZM691.479 252.347C690.424 252.347 689.75 253.665 689.765 255.789C689.75 257.898 690.424 259.231 691.479 259.217C692.533 259.231 693.207 257.898 693.207 255.789C693.207 253.665 692.533 252.347 691.479 252.347ZM709.027 258.279V259.7H715.341V258.279H716.469V263.011H707.885V258.279H709.027ZM709.027 262.073H715.341V260.608H709.027V262.073ZM716.469 250.179V257.649H715.326V250.179H716.469ZM705.819 255.877C708.295 255.877 711.562 255.877 714.433 255.511L714.506 256.331C713.327 256.529 712.111 256.646 710.917 256.712V258.675H709.774V256.771C708.405 256.829 707.108 256.829 705.98 256.829L705.819 255.877ZM710.8 251.146C710.8 252.479 712.133 253.577 714.008 253.987L713.51 254.866C711.986 254.522 710.792 253.724 710.229 252.625C709.672 253.797 708.478 254.668 706.933 255.071L706.405 254.163C708.295 253.724 709.613 252.537 709.628 251.146V250.486H710.8V251.146ZM729.213 251.482V252.786C729.198 254.383 729.198 256.17 728.729 258.792L727.558 258.66C728.056 256.17 728.056 254.339 728.056 252.786V252.435H720.028V251.482H729.213ZM730.634 260.389V261.341H718.769V260.389H723.427V255.73H724.555V260.389H730.634ZM746.234 250.164V254.134H748.197V255.101H746.234V259.7H745.077V250.164H746.234ZM742.719 251.175C742.719 254.529 740.316 257.02 736.566 258.191L736.068 257.269C739.188 256.294 741.225 254.434 741.474 252.142H736.61V251.175H742.719ZM746.835 261.941V262.908H738.075V258.733H739.218V261.941H746.835ZM759.813 250.164V259.861H758.656V256.082H756.43V255.115H758.656V253.606H756.43V252.654H758.656V250.164H759.813ZM756.327 251.233V252.171H754.994V256.727C755.602 256.69 756.188 256.646 756.752 256.58L756.811 257.444C754.276 257.84 751.303 257.884 749.193 257.884L749.047 256.902L750.731 256.888V252.171H749.413V251.233H756.327ZM760.165 261.941V262.908H751.42V259.056H752.577V261.941H760.165ZM751.845 256.858C752.511 256.851 753.2 256.829 753.881 256.8V252.171H751.845V256.858ZM772.06 250.164V255.54H774.242V256.492H772.06V263.187H770.917V250.164H772.06ZM769.657 252.259V253.211H761.908V252.259H765.263V250.325H766.405V252.259H769.657ZM765.849 254.295C767.694 254.295 769.027 255.525 769.042 257.283C769.027 259.041 767.694 260.271 765.849 260.271C763.988 260.271 762.641 259.041 762.655 257.283C762.641 255.525 763.988 254.295 765.849 254.295ZM765.849 255.262C764.633 255.262 763.739 256.111 763.754 257.283C763.739 258.47 764.633 259.305 765.849 259.29C767.05 259.305 767.929 258.47 767.943 257.283C767.929 256.111 767.05 255.262 765.849 255.262ZM786.093 250.164V263.187H784.994V250.164H786.093ZM783.354 250.516V262.527H782.255V256.448H779.501C778.703 257.964 777.45 259.305 775.634 260.374L774.96 259.539C777.794 257.862 779.215 255.511 779.428 252.786H775.517V251.834H780.57C780.563 253.116 780.358 254.354 779.926 255.511H782.255V250.516H783.354ZM803.026 250.164V263.216H801.869V256.36H799.013V255.408H801.869V250.164H803.026ZM796.728 254.412C796.728 256.565 798.192 258.675 800.126 259.539L799.467 260.433C797.987 259.751 796.757 258.331 796.186 256.609C795.614 258.426 794.398 259.949 792.919 260.667L792.26 259.773C794.164 258.88 795.6 256.653 795.6 254.412V253.372H792.611V252.435H795.6V250.413H796.742V252.435H799.687V253.372H796.728V254.412ZM815.946 250.164V263.216H814.804V250.164H815.946ZM811.991 251.38V256.009H807.128V259.085C809.289 259.085 811.215 258.99 813.544 258.616L813.661 259.583C811.259 259.964 809.281 260.052 807.04 260.052H805.956V255.071H810.834V252.332H805.927V251.38H811.991ZM828.236 250.164V255.54H830.419V256.492H828.236V263.187H827.094V250.164H828.236ZM825.834 252.259V253.211H818.085V252.259H821.439V250.325H822.582V252.259H825.834ZM822.025 254.295C823.871 254.295 825.204 255.525 825.219 257.283C825.204 259.041 823.871 260.271 822.025 260.271C820.165 260.271 818.817 259.041 818.832 257.283C818.817 255.525 820.165 254.295 822.025 254.295ZM822.025 255.262C820.81 255.262 819.916 256.111 819.931 257.283C819.916 258.47 820.81 259.305 822.025 259.29C823.227 259.305 824.105 258.47 824.12 257.283C824.105 256.111 823.227 255.262 822.025 255.262ZM841.859 250.164V256.917H840.731V250.164H841.859ZM841.874 257.576V260.696H834.564V262.103H842.343V263.04H833.437V259.803H840.731V258.499H833.407V257.576H841.874ZM835.736 251.541C835.722 253.387 837.128 255.013 839.062 255.643L838.49 256.536C836.967 256.016 835.751 254.925 835.165 253.519C834.579 255.035 833.356 256.229 831.811 256.785L831.21 255.877C833.173 255.188 834.564 253.46 834.564 251.541V250.545H835.736V251.541ZM854.94 251.38C854.94 253.211 857.343 254.808 859.687 255.13L859.218 256.067C857.196 255.73 855.197 254.61 854.354 253.006C853.52 254.617 851.513 255.73 849.491 256.067L849.022 255.13C851.366 254.808 853.754 253.24 853.754 251.38V250.633H854.94V251.38ZM860.272 257.503V258.47H854.882V263.187H853.754V258.47H848.407V257.503H860.272ZM870.102 258.909C870.102 260.059 870.717 261.282 871.962 261.985C873.192 261.216 873.852 259.92 873.852 258.909V258.191H874.979V258.909C874.979 260.242 875.961 261.59 877.631 262.161L877.06 263.011C875.756 262.549 874.84 261.641 874.394 260.55C873.991 261.604 873.192 262.601 871.991 263.113C870.724 262.63 869.918 261.67 869.53 260.579C869.069 261.634 868.168 262.542 866.923 263.011L866.337 262.161C867.978 261.546 868.974 260.154 868.988 258.909V258.191H870.102V258.909ZM876.444 250.179V257.62H875.302V250.179H876.444ZM869.413 250.94C871.391 250.94 872.826 252.171 872.826 253.987C872.826 255.774 871.391 257.005 869.413 257.005C867.436 257.005 866 255.774 866 253.987C866 252.171 867.436 250.94 869.413 250.94ZM869.413 251.922C868.08 251.907 867.113 252.771 867.128 253.987C867.113 255.188 868.08 256.038 869.413 256.053C870.731 256.038 871.698 255.188 871.698 253.987C871.698 252.771 870.731 251.907 869.413 251.922ZM881.308 257.986V259.51H887.812V257.986H888.969V263.011H880.165V257.986H881.308ZM881.308 262.088H887.812V260.418H881.308V262.088ZM890.521 256.111V257.063H878.656V256.111H890.521ZM885.189 250.926C885.189 252.537 887.562 253.973 889.848 254.266L889.423 255.188C887.401 254.888 885.424 253.855 884.604 252.391C883.769 253.863 881.776 254.888 879.77 255.188L879.33 254.266C881.645 253.958 884.003 252.581 884.003 250.926V250.311H885.189V250.926ZM902.357 250.164V263.187H901.215V250.164H902.357ZM893.598 251.453V258.836C895.583 258.829 897.641 258.667 899.823 258.206L899.984 259.188C897.67 259.671 895.604 259.832 893.524 259.832H892.47V251.453H893.598ZM914.662 250.164V255.32H916.845V256.287H914.662V263.216H913.52V250.164H914.662ZM911.234 251.438V252.391H906.298V258.982C908.656 258.982 910.326 258.873 912.26 258.514L912.406 259.51C910.37 259.876 908.656 259.949 906.181 259.949H905.155V251.438H911.234ZM919.174 262.088C918.661 262.088 918.222 261.663 918.236 261.136C918.222 260.623 918.661 260.198 919.174 260.198C919.687 260.198 920.111 260.623 920.111 261.136C920.111 261.663 919.687 262.088 919.174 262.088Z" fill="#494D50"/>
<path d="M1100.5 226C1100.5 222.962 1102.96 220.5 1106 220.5H1170C1173.04 220.5 1175.5 222.962 1175.5 226V254C1175.5 257.038 1173.04 259.5 1170 259.5H1106C1102.96 259.5 1100.5 257.038 1100.5 254V226Z" fill="#F0F5FE"/>
<path d="M1100.5 226C1100.5 222.962 1102.96 220.5 1106 220.5H1170C1173.04 220.5 1175.5 222.962 1175.5 226V254C1175.5 257.038 1173.04 259.5 1170 259.5H1106C1102.96 259.5 1100.5 257.038 1100.5 254V226Z" stroke="#256EF4"/>
<path d="M1114.28 234.221V236.096H1118.08V234.221H1119.22V239.89H1113.16V234.221H1114.28ZM1114.28 238.952H1118.08V236.989H1114.28V238.952ZM1122.78 233.664V236.491H1124.74V237.458H1122.78V240.402H1121.64V233.664H1122.78ZM1122.78 241.018V244.167H1115.63V245.603H1123.26V246.54H1114.5V243.288H1121.64V241.94H1114.47V241.018H1122.78ZM1128.26 241.12V242.849H1134.78V241.12H1135.92V246.511H1127.12V241.12H1128.26ZM1128.26 245.573H1134.78V243.757H1128.26V245.573ZM1135.92 234.265V235.217C1135.92 236.213 1135.92 237.37 1135.57 238.996H1137.49V239.948H1125.56V238.996H1134.44C1134.78 237.377 1134.78 236.213 1134.78 235.217H1127.07V234.265H1135.92ZM1148.61 233.664V239.04H1150.79V239.992H1148.61V246.687H1147.46V233.664H1148.61ZM1146.2 235.759V236.711H1138.45V235.759H1141.81V233.825H1142.95V235.759H1146.2ZM1142.39 237.795C1144.24 237.795 1145.57 239.025 1145.59 240.783C1145.57 242.541 1144.24 243.771 1142.39 243.771C1140.53 243.771 1139.19 242.541 1139.2 240.783C1139.19 239.025 1140.53 237.795 1142.39 237.795ZM1142.39 238.762C1141.18 238.762 1140.29 239.611 1140.3 240.783C1140.29 241.97 1141.18 242.805 1142.39 242.79C1143.6 242.805 1144.47 241.97 1144.49 240.783C1144.47 239.611 1143.6 238.762 1142.39 238.762ZM1162.26 233.664V246.687H1161.1V233.664H1162.26ZM1158.41 235.085C1158.39 238.835 1156.65 242.146 1152.28 244.24L1151.65 243.303C1155.18 241.633 1156.97 239.135 1157.23 236.022H1152.25V235.085H1158.41Z" fill="#0B50D0"/>
</svg>
