<svg width="32" height="32" viewBox="0 0 32 32" fill="none" xmlns="http://www.w3.org/2000/svg">
<path d="M27.3335 21.1037C23.9981 29.0079 13.1523 31.3112 6.9354 25.1522C0.839475 19.1129 2.72673 8.17174 10.7422 4.66663" stroke="#1A80E5" stroke-width="2" stroke-linecap="round"/>
<path d="M23.5777 16.6666C26.0945 16.6666 27.353 16.6666 28.1657 15.54C28.196 15.4979 28.2465 15.4223 28.2738 15.3781C29.0037 14.1961 28.6276 13.288 27.8752 11.4717C27.193 9.82469 26.1931 8.32819 24.9325 7.06762C23.672 5.80706 22.1755 4.80713 20.5284 4.12492C18.7122 3.37259 17.804 2.99643 16.622 3.72634C16.5778 3.75361 16.5023 3.8041 16.4602 3.83447C15.3335 4.64718 15.3335 5.90561 15.3335 8.42246V11.2366C15.3335 13.7964 15.3335 15.0762 16.1287 15.8714C16.9239 16.6666 18.2038 16.6666 20.7635 16.6666H23.5777Z" fill="#1A80E5" fill-opacity="0.2" stroke="#1A80E5" stroke-width="2"/>
</svg>
