<svg width="16" height="16" viewBox="0 0 16 16" fill="none" xmlns="http://www.w3.org/2000/svg">
<path id="Vector" fill-rule="evenodd" clip-rule="evenodd" d="M1.33211 7.08358C1.33211 3.90794 3.90648 1.33358 7.08211 1.33358C10.2577 1.33358 12.8321 3.90794 12.8321 7.08358C12.8321 8.59452 12.2493 9.96935 11.2963 10.9955C11.2333 11.0269 11.1742 11.0688 11.1217 11.1213C11.0691 11.1739 11.0272 11.233 10.9958 11.2961C9.96945 12.2501 8.59391 12.8336 7.08211 12.8336C3.90648 12.8336 1.33211 10.2592 1.33211 7.08358ZM11.5983 12.5407C10.3724 13.5564 8.79853 14.1669 7.08211 14.1669C3.1701 14.1669 -0.0012207 10.9956 -0.0012207 7.08358C-0.0012207 3.17156 3.1701 0.000244141 7.08211 0.000244141C10.9941 0.000244141 14.1654 3.17156 14.1654 7.08358C14.1654 8.79904 13.5556 10.3721 12.5409 11.5977L15.3052 14.362C15.5655 14.6223 15.5655 15.0444 15.3052 15.3048C15.0448 15.5651 14.6227 15.5651 14.3624 15.3048L11.5983 12.5407Z" fill="#256EF4"/>
</svg>
