<svg width="32" height="32" viewBox="0 0 32 32" fill="none" xmlns="http://www.w3.org/2000/svg">
<g opacity="0.2">
<path d="M12 27V15L29 14.5V27H12Z" fill="#1A80E5"/>
<path d="M29.3333 14.6667C29.3333 18.5466 12 18.5466 12 14.6667C12 13.1939 15.8802 12 20.6667 12C25.4531 12 29.3333 13.1939 29.3333 14.6667Z" fill="#1A80E5"/>
<path d="M29.3333 26.6667C29.3333 28.1394 25.4531 29.3333 20.6667 29.3333C15.8802 29.3333 12 28.1394 12 26.6667C12 25.1939 15.8802 24 20.6667 24C25.4531 24 29.3333 25.1939 29.3333 26.6667Z" fill="#1A80E5"/>
</g>
<path d="M29.3333 14.6667C29.3333 16.1394 25.4531 17.3333 20.6667 17.3333C15.8802 17.3333 12 16.1394 12 14.6667C12 13.1939 15.8802 12 20.6667 12C25.4531 12 29.3333 13.1939 29.3333 14.6667Z" stroke="#1A80E5" stroke-width="2"/>
<path d="M29.3333 20.6667C29.3333 22.1395 25.4531 23.3334 20.6667 23.3334C15.8802 23.3334 12 22.1395 12 20.6667" stroke="#1A80E5" stroke-width="2"/>
<path d="M29.3333 14V25.7333C29.3333 27.3534 25.4531 28.6667 20.6667 28.6667C15.8802 28.6667 12 27.3534 12 25.7333V14" stroke="#1A80E5" stroke-width="2"/>
<ellipse cx="11.3346" cy="5.33341" rx="8.66667" ry="2.66667" stroke="#1A80E5" stroke-width="2"/>
<path d="M8.0013 14.6667C5.47888 14.3597 3.16119 13.5661 2.66797 12M8.0013 21.3333C5.47888 21.0264 3.16119 20.2327 2.66797 18.6667" stroke="#1A80E5" stroke-width="2" stroke-linecap="round"/>
<path d="M8.0013 28.0002C5.47888 27.6932 3.16119 26.8995 2.66797 25.3335L2.66797 5.3335" stroke="#1A80E5" stroke-width="2" stroke-linecap="round"/>
<path d="M20 8.00016V5.3335" stroke="#1A80E5" stroke-width="2" stroke-linecap="round"/>
</svg>
