<svg width="32" height="32" viewBox="0 0 32 32" fill="none" xmlns="http://www.w3.org/2000/svg">
<path d="M23.3332 18.0005V20.0005C23.3332 24.4002 23.3332 26.6001 21.9663 27.967C20.5995 29.3338 18.3996 29.3338 13.9998 29.3338C9.60006 29.3338 7.40017 29.3338 6.03334 27.967C4.6665 26.6001 4.6665 24.4002 4.6665 20.0005V12.0005C4.6665 7.60068 4.6665 5.40079 6.03334 4.03396C7.17518 2.89211 8.89839 2.70416 11.9998 2.67322" stroke="#1A80E5" stroke-width="2" stroke-linecap="round"/>
<path d="M21.3319 2.49994C19.4322 2.49994 18.2005 3.87808 16.7438 4.31963C16.1515 4.49916 15.8553 4.58893 15.7355 4.71548C15.6156 4.84202 15.5805 5.02694 15.5103 5.39677C14.7592 9.35428 16.4009 13.0131 20.3164 14.4372C20.737 14.5902 20.9474 14.6667 21.3339 14.6667C21.7205 14.6667 21.9308 14.5902 22.3515 14.4372C26.2667 13.0131 27.9069 9.35427 27.1555 5.39676C27.0853 5.02687 27.0502 4.84192 26.9303 4.71538C26.8104 4.58883 26.5143 4.49912 25.922 4.31968C24.4647 3.87817 23.2316 2.49994 21.3319 2.49994Z" fill="#1A80E5" fill-opacity="0.2" stroke="#1A80E5" stroke-width="2" stroke-linecap="round" stroke-linejoin="round"/>
<path d="M12.6665 25.3334H15.3332" stroke="#1A80E5" stroke-width="2" stroke-linecap="round" stroke-linejoin="round"/>
</svg>
