<svg width="32" height="32" viewBox="0 0 32 32" fill="none" xmlns="http://www.w3.org/2000/svg">
<path d="M16.6947 4H15.3587C14.6082 4.01115 13.8609 4.04111 13.1267 4.08982C7.53816 4.46064 3.08656 8.96718 2.72027 14.6248C2.64858 15.7319 2.64858 16.8785 2.72027 17.9856C2.85367 20.0462 3.76663 21.954 4.84142 23.565C5.46548 24.6928 5.05363 26.1005 4.40362 27.33C3.93494 28.2166 3.7006 28.6598 3.88875 28.9801C4.07691 29.3003 4.4972 29.3105 5.33778 29.3309C7.00011 29.3713 8.12106 28.9009 9.01084 28.246C9.51549 27.8745 9.76781 27.6888 9.94172 27.6674C10.1156 27.6461 10.4579 27.7868 11.1422 28.0681C11.7573 28.321 12.4715 28.4771 13.1267 28.5205C15.0295 28.6468 17.0201 28.6471 18.9267 28.5205C22.2935 28.2972 25.273 26.5728 27.1887 24" stroke="#1A80E5" stroke-width="2" stroke-linecap="round" stroke-linejoin="round"/>
<path d="M19.7811 14.8967C18.6807 15.5562 15.7956 16.9029 17.5528 18.588C18.4112 19.4112 19.3673 19.9999 20.5692 19.9999H27.4279C28.6298 19.9999 29.5859 19.4112 30.4442 18.588C32.2015 16.9029 29.3164 15.5562 28.216 14.8967C25.6356 13.3501 22.3615 13.3501 19.7811 14.8967Z" fill="#1A80E5" fill-opacity="0.2"/>
<path d="M27.4985 6.57889C27.4985 8.55548 25.9315 10.1578 23.9985 10.1578C22.0655 10.1578 20.4985 8.55548 20.4985 6.57889C20.4985 4.60229 22.0655 2.99994 23.9985 2.99994C25.9315 2.99994 27.4985 4.60229 27.4985 6.57889Z" fill="#1A80E5" fill-opacity="0.2"/>
<path d="M19.7811 14.8967C18.6807 15.5562 15.7956 16.9029 17.5528 18.588C18.4112 19.4112 19.3673 19.9999 20.5692 19.9999H27.4279C28.6298 19.9999 29.5859 19.4112 30.4442 18.588C32.2015 16.9029 29.3164 15.5562 28.216 14.8967C25.6356 13.3501 22.3615 13.3501 19.7811 14.8967Z" stroke="#1A80E5" stroke-width="2"/>
<path d="M27.4985 6.57889C27.4985 8.55548 25.9315 10.1578 23.9985 10.1578C22.0655 10.1578 20.4985 8.55548 20.4985 6.57889C20.4985 4.60229 22.0655 2.99994 23.9985 2.99994C25.9315 2.99994 27.4985 4.60229 27.4985 6.57889Z" stroke="#1A80E5" stroke-width="2"/>
</svg>
